<svg width="36" height="36" viewBox="0 0 36 36" fill="none" xmlns="http://www.w3.org/2000/svg">
<g clip-path="url(#clip0_576_17358)">
<mask id="path-1-inside-1_576_17358" fill="white">
<path d="M0 18C0 8.05887 8.05887 0 18 0V0C27.9411 0 36 8.05887 36 18V18C36 27.9411 27.9411 36 18 36V36C8.05887 36 0 27.9411 0 18V18Z"/>
</mask>
<path d="M30.0234 0H5.97656C2.6758 0 0 2.74002 0 6.12V29.8224C0 33.2024 2.6758 35.9424 5.97656 35.9424H30.0234C33.3242 35.9424 36 33.2024 36 29.8224V6.12C36 2.74002 33.3242 0 30.0234 0Z" fill="white"/>
<path d="M14.21 6.34324C15.5614 5.40766 17.3026 5.19975 18.9139 5.40766C20.2913 5.58958 21.7207 6.18731 22.4743 7.43475C22.9161 8.16243 22.8901 9.04603 22.8642 9.87766C22.7862 10.5014 22.5003 11.0471 22.0065 11.437C21.5128 11.8528 20.941 12.1646 20.3433 12.3206C21.4608 12.5545 22.6303 13.1522 23.176 14.2177C23.5398 14.9194 23.4099 15.7251 23.4359 16.4527C23.4359 17.5702 22.7862 18.5838 21.9286 19.2335C20.7851 20.0911 19.3037 20.403 17.8744 20.403C16.575 20.403 15.2495 20.1691 14.158 19.4414C13.0405 18.6877 12.3648 17.4923 12.2869 16.1669C13.4044 16.1669 14.5219 16.1669 15.6394 16.1669C15.7173 16.8166 16.1072 17.3883 16.7049 17.6482C17.3806 17.9081 18.1083 17.9341 18.784 17.7002C19.3557 17.4923 19.7715 16.9725 19.8495 16.3748C19.9275 15.6471 19.9534 14.7375 19.3037 14.2437C18.4201 13.568 17.2507 13.7239 16.1851 13.698C16.1332 12.8923 16.1591 12.0867 16.1591 11.307C16.9908 11.2551 17.9264 11.437 18.706 10.9952C19.1218 10.7613 19.3817 10.2935 19.3817 9.7997C19.3817 9.33191 19.4337 8.81214 19.1218 8.39632C18.784 7.95452 18.1602 7.82458 17.6405 7.85057C17.0427 7.82458 16.497 8.08446 16.1591 8.57824C15.9772 8.86412 15.8733 9.17598 15.8473 9.51383C14.7298 9.51383 13.6123 9.51383 12.4948 9.51383C12.4948 8.21441 13.1445 7.04493 14.21 6.34324Z" fill="#0638BD"/>
<path d="M10 23.2089C10.5717 23.2349 11.1435 23.157 11.7152 23.2349C12.1051 24.6903 12.4429 26.1456 12.8067 27.575C13.1966 26.1196 13.5864 24.6643 13.9762 23.2089C14.522 23.2089 15.0937 23.2089 15.6395 23.2089C15.6395 25.0281 15.6395 26.8473 15.6395 28.6665H14.3401C14.3401 27.497 14.3661 26.3275 14.3141 25.1581C14.0282 26.3275 13.7163 27.497 13.4045 28.6665C12.9887 28.6665 12.5469 28.6665 12.131 28.6665C11.7932 27.471 11.5073 26.2496 11.1695 25.0281C11.1435 26.2496 11.1695 27.445 11.1695 28.6665H10C10 26.8473 10 25.0281 10 23.2089Z" fill="#0638BD"/>
<path d="M17.9004 23.209H19.7196C20.2913 25.0282 20.8111 26.8474 21.3828 28.6666H19.9794C19.8755 28.2767 19.7715 27.8609 19.6416 27.4711C19.0958 27.4711 18.5501 27.4711 18.0043 27.4711C17.9004 27.8609 17.7964 28.2507 17.6925 28.6666C17.2507 28.6666 16.7829 28.6666 16.3411 28.6666C16.8348 26.8474 17.3806 25.0282 17.9004 23.209ZM18.2382 26.4835C18.6021 26.4575 18.9919 26.4575 19.3557 26.4835C19.1738 25.7039 18.9919 24.8982 18.784 24.1186C18.6021 24.8982 18.4201 25.7039 18.2382 26.4835Z" fill="#0638BD"/>
<path d="M21.9287 23.2096C22.4225 23.2096 22.9163 23.2096 23.4101 23.2096C23.7479 23.7813 24.0338 24.3791 24.3457 24.9508C24.6835 24.3791 24.9694 23.7553 25.3072 23.1836C25.775 23.2096 26.2428 23.1836 26.7106 23.1836C26.2168 23.9892 25.6971 24.7949 25.2033 25.5745C25.1513 25.6785 25.2553 25.7564 25.2813 25.8604C25.827 26.796 26.3468 27.7056 26.8925 28.6412C26.3728 28.6412 25.879 28.6412 25.3592 28.6412C24.9954 27.9655 24.6835 27.2638 24.2937 26.6141C23.9558 27.2898 23.592 27.9655 23.2542 28.6412C22.7604 28.6671 22.2406 28.6412 21.7468 28.6412C22.2926 27.7576 22.8124 26.848 23.3581 25.9644C23.4101 25.8864 23.514 25.7564 23.4101 25.6525C22.9163 24.8728 22.4225 24.0412 21.9287 23.2096Z" fill="#0638BD"/>
<path d="M18.2383 26.4841C18.4202 25.7044 18.6021 24.9248 18.784 24.1191C18.9919 24.8988 19.1739 25.6784 19.3558 26.4841C18.9919 26.4581 18.6281 26.4581 18.2383 26.4841Z" fill="white"/>
</g>
<path d="M18 34C9.16344 34 2 26.8366 2 18H-2C-2 29.0457 6.95431 38 18 38V34ZM34 18C34 26.8366 26.8366 34 18 34V38C29.0457 38 38 29.0457 38 18H34ZM18 2C26.8366 2 34 9.16344 34 18H38C38 6.95431 29.0457 -2 18 -2V2ZM18 -2C6.95431 -2 -2 6.95431 -2 18H2C2 9.16344 9.16344 2 18 2V-2Z" fill="#E1E1E1" mask="url(#path-1-inside-1_576_17358)"/>
<defs>
<clipPath id="clip0_576_17358">
<path d="M0 18C0 8.05887 8.05887 0 18 0V0C27.9411 0 36 8.05887 36 18V18C36 27.9411 27.9411 36 18 36V36C8.05887 36 0 27.9411 0 18V18Z" fill="white"/>
</clipPath>
</defs>
</svg>
