<svg width="21" height="26" viewBox="0 0 21 26" fill="none" xmlns="http://www.w3.org/2000/svg">
<path d="M10.8887 26C12.3554 26 13.5554 24.8 13.5554 23.3333H8.22207C8.22207 24.0406 8.50303 24.7189 9.00312 25.219C9.50322 25.719 10.1815 26 10.8887 26ZM18.8887 18V11.3333C18.8887 7.24 16.7021 3.81333 12.8887 2.90667V2C12.8887 0.893333 11.9954 0 10.8887 0C9.78207 0 8.88874 0.893333 8.88874 2V2.90667C5.06207 3.81333 2.88874 7.22667 2.88874 11.3333V18L1.16874 19.72C0.32874 20.56 0.915407 22 2.10207 22H19.6621C20.8487 22 21.4487 20.56 20.6087 19.72L18.8887 18Z" fill="#A3A3A7"/>
</svg>
