<svg width="145" height="168" viewBox="0 0 145 168" fill="none" xmlns="http://www.w3.org/2000/svg">
<path d="M115.913 87.2803H29.1523C29.6702 101.032 35.2426 116.504 43.6455 125.437C52.1459 134.263 63.9765 139.943 77.1318 139.943C88.4658 139.943 98.4002 137.211 105.079 131.747C109.823 127.286 111.651 126.275 116.166 116.355H143.7C143.551 120.444 142.596 125.49 140.65 130.649C136.246 142.326 131.923 147.69 120.43 156.412C109.298 163.977 93.0201 167.998 76.2217 167.998C55.173 167.998 37.2609 160.328 22.4863 144.987C7.93565 129.672 0.826405 107.278 0.614258 83.5176L0.595703 83.5146C0.250955 76.28 0 58.418 0 58.418H115.913V87.2803ZM116.215 29.2393L145 29.2402V58.2451H115.913V29.2402H29.167V0.000976562L116.215 0V29.2393Z" fill="white"/>
<rect x="0.0927734" y="29.1855" width="29.299" height="29.312" fill="white"/>
</svg>
