<svg width="149" height="42" viewBox="0 0 149 42" fill="none" xmlns="http://www.w3.org/2000/svg">
<path d="M16.8955 22.8895H4.46116C4.50334 24.2817 4.96739 25.4312 5.85329 26.3382C6.7392 27.2241 7.86767 27.6671 9.23871 27.6671C10.4199 27.6671 11.3586 27.3929 12.0546 26.8445C12.7718 26.2749 13.394 25.4629 13.9213 24.4082L16.4209 25.8953C15.6615 27.4351 14.6912 28.5846 13.51 29.344C12.3499 30.1033 10.8945 30.483 9.14379 30.483C6.95013 30.483 5.0834 29.7131 3.54361 28.1733C2.00383 26.6124 1.23394 24.6192 1.23394 22.1935C1.23394 19.7678 2.00383 17.785 3.54361 16.2453C5.10449 14.6844 7.02395 13.9039 9.30199 13.9039C11.5589 13.9039 13.3835 14.6422 14.7756 16.1187C16.1888 17.5741 16.8955 19.4514 16.8955 21.7505V22.8895ZM9.23871 16.4984C8.0786 16.4984 7.06614 16.8675 6.20133 17.6057C5.33652 18.344 4.75646 19.2826 4.46116 20.4217H13.8264C13.6999 19.1983 13.1831 18.2385 12.2761 17.5425C11.3902 16.8464 10.3777 16.4984 9.23871 16.4984Z" fill="#0638BD"/>
<path d="M27.3982 10.8378V7.67383H33.7261V10.8378H28.1892V14.0017H27.3982V17.1657H32.9351V20.3296H25.8162V23.4935H25.0252V26.6575H24.2342V29.8214H21.0703V26.6575H21.8613V23.4935H22.6523V20.3296H20.2793V17.1657H24.2342V14.0017H25.0252V10.8378H27.3982ZM32.9298 13.1377V10.8378H36.0937V13.1377H32.9298Z" fill="#0638BD"/>
<path d="M38.0028 28.5389C38.0028 28.2834 38.0241 27.9641 38.0667 27.5809C38.1306 27.1978 38.2264 26.6869 38.3541 26.0483C38.5031 25.4097 38.7053 24.5795 38.9608 23.5577C39.2162 22.5146 39.5355 21.2161 39.9187 19.6622C40.3018 18.0869 40.7702 16.1817 41.3236 13.9466C41.7068 12.3926 41.9409 11.2431 42.0261 10.4981C42.1325 9.75304 42.0793 9.2528 41.8664 8.99735C41.6536 8.74191 41.2598 8.5929 40.685 8.55032L40.238 8.51839L40.4296 7.49662C41.8132 7.49662 42.9308 7.46468 43.7823 7.40082C44.655 7.33696 45.5172 7.16667 46.3686 6.88993L46.656 7.17731C46.4857 7.92236 46.3048 8.70998 46.1132 9.54017C45.9216 10.3491 45.73 11.1261 45.5385 11.8711C45.3682 12.6161 45.2191 13.2867 45.0914 13.8827C44.538 16.1817 44.0696 18.1295 43.6865 19.726C43.3033 21.3013 42.984 22.5891 42.7286 23.5896C42.4944 24.5901 42.3028 25.3777 42.1538 25.9525C42.0261 26.5272 41.9303 26.9636 41.8664 27.2616C41.8239 27.5384 41.8026 27.7512 41.8026 27.9002C41.8026 28.3473 41.9622 28.5708 42.2815 28.5708C42.6221 28.5708 43.0053 28.2941 43.431 27.7406C43.8568 27.1658 44.2612 26.3889 44.6444 25.4097L45.6662 25.7928C45.2404 26.8998 44.7615 27.847 44.2293 28.6347C43.7184 29.401 43.1437 29.9864 42.505 30.3908C41.8877 30.7953 41.1853 30.9975 40.3976 30.9975C39.6739 30.9975 39.0885 30.7846 38.6415 30.3589C38.2157 29.9119 38.0028 29.3052 38.0028 28.5389Z" fill="#0638BD"/>
<path d="M65.0927 22.8895H52.6584C52.7006 24.2817 53.1647 25.4312 54.0506 26.3382C54.9365 27.2241 56.0649 27.6671 57.436 27.6671C58.6172 27.6671 59.5558 27.3929 60.2519 26.8445C60.969 26.2749 61.5913 25.4629 62.1186 24.4082L64.6181 25.8953C63.8588 27.4351 62.8885 28.5846 61.7073 29.344C60.5472 30.1033 59.0918 30.483 57.3411 30.483C55.1474 30.483 53.2807 29.7131 51.7409 28.1733C50.2011 26.6124 49.4312 24.6192 49.4312 22.1935C49.4312 19.7678 50.2011 17.785 51.7409 16.2453C53.3018 14.6844 55.2212 13.9039 57.4993 13.9039C59.7562 13.9039 61.5807 14.6422 62.9729 16.1187C64.3861 17.5741 65.0927 19.4514 65.0927 21.7505V22.8895ZM57.436 16.4984C56.2759 16.4984 55.2634 16.8675 54.3986 17.6057C53.5338 18.344 52.9537 19.2826 52.6584 20.4217H62.0237C61.8971 19.1983 61.3804 18.2385 60.4734 17.5425C59.5875 16.8464 58.575 16.4984 57.436 16.4984Z" fill="#0638BD"/>
<path d="M92.4472 25.4525C92.2982 26.1976 92.2876 26.7617 92.4153 27.1449C92.5643 27.5067 92.8623 27.6877 93.3093 27.6877C93.8628 27.6877 94.3737 27.4003 94.842 26.8256C95.3103 26.2508 95.7254 25.4738 96.0873 24.4946L97.1091 24.8778C96.6408 26.0912 96.1192 27.081 95.5445 27.8473C94.991 28.6137 94.3737 29.1778 93.6925 29.5397C93.0326 29.9015 92.3089 30.0825 91.5212 30.0825C90.7123 30.0825 90.0524 29.8802 89.5415 29.4758C89.0519 29.0713 88.7326 28.5179 88.5836 27.8154C88.4559 27.0916 88.4878 26.2508 88.6794 25.2929L90.7549 15.5221H88.0408L88.2963 14.3726C89.2329 14.3088 90.0205 14.1917 90.6591 14.0214C91.2977 13.8511 91.8512 13.585 92.3195 13.2231C92.7878 12.8613 93.2136 12.3823 93.5967 11.7863C94.0012 11.1689 94.4056 10.3813 94.8101 9.4234L95.7999 9.55112L94.8739 14.0853H98.6737L98.3544 15.5221H94.5227L92.4472 25.4525Z" fill="#0638BD"/>
<path d="M103.33 30V14.3068H106.557V30H103.33ZM103.108 11.8073V8.1688H106.778V11.8073H103.108Z" fill="#0638BD"/>
<path d="M138.567 15.107C137.864 15.107 137.194 15.3944 136.555 15.9692C135.938 16.5439 135.395 17.3102 134.926 18.2682C134.479 19.2048 134.118 20.2159 133.841 21.3016C133.585 22.3872 133.458 23.4303 133.458 24.4308C133.458 25.4738 133.617 26.2508 133.937 26.7617C134.256 27.2726 134.692 27.528 135.246 27.528C135.799 27.528 136.331 27.3258 136.842 26.9213C137.353 26.4956 137.832 25.9315 138.279 25.229C138.747 24.5266 139.152 23.7709 139.493 22.962C139.833 22.1318 140.099 21.3122 140.291 20.5033C140.504 19.6731 140.61 18.9174 140.61 18.2362C140.61 17.3635 140.45 16.6291 140.131 16.033C139.833 15.4157 139.312 15.107 138.567 15.107ZM143.707 27.6877C144.027 27.6877 144.378 27.4109 144.761 26.8575C145.166 26.2827 145.559 25.4951 145.942 24.4946L146.996 24.8778C146.57 25.9847 146.102 26.932 145.591 27.7196C145.08 28.4859 144.516 29.0713 143.899 29.4758C143.303 29.8802 142.643 30.0825 141.919 30.0825C141.195 30.0825 140.653 29.8909 140.291 29.5077C139.929 29.1033 139.748 28.5924 139.748 27.9751C139.748 27.4216 139.886 26.6765 140.163 25.7399C140.44 24.8033 140.802 23.7176 141.249 22.483L140.738 22.3233C140.014 24.3456 139.248 25.9209 138.439 27.0491C137.63 28.1773 136.821 28.9649 136.012 29.4119C135.224 29.859 134.437 30.0825 133.649 30.0825C132.734 30.0825 131.957 29.8483 131.318 29.38C130.701 28.9117 130.233 28.2837 129.913 27.4961C129.594 26.7085 129.434 25.8251 129.434 24.8459C129.434 23.4409 129.679 22.0785 130.169 20.7587C130.68 19.4177 131.34 18.2149 132.148 17.1506C132.979 16.065 133.905 15.2028 134.926 14.5642C135.97 13.9043 137.023 13.5744 138.088 13.5744C138.939 13.5744 139.62 13.7979 140.131 14.2449C140.663 14.6707 141.057 15.2454 141.313 15.9692C141.568 16.6929 141.685 17.4912 141.664 18.364L141.313 18.7791L142.366 14.1172C142.664 14.1598 142.984 14.1811 143.324 14.1811C143.665 14.1598 143.995 14.1065 144.314 14.0214C144.633 13.9363 144.91 13.8085 145.144 13.6382H146.07L143.388 26.0912C143.26 26.6446 143.218 27.0491 143.26 27.3045C143.324 27.56 143.473 27.6877 143.707 27.6877Z" fill="#0638BD"/>
<path fill-rule="evenodd" clip-rule="evenodd" d="M124.915 17.0424V13.916H116.213V17.08H124.121V19.3335H127.284V17.0424H124.915ZM113.84 26.5718H121.743V24.2807H124.905V26.5719H122.541V29.7357H113.049V26.5718H110.676V23.4078H111.467V20.2439H112.258V17.08H115.422V20.2439H114.631V23.4078H113.84V26.5718Z" fill="#0638BD"/>
<path fill-rule="evenodd" clip-rule="evenodd" d="M82.8115 17.0429V13.916H74.1092V17.08H82.0177V19.334H85.1804V17.0429H82.8115ZM71.7362 26.5718H79.6398V24.2812H82.8024V26.5724H80.437V29.7357H70.9452V26.5718H68.5723V23.4078H69.3633V20.2439H70.1542V17.08H73.3182V20.2439H72.5272V23.4078H71.7362V26.5718Z" fill="#0638BD"/>
</svg>
