<svg width="36" height="36" viewBox="0 0 36 36" fill="none" xmlns="http://www.w3.org/2000/svg">
<g clip-path="url(#clip0_631_7913)">
<path d="M18 36C27.9411 36 36 27.9411 36 18C36 8.05887 27.9411 0 18 0C8.05887 0 0 8.05887 0 18C0 27.9411 8.05887 36 18 36Z" fill="white"/>
<path fill-rule="evenodd" clip-rule="evenodd" d="M10.7022 17.7004C14.5387 16.0289 17.0969 14.927 18.3769 14.3946C22.0316 12.8744 22.7911 12.6104 23.286 12.6017C23.3949 12.5997 23.6383 12.6267 23.796 12.7547C23.9291 12.8627 23.9658 13.0086 23.9833 13.1111C24.0008 13.2135 24.0227 13.4468 24.0053 13.6291C23.8073 15.7101 22.9503 20.7599 22.5143 23.0906C22.3298 24.0768 21.9666 24.4075 21.6149 24.4398C20.8507 24.5102 20.2704 23.9348 19.5302 23.4496C18.3719 22.6903 17.7176 22.2177 16.5933 21.4768C15.294 20.6205 16.1363 20.1499 16.8767 19.3808C17.0705 19.1796 20.4378 16.1168 20.5029 15.839C20.5111 15.8042 20.5186 15.6747 20.4417 15.6063C20.3647 15.5379 20.2512 15.5613 20.1692 15.5799C20.0531 15.6063 18.2027 16.8293 14.6182 19.2489C14.093 19.6096 13.6173 19.7853 13.191 19.7761C12.7211 19.7659 11.8173 19.5104 11.1453 19.292C10.3212 19.0241 9.66615 18.8824 9.72319 18.4275C9.7529 18.1905 10.0792 17.9481 10.7022 17.7004Z" fill="#0638BD"/>
</g>
<rect x="1" y="1" width="34" height="34" rx="17" stroke="#E1E1E1" stroke-width="2"/>
<defs>
<clipPath id="clip0_631_7913">
<rect width="36" height="36" rx="18" fill="white"/>
</clipPath>
</defs>
</svg>
