<svg width="36" height="36" viewBox="0 0 36 36" fill="none" xmlns="http://www.w3.org/2000/svg">
<g clip-path="url(#clip0_576_17295)">
<mask id="path-1-inside-1_576_17295" fill="white">
<path d="M0 18C0 8.05887 8.05887 0 18 0V0C27.9411 0 36 8.05887 36 18V18C36 27.9411 27.9411 36 18 36V36C8.05887 36 0 27.9411 0 18V18Z"/>
</mask>
<path d="M30.0234 0H5.97656C2.6758 0 0 2.74002 0 6.12V29.8224C0 33.2024 2.6758 35.9424 5.97656 35.9424H30.0234C33.3242 35.9424 36 33.2024 36 29.8224V6.12C36 2.74002 33.3242 0 30.0234 0Z" fill="white"/>
<g clip-path="url(#clip1_576_17295)">
<path fill-rule="evenodd" clip-rule="evenodd" d="M35.9999 1.08C35.9999 0.483936 35.516 0 34.9199 0H1.08C0.483937 0 0 0.483936 0 1.08V34.9199C0 35.5159 0.483937 35.9999 1.08 35.9999H34.9199C35.516 35.9999 35.9999 35.5159 35.9999 34.9199V1.08Z" fill="white"/>
<mask id="mask0_576_17295" style="mask-type:luminance" maskUnits="userSpaceOnUse" x="0" y="0" width="36" height="36">
<path d="M35.9999 1.08C35.9999 0.483936 35.516 0 34.9199 0H1.08C0.483937 0 0 0.483936 0 1.08V34.9199C0 35.5159 0.483937 35.9999 1.08 35.9999H34.9199C35.516 35.9999 35.9999 35.5159 35.9999 34.9199V1.08Z" fill="white"/>
</mask>
<g mask="url(#mask0_576_17295)">
<path fill-rule="evenodd" clip-rule="evenodd" d="M7.83683 13.5474L-1.125 29.1567L-0.942095 -0.561926H15.9375L14.8908 1.26104L23.6483 16.4626L34.2176 -1.66602L35.4325 -0.957831L21.8926 22.2661H37.1688V23.6724H16.3942L23.4371 36.123L22.2131 36.8154L12.2926 19.2775L2.05743 36.8235L0.842716 36.1149L14.0072 13.5474H7.83683ZM13.5198 17.1735C13.2678 17.6056 13.2643 18.1391 13.5106 18.5744C13.9726 19.3912 14.7304 20.731 15.195 21.5522C15.4445 21.9934 15.9122 22.2661 16.419 22.2661C17.2742 22.2661 18.6062 22.2661 19.4569 22.2661C19.9572 22.2661 20.4197 22.0003 20.6717 21.5681C21.1506 20.7468 21.9411 19.3908 22.4215 18.5668C22.6754 18.1314 22.6768 17.5933 22.4251 17.1567C21.9631 16.3544 21.2133 15.0531 20.7517 14.2516C20.5006 13.8159 20.036 13.5474 19.5331 13.5474H16.4429C15.9427 13.5474 15.4802 13.8131 15.2282 14.2451C14.7583 15.0507 13.9898 16.3679 13.5198 17.1735ZM14.0808 2.67197L8.6442 12.1411H19.5359L14.0808 2.67197Z" fill="#0638BD"/>
<path fill-rule="evenodd" clip-rule="evenodd" d="M7.83683 13.5474L-1.125 29.1567L-0.942095 -0.561926H15.9375L14.8908 1.26104L23.6483 16.4626L34.2176 -1.66602L35.4325 -0.957831L21.8926 22.2661H37.1688V23.6724H16.3942L23.4371 36.123L22.2131 36.8154L12.2926 19.2775L2.05743 36.8235L0.842716 36.1149L14.0072 13.5474H7.83683ZM14.66 13.1724H7.6197L-0.741283 27.7352L-0.569439 -0.186928H15.2898L14.4583 1.26132L23.6463 17.2106L34.3527 -1.15321L34.9196 -0.822738L21.2399 22.6411H36.7938V23.2974H15.7513L22.926 35.9812L22.3548 36.3044C20.9978 33.9053 12.619 19.0929 12.619 19.0929L12.2976 18.5247L1.92243 36.3106L1.35562 35.9799C2.96624 33.2188 14.3311 13.7363 14.3311 13.7363L14.66 13.1724ZM13.1959 16.9846C12.8767 17.5319 12.8722 18.2076 13.1842 18.7591C13.6461 19.5758 14.404 20.9156 14.8685 21.7369C15.1847 22.2956 15.777 22.6411 16.419 22.6411C17.2742 22.6411 18.6062 22.6411 19.4569 22.6411C20.0906 22.6411 20.6765 22.3045 20.9957 21.757C21.4745 20.9357 22.2651 19.5797 22.7455 18.7557C23.067 18.2041 23.0688 17.5227 22.7501 16.9694C22.288 16.1672 21.5383 14.8659 21.0766 14.0645C20.7586 13.5125 20.1702 13.1724 19.5331 13.1724H16.4429C15.8093 13.1724 15.2235 13.5089 14.9043 14.0561L13.1959 16.9846ZM13.5198 17.1735C13.2678 17.6056 13.2643 18.1391 13.5106 18.5744C13.9726 19.3912 14.7304 20.731 15.195 21.5522C15.4445 21.9934 15.9122 22.2661 16.419 22.2661C17.2742 22.2661 18.6062 22.2661 19.4569 22.2661C19.9572 22.2661 20.4197 22.0003 20.6717 21.5681C21.1506 20.7468 21.9411 19.3908 22.4215 18.5668C22.6754 18.1314 22.6768 17.5933 22.4251 17.1567C21.9631 16.3544 21.2133 15.0531 20.7517 14.2516C20.5006 13.8159 20.036 13.5474 19.5331 13.5474H16.4429C15.9427 13.5474 15.4802 13.8131 15.2282 14.2451C14.7583 15.0507 13.9898 16.3679 13.5198 17.1735ZM20.1846 12.5161L14.0802 1.91981L7.99648 12.5161H20.1846ZM14.0808 2.67197L8.6442 12.1411H19.5359L14.0808 2.67197Z" fill="black" fill-opacity="0.3"/>
<path fill-rule="evenodd" clip-rule="evenodd" d="M8.05395 13.9216H13.3543L0.329904 36.2491L2.19243 37.3356L12.2876 20.0295L22.0712 37.3257L23.9481 36.264L17.0372 24.0466H37.5438V21.8903H22.5453L35.9453 -1.0936L34.0825 -2.17969L23.6503 15.714L15.3234 1.25999L16.5852 -0.937692H-1.31484L-1.5 29.1536L-0.799783 29.3427L8.05395 13.9216ZM7.83683 13.5466L-1.125 29.1559L-0.942096 -0.562694H15.9375L14.8908 1.26027L23.6483 16.4619L34.2176 -1.66678L35.4325 -0.958599L21.8926 22.2653H37.1688V23.6716H16.3942L23.4371 36.1222L22.2131 36.8146L12.2926 19.2767L2.05743 36.8227L0.842716 36.1141L14.0072 13.5466H7.83683ZM13.5198 17.1728C13.2678 17.6049 13.2643 18.1383 13.5106 18.5737C13.9726 19.3904 14.7304 20.7303 15.195 21.5514C15.4445 21.9926 15.9122 22.2653 16.419 22.2653C17.2742 22.2653 18.6062 22.2653 19.4569 22.2653C19.9572 22.2653 20.4197 21.9996 20.6717 21.5674C21.1506 20.746 21.9411 19.39 22.4215 18.5661C22.6754 18.1306 22.6768 17.5926 22.4251 17.1559C21.9631 16.3537 21.2133 15.0523 20.7517 14.2509C20.5006 13.8151 20.036 13.5466 19.5332 13.5466H16.4429C15.9427 13.5466 15.4802 13.8123 15.2282 14.2443C14.7583 15.0499 13.9898 16.3672 13.5198 17.1728ZM13.8439 17.3618L15.5521 14.4332C15.7369 14.1164 16.0761 13.9216 16.4429 13.9216H19.5332C19.902 13.9216 20.2426 14.1186 20.4268 14.4381L22.1002 17.343C22.2848 17.6634 22.2838 18.0579 22.0976 18.3773C21.6172 19.2012 20.8266 20.5571 20.3478 21.3785C20.1631 21.6954 19.8238 21.8903 19.4569 21.8903H16.419C16.0472 21.8903 15.7044 21.6904 15.5214 21.3668L13.837 18.3891C13.6563 18.0698 13.659 17.6786 13.8439 17.3618ZM14.0808 2.6712L8.6442 12.1404H19.5359L14.0808 2.6712ZM14.0813 3.42345L18.887 11.7654H9.29192L14.0813 3.42345Z" fill="white" fill-opacity="0.3"/>
</g>
</g>
</g>
<path d="M18 34C9.16344 34 2 26.8366 2 18H-2C-2 29.0457 6.95431 38 18 38V34ZM34 18C34 26.8366 26.8366 34 18 34V38C29.0457 38 38 29.0457 38 18H34ZM18 2C26.8366 2 34 9.16344 34 18H38C38 6.95431 29.0457 -2 18 -2V2ZM18 -2C6.95431 -2 -2 6.95431 -2 18H2C2 9.16344 9.16344 2 18 2V-2Z" fill="#E1E1E1" mask="url(#path-1-inside-1_576_17295)"/>
<defs>
<clipPath id="clip0_576_17295">
<path d="M0 18C0 8.05887 8.05887 0 18 0V0C27.9411 0 36 8.05887 36 18V18C36 27.9411 27.9411 36 18 36V36C8.05887 36 0 27.9411 0 18V18Z" fill="white"/>
</clipPath>
<clipPath id="clip1_576_17295">
<rect width="36" height="36" fill="white"/>
</clipPath>
</defs>
</svg>
