<svg width="36" height="37" viewBox="0 0 36 37" fill="none" xmlns="http://www.w3.org/2000/svg">
<g clip-path="url(#clip0_592_12371)">
<mask id="path-1-inside-1_592_12371" fill="white">
<path d="M0 18.1221C0 8.18095 8.05888 0.12207 18 0.12207C27.9411 0.12207 36 8.18095 36 18.1221C36 28.0632 27.9411 36.1221 18 36.1221C8.05888 36.1221 0 28.0632 0 18.1221Z"/>
</mask>
<path d="M30.0234 0.12207H5.97656C2.6758 0.12207 0 2.86209 0 6.24207V29.9445C0 33.3245 2.6758 36.0645 5.97656 36.0645H30.0234C33.3242 36.0645 36 33.3245 36 29.9445V6.24207C36 2.86209 33.3242 0.12207 30.0234 0.12207Z" fill="white"/>
<path d="M15.6449 21.398H11.0101L10.0632 24.3384C10.0382 24.4505 9.93856 24.5253 9.82643 24.5128H7.48408C7.34702 24.5128 7.30965 24.438 7.34702 24.2885L11.3589 12.7886C11.3963 12.664 11.4337 12.5519 11.4835 12.4024C11.5334 12.1407 11.5583 11.8666 11.5583 11.5925C11.5458 11.5302 11.5957 11.4679 11.6579 11.4554H11.6953H14.8849C14.9721 11.4554 15.0344 11.4928 15.0469 11.5551L19.5945 24.2636C19.6319 24.4007 19.5945 24.463 19.4699 24.463H16.8659C16.7787 24.4754 16.6915 24.4131 16.6666 24.3259L15.6449 21.3357V21.398ZM11.7327 18.9186H14.8974C14.8226 18.6569 14.7229 18.3454 14.6108 18.0215C14.4987 17.6851 14.3865 17.3238 14.2744 16.95C14.1498 16.5638 14.0377 16.19 13.9131 15.8037C13.7885 15.4175 13.6764 15.0562 13.5767 14.6949C13.477 14.346 13.3898 14.0221 13.3026 13.723H13.2777C13.1655 14.2588 13.0285 14.7945 12.854 15.3303C12.6672 15.9283 12.4803 16.5513 12.2809 17.1743C12.1189 17.8097 11.9196 18.3953 11.7327 18.9186Z" fill="#0638BD"/>
<path d="M26.933 20.2764H22.9834C23.0332 20.6626 23.1578 21.0489 23.3696 21.3853C23.5939 21.7217 23.9054 21.9833 24.2792 22.1328C24.7775 22.3446 25.3258 22.4568 25.874 22.4443C26.31 22.4318 26.7461 22.3945 27.1697 22.3072C27.556 22.2574 27.9298 22.1577 28.2786 22.0207C28.3409 21.9708 28.3783 21.9958 28.3783 22.1204V24.0266C28.3783 24.0765 28.3658 24.1263 28.3534 24.1761C28.3285 24.2135 28.3035 24.2384 28.2662 24.2634C27.8675 24.4378 27.4563 24.5624 27.0202 24.6371C26.4346 24.7493 25.849 24.7991 25.251 24.7866C24.3041 24.7866 23.5067 24.6371 22.8588 24.3506C22.2483 24.0889 21.7126 23.6778 21.2889 23.1669C20.8902 22.681 20.6037 22.1328 20.4292 21.5348C20.2548 20.9492 20.1676 20.3387 20.1676 19.7157C20.1676 19.0429 20.2673 18.3826 20.4791 17.7347C20.6784 17.1117 20.9899 16.5386 21.4135 16.0278C21.8247 15.5294 22.3355 15.1307 22.9211 14.8441C23.5067 14.5576 24.2044 14.4579 25.0018 14.4579C25.6622 14.4454 26.3225 14.57 26.933 14.8441C27.4438 15.0684 27.8924 15.4048 28.2412 15.8409C28.5652 16.2645 28.8268 16.7379 28.9888 17.2612C29.1508 17.7596 29.2255 18.2704 29.2255 18.7813C29.2255 19.0803 29.2131 19.3419 29.2006 19.5787C29.1757 19.8154 29.1632 19.9898 29.1508 20.1019C29.1383 20.1892 29.0636 20.2639 28.9763 20.2639C28.9016 20.2639 28.7645 20.2764 28.5652 20.2888C28.3658 20.3138 28.1291 20.3262 27.8425 20.3262C27.556 20.3262 27.257 20.2764 26.933 20.2764ZM22.9834 18.4573H25.6123C25.9363 18.4573 26.173 18.4573 26.3225 18.4449C26.4222 18.4324 26.5219 18.4075 26.6091 18.3452V18.2206C26.6091 18.0586 26.5841 17.9091 26.5343 17.7596C26.31 17.0619 25.6497 16.5884 24.9146 16.6133C24.2293 16.576 23.5815 16.9373 23.2575 17.5602C23.108 17.8468 23.0208 18.1458 22.9834 18.4573Z" fill="#0638BD"/>
</g>
<path d="M18 34.1221C9.16344 34.1221 2 26.9586 2 18.1221H-2C-2 29.1678 6.95431 38.1221 18 38.1221V34.1221ZM34 18.1221C34 26.9586 26.8366 34.1221 18 34.1221V38.1221C29.0457 38.1221 38 29.1678 38 18.1221H34ZM18 2.12207C26.8366 2.12207 34 9.28551 34 18.1221H38C38 7.07638 29.0457 -1.87793 18 -1.87793V2.12207ZM18 -1.87793C6.95431 -1.87793 -2 7.07638 -2 18.1221H2C2 9.28551 9.16344 2.12207 18 2.12207V-1.87793Z" fill="#E1E1E1" mask="url(#path-1-inside-1_592_12371)"/>
<defs>
<clipPath id="clip0_592_12371">
<path d="M0 18.1221C0 8.18095 8.05888 0.12207 18 0.12207C27.9411 0.12207 36 8.18095 36 18.1221C36 28.0632 27.9411 36.1221 18 36.1221C8.05888 36.1221 0 28.0632 0 18.1221Z" fill="white"/>
</clipPath>
</defs>
</svg>
