<svg width="54" height="54" viewBox="0 0 54 54" fill="none" xmlns="http://www.w3.org/2000/svg">
<g clip-path="url(#clip0_808_39499)">
<mask id="path-1-inside-1_808_39499" fill="white">
<path d="M0 27C0 12.0883 12.0883 0 27 0C41.9117 0 54 12.0883 54 27C54 41.9117 41.9117 54 27 54C12.0883 54 0 41.9117 0 27Z"/>
</mask>
<path d="M45.0352 0H8.96484C4.0137 0 0 4.11003 0 9.18V44.7336C0 49.8036 4.0137 53.9136 8.96484 53.9136H45.0352C49.9863 53.9136 54 49.8036 54 44.7336V9.18C54 4.11003 49.9863 0 45.0352 0Z" fill="white"/>
<path d="M22.9185 31.2371H16.309L14.9571 35.4265C14.9237 35.5934 14.7735 35.6935 14.6232 35.6768H11.2183C11.0181 35.6768 10.968 35.5767 11.0181 35.3597L16.7763 18.9027C16.8264 18.7191 16.8765 18.5856 16.9599 18.3519C17.0267 17.9847 17.0601 17.5842 17.0601 17.2003C17.0434 17.1168 17.1101 17.0167 17.2103 17H17.2604H21.8503C22.0005 17 22.0673 17.0501 22.084 17.1502L28.5766 35.343C28.6267 35.5433 28.5766 35.6268 28.393 35.6268H24.671C24.5542 35.6435 24.4207 35.56 24.3873 35.4265L22.9185 31.187V31.2371ZM17.3438 27.682H21.867C21.7668 27.3148 21.6166 26.8642 21.4497 26.3968C21.2828 25.9128 21.1326 25.3954 20.9657 24.8613C20.7821 24.3105 20.6319 23.7764 20.4483 23.2256C20.2647 22.6748 20.1145 22.1574 19.9642 21.64C19.814 21.1393 19.6972 20.6719 19.5637 20.2547H19.5303C19.3634 21.0224 19.1798 21.7902 18.9294 22.558C18.6624 23.4092 18.3953 24.3105 18.1116 25.1951C17.8779 26.0964 17.6109 26.9309 17.3438 27.682Z" fill="#0638BD"/>
<path d="M30.596 35.4098V24.8113C30.596 24.4941 30.596 24.1103 30.5793 23.7264C30.5626 23.3091 30.5626 22.9419 30.5459 22.5914C30.5292 22.2409 30.5125 21.8904 30.4958 21.6901C30.4791 21.64 30.4791 21.5733 30.5292 21.5065C30.5793 21.4731 30.6293 21.4565 30.7128 21.4565H33.5836C33.6837 21.4565 33.7839 21.4731 33.8673 21.5065C33.9341 21.5399 33.9842 21.6067 34.0175 21.7068C34.0509 21.807 34.101 21.9572 34.1344 22.1074C34.1845 22.3077 34.2178 22.508 34.2345 22.6916C34.7853 22.2075 35.4363 21.8403 36.1206 21.59C36.8216 21.3563 37.5393 21.2395 38.2737 21.2395C38.8411 21.2395 39.4086 21.3229 39.9427 21.5065C41.2112 21.9238 42.2127 22.8918 42.6466 24.1436C42.9304 24.878 43.0472 25.8294 43.0472 26.9977V35.4265C43.0472 35.6101 42.9804 35.6769 42.8135 35.6769L39.4587 35.7103C39.3085 35.727 39.1916 35.6435 39.175 35.4933V35.4265V27.4317C39.1583 26.8976 39.0581 26.3635 38.8411 25.8795C38.6742 25.529 38.4239 25.1952 38.1068 24.9949C37.7396 24.7612 37.3223 24.6611 36.8883 24.6777C36.421 24.6777 35.9537 24.7445 35.5364 24.9281C35.1358 25.095 34.7853 25.3287 34.4682 25.6124V35.4599C34.4682 35.6435 34.4014 35.7103 34.2345 35.7103H30.8463C30.7295 35.727 30.6127 35.6435 30.596 35.51C30.5793 35.4432 30.5793 35.4265 30.596 35.4098Z" fill="#0638BD"/>
</g>
<path d="M27 52C13.1929 52 2 40.8071 2 27H-2C-2 43.0163 10.9837 56 27 56V52ZM52 27C52 40.8071 40.8071 52 27 52V56C43.0163 56 56 43.0163 56 27H52ZM27 2C40.8071 2 52 13.1929 52 27H56C56 10.9837 43.0163 -2 27 -2V2ZM27 -2C10.9837 -2 -2 10.9837 -2 27H2C2 13.1929 13.1929 2 27 2V-2Z" fill="#E1E1E1" mask="url(#path-1-inside-1_808_39499)"/>
<defs>
<clipPath id="clip0_808_39499">
<path d="M0 27C0 12.0883 12.0883 0 27 0C41.9117 0 54 12.0883 54 27C54 41.9117 41.9117 54 27 54C12.0883 54 0 41.9117 0 27Z" fill="white"/>
</clipPath>
</defs>
</svg>
