<svg width="32" height="33" viewBox="0 0 32 33" fill="none" xmlns="http://www.w3.org/2000/svg">
<g id="Frame">
<path id="Vector" d="M7.07868 13.1998C6.91564 12.4654 6.94067 11.7017 7.15146 10.9796C7.36224 10.2574 7.75195 9.60017 8.28445 9.06878C8.81695 8.5374 9.475 8.14906 10.1976 7.93979C10.9202 7.73052 11.6839 7.70709 12.418 7.87166C12.822 7.23977 13.3786 6.71976 14.0365 6.35956C14.6943 5.99935 15.4323 5.81055 16.1823 5.81055C16.9323 5.81055 17.6702 5.99935 18.3281 6.35956C18.986 6.71976 19.5426 7.23977 19.9466 7.87166C20.6818 7.70637 21.4468 7.7297 22.1705 7.93948C22.8943 8.14926 23.5532 8.53867 24.086 9.0715C24.6189 9.60432 25.0083 10.2633 25.2181 10.987C25.4278 11.7107 25.4512 12.4758 25.2859 13.211C25.9178 13.615 26.4378 14.1716 26.798 14.8294C27.1582 15.4873 27.347 16.2252 27.347 16.9753C27.347 17.7253 27.1582 18.4632 26.798 19.1211C26.4378 19.7789 25.9178 20.3355 25.2859 20.7396C25.4504 21.4736 25.427 22.2374 25.2177 22.96C25.0085 23.6825 24.6201 24.3406 24.0888 24.8731C23.5574 25.4056 22.9001 25.7953 22.178 26.0061C21.4558 26.2169 20.6922 26.2419 19.9578 26.0789C19.5542 26.7132 18.9972 27.2354 18.3382 27.5972C17.6793 27.959 16.9396 28.1487 16.1879 28.1487C15.4361 28.1487 14.6965 27.959 14.0375 27.5972C13.3785 27.2354 12.8215 26.7132 12.418 26.0789C11.6839 26.2434 10.9202 26.22 10.1976 26.0107C9.475 25.8015 8.81695 25.4131 8.28445 24.8817C7.75195 24.3504 7.36224 23.6931 7.15146 22.971C6.94067 22.2488 6.91564 21.4851 7.07868 20.7507C6.44193 20.3478 5.91745 19.7903 5.55402 19.1302C5.19058 18.4701 5 17.7288 5 16.9753C5 16.2217 5.19058 15.4804 5.55402 14.8203C5.91745 14.1602 6.44193 13.6027 7.07868 13.1998Z" stroke="#26B239" stroke-width="2.23401" stroke-linecap="round" stroke-linejoin="round"/>
<path id="Vector_2" d="M12.8301 16.9742L15.0641 19.2083L19.5321 14.7402" stroke="#26B239" stroke-width="2.23401" stroke-linecap="round" stroke-linejoin="round"/>
</g>
</svg>
