<svg width="22" height="16" viewBox="0 0 22 16" fill="none" xmlns="http://www.w3.org/2000/svg">
<path d="M3.91903 1.28485C3.72101 1.48293 3.60976 1.75155 3.60976 2.03164C3.60976 2.31173 3.72101 2.58035 3.91903 2.77843L9.14763 8.00703L3.91903 13.2356C3.72662 13.4348 3.62015 13.7017 3.62256 13.9786C3.62496 14.2556 3.73605 14.5205 3.93189 14.7163C4.12774 14.9122 4.39267 15.0233 4.66962 15.0257C4.94657 15.0281 5.21339 14.9216 5.41261 14.7292L11.388 8.75382C11.586 8.55574 11.6973 8.28712 11.6973 8.00703C11.6973 7.72694 11.586 7.45832 11.388 7.26024L5.41261 1.28485C5.21453 1.08683 4.94591 0.975586 4.66582 0.975586C4.38573 0.975586 4.11711 1.08683 3.91903 1.28485Z" fill="#0638BD"/>
<path d="M14.0069 1.28485C13.8089 1.48293 13.6977 1.75155 13.6977 2.03164C13.6977 2.31173 13.8089 2.58035 14.0069 2.77843L19.2355 8.00703L14.0069 13.2356C13.8145 13.4348 13.708 13.7017 13.7104 13.9786C13.7129 14.2556 13.8239 14.5205 14.0198 14.7163C14.2156 14.9122 14.4806 15.0233 14.7575 15.0257C15.0345 15.0281 15.3013 14.9216 15.5005 14.7292L21.4759 8.75382C21.6739 8.55574 21.7852 8.28712 21.7852 8.00703C21.7852 7.72694 21.6739 7.45832 21.4759 7.26024L15.5005 1.28485C15.3024 1.08683 15.0338 0.975586 14.7537 0.975586C14.4736 0.975586 14.205 1.08683 14.0069 1.28485Z" fill="#0638BD"/>
</svg>
