<svg width="36" height="36" viewBox="0 0 36 36" fill="none" xmlns="http://www.w3.org/2000/svg">
<rect x="1" y="1" width="34" height="34" rx="17" fill="white"/>
<rect x="1" y="1" width="34" height="34" rx="17" stroke="#E1E1E1" stroke-width="2"/>
<path d="M27.5955 18.5733C27.4736 17.723 27.1807 16.9168 26.7193 16.1754C26.3175 15.5299 25.8016 14.9544 25.1872 14.467L25.1898 14.4644L18.7297 9.5027C18.7245 9.49751 18.7193 9.49492 18.7141 9.49233C18.499 9.32901 18.2086 9.23828 17.895 9.23828C17.5813 9.23828 17.2806 9.32901 17.0447 9.49492C16.7932 9.6712 16.648 9.90451 16.6377 10.1534C16.6273 10.3867 16.7388 10.6096 16.9513 10.7833C17.3661 11.1125 17.7809 11.447 18.1983 11.7814C18.6027 12.108 19.0174 12.4424 19.4296 12.769L11.5178 12.7639C10.6131 12.7639 9.99611 13.189 9.86908 13.8993C9.81464 14.2104 9.91056 14.5526 10.1309 14.817C10.3642 15.0944 10.7012 15.2473 11.0849 15.2473H11.6889C12.521 15.2473 13.3584 15.2447 14.1957 15.2421L14.9915 15.2395L7.81077 20.5538L7.78225 20.5746C7.38044 20.8831 7.11862 21.3134 7.06158 21.7567C7.01751 22.0937 7.09788 22.3996 7.28971 22.6458C7.51783 22.9388 7.87558 23.0995 8.29294 23.0995C8.70512 23.0995 9.12508 22.944 9.47505 22.6588L13.3532 19.4858C13.3376 19.6413 13.3169 19.8669 13.3195 20.0328C13.3247 20.2946 13.4076 20.8182 13.5398 21.2434C13.8146 22.117 14.2761 22.918 14.9138 23.6206C15.5774 24.3516 16.3836 24.9323 17.3143 25.3445C18.2968 25.78 19.3518 26.0003 20.4536 26.0003H20.464C21.5683 25.9977 22.6286 25.7748 23.6136 25.3341C24.5443 24.9167 25.3505 24.336 26.0116 23.605C26.6467 22.8999 27.1081 22.0963 27.3829 21.2227C27.5177 20.7897 27.6058 20.3438 27.6421 19.8928C27.6732 19.4573 27.6577 19.0114 27.5955 18.5733ZM20.5314 22.7651C18.1049 22.7651 16.1399 21.0049 16.1399 18.8351C16.1399 16.6653 18.1075 14.9051 20.5314 14.9051C22.9578 14.9051 24.9228 16.6653 24.9228 18.8351C24.9228 21.0049 22.9578 22.7651 20.5314 22.7651ZM23.0641 18.4903C23.1004 19.1384 22.8411 19.7398 22.3875 20.1857C21.926 20.6394 21.265 20.9245 20.5288 20.9245C19.7925 20.9245 19.1315 20.6394 18.6701 20.1857C18.2164 19.7398 17.9572 19.1384 17.9935 18.4929C18.0272 17.863 18.3357 17.3082 18.7971 16.9142C19.2507 16.5279 19.8625 16.292 20.5288 16.292C21.195 16.292 21.8068 16.5279 22.2605 16.9142C22.7219 17.3056 23.0304 17.8604 23.0641 18.4903Z" fill="#0638BD"/>
</svg>
