<svg width="36" height="36" viewBox="0 0 36 36" fill="none" xmlns="http://www.w3.org/2000/svg">
<g clip-path="url(#clip0_576_17283)">
<mask id="path-1-inside-1_576_17283" fill="white">
<path d="M0 18C0 8.05887 8.05887 0 18 0V0C27.9411 0 36 8.05887 36 18V18C36 27.9411 27.9411 36 18 36V36C8.05887 36 0 27.9411 0 18V18Z"/>
</mask>
<path d="M30.0234 0H5.97656C2.6758 0 0 2.74002 0 6.12V29.8224C0 33.2024 2.6758 35.9424 5.97656 35.9424H30.0234C33.3242 35.9424 36 33.2024 36 29.8224V6.12C36 2.74002 33.3242 0 30.0234 0Z" fill="white"/>
<path d="M18.0623 32.1247C25.8288 32.1247 32.1247 25.8288 32.1247 18.0623C32.1247 10.2959 25.8288 4 18.0623 4C10.2959 4 4 10.2959 4 18.0623C4 25.8288 10.2959 32.1247 18.0623 32.1247Z" fill="white"/>
<path d="M17.0995 9.0332L14.4498 10.8119V12.6313H16.2408V24.5834H13.9209V27.1392H22.2042V24.5834H19.8226V9.0332H17.0995Z" fill="#0638BD"/>
<path d="M18.0625 30.4315C24.8937 30.4315 30.4315 24.8937 30.4315 18.0625C30.4315 11.2312 24.8937 5.69336 18.0625 5.69336C11.2312 5.69336 5.69336 11.2312 5.69336 18.0625C5.69336 24.8937 11.2312 30.4315 18.0625 30.4315Z" stroke="#0638BD" stroke-width="1.01544" stroke-linejoin="round"/>
</g>
<path d="M18 34C9.16344 34 2 26.8366 2 18H-2C-2 29.0457 6.95431 38 18 38V34ZM34 18C34 26.8366 26.8366 34 18 34V38C29.0457 38 38 29.0457 38 18H34ZM18 2C26.8366 2 34 9.16344 34 18H38C38 6.95431 29.0457 -2 18 -2V2ZM18 -2C6.95431 -2 -2 6.95431 -2 18H2C2 9.16344 9.16344 2 18 2V-2Z" fill="#E1E1E1" mask="url(#path-1-inside-1_576_17283)"/>
<defs>
<clipPath id="clip0_576_17283">
<path d="M0 18C0 8.05887 8.05887 0 18 0V0C27.9411 0 36 8.05887 36 18V18C36 27.9411 27.9411 36 18 36V36C8.05887 36 0 27.9411 0 18V18Z" fill="white"/>
</clipPath>
</defs>
</svg>
