<svg width="24" height="24" viewBox="0 0 24 24" fill="none" xmlns="http://www.w3.org/2000/svg">
<path d="M9.75 4.12402C9.05177 4.12366 8.37061 4.33986 7.8004 4.74284C7.23018 5.14581 6.79899 5.71572 6.56625 6.37402H4.09249C3.48912 6.37402 3 6.86315 3 7.46651V7.53154C3 8.1349 3.48912 8.62402 4.09249 8.62402H6.56625C6.79868 9.28275 7.22971 9.85316 7.79992 10.2566C8.37014 10.6601 9.05147 10.8768 9.75 10.8768C10.4485 10.8768 11.1299 10.6601 11.7001 10.2566C12.2703 9.85316 12.7013 9.28275 12.9337 8.62402H19.9075C20.5109 8.62402 21 8.1349 21 7.53154V7.46651C21 6.86315 20.5109 6.37402 19.9075 6.37402H12.9337C12.701 5.71572 12.2698 5.14581 11.6996 4.74284C11.1294 4.33986 10.4482 4.12366 9.75 4.12402ZM8.625 7.49902C8.625 7.20066 8.74353 6.91451 8.9545 6.70353C9.16548 6.49255 9.45163 6.37402 9.75 6.37402C10.0484 6.37402 10.3345 6.49255 10.5455 6.70353C10.7565 6.91451 10.875 7.20066 10.875 7.49902C10.875 7.79739 10.7565 8.08354 10.5455 8.29452C10.3345 8.5055 10.0484 8.62402 9.75 8.62402C9.45163 8.62402 9.16548 8.5055 8.9545 8.29452C8.74353 8.08354 8.625 7.79739 8.625 7.49902ZM14.25 13.124C13.5518 13.1237 12.8706 13.3399 12.3004 13.7428C11.7302 14.1458 11.299 14.7157 11.0662 15.374H4.09249C3.48912 15.374 3 15.8631 3 16.4665V16.5315C3 17.1349 3.48912 17.624 4.09249 17.624H11.0662C11.2987 18.2827 11.7297 18.8532 12.2999 19.2566C12.8701 19.6601 13.5515 19.8768 14.25 19.8768C14.9485 19.8768 15.6299 19.6601 16.2001 19.2566C16.7703 18.8532 17.2013 18.2827 17.4337 17.624H19.9075C20.5109 17.624 21 17.1349 21 16.5315V16.4665C21 15.8631 20.5109 15.374 19.9075 15.374H17.4337C17.201 14.7157 16.7698 14.1458 16.1996 13.7428C15.6294 13.3399 14.9482 13.1237 14.25 13.124ZM13.125 16.499C13.125 16.2007 13.2435 15.9145 13.4545 15.7035C13.6655 15.4926 13.9516 15.374 14.25 15.374C14.5484 15.374 14.8345 15.4926 15.0455 15.7035C15.2565 15.9145 15.375 16.2007 15.375 16.499C15.375 16.7974 15.2565 17.0835 15.0455 17.2945C14.8345 17.5055 14.5484 17.624 14.25 17.624C13.9516 17.624 13.6655 17.5055 13.4545 17.2945C13.2435 17.0835 13.125 16.7974 13.125 16.499Z" fill="#0E1111"/>
</svg>
