<svg width="24" height="24" viewBox="0 0 24 24" fill="none" xmlns="http://www.w3.org/2000/svg">
<g clip-path="url(#clip0_631_28116)">
<path d="M8.00061 14.9979C8.88743 14.9976 9.74918 15.2922 10.4503 15.8351C11.1515 16.3781 11.6523 17.1387 11.874 17.9974H22.9983C23.2482 17.9969 23.4891 18.09 23.6738 18.2584C23.8584 18.4267 23.9733 18.6581 23.9959 18.9069C24.0185 19.1557 23.9471 19.404 23.7957 19.6028C23.6444 19.8016 23.4241 19.9366 23.1783 19.9811L22.9983 19.9971L11.874 19.9991C11.6531 20.8585 11.1526 21.62 10.4513 22.1637C9.75011 22.7075 8.88796 23.0026 8.00061 23.0026C7.11327 23.0026 6.25112 22.7075 5.54989 22.1637C4.84866 21.62 4.34817 20.8585 4.12721 19.9991L1.00169 19.9971C0.751836 19.9975 0.510864 19.9044 0.326227 19.7361C0.141589 19.5678 0.0266673 19.3364 0.00409183 19.0876C-0.0184836 18.8387 0.0529234 18.5905 0.204251 18.3917C0.355579 18.1929 0.57586 18.0579 0.821717 18.0134L1.00169 17.9974H4.12721C4.34892 17.1387 4.84972 16.3781 5.55089 15.8351C6.25205 15.2922 7.11379 14.9976 8.00061 14.9979ZM8.00061 16.9975C7.47026 16.9975 6.96163 17.2082 6.58662 17.5832C6.2116 17.9583 6.00092 18.4669 6.00092 18.9972C6.00092 19.5276 6.2116 20.0362 6.58662 20.4112C6.96163 20.7862 7.47026 20.9969 8.00061 20.9969C8.53097 20.9969 9.0396 20.7862 9.41461 20.4112C9.78963 20.0362 10.0003 19.5276 10.0003 18.9972C10.0003 18.4669 9.78963 17.9583 9.41461 17.5832C9.0396 17.2082 8.53097 16.9975 8.00061 16.9975ZM15.9994 1C16.8862 0.999775 17.7479 1.29431 18.4491 1.83728C19.1503 2.38026 19.6511 3.14088 19.8728 3.99954H22.9983C23.2482 3.99908 23.4891 4.09218 23.6738 4.26052C23.8584 4.42885 23.9733 4.66021 23.9959 4.90904C24.0185 5.15788 23.9471 5.40614 23.7957 5.60496C23.6444 5.80377 23.4241 5.93872 23.1783 5.98324L22.9983 5.99923L19.8728 6.00123C19.6518 6.86063 19.1513 7.62213 18.4501 8.16587C17.7489 8.70962 16.8867 9.00472 15.9994 9.00472C15.112 9.00472 14.2499 8.70962 13.5487 8.16587C12.8474 7.62213 12.3469 6.86063 12.126 6.00123L1.00169 5.99923C0.751836 5.99969 0.510864 5.90659 0.326227 5.73826C0.141589 5.56992 0.0266673 5.33856 0.00409183 5.08973C-0.0184836 4.8409 0.0529234 4.59263 0.204251 4.39382C0.355579 4.195 0.57586 4.06005 0.821717 4.01554L1.00169 3.99954H12.126C12.3477 3.14088 12.8485 2.38026 13.5497 1.83728C14.2508 1.29431 15.1126 0.999775 15.9994 1ZM15.9994 2.99969C15.469 2.99969 14.9604 3.21037 14.5854 3.58539C14.2104 3.9604 13.9997 4.46903 13.9997 4.99939C13.9997 5.52974 14.2104 6.03837 14.5854 6.41338C14.9604 6.7884 15.469 6.99908 15.9994 6.99908C16.5297 6.99908 17.0384 6.7884 17.4134 6.41338C17.7884 6.03837 17.9991 5.52974 17.9991 4.99939C17.9991 4.46903 17.7884 3.9604 17.4134 3.58539C17.0384 3.21037 16.5297 2.99969 15.9994 2.99969Z" fill="#0E1111"/>
</g>
<defs>
<clipPath id="clip0_631_28116">
<rect width="24" height="24" fill="white"/>
</clipPath>
</defs>
</svg>
