<svg width="36" height="36" viewBox="0 0 36 36" fill="none" xmlns="http://www.w3.org/2000/svg">
<g clip-path="url(#clip0_576_17334)">
<mask id="path-1-inside-1_576_17334" fill="white">
<path d="M0 18C0 8.05887 8.05887 0 18 0V0C27.9411 0 36 8.05887 36 18V18C36 27.9411 27.9411 36 18 36V36C8.05887 36 0 27.9411 0 18V18Z"/>
</mask>
<path d="M30.0234 0H5.97656C2.6758 0 0 2.74002 0 6.12V29.8224C0 33.2024 2.6758 35.9424 5.97656 35.9424H30.0234C33.3242 35.9424 36 33.2024 36 29.8224V6.12C36 2.74002 33.3242 0 30.0234 0Z" fill="white"/>
<circle cx="17.9814" cy="17.8435" r="11.9997" fill="#0638BD"/>
<circle cx="20.713" cy="15.3056" r="8.1649" fill="#0638BD" stroke="#E1E1E1" stroke-width="1.42586"/>
<path d="M23.1327 7.45799C23.2726 7.17344 23.3003 6.84667 23.2102 6.54263C23.1202 6.2386 22.9191 5.97958 22.6468 5.81705C21.6517 5.14585 13.1017 3.14981 7.9311 9.68623C6.57942 11.3767 5.65453 13.3677 5.23458 15.491C4.58823 18.8538 5.28981 22.3359 7.18795 25.186C9.08609 28.0361 12.0286 30.0258 15.3807 30.7257C17.7491 31.2144 20.2061 31.0478 22.4868 30.2438C22.8863 30.0999 23.2772 29.9331 23.6575 29.7443C25.3716 28.8919 26.8705 27.6625 28.0418 26.1483C28.3345 25.7749 28.6077 25.3847 28.8613 24.9776C30.7305 22.0313 31.8369 17.809 29.9169 13.0325C29.9169 13.0325 29.3764 11.735 27.794 12.5271C27.0994 12.8744 26.3716 16.2675 26.2507 17.9475C26.1297 19.6274 24.8009 26.6302 18.9103 28.597C13.0198 30.5638 6.33894 26.0214 7.21697 18.7884C8.095 11.5555 15.8119 10.0296 19.5503 9.38184C23.2888 8.73405 23.1327 7.45799 23.1327 7.45799Z" fill="#E1E1E1"/>
</g>
<path d="M18 34C9.16344 34 2 26.8366 2 18H-2C-2 29.0457 6.95431 38 18 38V34ZM34 18C34 26.8366 26.8366 34 18 34V38C29.0457 38 38 29.0457 38 18H34ZM18 2C26.8366 2 34 9.16344 34 18H38C38 6.95431 29.0457 -2 18 -2V2ZM18 -2C6.95431 -2 -2 6.95431 -2 18H2C2 9.16344 9.16344 2 18 2V-2Z" fill="#E1E1E1" mask="url(#path-1-inside-1_576_17334)"/>
<defs>
<clipPath id="clip0_576_17334">
<path d="M0 18C0 8.05887 8.05887 0 18 0V0C27.9411 0 36 8.05887 36 18V18C36 27.9411 27.9411 36 18 36V36C8.05887 36 0 27.9411 0 18V18Z" fill="white"/>
</clipPath>
</defs>
</svg>
