<svg width="54" height="54" viewBox="0 0 54 54" fill="none" xmlns="http://www.w3.org/2000/svg">
<g clip-path="url(#clip0_810_39728)">
<mask id="path-1-inside-1_810_39728" fill="white">
<path d="M0 27C0 12.0883 12.0883 0 27 0C41.9117 0 54 12.0883 54 27C54 41.9117 41.9117 54 27 54C12.0883 54 0 41.9117 0 27Z"/>
</mask>
<path d="M45.0352 0H8.96484C4.0137 0 0 4.11003 0 9.18V44.7336C0 49.8036 4.0137 53.9136 8.96484 53.9136H45.0352C49.9863 53.9136 54 49.8036 54 44.7336V9.18C54 4.11003 49.9863 0 45.0352 0Z" fill="white"/>
<path d="M27.9012 21.051C27.9012 21.051 30.5561 20.6677 31.1644 22.0973C31.7727 23.5268 32.0465 24.4088 30.769 25.1388C29.4916 25.8688 21.8574 29.0319 21.8574 29.0319C21.8574 29.0319 16.1089 31.3739 12.5199 26.5987C8.9309 21.8235 12.8241 18.2649 12.8241 18.2649C12.8241 18.2649 14.1015 16.9267 17.2647 15.6796C20.4279 14.4326 25.7809 12.5165 25.7809 12.5165C25.7809 12.5165 30.769 11.4215 34.4189 12.7902C38.0687 14.1589 40.4411 17.0483 40.4411 17.0483C40.4411 17.0483 43.1176 19.9682 42.996 23.618C42.8715 27.3512 41.8706 28.0282 41.8706 28.0282C41.8706 28.0282 39.924 32.1951 35.2097 33.9288C30.4953 35.6625 29.3395 36.3316 29.3395 36.3316L31.4078 39.586C31.4078 39.586 32.594 41.9888 30.1607 42.7188C27.7275 43.4488 26.5413 41.7151 26.5413 41.7151L21.5532 34.3242L34.0539 28.819C34.0539 28.819 38.0687 26.0208 37.6733 23.1618C37.2932 20.4137 35.818 18.5691 33.841 17.4741C31.5294 16.0446 29.4916 16.4096 29.4916 16.4096C29.4916 16.4096 27.2713 16.7442 24.6556 17.8391C21.7357 18.9341 18.0555 20.5765 18.0555 20.5765C18.0555 20.5765 15.8352 21.2761 16.4739 23.0401C17.1126 24.8042 19.0288 24.6521 19.0288 24.6521L27.9012 21.051Z" fill="#0638BD"/>
</g>
<path d="M27 52C13.1929 52 2 40.8071 2 27H-2C-2 43.0163 10.9837 56 27 56V52ZM52 27C52 40.8071 40.8071 52 27 52V56C43.0163 56 56 43.0163 56 27H52ZM27 2C40.8071 2 52 13.1929 52 27H56C56 10.9837 43.0163 -2 27 -2V2ZM27 -2C10.9837 -2 -2 10.9837 -2 27H2C2 13.1929 13.1929 2 27 2V-2Z" fill="#E1E1E1" mask="url(#path-1-inside-1_810_39728)"/>
<defs>
<clipPath id="clip0_810_39728">
<path d="M0 27C0 12.0883 12.0883 0 27 0C41.9117 0 54 12.0883 54 27C54 41.9117 41.9117 54 27 54C12.0883 54 0 41.9117 0 27Z" fill="white"/>
</clipPath>
</defs>
</svg>
