<svg width="54" height="54" viewBox="0 0 54 54" fill="none" xmlns="http://www.w3.org/2000/svg">
<g clip-path="url(#clip0_399_41981)">
<mask id="path-1-inside-1_399_41981" fill="white">
<path d="M0 27C0 12.0883 12.0883 0 27 0C41.9117 0 54 12.0883 54 27C54 41.9117 41.9117 54 27 54C12.0883 54 0 41.9117 0 27Z"/>
</mask>
<path d="M45.0352 0H8.96484C4.0137 0 0 4.11003 0 9.18V44.7336C0 49.8036 4.0137 53.9136 8.96484 53.9136H45.0352C49.9863 53.9136 54 49.8036 54 44.7336V9.18C54 4.11003 49.9863 0 45.0352 0Z" fill="white"/>
<path d="M37.9802 41.9964C37.5579 42.0093 37.0838 41.957 36.6097 41.8564C35.2073 41.5494 34.0161 40.9117 33.1007 39.7812C32.544 39.0918 32.076 38.3447 31.6725 37.559C31.1983 36.6331 30.802 35.6685 30.4564 34.6921C30.0341 33.511 29.6756 32.3041 29.3995 31.0842C29.2463 30.4008 29.4186 29.9727 30.1744 29.7373C31.1346 29.4373 32.1018 29.169 33.0879 28.9515C34.7203 28.5938 36.3657 28.3643 38.044 28.4209C38.5182 28.4399 38.9913 28.4908 39.4593 28.5738C40.8169 28.8104 41.9692 29.4362 42.9104 30.4256C44.518 32.1114 45.1574 34.1229 44.761 36.4156C44.1913 39.6918 41.2839 42.0223 37.9802 41.9964Z" fill="#0638BD"/>
<path d="M33.4856 14.0795C33.6963 14.4458 33.874 14.8884 34.009 15.3539C34.4003 16.7351 34.4004 18.0862 33.8358 19.4269C33.4909 20.2431 33.0531 21.0083 32.5508 21.7348C31.9585 22.59 31.2951 23.3946 30.5974 24.1602C29.7555 25.0899 28.8608 25.9757 27.9156 26.7948C27.3855 27.2525 26.9267 27.3027 26.3624 26.7475C25.6447 26.0426 24.9517 25.3165 24.2945 24.5499C23.2086 23.2796 22.2297 21.9373 21.4874 20.431C21.2803 20.004 21.1019 19.5629 20.9542 19.1111C20.5219 17.8026 20.5298 16.4913 20.9578 15.1946C21.6852 12.9817 23.1566 11.4685 25.3651 10.7358C28.5223 9.69169 31.949 11.1548 33.4856 14.0795Z" fill="#0638BD"/>
<path d="M15.895 41.9975C16.3173 42.0103 16.7915 41.9581 17.2655 41.8574C18.6679 41.5504 19.8591 40.9127 20.7745 39.7822C21.3312 39.0929 21.7993 38.3458 22.2027 37.56C22.677 36.6342 23.0732 35.6696 23.4188 34.6932C23.8411 33.5121 24.1997 32.3052 24.4757 31.0853C24.629 30.4019 24.4567 29.9737 23.7008 29.7383C22.7407 29.4383 21.7734 29.1701 20.7874 28.9526C19.1549 28.5948 17.5095 28.3654 15.8312 28.4219C15.357 28.441 14.8839 28.4919 14.4159 28.5749C13.0583 28.8114 11.906 29.4373 10.9648 30.4267C9.35726 32.1124 8.71784 34.1239 9.11426 36.4167C9.68398 39.6929 12.5913 42.0233 15.895 41.9975Z" fill="#0638BD"/>
</g>
<path d="M27 52C13.1929 52 2 40.8071 2 27H-2C-2 43.0163 10.9837 56 27 56V52ZM52 27C52 40.8071 40.8071 52 27 52V56C43.0163 56 56 43.0163 56 27H52ZM27 2C40.8071 2 52 13.1929 52 27H56C56 10.9837 43.0163 -2 27 -2V2ZM27 -2C10.9837 -2 -2 10.9837 -2 27H2C2 13.1929 13.1929 2 27 2V-2Z" fill="#E1E1E1" mask="url(#path-1-inside-1_399_41981)"/>
<defs>
<clipPath id="clip0_399_41981">
<path d="M0 27C0 12.0883 12.0883 0 27 0C41.9117 0 54 12.0883 54 27C54 41.9117 41.9117 54 27 54C12.0883 54 0 41.9117 0 27Z" fill="white"/>
</clipPath>
</defs>
</svg>
