<svg width="18" height="24" viewBox="0 0 18 24" fill="none" xmlns="http://www.w3.org/2000/svg">
<path d="M13.0385 8.76923H15.0577C15.5932 8.76923 16.1068 8.98197 16.4855 9.36064C16.8642 9.73932 17.0769 10.2529 17.0769 10.7885V20.4808C17.0769 21.0163 16.8642 21.5299 16.4855 21.9086C16.1068 22.2872 15.5932 22.5 15.0577 22.5H2.94233C2.40679 22.5 1.89319 22.2872 1.51451 21.9086C1.13584 21.5299 0.923096 21.0163 0.923096 20.4808V10.7885C0.923096 10.2529 1.13584 9.73932 1.51451 9.36064C1.89319 8.98197 2.40679 8.76923 2.94233 8.76923H4.96155M13.0385 5.53846L9.00001 1.5M9.00001 1.5L4.96155 5.53846M9.00001 1.5V15.2812" stroke="black" stroke-width="1.5" stroke-linecap="round" stroke-linejoin="round"/>
</svg>
