<svg width="376" height="292" viewBox="0 0 376 292" fill="none" xmlns="http://www.w3.org/2000/svg">
<mask id="path-1-outside-1_1031_50" maskUnits="userSpaceOnUse" x="1.73242" y="16.6182" width="372" height="277" fill="black">
<rect fill="white" x="1.73242" y="16.6182" width="372" height="277"/>
<path d="M45.3709 220.003C52.7407 220.003 60.0287 216.072 67.2348 208.211C74.6047 200.186 81.4014 189.459 87.6248 176.029H92.5381C85.9871 192.734 78.1259 206.082 68.9545 216.072C59.7831 225.899 49.9566 230.812 39.475 230.812C31.2862 230.812 24.899 227.864 20.3133 221.968C15.7276 216.072 13.4347 207.883 13.4347 197.402C13.4347 184.3 16.7921 169.642 23.5069 153.428C30.2217 137.214 38.8199 123.457 49.3015 112.157C59.7831 100.856 70.4284 95.206 81.2376 95.206C86.9697 95.206 91.4735 97.0075 94.749 100.611C98.1883 104.05 99.908 108.717 99.908 114.613C99.908 122.966 96.6325 131.237 90.0815 139.425C83.6942 147.614 75.1779 154.738 64.5325 160.798C54.0509 166.858 43.078 170.788 31.6137 172.59C29.3209 181.761 28.1745 189.868 28.1745 196.91C28.1745 204.28 29.7303 210.012 32.8421 214.107C35.9538 218.037 40.1301 220.003 45.3709 220.003ZM79.0266 102.822C70.1828 102.822 61.5027 109.127 52.9864 121.738C44.6339 134.348 38.0829 149.006 33.3334 165.711C42.9961 163.582 52.0037 160.061 60.3563 155.148C68.7088 150.071 75.3417 144.011 80.255 136.969C85.332 129.926 87.8705 122.475 87.8705 114.613C87.8705 110.847 87.2154 107.98 85.9052 106.015C84.595 103.886 82.3021 102.822 79.0266 102.822ZM193.546 36.7383C187.977 36.7383 183.31 39.0311 179.543 43.6168C175.776 48.0388 172.664 53.3615 170.208 59.5849C167.915 65.8084 164.721 75.553 160.627 88.8188L157.679 98.3996H205.583C207.549 98.3996 209.678 97.9902 211.97 97.1713C214.263 96.3524 216.229 95.3698 217.866 94.2233L220.569 95.4517L186.176 201.087C186.012 201.742 185.521 203.543 184.702 206.491C183.883 209.439 183.474 211.814 183.474 213.615C183.474 215.581 183.801 217.137 184.456 218.283C185.275 219.266 186.585 219.757 188.387 219.757C193.136 219.757 198.131 216.4 203.372 209.685C208.613 202.97 213.526 194.454 218.112 184.136H223.271C218.521 196.255 212.462 206.819 205.092 215.826C197.722 224.67 190.188 229.092 182.491 229.092C173.811 229.092 169.471 224.834 169.471 216.318C169.471 212.715 170.535 207.556 172.664 200.841L203.618 104.787H155.714L125.006 206.737C118.127 229.174 108.874 247.271 97.246 261.028C85.4542 274.785 71.6971 281.664 55.9747 281.664C51.0614 281.664 47.704 281.009 45.9025 279.699C44.101 278.388 43.2002 276.505 43.2002 274.048C43.2002 270.937 44.4285 268.316 46.8851 266.187C49.3418 264.222 52.2897 263.239 55.729 263.239C58.5132 263.239 61.543 264.14 64.8185 265.942C66.1287 266.597 67.6027 267.17 69.2404 267.661C70.8782 268.316 72.5159 268.644 74.1537 268.644C79.0669 268.644 83.407 266.679 87.1738 262.748C90.7769 258.817 94.3799 252.594 97.983 244.078C101.422 235.561 105.517 223.524 110.266 207.965L141.465 104.787H118.864L120.83 98.3996H143.431L146.379 88.5731C152.602 67.6099 160.299 52.3788 169.471 42.8798C178.806 33.2171 191.499 28.3857 207.549 28.3857C216.392 28.3857 222.78 29.4503 226.71 31.5794C230.641 33.5447 232.606 36.0832 232.606 39.1949C232.606 41.4878 231.705 43.6987 229.904 45.8278C228.266 47.7931 225.809 48.7757 222.534 48.7757C220.569 48.7757 218.767 48.3663 217.129 47.5474C215.492 46.7286 213.117 45.3365 210.005 43.3712C206.73 41.2421 203.945 39.6043 201.653 38.4579C199.36 37.3115 196.657 36.7383 193.546 36.7383ZM352.363 95.6973C358.586 95.6973 361.698 97.8264 361.698 102.085C361.698 105.032 360.552 107.735 358.259 110.191C356.13 112.484 353.673 113.631 350.889 113.631C349.579 113.631 347.45 113.139 344.502 112.157C341.226 111.174 338.688 110.683 336.886 110.683C332.628 110.683 327.223 114.531 320.672 122.229C314.285 129.926 306.178 141.8 296.352 157.85L297.58 188.803C298.071 200.759 299.054 208.784 300.528 212.878C302.166 216.809 304.295 218.774 306.915 218.774C309.372 218.774 312.156 216.727 315.268 212.633C318.543 208.538 322.965 201.578 328.534 191.751H333.447C321.983 216.645 310.682 229.092 299.545 229.092C293.813 229.092 289.883 226.062 287.754 220.003C285.624 213.943 284.314 203.707 283.823 189.295L283.086 173.081C280.629 177.667 277.763 182.498 274.488 187.575C265.808 201.332 257.701 211.732 250.167 218.774C242.797 225.653 235.509 229.092 228.303 229.092C224.864 229.092 222.407 228.601 220.933 227.618C219.296 226.799 218.477 225.489 218.477 223.688C218.477 220.576 219.705 217.792 222.162 215.335C224.618 212.878 227.157 211.65 229.777 211.65C231.742 211.65 233.79 212.06 235.919 212.878C236.41 213.042 237.393 213.288 238.867 213.615C240.341 213.943 241.815 214.107 243.289 214.107C250.822 214.107 263.924 197.402 282.595 163.992L281.366 135.74C281.039 126.896 280.547 120.427 279.892 116.333C279.401 112.075 278.664 109.373 277.681 108.226C276.862 106.916 275.634 106.261 273.996 106.261C271.867 106.261 268.919 108.554 265.153 113.139C261.386 117.725 257.209 124.44 252.624 133.284H247.465C254.18 120.018 259.994 110.519 264.907 104.787C269.82 98.8909 275.225 95.943 281.121 95.943C284.396 95.943 286.935 96.8437 288.736 98.6453C290.538 100.283 291.93 103.477 292.912 108.226C294.059 112.812 294.796 119.69 295.123 128.862L295.86 149.497C307.816 130.336 317.97 116.579 326.323 108.226C334.839 99.8736 343.519 95.6973 352.363 95.6973Z"/>
</mask>
<path d="M45.3709 220.003C52.7407 220.003 60.0287 216.072 67.2348 208.211C74.6047 200.186 81.4014 189.459 87.6248 176.029H92.5381C85.9871 192.734 78.1259 206.082 68.9545 216.072C59.7831 225.899 49.9566 230.812 39.475 230.812C31.2862 230.812 24.899 227.864 20.3133 221.968C15.7276 216.072 13.4347 207.883 13.4347 197.402C13.4347 184.3 16.7921 169.642 23.5069 153.428C30.2217 137.214 38.8199 123.457 49.3015 112.157C59.7831 100.856 70.4284 95.206 81.2376 95.206C86.9697 95.206 91.4735 97.0075 94.749 100.611C98.1883 104.05 99.908 108.717 99.908 114.613C99.908 122.966 96.6325 131.237 90.0815 139.425C83.6942 147.614 75.1779 154.738 64.5325 160.798C54.0509 166.858 43.078 170.788 31.6137 172.59C29.3209 181.761 28.1745 189.868 28.1745 196.91C28.1745 204.28 29.7303 210.012 32.8421 214.107C35.9538 218.037 40.1301 220.003 45.3709 220.003ZM79.0266 102.822C70.1828 102.822 61.5027 109.127 52.9864 121.738C44.6339 134.348 38.0829 149.006 33.3334 165.711C42.9961 163.582 52.0037 160.061 60.3563 155.148C68.7088 150.071 75.3417 144.011 80.255 136.969C85.332 129.926 87.8705 122.475 87.8705 114.613C87.8705 110.847 87.2154 107.98 85.9052 106.015C84.595 103.886 82.3021 102.822 79.0266 102.822ZM193.546 36.7383C187.977 36.7383 183.31 39.0311 179.543 43.6168C175.776 48.0388 172.664 53.3615 170.208 59.5849C167.915 65.8084 164.721 75.553 160.627 88.8188L157.679 98.3996H205.583C207.549 98.3996 209.678 97.9902 211.97 97.1713C214.263 96.3524 216.229 95.3698 217.866 94.2233L220.569 95.4517L186.176 201.087C186.012 201.742 185.521 203.543 184.702 206.491C183.883 209.439 183.474 211.814 183.474 213.615C183.474 215.581 183.801 217.137 184.456 218.283C185.275 219.266 186.585 219.757 188.387 219.757C193.136 219.757 198.131 216.4 203.372 209.685C208.613 202.97 213.526 194.454 218.112 184.136H223.271C218.521 196.255 212.462 206.819 205.092 215.826C197.722 224.67 190.188 229.092 182.491 229.092C173.811 229.092 169.471 224.834 169.471 216.318C169.471 212.715 170.535 207.556 172.664 200.841L203.618 104.787H155.714L125.006 206.737C118.127 229.174 108.874 247.271 97.246 261.028C85.4542 274.785 71.6971 281.664 55.9747 281.664C51.0614 281.664 47.704 281.009 45.9025 279.699C44.101 278.388 43.2002 276.505 43.2002 274.048C43.2002 270.937 44.4285 268.316 46.8851 266.187C49.3418 264.222 52.2897 263.239 55.729 263.239C58.5132 263.239 61.543 264.14 64.8185 265.942C66.1287 266.597 67.6027 267.17 69.2404 267.661C70.8782 268.316 72.5159 268.644 74.1537 268.644C79.0669 268.644 83.407 266.679 87.1738 262.748C90.7769 258.817 94.3799 252.594 97.983 244.078C101.422 235.561 105.517 223.524 110.266 207.965L141.465 104.787H118.864L120.83 98.3996H143.431L146.379 88.5731C152.602 67.6099 160.299 52.3788 169.471 42.8798C178.806 33.2171 191.499 28.3857 207.549 28.3857C216.392 28.3857 222.78 29.4503 226.71 31.5794C230.641 33.5447 232.606 36.0832 232.606 39.1949C232.606 41.4878 231.705 43.6987 229.904 45.8278C228.266 47.7931 225.809 48.7757 222.534 48.7757C220.569 48.7757 218.767 48.3663 217.129 47.5474C215.492 46.7286 213.117 45.3365 210.005 43.3712C206.73 41.2421 203.945 39.6043 201.653 38.4579C199.36 37.3115 196.657 36.7383 193.546 36.7383ZM352.363 95.6973C358.586 95.6973 361.698 97.8264 361.698 102.085C361.698 105.032 360.552 107.735 358.259 110.191C356.13 112.484 353.673 113.631 350.889 113.631C349.579 113.631 347.45 113.139 344.502 112.157C341.226 111.174 338.688 110.683 336.886 110.683C332.628 110.683 327.223 114.531 320.672 122.229C314.285 129.926 306.178 141.8 296.352 157.85L297.58 188.803C298.071 200.759 299.054 208.784 300.528 212.878C302.166 216.809 304.295 218.774 306.915 218.774C309.372 218.774 312.156 216.727 315.268 212.633C318.543 208.538 322.965 201.578 328.534 191.751H333.447C321.983 216.645 310.682 229.092 299.545 229.092C293.813 229.092 289.883 226.062 287.754 220.003C285.624 213.943 284.314 203.707 283.823 189.295L283.086 173.081C280.629 177.667 277.763 182.498 274.488 187.575C265.808 201.332 257.701 211.732 250.167 218.774C242.797 225.653 235.509 229.092 228.303 229.092C224.864 229.092 222.407 228.601 220.933 227.618C219.296 226.799 218.477 225.489 218.477 223.688C218.477 220.576 219.705 217.792 222.162 215.335C224.618 212.878 227.157 211.65 229.777 211.65C231.742 211.65 233.79 212.06 235.919 212.878C236.41 213.042 237.393 213.288 238.867 213.615C240.341 213.943 241.815 214.107 243.289 214.107C250.822 214.107 263.924 197.402 282.595 163.992L281.366 135.74C281.039 126.896 280.547 120.427 279.892 116.333C279.401 112.075 278.664 109.373 277.681 108.226C276.862 106.916 275.634 106.261 273.996 106.261C271.867 106.261 268.919 108.554 265.153 113.139C261.386 117.725 257.209 124.44 252.624 133.284H247.465C254.18 120.018 259.994 110.519 264.907 104.787C269.82 98.8909 275.225 95.943 281.121 95.943C284.396 95.943 286.935 96.8437 288.736 98.6453C290.538 100.283 291.93 103.477 292.912 108.226C294.059 112.812 294.796 119.69 295.123 128.862L295.86 149.497C307.816 130.336 317.97 116.579 326.323 108.226C334.839 99.8736 343.519 95.6973 352.363 95.6973Z" fill="#050507"/>
<path d="M67.2348 208.211L58.9626 200.614L58.9556 200.622L67.2348 208.211ZM87.6248 176.029V164.798H80.4509L77.4345 171.307L87.6248 176.029ZM92.5381 176.029L102.994 180.129L109.007 164.798H92.5381V176.029ZM68.9545 216.072L77.1652 223.735L77.1968 223.702L77.2281 223.667L68.9545 216.072ZM20.3133 221.968L11.4478 228.863H11.4478L20.3133 221.968ZM23.5069 153.428L13.1302 149.131L23.5069 153.428ZM49.3015 112.157L41.0669 104.519L49.3015 112.157ZM94.749 100.611L86.4385 108.166L86.6183 108.363L86.8073 108.552L94.749 100.611ZM90.0815 139.425L81.3112 132.409L81.268 132.463L81.2255 132.518L90.0815 139.425ZM64.5325 160.798L58.9764 151.037L58.9437 151.056L58.9112 151.075L64.5325 160.798ZM31.6137 172.59L29.8702 161.495L22.5218 162.649L20.7177 169.866L31.6137 172.59ZM32.8421 214.107L23.9001 220.903L23.9672 220.991L24.0362 221.078L32.8421 214.107ZM52.9864 121.738L43.6787 115.452L43.6505 115.494L43.6227 115.536L52.9864 121.738ZM33.3334 165.711L22.5302 162.64L17.3882 180.725L35.7501 176.679L33.3334 165.711ZM60.3563 155.148L66.0508 164.828L66.1207 164.787L66.19 164.745L60.3563 155.148ZM80.255 136.969L71.1443 130.401L71.0935 130.471L71.0438 130.542L80.255 136.969ZM85.9052 106.015L76.3399 111.901L76.4469 112.075L76.5601 112.245L85.9052 106.015ZM45.3709 231.234C57.0799 231.234 67.1469 224.928 75.5141 215.8L58.9556 200.622C52.9106 207.216 48.4016 208.771 45.3709 208.771V231.234ZM75.5071 215.808C83.8849 206.685 91.2667 194.882 97.8152 180.751L77.4345 171.307C71.5361 184.035 65.3245 193.686 58.9626 200.614L75.5071 215.808ZM87.6248 187.26H92.5381V164.798H87.6248V187.26ZM82.082 171.929C75.8824 187.738 68.6668 199.778 60.6809 208.477L77.2281 223.667C87.585 212.386 96.0918 197.731 102.994 180.129L82.082 171.929ZM60.7437 208.409C53.0614 216.64 46.021 219.58 39.475 219.58V242.043C53.8921 242.043 66.5048 235.157 77.1652 223.735L60.7437 208.409ZM39.475 219.58C34.369 219.58 31.412 217.944 29.1788 215.073L11.4478 228.863C18.386 237.784 28.2034 242.043 39.475 242.043V219.58ZM29.1788 215.073C26.6383 211.806 24.6661 206.372 24.6661 197.402H2.20335C2.20335 209.395 4.81681 220.338 11.4478 228.863L29.1788 215.073ZM24.6661 197.402C24.6661 186.183 27.5523 173.013 33.8836 157.725L13.1302 149.131C6.03188 166.27 2.20335 182.417 2.20335 197.402H24.6661ZM33.8836 157.725C40.1581 142.575 48.0775 129.992 57.536 119.795L41.0669 104.519C29.5622 116.922 20.2852 131.854 13.1302 149.131L33.8836 157.725ZM57.536 119.795C66.8156 109.79 74.6925 106.437 81.2376 106.437V83.9746C66.1643 83.9746 52.7506 91.9225 41.0669 104.519L57.536 119.795ZM81.2376 106.437C84.4184 106.437 85.6718 107.322 86.4385 108.166L103.06 93.0555C97.2753 86.6929 89.521 83.9746 81.2376 83.9746V106.437ZM86.8073 108.552C87.7071 109.452 88.6766 111.022 88.6766 114.613H111.139C111.139 106.413 108.67 98.6476 102.691 92.6688L86.8073 108.552ZM88.6766 114.613C88.6766 119.821 86.685 125.692 81.3112 132.409L98.8517 146.441C106.58 136.781 111.139 126.111 111.139 114.613H88.6766ZM81.2255 132.518C75.8879 139.361 68.5711 145.576 58.9764 151.037L70.0887 170.559C81.7847 163.901 91.5005 155.867 98.9374 146.333L81.2255 132.518ZM58.9112 151.075C49.5742 156.473 39.9097 159.917 29.8702 161.495L33.3573 183.685C46.2463 181.66 58.5277 177.243 70.1539 170.521L58.9112 151.075ZM20.7177 169.866C18.2728 179.645 16.9431 188.698 16.9431 196.91H39.4058C39.4058 191.038 40.369 183.877 42.5098 175.314L20.7177 169.866ZM16.9431 196.91C16.9431 205.705 18.7817 214.168 23.9001 220.903L41.784 207.311C40.679 205.857 39.4058 202.856 39.4058 196.91H16.9431ZM24.0362 221.078C29.3878 227.838 36.8786 231.234 45.3709 231.234V208.771C43.3815 208.771 42.5198 208.237 41.648 207.135L24.0362 221.078ZM79.0266 91.5902C64.3994 91.5902 52.7864 101.965 43.6787 115.452L62.2941 128.023C70.219 116.288 75.9662 114.053 79.0266 114.053V91.5902ZM43.6227 115.536C34.5457 129.24 27.5497 144.985 22.5302 162.64L44.1366 168.783C48.616 153.027 54.7221 139.456 62.3501 127.94L43.6227 115.536ZM35.7501 176.679C46.5417 174.302 56.6587 170.353 66.0508 164.828L54.6617 145.467C47.3488 149.769 39.4505 152.863 30.9166 154.743L35.7501 176.679ZM66.19 164.745C75.6925 158.969 83.5441 151.883 89.4661 143.395L71.0438 130.542C67.1393 136.139 61.7252 141.172 54.5225 145.55L66.19 164.745ZM89.3656 143.537C95.6704 134.791 99.1019 125.078 99.1019 114.613H76.6391C76.6391 119.871 74.9936 125.061 71.1443 130.401L89.3656 143.537ZM99.1019 114.613C99.1019 109.836 98.3225 104.394 95.2503 99.7851L76.5601 112.245C76.2989 111.853 76.3349 111.724 76.4302 112.141C76.5262 112.562 76.6391 113.35 76.6391 114.613H99.1019ZM95.4705 100.129C91.4885 93.6581 84.8326 91.5902 79.0266 91.5902V114.053C79.4948 114.053 79.1787 114.134 78.4733 113.807C78.1078 113.637 77.6936 113.382 77.2885 113.023C76.8826 112.663 76.5677 112.272 76.3399 111.901L95.4705 100.129ZM179.543 43.6168L188.093 50.9L188.158 50.8235L188.222 50.7458L179.543 43.6168ZM170.208 59.5849L159.761 55.4611L159.714 55.5811L159.669 55.7022L170.208 59.5849ZM160.627 88.8188L149.895 85.5065L149.892 85.5158L160.627 88.8188ZM157.679 98.3996L146.944 95.0966L142.472 109.631H157.679V98.3996ZM211.97 97.1713L215.748 107.748L211.97 97.1713ZM217.866 94.2233L222.514 83.9987L216.678 81.3458L211.426 85.0223L217.866 94.2233ZM220.569 95.4517L231.248 98.9287L234.357 89.3817L225.216 85.227L220.569 95.4517ZM186.176 201.087L175.496 197.61L175.375 197.982L175.28 198.363L186.176 201.087ZM184.702 206.491L173.88 203.485V203.485L184.702 206.491ZM184.456 218.283L174.705 223.855L175.195 224.714L175.828 225.473L184.456 218.283ZM203.372 209.685L194.518 202.774L203.372 209.685ZM218.112 184.136V172.905H210.813L207.849 179.574L218.112 184.136ZM223.271 184.136L233.728 188.234L239.735 172.905H223.271V184.136ZM205.092 215.826L213.72 223.016L213.752 222.978L213.784 222.938L205.092 215.826ZM172.664 200.841L161.974 197.396L161.966 197.421L161.958 197.446L172.664 200.841ZM203.618 104.787L214.308 108.232L219.037 93.5555H203.618V104.787ZM155.714 104.787V93.5555H147.367L144.96 101.548L155.714 104.787ZM125.006 206.737L135.744 210.029L135.752 210.002L135.76 209.976L125.006 206.737ZM97.246 261.028L105.773 268.338L105.799 268.308L105.824 268.279L97.246 261.028ZM45.9025 279.699L52.5085 270.615H52.5085L45.9025 279.699ZM46.8851 266.187L39.869 257.417L39.6964 257.555L39.5294 257.7L46.8851 266.187ZM64.8185 265.942L59.4059 275.783L59.5988 275.889L59.7957 275.987L64.8185 265.942ZM69.2404 267.661L73.4117 257.233L72.947 257.047L72.4677 256.903L69.2404 267.661ZM87.1738 262.748L95.2827 270.519L95.3689 270.429L95.4531 270.337L87.1738 262.748ZM97.983 244.078L108.327 248.454L108.363 248.369L108.397 248.283L97.983 244.078ZM110.266 207.965L121.008 211.244L121.012 211.23L121.017 211.216L110.266 207.965ZM141.465 104.787L152.216 108.038L156.595 93.5555H141.465V104.787ZM118.864 104.787L108.13 101.484L103.657 116.018H118.864V104.787ZM120.83 98.3996V87.1682H112.534L110.095 95.0966L120.83 98.3996ZM143.431 98.3996V109.631H151.787L154.188 101.627L143.431 98.3996ZM146.379 88.5731L157.136 91.8004L157.141 91.785L157.145 91.7695L146.379 88.5731ZM169.471 42.8798L161.393 35.0762L161.391 35.0786L169.471 42.8798ZM226.71 31.5794L221.361 41.455L221.523 41.5427L221.687 41.625L226.71 31.5794ZM229.904 45.8278L221.33 38.573L221.303 38.6052L221.276 38.6376L229.904 45.8278ZM217.129 47.5474L222.152 37.5018L222.152 37.5018L217.129 47.5474ZM210.005 43.3712L203.884 52.788L203.946 52.828L204.008 52.8672L210.005 43.3712ZM201.653 38.4579L206.675 28.4123L206.675 28.4123L201.653 38.4579ZM193.546 25.5069C184.371 25.5069 176.604 29.5006 170.864 36.4879L188.222 50.7458C190.016 48.5617 191.584 47.9697 193.546 47.9697V25.5069ZM170.993 36.3337C166.313 41.8279 162.604 48.2588 159.761 55.4611L180.655 63.7087C182.725 58.4641 185.239 54.2496 188.093 50.9L170.993 36.3337ZM159.669 55.7022C157.266 62.2237 153.999 72.2085 149.895 85.5065L171.359 92.1311C175.443 78.8975 178.564 69.393 180.747 63.4677L159.669 55.7022ZM149.892 85.5158L146.944 95.0966L168.414 101.703L171.362 92.1218L149.892 85.5158ZM157.679 109.631H205.583V87.1682H157.679V109.631ZM205.583 109.631C209.102 109.631 212.521 108.901 215.748 107.748L208.193 86.5942C206.834 87.0796 205.995 87.1682 205.583 87.1682V109.631ZM215.748 107.748C218.789 106.662 221.691 105.255 224.307 103.424L211.426 85.0223C210.766 85.4841 209.738 86.0424 208.193 86.5942L215.748 107.748ZM213.219 104.448L215.921 105.676L225.216 85.227L222.514 83.9987L213.219 104.448ZM209.889 91.9746L175.496 197.61L196.855 204.564L231.248 98.9287L209.889 91.9746ZM175.28 198.363C175.16 198.841 174.717 200.473 173.88 203.485L195.523 209.497C196.325 206.613 196.864 204.642 197.072 203.811L175.28 198.363ZM173.88 203.485C172.951 206.832 172.242 210.334 172.242 213.615H194.705C194.705 213.294 194.815 212.046 195.523 209.497L173.88 203.485ZM172.242 213.615C172.242 216.65 172.719 220.38 174.705 223.855L194.208 212.711C194.565 213.335 194.68 213.802 194.71 213.942C194.738 214.079 194.705 213.995 194.705 213.615H172.242ZM175.828 225.473C179.548 229.937 184.672 230.988 188.387 230.988V208.526C188.464 208.526 189.086 208.531 189.997 208.872C190.989 209.244 192.132 209.95 193.084 211.093L175.828 225.473ZM188.387 230.988C198.56 230.988 206.464 223.978 212.226 216.595L194.518 202.774C192.35 205.552 190.627 207.113 189.43 207.917C188.291 208.683 188.001 208.526 188.387 208.526V230.988ZM212.226 216.595C218.179 208.968 223.53 199.599 228.375 188.697L207.849 179.574C203.522 189.308 199.047 196.972 194.518 202.774L212.226 216.595ZM218.112 195.367H223.271V172.905H218.112V195.367ZM212.814 180.038C208.442 191.194 202.945 200.714 196.399 208.714L213.784 222.938C221.978 212.924 228.601 201.316 233.728 188.234L212.814 180.038ZM196.464 208.636C190.15 216.212 185.475 217.861 182.491 217.861V240.324C194.901 240.324 205.294 233.128 213.72 223.016L196.464 208.636ZM182.491 217.861C181.205 217.861 180.531 217.699 180.286 217.619C180.092 217.555 180.294 217.59 180.592 217.881C180.894 218.178 180.959 218.411 180.919 218.294C180.86 218.12 180.702 217.526 180.702 216.318H158.239C158.239 222.362 159.795 228.946 164.86 233.916C169.886 238.847 176.473 240.324 182.491 240.324V217.861ZM180.702 216.318C180.702 214.501 181.324 210.69 183.37 204.236L161.958 197.446C159.747 204.421 158.239 210.928 158.239 216.318H180.702ZM183.354 204.286L214.308 108.232L192.928 101.342L161.974 197.396L183.354 204.286ZM203.618 93.5555H155.714V116.018H203.618V93.5555ZM144.96 101.548L114.252 203.498L135.76 209.976L166.468 108.026L144.96 101.548ZM114.268 203.445C107.706 224.85 99.0676 241.475 88.6682 253.778L105.824 268.279C118.68 253.068 128.549 233.498 135.744 210.029L114.268 203.445ZM88.7185 253.719C78.6988 265.409 67.9007 270.433 55.9747 270.433V292.895C75.4934 292.895 92.2095 284.162 105.773 268.338L88.7185 253.719ZM55.9747 270.433C53.9563 270.433 52.66 270.293 51.9226 270.149C51.5705 270.08 51.467 270.034 51.5437 270.063C51.6151 270.09 51.9914 270.239 52.5085 270.615L39.2965 288.782C42.0416 290.778 45.1114 291.706 47.6207 292.196C50.2407 292.707 53.0797 292.895 55.9747 292.895V270.433ZM52.5085 270.615C53.0127 270.982 53.5994 271.603 54.008 272.458C54.3982 273.274 54.4316 273.894 54.4316 274.048H31.9688C31.9688 279.67 34.2589 285.118 39.2965 288.782L52.5085 270.615ZM54.4316 274.048C54.4316 274.013 54.4346 274.057 54.4126 274.16C54.39 274.266 54.35 274.39 54.291 274.516C54.2324 274.641 54.1753 274.724 54.1467 274.761C54.1202 274.795 54.1393 274.763 54.2409 274.675L39.5294 257.7C34.7368 261.853 31.9688 267.517 31.9688 274.048H54.4316ZM53.9013 274.957C54.1772 274.737 54.5866 274.471 55.729 274.471V252.008C49.9928 252.008 44.5063 253.707 39.869 257.417L53.9013 274.957ZM55.729 274.471C56.0826 274.471 57.2428 274.593 59.4059 275.783L70.2311 256.1C65.8432 253.687 60.9437 252.008 55.729 252.008V274.471ZM59.7957 275.987C61.7689 276.974 63.8571 277.772 66.0131 278.419L72.4677 256.903C71.3482 256.568 70.4885 256.219 69.8413 255.896L59.7957 275.987ZM65.0692 278.089C67.9306 279.234 70.9802 279.875 74.1537 279.875V257.412C74.0517 257.412 73.8258 257.399 73.4117 257.233L65.0692 278.089ZM74.1537 279.875C82.4755 279.875 89.6502 276.396 95.2827 270.519L79.0649 254.977C77.1638 256.961 75.6584 257.412 74.1537 257.412V279.875ZM95.4531 270.337C100.334 265.012 104.535 257.416 108.327 248.454L87.6392 239.701C84.2251 247.771 81.2196 252.622 78.8946 255.159L95.4531 270.337ZM108.397 248.283C112.018 239.317 116.224 226.917 121.008 211.244L99.5241 204.686C94.8096 220.13 90.8264 231.805 87.5688 239.872L108.397 248.283ZM121.017 211.216L152.216 108.038L130.715 101.536L99.5155 204.714L121.017 211.216ZM141.465 93.5555H118.864V116.018H141.465V93.5555ZM129.599 108.09L131.564 101.703L110.095 95.0966L108.13 101.484L129.599 108.09ZM120.83 109.631H143.431V87.1682H120.83V109.631ZM154.188 101.627L157.136 91.8004L135.621 85.3458L132.673 95.1723L154.188 101.627ZM157.145 91.7695C163.153 71.5345 170.197 58.2974 177.551 50.6811L161.391 35.0786C150.402 46.4603 142.051 63.6853 135.612 85.3767L157.145 91.7695ZM177.548 50.6835C184.361 43.6318 193.906 39.6171 207.549 39.6171V17.1544C189.091 17.1544 173.251 22.8024 161.393 35.0762L177.548 50.6835ZM207.549 39.6171C216.016 39.6171 220.015 40.7261 221.361 41.455L232.06 21.7037C225.544 18.1745 216.769 17.1544 207.549 17.1544V39.6171ZM221.687 41.625C222.67 42.1165 222.608 42.2937 222.251 41.8328C222.053 41.5765 221.812 41.1818 221.63 40.6583C221.446 40.1308 221.375 39.6219 221.375 39.1949H243.837C243.837 30.1375 237.674 24.5041 231.733 21.5337L221.687 41.625ZM221.375 39.1949C221.375 39.0273 221.392 38.8577 221.424 38.6965C221.456 38.5365 221.497 38.414 221.529 38.3352C221.593 38.1785 221.592 38.2634 221.33 38.573L238.478 53.0826C241.609 49.382 243.837 44.6864 243.837 39.1949H221.375ZM221.276 38.6376C221.462 38.4135 221.694 38.1942 221.959 38.0029C222.224 37.8126 222.47 37.6875 222.662 37.6107C223.035 37.4616 223.072 37.5444 222.534 37.5444V60.0071C228.134 60.0071 234.189 58.2294 238.532 53.018L221.276 38.6376ZM222.534 37.5444C222.336 37.5444 222.232 37.5243 222.198 37.5166C222.167 37.5096 222.159 37.505 222.152 37.5018L212.107 57.5931C215.417 59.2481 218.956 60.0071 222.534 60.0071V37.5444ZM222.152 37.5018C221.035 36.9432 219.047 35.7976 216.003 33.8752L204.008 52.8672C207.187 54.8753 209.948 56.5139 212.107 57.5931L222.152 37.5018ZM216.126 33.9543C212.659 31.7008 209.487 29.8179 206.675 28.4123L196.63 48.5035C198.404 49.3908 200.8 50.7834 203.884 52.788L216.126 33.9543ZM206.675 28.4123C202.524 26.3368 198.033 25.5069 193.546 25.5069V47.9697C195.282 47.9697 196.195 48.2862 196.63 48.5036L206.675 28.4123ZM358.259 110.191L350.048 102.528L350.038 102.539L350.028 102.549L358.259 110.191ZM344.502 112.157L348.053 101.502L347.892 101.448L347.729 101.399L344.502 112.157ZM320.672 122.229L312.119 114.95L312.074 115.003L312.029 115.057L320.672 122.229ZM296.352 157.85L286.773 151.985L284.994 154.891L285.129 158.295L296.352 157.85ZM297.58 188.803L286.358 189.249L286.358 189.257L286.358 189.265L297.58 188.803ZM300.528 212.878L289.961 216.683L290.054 216.943L290.161 217.198L300.528 212.878ZM315.268 212.633L306.498 205.617L306.41 205.726L306.326 205.837L315.268 212.633ZM328.534 191.751V180.52H321.989L318.762 186.214L328.534 191.751ZM333.447 191.751L343.648 196.449L350.984 180.52H333.447V191.751ZM287.754 220.003L277.157 223.726L287.754 220.003ZM283.823 189.295L295.048 188.912L295.046 188.848L295.043 188.785L283.823 189.295ZM283.086 173.081L294.306 172.571L292.453 131.812L273.186 167.777L283.086 173.081ZM274.488 187.575L265.05 181.486L265.019 181.534L264.989 181.582L274.488 187.575ZM250.167 218.774L257.831 226.985L257.837 226.979L250.167 218.774ZM220.933 227.618L227.163 218.273L226.582 217.885L225.956 217.573L220.933 227.618ZM222.162 215.335L230.103 223.277H230.103L222.162 215.335ZM235.919 212.878L231.887 223.361L232.125 223.453L232.367 223.533L235.919 212.878ZM282.595 163.992L292.399 169.47L293.954 166.688L293.815 163.504L282.595 163.992ZM281.366 135.74L270.143 136.156L270.144 136.192L270.146 136.228L281.366 135.74ZM279.892 116.333L268.735 117.62L268.763 117.865L268.802 118.107L279.892 116.333ZM277.681 108.226L268.157 114.179L268.605 114.895L269.154 115.535L277.681 108.226ZM265.153 113.139L273.831 120.268V120.268L265.153 113.139ZM252.624 133.284V144.515H259.452L262.594 138.454L252.624 133.284ZM247.465 133.284L237.444 128.211L229.192 144.515H247.465V133.284ZM264.907 104.787L273.434 112.096L273.485 112.037L273.535 111.977L264.907 104.787ZM288.736 98.6453L280.794 106.587L280.983 106.776L281.181 106.956L288.736 98.6453ZM292.912 108.226L281.914 110.502L281.961 110.727L282.016 110.95L292.912 108.226ZM295.123 128.862L283.899 129.263L295.123 128.862ZM295.86 149.497L284.636 149.898L285.947 186.603L305.389 155.443L295.86 149.497ZM326.323 108.226L318.458 100.208L318.419 100.246L318.381 100.284L326.323 108.226ZM352.363 106.929C353.314 106.929 353.804 107.013 353.95 107.047C354.096 107.08 353.676 107.011 353.022 106.563C352.294 106.066 351.534 105.27 351.018 104.209C350.526 103.2 350.467 102.39 350.467 102.085H372.929C372.929 96.8069 370.756 91.4797 365.706 88.0248C361.423 85.094 356.406 84.466 352.363 84.466V106.929ZM350.467 102.085C350.467 102.088 350.467 102.061 350.476 102.016C350.485 101.971 350.497 101.941 350.499 101.936C350.507 101.917 350.427 102.122 350.048 102.528L366.469 117.855C370.411 113.631 372.929 108.278 372.929 102.085H350.467ZM350.028 102.549C349.799 102.796 349.799 102.72 350.07 102.593C350.199 102.533 350.352 102.48 350.515 102.444C350.678 102.408 350.808 102.399 350.889 102.399V124.862C357.199 124.862 362.526 122.102 366.489 117.834L350.028 102.549ZM350.889 102.399C351.232 102.399 351.403 102.429 351.341 102.42C351.294 102.413 351.132 102.387 350.835 102.318C350.227 102.178 349.318 101.923 348.053 101.502L340.95 122.812C343.902 123.796 347.575 124.862 350.889 124.862V102.399ZM347.729 101.399C344.167 100.331 340.362 99.4514 336.886 99.4514V121.914C336.836 121.914 337.165 121.915 338.007 122.078C338.812 122.234 339.889 122.499 341.274 122.914L347.729 101.399ZM336.886 99.4514C331.447 99.4514 326.74 101.845 323.124 104.421C319.385 107.084 315.717 110.722 312.119 114.95L329.225 129.508C332.179 126.038 334.489 123.904 336.154 122.718C337.942 121.445 338.067 121.914 336.886 121.914V99.4514ZM312.029 115.057C305.121 123.382 296.681 135.802 286.773 151.985L305.93 163.714C315.675 147.798 323.449 136.471 329.316 129.401L312.029 115.057ZM285.129 158.295L286.358 189.249L308.803 188.358L307.574 157.405L285.129 158.295ZM286.358 189.265C286.842 201.029 287.819 210.733 289.961 216.683L311.095 209.074C310.289 206.835 309.301 200.49 308.802 188.342L286.358 189.265ZM290.161 217.198C292.329 222.402 297.273 230.006 306.915 230.006V207.543C307.704 207.543 308.541 207.699 309.336 208.028C310.113 208.349 310.653 208.753 310.971 209.047C311.519 209.553 311.36 209.674 310.895 208.559L290.161 217.198ZM306.915 230.006C311.336 230.006 314.941 228.169 317.499 226.287C320.07 224.398 322.288 221.958 324.21 219.429L306.326 205.837C305.757 206.585 305.278 207.141 304.893 207.542C304.504 207.947 304.267 208.135 304.192 208.19C303.967 208.356 304.951 207.543 306.915 207.543V230.006ZM324.038 219.649C327.91 214.809 332.698 207.183 338.305 197.289L318.762 186.214C313.232 195.973 309.177 202.267 306.498 205.617L324.038 219.649ZM328.534 202.983H333.447V180.52H328.534V202.983ZM323.245 187.053C317.731 199.027 312.607 207.197 308.058 212.207C303.451 217.282 300.629 217.861 299.545 217.861V240.324C309.599 240.324 317.995 234.679 324.689 227.307C331.44 219.87 337.698 209.369 343.648 196.449L323.245 187.053ZM299.545 217.861C299.104 217.861 298.932 217.803 298.944 217.807C298.974 217.817 299.067 217.857 299.155 217.924C299.35 218.075 298.904 217.855 298.35 216.28L277.157 223.726C278.733 228.21 281.316 232.535 285.441 235.715C289.668 238.973 294.6 240.324 299.545 240.324V217.861ZM298.35 216.28C296.837 211.972 295.536 203.243 295.048 188.912L272.598 189.677C273.092 204.171 274.412 215.913 277.157 223.726L298.35 216.28ZM295.043 188.785L294.306 172.571L271.866 173.591L272.603 189.805L295.043 188.785ZM273.186 167.777C270.893 172.057 268.186 176.625 265.05 181.486L283.925 193.664C287.34 188.371 290.365 183.277 292.986 178.385L273.186 167.777ZM264.989 181.582C256.563 194.936 249.047 204.447 242.497 210.569L257.837 226.979C266.355 219.017 275.052 207.728 283.986 193.568L264.989 181.582ZM242.504 210.564C236.38 216.279 231.699 217.861 228.303 217.861V240.324C239.32 240.324 249.215 235.027 257.831 226.985L242.504 210.564ZM228.303 217.861C227.706 217.861 227.222 217.839 226.841 217.807C226.456 217.775 226.212 217.736 226.084 217.71C225.953 217.684 225.996 217.683 226.167 217.747C226.336 217.81 226.7 217.964 227.163 218.273L214.703 236.963C219.077 239.879 224.397 240.324 228.303 240.324V217.861ZM225.956 217.573C226.64 217.915 227.741 218.67 228.615 220.069C229.496 221.478 229.708 222.839 229.708 223.688H207.245C207.245 226.338 207.867 229.255 209.567 231.974C211.26 234.683 213.589 236.503 215.91 237.664L225.956 217.573ZM229.708 223.688C229.708 223.654 229.711 223.665 229.702 223.706C229.694 223.748 229.681 223.782 229.674 223.799C229.654 223.844 229.719 223.661 230.103 223.277L214.22 207.393C209.925 211.688 207.245 217.238 207.245 223.688H229.708ZM230.103 223.277C230.642 222.738 230.889 222.638 230.8 222.681C230.749 222.706 230.623 222.76 230.429 222.806C230.231 222.853 230.009 222.881 229.777 222.881V200.419C223.305 200.419 218.072 203.541 214.22 207.393L230.103 223.277ZM229.777 222.881C230.161 222.881 230.841 222.959 231.887 223.361L239.951 202.396C236.738 201.16 233.323 200.419 229.777 200.419V222.881ZM232.367 223.533C233.496 223.91 235.039 224.27 236.43 224.579L241.303 202.651C240.621 202.5 240.11 202.38 239.748 202.289C239.569 202.245 239.452 202.213 239.385 202.195C239.307 202.173 239.35 202.183 239.47 202.223L232.367 223.533ZM236.43 224.579C238.685 225.08 240.975 225.338 243.289 225.338V202.875C242.654 202.875 241.997 202.806 241.303 202.651L236.43 224.579ZM243.289 225.338C249.076 225.338 253.836 222.305 257.05 219.704C260.555 216.866 264.077 213.005 267.603 208.509C274.69 199.472 282.967 186.35 292.399 169.47L272.79 158.513C263.552 175.044 255.942 186.978 249.928 194.647C246.903 198.503 244.57 200.906 242.916 202.245C240.971 203.82 241.268 202.875 243.289 202.875V225.338ZM293.815 163.504L292.587 135.252L270.146 136.228L271.374 164.479L293.815 163.504ZM292.59 135.325C292.26 126.416 291.752 119.37 290.983 114.559L268.802 118.107C269.342 121.485 269.818 127.377 270.143 136.156L292.59 135.325ZM291.05 115.046C290.769 112.615 290.381 110.262 289.807 108.157C289.313 106.346 288.353 103.419 286.209 100.917L269.154 115.535C268.479 114.748 268.184 114.107 268.118 113.959C268.036 113.775 268.057 113.78 268.135 114.068C268.299 114.666 268.524 115.793 268.735 117.62L291.05 115.046ZM287.206 102.273C284.19 97.4485 279.226 95.0294 273.996 95.0294V117.492C273.297 117.492 272.138 117.343 270.861 116.662C269.554 115.966 268.673 115.003 268.157 114.179L287.206 102.273ZM273.996 95.0294C269.156 95.0294 265.41 97.4685 263.293 99.1149C260.895 100.98 258.615 103.403 256.474 106.01L273.831 120.268C274.615 119.315 275.29 118.56 275.861 117.976C276.439 117.383 276.845 117.032 277.084 116.846C277.341 116.646 277.264 116.748 276.869 116.927C276.479 117.103 275.469 117.492 273.996 117.492V95.0294ZM256.474 106.01C251.987 111.473 247.392 118.974 242.653 128.114L262.594 138.454C267.027 129.905 270.784 123.978 273.831 120.268L256.474 106.01ZM252.624 122.052H247.465V144.515H252.624V122.052ZM257.486 138.356C264.106 125.277 269.43 116.768 273.434 112.096L256.379 97.4776C250.557 104.27 244.253 114.759 237.444 128.211L257.486 138.356ZM273.535 111.977C277.006 107.812 279.505 107.174 281.121 107.174V84.7116C270.945 84.7116 262.635 89.9696 256.279 97.5967L273.535 111.977ZM281.121 107.174C281.746 107.174 281.891 107.262 281.725 107.203C281.638 107.172 281.491 107.109 281.31 106.997C281.128 106.884 280.952 106.744 280.794 106.587L296.678 90.7035C292.215 86.2402 286.485 84.7116 281.121 84.7116V107.174ZM281.181 106.956C280.517 106.352 280.52 106.034 280.836 106.757C281.128 107.427 281.524 108.615 281.914 110.502L303.911 105.951C302.846 100.803 300.893 94.5177 296.291 90.3347L281.181 106.956ZM282.016 110.95C282.87 114.363 283.579 120.288 283.899 129.263L306.348 128.461C306.013 119.092 305.248 111.261 303.808 105.502L282.016 110.95ZM283.899 129.263L284.636 149.898L307.085 149.097L306.348 128.461L283.899 129.263ZM305.389 155.443C317.223 136.476 326.836 123.596 334.264 116.168L318.381 100.284C309.104 109.561 298.409 124.196 286.332 143.552L305.389 155.443ZM334.187 116.245C341.355 109.215 347.367 106.929 352.363 106.929V84.466C339.671 84.466 328.323 90.5326 318.458 100.208L334.187 116.245Z" fill="#E8E2F0" mask="url(#path-1-outside-1_1031_50)"/>
</svg>
