<svg width="349" height="274" viewBox="0 0 349 274" fill="none" xmlns="http://www.w3.org/2000/svg">
<mask id="path-1-outside-1_985_8" maskUnits="userSpaceOnUse" x="3.01562" y="15.7578" width="339" height="253" fill="black">
<rect fill="white" x="3.01562" y="15.7578" width="339" height="253"/>
<path d="M42.6657 201.799C49.3997 201.799 56.0589 198.208 62.6433 191.025C69.3774 183.692 75.5877 173.89 81.2742 161.619H85.7636C79.7777 176.883 72.5948 189.079 64.2146 198.208C55.8345 207.187 46.8557 211.676 37.2784 211.676C29.7961 211.676 23.96 208.982 19.7699 203.595C15.5798 198.208 13.4848 190.726 13.4848 181.148C13.4848 169.177 16.5525 155.783 22.688 140.968C28.8234 126.153 36.6798 113.583 46.2571 103.258C55.8345 92.9322 65.5614 87.7694 75.438 87.7694C80.6756 87.7694 84.7909 89.4155 87.7838 92.7077C90.9263 95.8503 92.4976 100.115 92.4976 105.502C92.4976 113.134 89.5047 120.691 83.5189 128.174C77.6827 135.656 69.9011 142.166 60.1742 147.702C50.5969 153.239 40.5706 156.831 30.0954 158.477C28.0004 166.857 26.9529 174.265 26.9529 180.699C26.9529 187.433 28.3745 192.671 31.2178 196.412C34.061 200.004 37.877 201.799 42.6657 201.799ZM73.4178 94.7279C65.337 94.7279 57.4057 100.489 49.6242 112.012C41.9923 123.535 36.0064 136.928 31.6667 152.192C40.4958 150.246 48.7263 147.029 56.3582 142.54C63.9901 137.901 70.0508 132.364 74.5402 125.929C79.1792 119.494 81.4987 112.685 81.4987 105.502C81.4987 102.061 80.9001 99.4418 79.7029 97.646C78.5058 95.7006 76.4107 94.7279 73.4178 94.7279ZM178.057 34.3459C172.969 34.3459 168.704 36.441 165.262 40.6311C161.82 44.6715 158.977 49.535 156.732 55.2215C154.637 60.908 151.719 69.8119 147.978 81.9332L145.284 90.6875H189.056C190.852 90.6875 192.797 90.3134 194.892 89.5651C196.987 88.8169 198.783 87.919 200.279 86.8715L202.748 87.9939L171.323 184.515C171.173 185.114 170.724 186.76 169.976 189.454C169.228 192.147 168.854 194.317 168.854 195.963C168.854 197.759 169.153 199.18 169.752 200.228C170.5 201.126 171.697 201.575 173.343 201.575C177.683 201.575 182.247 198.507 187.036 192.372C191.824 186.236 196.314 178.455 200.504 169.027H205.218C200.878 180.101 195.341 189.753 188.607 197.983C181.873 206.064 174.989 210.105 167.956 210.105C160.025 210.105 156.059 206.214 156.059 198.432C156.059 195.14 157.032 190.426 158.977 184.291L187.26 96.5237H143.489L115.43 189.678C109.145 210.179 100.69 226.715 90.0653 239.286C79.2908 251.856 66.7206 258.141 52.3546 258.141C47.8652 258.141 44.7975 257.542 43.1514 256.345C41.5053 255.148 40.6823 253.427 40.6823 251.182C40.6823 248.339 41.8046 245.945 44.0493 243.999C46.294 242.204 48.9876 241.306 52.1301 241.306C54.6741 241.306 57.4426 242.129 60.4355 243.775C61.6326 244.373 62.9794 244.897 64.4759 245.346C65.9724 245.945 67.4688 246.244 68.9653 246.244C73.4546 246.244 77.4202 244.448 80.8621 240.857C84.1543 237.265 87.4465 231.579 90.7387 223.797C93.8813 216.016 97.6224 205.017 101.962 190.8L130.47 96.5237H109.819L111.614 90.6875H132.265L134.959 81.7087C140.645 62.5541 147.679 48.6371 156.059 39.9576C164.589 31.1286 176.186 26.714 190.852 26.714C198.932 26.714 204.769 27.6867 208.36 29.6321C211.952 31.4279 213.747 33.7474 213.747 36.5906C213.747 38.6857 212.924 40.7059 211.278 42.6513C209.782 44.447 207.537 45.3449 204.544 45.3449C202.748 45.3449 201.102 44.9708 199.606 44.2225C198.109 43.4743 195.94 42.2023 193.096 40.4066C190.103 38.4612 187.559 36.9647 185.464 35.9172C183.369 34.8697 180.9 34.3459 178.057 34.3459ZM323.172 88.2183C328.859 88.2183 331.702 90.1637 331.702 94.0545C331.702 96.7481 330.654 99.2173 328.559 101.462C326.614 103.557 324.369 104.605 321.825 104.605C320.628 104.605 318.683 104.156 315.989 103.258C312.996 102.36 310.677 101.911 309.031 101.911C305.14 101.911 300.202 105.428 294.216 112.461C288.38 119.494 280.972 130.344 271.993 145.009L273.116 173.292C273.565 184.216 274.463 191.549 275.809 195.29C277.306 198.881 279.251 200.677 281.645 200.677C283.89 200.677 286.434 198.806 289.277 195.065C292.27 191.324 296.311 184.964 301.399 175.985H305.888C295.413 198.732 285.087 210.105 274.911 210.105C269.674 210.105 266.082 207.336 264.137 201.799C262.192 196.262 260.994 186.91 260.545 173.741L259.872 158.926C257.627 163.116 255.009 167.53 252.016 172.169C244.084 184.74 236.677 194.242 229.793 200.677C223.059 206.962 216.4 210.105 209.816 210.105C206.673 210.105 204.428 209.656 203.082 208.758C201.585 208.01 200.837 206.812 200.837 205.166C200.837 202.323 201.959 199.779 204.204 197.534C206.449 195.29 208.768 194.167 211.162 194.167C212.958 194.167 214.829 194.541 216.774 195.29C217.223 195.439 218.121 195.664 219.468 195.963C220.815 196.262 222.161 196.412 223.508 196.412C230.392 196.412 242.364 181.148 259.423 150.621L258.301 124.807C258.001 116.726 257.553 110.815 256.954 107.074C256.505 103.183 255.832 100.714 254.934 99.6662C254.186 98.4691 253.063 97.8705 251.567 97.8705C249.621 97.8705 246.928 99.9655 243.486 104.156C240.044 108.346 236.228 114.481 232.038 122.562H227.324C233.46 110.441 238.772 101.761 243.261 96.5237C247.751 91.1364 252.689 88.4428 258.076 88.4428C261.069 88.4428 263.389 89.2659 265.035 90.912C266.681 92.4084 267.953 95.3265 268.851 99.6662C269.898 103.856 270.572 110.141 270.871 118.522L271.544 137.377C282.469 119.868 291.747 107.298 299.378 99.6662C307.16 92.0343 315.091 88.2183 323.172 88.2183Z"/>
</mask>
<path d="M42.6657 201.799C49.3997 201.799 56.0589 198.208 62.6433 191.025C69.3774 183.692 75.5877 173.89 81.2742 161.619H85.7636C79.7777 176.883 72.5948 189.079 64.2146 198.208C55.8345 207.187 46.8557 211.676 37.2784 211.676C29.7961 211.676 23.96 208.982 19.7699 203.595C15.5798 198.208 13.4848 190.726 13.4848 181.148C13.4848 169.177 16.5525 155.783 22.688 140.968C28.8234 126.153 36.6798 113.583 46.2571 103.258C55.8345 92.9322 65.5614 87.7694 75.438 87.7694C80.6756 87.7694 84.7909 89.4155 87.7838 92.7077C90.9263 95.8503 92.4976 100.115 92.4976 105.502C92.4976 113.134 89.5047 120.691 83.5189 128.174C77.6827 135.656 69.9011 142.166 60.1742 147.702C50.5969 153.239 40.5706 156.831 30.0954 158.477C28.0004 166.857 26.9529 174.265 26.9529 180.699C26.9529 187.433 28.3745 192.671 31.2178 196.412C34.061 200.004 37.877 201.799 42.6657 201.799ZM73.4178 94.7279C65.337 94.7279 57.4057 100.489 49.6242 112.012C41.9923 123.535 36.0064 136.928 31.6667 152.192C40.4958 150.246 48.7263 147.029 56.3582 142.54C63.9901 137.901 70.0508 132.364 74.5402 125.929C79.1792 119.494 81.4987 112.685 81.4987 105.502C81.4987 102.061 80.9001 99.4418 79.7029 97.646C78.5058 95.7006 76.4107 94.7279 73.4178 94.7279ZM178.057 34.3459C172.969 34.3459 168.704 36.441 165.262 40.6311C161.82 44.6715 158.977 49.535 156.732 55.2215C154.637 60.908 151.719 69.8119 147.978 81.9332L145.284 90.6875H189.056C190.852 90.6875 192.797 90.3134 194.892 89.5651C196.987 88.8169 198.783 87.919 200.279 86.8715L202.748 87.9939L171.323 184.515C171.173 185.114 170.724 186.76 169.976 189.454C169.228 192.147 168.854 194.317 168.854 195.963C168.854 197.759 169.153 199.18 169.752 200.228C170.5 201.126 171.697 201.575 173.343 201.575C177.683 201.575 182.247 198.507 187.036 192.372C191.824 186.236 196.314 178.455 200.504 169.027H205.218C200.878 180.101 195.341 189.753 188.607 197.983C181.873 206.064 174.989 210.105 167.956 210.105C160.025 210.105 156.059 206.214 156.059 198.432C156.059 195.14 157.032 190.426 158.977 184.291L187.26 96.5237H143.489L115.43 189.678C109.145 210.179 100.69 226.715 90.0653 239.286C79.2908 251.856 66.7206 258.141 52.3546 258.141C47.8652 258.141 44.7975 257.542 43.1514 256.345C41.5053 255.148 40.6823 253.427 40.6823 251.182C40.6823 248.339 41.8046 245.945 44.0493 243.999C46.294 242.204 48.9876 241.306 52.1301 241.306C54.6741 241.306 57.4426 242.129 60.4355 243.775C61.6326 244.373 62.9794 244.897 64.4759 245.346C65.9724 245.945 67.4688 246.244 68.9653 246.244C73.4546 246.244 77.4202 244.448 80.8621 240.857C84.1543 237.265 87.4465 231.579 90.7387 223.797C93.8813 216.016 97.6224 205.017 101.962 190.8L130.47 96.5237H109.819L111.614 90.6875H132.265L134.959 81.7087C140.645 62.5541 147.679 48.6371 156.059 39.9576C164.589 31.1286 176.186 26.714 190.852 26.714C198.932 26.714 204.769 27.6867 208.36 29.6321C211.952 31.4279 213.747 33.7474 213.747 36.5906C213.747 38.6857 212.924 40.7059 211.278 42.6513C209.782 44.447 207.537 45.3449 204.544 45.3449C202.748 45.3449 201.102 44.9708 199.606 44.2225C198.109 43.4743 195.94 42.2023 193.096 40.4066C190.103 38.4612 187.559 36.9647 185.464 35.9172C183.369 34.8697 180.9 34.3459 178.057 34.3459ZM323.172 88.2183C328.859 88.2183 331.702 90.1637 331.702 94.0545C331.702 96.7481 330.654 99.2173 328.559 101.462C326.614 103.557 324.369 104.605 321.825 104.605C320.628 104.605 318.683 104.156 315.989 103.258C312.996 102.36 310.677 101.911 309.031 101.911C305.14 101.911 300.202 105.428 294.216 112.461C288.38 119.494 280.972 130.344 271.993 145.009L273.116 173.292C273.565 184.216 274.463 191.549 275.809 195.29C277.306 198.881 279.251 200.677 281.645 200.677C283.89 200.677 286.434 198.806 289.277 195.065C292.27 191.324 296.311 184.964 301.399 175.985H305.888C295.413 198.732 285.087 210.105 274.911 210.105C269.674 210.105 266.082 207.336 264.137 201.799C262.192 196.262 260.994 186.91 260.545 173.741L259.872 158.926C257.627 163.116 255.009 167.53 252.016 172.169C244.084 184.74 236.677 194.242 229.793 200.677C223.059 206.962 216.4 210.105 209.816 210.105C206.673 210.105 204.428 209.656 203.082 208.758C201.585 208.01 200.837 206.812 200.837 205.166C200.837 202.323 201.959 199.779 204.204 197.534C206.449 195.29 208.768 194.167 211.162 194.167C212.958 194.167 214.829 194.541 216.774 195.29C217.223 195.439 218.121 195.664 219.468 195.963C220.815 196.262 222.161 196.412 223.508 196.412C230.392 196.412 242.364 181.148 259.423 150.621L258.301 124.807C258.001 116.726 257.553 110.815 256.954 107.074C256.505 103.183 255.832 100.714 254.934 99.6662C254.186 98.4691 253.063 97.8705 251.567 97.8705C249.621 97.8705 246.928 99.9655 243.486 104.156C240.044 108.346 236.228 114.481 232.038 122.562H227.324C233.46 110.441 238.772 101.761 243.261 96.5237C247.751 91.1364 252.689 88.4428 258.076 88.4428C261.069 88.4428 263.389 89.2659 265.035 90.912C266.681 92.4084 267.953 95.3265 268.851 99.6662C269.898 103.856 270.572 110.141 270.871 118.522L271.544 137.377C282.469 119.868 291.747 107.298 299.378 99.6662C307.16 92.0343 315.091 88.2183 323.172 88.2183Z" fill="#050507"/>
<path d="M62.6433 191.025L55.0848 184.083L55.0784 184.09L62.6433 191.025ZM81.2742 161.619V151.357H74.7192L71.963 157.305L81.2742 161.619ZM85.7636 161.619L95.3176 165.366L100.811 151.357H85.7636V161.619ZM64.2146 198.208L71.717 205.21L71.7458 205.179L71.7744 205.148L64.2146 198.208ZM19.7699 203.595L11.6692 209.896H11.6692L19.7699 203.595ZM22.688 140.968L13.2065 137.042L22.688 140.968ZM46.2571 103.258L38.7331 96.2788H38.7331L46.2571 103.258ZM87.7838 92.7077L80.1902 99.6109L80.3545 99.7916L80.5272 99.9643L87.7838 92.7077ZM83.5189 128.174L75.5053 121.763L75.4658 121.812L75.427 121.862L83.5189 128.174ZM60.1742 147.702L55.0974 138.784L55.0676 138.801L55.0378 138.818L60.1742 147.702ZM30.0954 158.477L28.5023 148.339L21.7879 149.394L20.1395 155.988L30.0954 158.477ZM31.2178 196.412L23.0472 202.622L23.1086 202.702L23.1716 202.782L31.2178 196.412ZM49.6242 112.012L41.1195 106.269L41.0937 106.307L41.0683 106.345L49.6242 112.012ZM31.6667 152.192L21.7955 149.385L17.0972 165.911L33.8749 162.214L31.6667 152.192ZM56.3582 142.54L61.5615 151.385L61.6253 151.348L61.6887 151.309L56.3582 142.54ZM74.5402 125.929L66.2155 119.928L66.1691 119.992L66.1237 120.057L74.5402 125.929ZM79.7029 97.646L70.9629 103.025L71.0606 103.183L71.1641 103.339L79.7029 97.646ZM42.6657 212.062C53.3645 212.062 62.563 206.3 70.2083 197.959L55.0784 184.09C49.5549 190.116 45.4349 191.537 42.6657 191.537V212.062ZM70.2019 197.966C77.8569 189.631 84.6019 178.846 90.5854 165.934L71.963 157.305C66.5735 168.935 60.8978 177.753 55.0848 184.083L70.2019 197.966ZM81.2742 171.882H85.7636V151.357H81.2742V171.882ZM76.2096 157.873C70.5448 172.318 63.9517 183.319 56.6548 191.268L71.7744 205.148C81.2378 194.84 89.0107 181.449 95.3176 165.366L76.2096 157.873ZM56.7122 191.206C49.6927 198.727 43.2597 201.414 37.2784 201.414V221.938C50.4517 221.938 61.9763 215.646 71.717 205.21L56.7122 191.206ZM37.2784 201.414C32.6129 201.414 29.9111 199.918 27.8705 197.295L11.6692 209.896C18.0089 218.046 26.9793 221.938 37.2784 221.938V201.414ZM27.8705 197.295C25.5492 194.31 23.7472 189.345 23.7472 181.148H3.22239C3.22239 192.106 5.61038 202.106 11.6692 209.896L27.8705 197.295ZM23.7472 181.148C23.7472 170.897 26.3844 158.864 32.1694 144.895L13.2065 137.042C6.72062 152.703 3.22239 167.456 3.22239 181.148H23.7472ZM32.1694 144.895C37.9026 131.051 45.1388 119.554 53.7812 110.237L38.7331 96.2788C28.2209 107.612 19.7442 121.256 13.2065 137.042L32.1694 144.895ZM53.7812 110.237C62.2602 101.095 69.4576 98.0318 75.438 98.0318V77.507C61.6652 77.507 49.4087 84.7692 38.7331 96.2788L53.7812 110.237ZM75.438 98.0318C78.3444 98.0318 79.4896 98.8403 80.1902 99.6109L95.3773 85.8045C90.0921 79.9907 83.0068 77.507 75.438 77.507V98.0318ZM80.5272 99.9643C81.3493 100.786 82.2352 102.221 82.2352 105.502H102.76C102.76 98.0095 100.503 90.914 95.0404 85.4511L80.5272 99.9643ZM82.2352 105.502C82.2352 110.261 80.4155 115.625 75.5053 121.763L91.5325 134.585C98.594 125.758 102.76 116.008 102.76 105.502H82.2352ZM75.427 121.862C70.5499 128.115 63.8643 133.793 55.0974 138.784L65.251 156.621C75.938 150.538 84.8155 143.197 91.6108 134.485L75.427 121.862ZM55.0378 138.818C46.5063 143.75 37.6757 146.897 28.5023 148.339L31.6885 168.615C43.4656 166.764 54.6874 162.728 65.3105 156.587L55.0378 138.818ZM20.1395 155.988C17.9055 164.924 16.6905 173.196 16.6905 180.699H37.2153C37.2153 175.334 38.0953 168.79 40.0514 160.966L20.1395 155.988ZM16.6905 180.699C16.6905 188.735 18.3704 196.468 23.0472 202.622L39.3883 190.202C38.3786 188.874 37.2153 186.132 37.2153 180.699H16.6905ZM23.1716 202.782C28.0615 208.959 34.9061 212.062 42.6657 212.062V191.537C40.8479 191.537 40.0606 191.048 39.264 190.042L23.1716 202.782ZM73.4178 84.4655C60.0525 84.4655 49.4414 93.9457 41.1195 106.269L58.1289 117.755C65.3701 107.033 70.6214 104.99 73.4178 104.99V84.4655ZM41.0683 106.345C32.7744 118.867 26.382 133.254 21.7955 149.385L41.5379 154.998C45.6308 140.602 51.2101 128.202 58.1801 117.679L41.0683 106.345ZM33.8749 162.214C43.7355 160.041 52.9796 156.433 61.5615 151.385L51.155 133.694C44.473 137.625 37.2561 140.452 29.4585 142.17L33.8749 162.214ZM61.6887 151.309C70.3713 146.031 77.5456 139.557 82.9566 131.801L66.1237 120.057C62.556 125.171 57.609 129.77 51.0278 133.77L61.6887 151.309ZM82.8648 131.93C88.6256 123.94 91.7611 115.064 91.7611 105.502H71.2363C71.2363 110.307 69.7327 115.049 66.2155 119.928L82.8648 131.93ZM91.7611 105.502C91.7611 101.138 91.049 96.1643 88.2418 91.9535L71.1641 103.339C70.9254 102.98 70.9583 102.863 71.0454 103.244C71.1331 103.628 71.2363 104.348 71.2363 105.502H91.7611ZM88.443 92.2675C84.8046 86.3551 78.7229 84.4655 73.4178 84.4655V104.99C73.8456 104.99 73.5568 105.065 72.9122 104.766C72.5782 104.61 72.1997 104.377 71.8296 104.049C71.4587 103.72 71.171 103.363 70.9629 103.025L88.443 92.2675ZM165.262 40.6311L173.074 47.2859L173.134 47.216L173.192 47.145L165.262 40.6311ZM156.732 55.2215L147.187 51.4535L147.143 51.5631L147.103 51.6737L156.732 55.2215ZM147.978 81.9332L138.172 78.9067L138.17 78.9152L147.978 81.9332ZM145.284 90.6875L135.476 87.6695L131.39 100.95H145.284V90.6875ZM194.892 89.5651L198.344 99.2297L194.892 89.5651ZM200.279 86.8715L204.526 77.529L199.193 75.105L194.394 78.4643L200.279 86.8715ZM202.748 87.9939L212.507 91.171L215.347 82.4476L206.995 78.6513L202.748 87.9939ZM171.323 184.515L161.565 181.338L161.454 181.679L161.367 182.026L171.323 184.515ZM169.976 189.454L160.088 186.707V186.707L169.976 189.454ZM169.752 200.228L160.841 205.32L161.289 206.104L161.868 206.798L169.752 200.228ZM187.036 192.372L178.946 186.057L187.036 192.372ZM200.504 169.027V158.765H193.834L191.126 164.859L200.504 169.027ZM205.218 169.027L214.772 172.771L220.262 158.765H205.218V169.027ZM188.607 197.983L196.491 204.553L196.52 204.518L196.55 204.482L188.607 197.983ZM158.977 184.291L149.209 181.143L149.202 181.166L149.195 181.189L158.977 184.291ZM187.26 96.5237L197.028 99.6713L201.349 86.2613H187.26V96.5237ZM143.489 96.5237V86.2613H135.862L133.662 93.5639L143.489 96.5237ZM115.43 189.678L125.242 192.686L125.249 192.662L125.257 192.638L115.43 189.678ZM90.0653 239.286L97.8571 245.964L97.8801 245.937L97.903 245.91L90.0653 239.286ZM43.1514 256.345L49.1875 248.046H49.1875L43.1514 256.345ZM44.0493 243.999L37.6384 235.986L37.4807 236.112L37.3281 236.244L44.0493 243.999ZM60.4355 243.775L55.4898 252.767L55.6661 252.864L55.846 252.954L60.4355 243.775ZM64.4759 245.346L68.2873 235.818L67.8627 235.648L67.4248 235.517L64.4759 245.346ZM80.8621 240.857L88.2714 247.957L88.3502 247.875L88.4271 247.791L80.8621 240.857ZM90.7387 223.797L100.19 227.796L100.223 227.718L100.254 227.64L90.7387 223.797ZM101.962 190.8L111.777 193.797L111.781 193.784L111.785 193.771L101.962 190.8ZM130.47 96.5237L140.293 99.494L144.294 86.2613H130.47V96.5237ZM109.819 96.5237L100.01 93.5056L95.9237 106.786H109.819V96.5237ZM111.614 90.6875V80.4251H104.035L101.806 87.6695L111.614 90.6875ZM132.265 90.6875V100.95H139.901L142.095 93.6364L132.265 90.6875ZM134.959 81.7087L144.789 84.6576L144.793 84.6435L144.797 84.6294L134.959 81.7087ZM156.059 39.9576L148.678 32.8272L148.676 32.8295L156.059 39.9576ZM208.36 29.6321L203.472 38.6557L203.62 38.7358L203.771 38.8111L208.36 29.6321ZM211.278 42.6513L203.444 36.0224L203.419 36.0518L203.394 36.0814L211.278 42.6513ZM199.606 44.2225L204.195 35.0436V35.0436L199.606 44.2225ZM193.096 40.4066L187.503 49.011L187.56 49.0475L187.616 49.0833L193.096 40.4066ZM185.464 35.9172L190.054 26.7383L190.054 26.7383L185.464 35.9172ZM178.057 24.0836C169.674 24.0836 162.577 27.7327 157.332 34.1171L173.192 47.145C174.832 45.1493 176.264 44.6083 178.057 44.6083V24.0836ZM157.45 33.9762C153.174 38.9965 149.785 44.8725 147.187 51.4535L166.278 58.9895C168.17 54.1974 170.467 50.3465 173.074 47.2859L157.45 33.9762ZM147.103 51.6737C144.907 57.6326 141.922 66.756 138.172 78.9067L157.784 84.9598C161.516 72.8679 164.367 64.1834 166.362 58.7693L147.103 51.6737ZM138.17 78.9152L135.476 87.6695L155.093 93.7055L157.787 84.9513L138.17 78.9152ZM145.284 100.95H189.056V80.4251H145.284V100.95ZM189.056 100.95C192.271 100.95 195.395 100.283 198.344 99.2297L191.44 79.9006C190.199 80.3441 189.432 80.4251 189.056 80.4251V100.95ZM198.344 99.2297C201.122 98.2374 203.774 96.9518 206.164 95.2788L194.394 78.4643C193.791 78.8863 192.852 79.3964 191.44 79.9006L198.344 99.2297ZM196.033 96.2141L198.502 97.3364L206.995 78.6513L204.526 77.529L196.033 96.2141ZM192.99 84.8168L161.565 181.338L181.081 187.692L212.507 91.171L192.99 84.8168ZM161.367 182.026C161.257 182.464 160.853 183.955 160.088 186.707L179.864 192.2C180.596 189.565 181.089 187.764 181.279 187.004L161.367 182.026ZM160.088 186.707C159.238 189.765 158.591 192.965 158.591 195.963H179.116C179.116 195.669 179.217 194.529 179.864 192.2L160.088 186.707ZM158.591 195.963C158.591 198.736 159.027 202.144 160.841 205.32L178.662 195.136C178.988 195.707 179.093 196.134 179.12 196.262C179.147 196.387 179.116 196.31 179.116 195.963H158.591ZM161.868 206.798C165.267 210.877 169.949 211.837 173.343 211.837V191.312C173.414 191.312 173.982 191.317 174.814 191.629C175.721 191.969 176.765 192.614 177.635 193.658L161.868 206.798ZM173.343 211.837C182.639 211.837 189.86 205.432 195.126 198.686L178.946 186.057C176.965 188.596 175.39 190.021 174.296 190.757C173.255 191.456 172.99 191.312 173.343 191.312V211.837ZM195.126 198.686C200.565 191.716 205.454 183.156 209.882 173.195L191.126 164.859C187.173 173.753 183.083 180.756 178.946 186.057L195.126 198.686ZM200.504 179.289H205.218V158.765H200.504V179.289ZM195.663 165.282C191.668 175.476 186.646 184.174 180.664 191.485L196.55 204.482C204.036 195.331 210.088 184.725 214.772 172.771L195.663 165.282ZM180.723 191.414C174.954 198.336 170.683 199.842 167.956 199.842V220.367C179.296 220.367 188.791 213.792 196.491 204.553L180.723 191.414ZM167.956 199.842C166.781 199.842 166.165 199.695 165.941 199.621C165.764 199.563 165.949 199.594 166.22 199.861C166.496 200.132 166.556 200.345 166.519 200.238C166.465 200.079 166.321 199.536 166.321 198.432H145.797C145.797 203.955 147.218 209.971 151.846 214.512C156.438 219.018 162.457 220.367 167.956 220.367V199.842ZM166.321 198.432C166.321 196.772 166.889 193.291 168.759 187.393L149.195 181.189C147.174 187.562 145.797 193.508 145.797 198.432H166.321ZM168.745 187.438L197.028 99.6713L177.492 93.376L149.209 181.143L168.745 187.438ZM187.26 86.2613H143.489V106.786H187.26V86.2613ZM133.662 93.5639L105.604 186.718L125.257 192.638L153.315 99.4834L133.662 93.5639ZM105.619 186.67C99.6226 206.228 91.7298 221.419 82.2276 232.661L97.903 245.91C109.65 232.012 118.668 214.131 125.242 192.686L105.619 186.67ZM82.2735 232.607C73.1183 243.288 63.2518 247.878 52.3546 247.878V268.403C70.1894 268.403 85.4633 260.424 97.8571 245.964L82.2735 232.607ZM52.3546 247.878C50.5104 247.878 49.3259 247.751 48.6521 247.619C48.3304 247.557 48.2359 247.514 48.3059 247.541C48.3712 247.566 48.715 247.702 49.1875 248.046L37.1154 264.645C39.6237 266.469 42.4286 267.317 44.7214 267.764C47.1154 268.231 49.7094 268.403 52.3546 268.403V247.878ZM49.1875 248.046C49.6482 248.381 50.1843 248.948 50.5576 249.729C50.9142 250.474 50.9447 251.041 50.9447 251.182H30.4199C30.4199 256.319 32.5124 261.297 37.1154 264.645L49.1875 248.046ZM50.9447 251.182C50.9447 251.15 50.9474 251.19 50.9273 251.284C50.9066 251.381 50.8701 251.495 50.8162 251.61C50.7626 251.724 50.7105 251.8 50.6844 251.833C50.6601 251.865 50.6776 251.835 50.7704 251.755L37.3281 236.244C32.949 240.039 30.4199 245.214 30.4199 251.182H50.9447ZM50.4601 252.013C50.7123 251.811 51.0864 251.568 52.1301 251.568V231.043C46.8888 231.043 41.8757 232.596 37.6384 235.986L50.4601 252.013ZM52.1301 251.568C52.4532 251.568 53.5134 251.68 55.4898 252.767L65.3811 234.783C61.3717 232.578 56.895 231.043 52.1301 231.043V251.568ZM55.846 252.954C57.649 253.855 59.557 254.585 61.527 255.176L67.4248 235.517C66.4019 235.21 65.6163 234.892 65.025 234.596L55.846 252.954ZM60.6645 254.875C63.2791 255.92 66.0656 256.506 68.9653 256.506V235.982C68.8721 235.982 68.6656 235.969 68.2873 235.818L60.6645 254.875ZM68.9653 256.506C76.5691 256.506 83.1248 253.328 88.2714 247.957L73.4528 233.756C71.7157 235.569 70.3402 235.982 68.9653 235.982V256.506ZM88.4271 247.791C92.887 242.926 96.7253 235.985 100.19 227.796L81.2874 219.799C78.1677 227.172 75.4216 231.605 73.2971 233.922L88.4271 247.791ZM100.254 227.64C103.563 219.448 107.406 208.118 111.777 193.797L92.1469 187.804C87.8391 201.916 84.1996 212.584 81.223 219.954L100.254 227.64ZM111.785 193.771L140.293 99.494L120.646 93.5533L92.139 187.83L111.785 193.771ZM130.47 86.2613H109.819V106.786H130.47V86.2613ZM119.627 99.5417L121.423 93.7055L101.806 87.6695L100.01 93.5056L119.627 99.5417ZM111.614 100.95H132.265V80.4251H111.614V100.95ZM142.095 93.6364L144.789 84.6576L125.129 78.7599L122.436 87.7386L142.095 93.6364ZM144.797 84.6294C150.286 66.1401 156.723 54.045 163.442 47.0858L148.676 32.8295C138.635 43.2292 131.005 58.9681 125.121 78.7881L144.797 84.6294ZM163.44 47.0881C169.665 40.6447 178.386 36.9764 190.852 36.9764V16.4516C173.987 16.4516 159.513 21.6124 148.678 32.8272L163.44 47.0881ZM190.852 36.9764C198.589 36.9764 202.243 37.9897 203.472 38.6557L213.248 20.6085C207.295 17.3838 199.276 16.4516 190.852 16.4516V36.9764ZM203.771 38.8111C204.669 39.2602 204.612 39.4221 204.286 39.0009C204.105 38.7668 203.884 38.4061 203.718 37.9278C203.55 37.4458 203.485 36.9808 203.485 36.5906H224.01C224.01 28.3146 218.378 23.1673 212.95 20.4532L203.771 38.8111ZM203.485 36.5906C203.485 36.4375 203.5 36.2825 203.53 36.1353C203.559 35.989 203.597 35.8771 203.626 35.8051C203.684 35.6619 203.683 35.7394 203.444 36.0224L219.112 49.2802C221.973 45.8988 224.01 41.6083 224.01 36.5906H203.485ZM203.394 36.0814C203.565 35.8766 203.776 35.6763 204.019 35.5014C204.261 35.3276 204.486 35.2133 204.661 35.1431C205.002 35.0068 205.035 35.0825 204.544 35.0825V55.6073C209.661 55.6073 215.194 53.9829 219.162 49.2211L203.394 36.0814ZM204.544 35.0825C204.363 35.0825 204.268 35.0641 204.237 35.0571C204.209 35.0507 204.201 35.0465 204.195 35.0436L195.016 53.4015C198.041 54.9138 201.275 55.6073 204.544 55.6073V35.0825ZM204.195 35.0436C203.174 34.5332 201.358 33.4865 198.576 31.7299L187.616 49.0833C190.521 50.9182 193.044 52.4154 195.016 53.4015L204.195 35.0436ZM198.689 31.8021C195.521 29.7431 192.622 28.0226 190.054 26.7383L180.875 45.0962C182.496 45.9069 184.685 47.1793 187.503 49.011L198.689 31.8021ZM190.054 26.7383C186.261 24.8418 182.157 24.0836 178.057 24.0836V44.6083C179.643 44.6083 180.478 44.8976 180.875 45.0962L190.054 26.7383ZM328.559 101.462L321.057 94.4598L321.048 94.4693L321.039 94.4789L328.559 101.462ZM315.989 103.258L319.234 93.522L319.087 93.4728L318.938 93.4281L315.989 103.258ZM294.216 112.461L286.4 105.81L286.359 105.858L286.318 105.908L294.216 112.461ZM271.993 145.009L263.241 139.65L261.616 142.305L261.739 145.416L271.993 145.009ZM273.116 173.292L262.861 173.699L262.862 173.706L262.862 173.713L273.116 173.292ZM275.809 195.29L266.154 198.766L266.239 199.004L266.336 199.237L275.809 195.29ZM289.277 195.065L281.264 188.654L281.184 188.754L281.107 188.856L289.277 195.065ZM301.399 175.985V165.723H295.418L292.47 170.926L301.399 175.985ZM305.888 175.985L315.209 180.278L321.913 165.723H305.888V175.985ZM264.137 201.799L254.455 205.201V205.201L264.137 201.799ZM260.545 173.741L270.802 173.391L270.8 173.333L270.797 173.275L260.545 173.741ZM259.872 158.926L270.124 158.46L268.431 121.217L250.826 154.08L259.872 158.926ZM252.016 172.169L243.392 166.606L243.364 166.65L243.336 166.693L252.016 172.169ZM229.793 200.677L236.796 208.179L236.801 208.174L229.793 200.677ZM203.082 208.758L208.774 200.219L208.243 199.865L207.671 199.579L203.082 208.758ZM204.204 197.534L211.461 204.791L204.204 197.534ZM216.774 195.29L213.09 204.868L213.308 204.952L213.529 205.025L216.774 195.29ZM259.423 150.621L268.382 155.627L269.802 153.084L269.676 150.175L259.423 150.621ZM258.301 124.807L248.045 125.187L248.047 125.219L248.048 125.252L258.301 124.807ZM256.954 107.074L246.759 108.25L246.785 108.473L246.82 108.695L256.954 107.074ZM254.934 99.6662L246.231 105.105L246.64 105.759L247.142 106.345L254.934 99.6662ZM243.486 104.156L251.416 110.67L243.486 104.156ZM232.038 122.562V132.824H238.277L241.148 127.286L232.038 122.562ZM227.324 122.562L218.168 117.927L210.627 132.824H227.324V122.562ZM243.261 96.5237L251.053 103.202L251.1 103.148L251.145 103.093L243.261 96.5237ZM265.035 90.9119L257.778 98.1686L257.951 98.3412L258.132 98.5055L265.035 90.9119ZM268.851 99.6662L258.801 101.745L258.844 101.951L258.895 102.155L268.851 99.6662ZM270.871 118.522L260.615 118.888L270.871 118.522ZM271.544 137.377L261.289 137.743L262.486 171.281L280.251 142.809L271.544 137.377ZM299.378 99.6662L292.193 92.3395L292.157 92.3744L292.122 92.4096L299.378 99.6662ZM323.172 98.4807C324.041 98.4807 324.489 98.5582 324.622 98.5886C324.756 98.6192 324.372 98.5559 323.774 98.147C323.11 97.6922 322.415 96.9651 321.943 95.9958C321.494 95.0741 321.44 94.3335 321.44 94.0545H341.964C341.964 89.2322 339.978 84.3646 335.364 81.2078C331.451 78.5298 326.866 77.9559 323.172 77.9559V98.4807ZM321.44 94.0545C321.44 94.0581 321.44 94.0334 321.448 93.992C321.456 93.9505 321.467 93.9234 321.469 93.9186C321.476 93.9018 321.403 94.089 321.057 94.4598L336.062 108.464C339.663 104.605 341.964 99.714 341.964 94.0545H321.44ZM321.039 94.4789C320.83 94.7043 320.829 94.6348 321.077 94.5193C321.195 94.4642 321.335 94.4155 321.484 94.3828C321.633 94.3503 321.752 94.3421 321.825 94.3421V114.867C327.591 114.867 332.458 112.345 336.08 108.445L321.039 94.4789ZM321.825 94.3421C322.139 94.3421 322.295 94.3692 322.238 94.3611C322.195 94.3549 322.048 94.3309 321.776 94.2682C321.221 94.1401 320.39 93.9072 319.234 93.522L312.744 112.993C315.442 113.893 318.797 114.867 321.825 114.867V94.3421ZM318.938 93.4281C315.684 92.4518 312.207 91.6485 309.031 91.6485V112.173C308.985 112.173 309.286 112.174 310.055 112.323C310.79 112.465 311.775 112.708 313.04 113.087L318.938 93.4281ZM309.031 91.6485C304.061 91.6485 299.76 93.8359 296.456 96.189C293.039 98.6222 289.688 101.947 286.4 105.81L302.031 119.112C304.73 115.941 306.84 113.991 308.362 112.908C309.996 111.744 310.11 112.173 309.031 112.173V91.6485ZM286.318 105.908C280.006 113.515 272.295 124.863 263.241 139.65L280.746 150.367C289.65 135.824 296.753 125.474 302.113 119.014L286.318 105.908ZM261.739 145.416L262.861 173.699L283.37 172.885L282.248 144.602L261.739 145.416ZM262.862 173.713C263.304 184.462 264.196 193.329 266.154 198.766L285.465 191.814C284.729 189.768 283.826 183.97 283.369 172.87L262.862 173.713ZM266.336 199.237C268.317 203.991 272.835 210.939 281.645 210.939V190.415C282.366 190.415 283.131 190.557 283.858 190.858C284.567 191.151 285.06 191.521 285.351 191.789C285.852 192.252 285.707 192.362 285.282 191.343L266.336 199.237ZM281.645 210.939C285.685 210.939 288.979 209.261 291.316 207.542C293.665 205.815 295.692 203.586 297.448 201.275L281.107 188.856C280.587 189.539 280.149 190.047 279.798 190.413C279.442 190.784 279.226 190.956 279.158 191.006C278.951 191.158 279.851 190.415 281.645 190.415V210.939ZM297.291 201.476C300.829 197.054 305.204 190.086 310.327 181.045L292.47 170.926C287.417 179.843 283.712 185.594 281.264 188.654L297.291 201.476ZM301.399 186.248H305.888V165.723H301.399V186.248ZM296.567 171.693C291.528 182.634 286.846 190.098 282.689 194.677C278.48 199.313 275.902 199.842 274.911 199.842V220.367C284.097 220.367 291.77 215.21 297.886 208.473C304.054 201.678 309.773 192.083 315.209 180.278L296.567 171.693ZM274.911 199.842C274.508 199.842 274.351 199.79 274.362 199.793C274.39 199.802 274.475 199.839 274.555 199.9C274.733 200.038 274.325 199.837 273.819 198.397L254.455 205.201C255.894 209.298 258.255 213.251 262.024 216.156C265.886 219.133 270.393 220.367 274.911 220.367V199.842ZM273.819 198.397C272.436 194.462 271.248 186.486 270.802 173.391L250.289 174.09C250.74 187.333 251.947 198.063 254.455 205.201L273.819 198.397ZM270.797 173.275L270.124 158.46L249.62 159.392L250.294 174.207L270.797 173.275ZM250.826 154.08C248.731 157.99 246.258 162.164 243.392 166.606L260.639 177.733C263.759 172.897 266.523 168.242 268.918 163.772L250.826 154.08ZM243.336 166.693C235.637 178.895 228.77 187.586 222.785 193.18L236.801 208.174C244.584 200.898 252.531 190.584 260.695 177.646L243.336 166.693ZM222.791 193.175C217.196 198.397 212.918 199.842 209.816 199.842V220.367C219.882 220.367 228.923 215.527 236.796 208.179L222.791 193.175ZM209.816 199.842C209.27 199.842 208.828 199.823 208.479 199.794C208.128 199.764 207.905 199.728 207.788 199.705C207.668 199.681 207.707 199.68 207.863 199.738C208.019 199.796 208.351 199.937 208.774 200.219L197.389 217.297C201.386 219.961 206.246 220.367 209.816 220.367V199.842ZM207.671 199.579C208.296 199.891 209.302 200.582 210.101 201.86C210.905 203.147 211.099 204.391 211.099 205.166H190.575C190.575 207.588 191.143 210.253 192.696 212.738C194.242 215.213 196.371 216.876 198.492 217.937L207.671 199.579ZM211.099 205.166C211.099 205.135 211.102 205.145 211.094 205.183C211.086 205.221 211.075 205.253 211.068 205.268C211.05 205.31 211.11 205.142 211.461 204.791L196.947 190.278C193.023 194.202 190.575 199.273 190.575 205.166H211.099ZM211.461 204.791C211.952 204.299 212.178 204.208 212.097 204.247C212.05 204.269 211.935 204.319 211.758 204.361C211.578 204.404 211.374 204.43 211.162 204.43V183.905C205.248 183.905 200.467 186.758 196.947 190.278L211.461 204.791ZM211.162 204.43C211.514 204.43 212.134 204.5 213.09 204.868L220.458 185.711C217.523 184.583 214.403 183.905 211.162 183.905V204.43ZM213.529 205.025C214.56 205.369 215.97 205.699 217.242 205.981L221.694 185.945C221.07 185.807 220.604 185.697 220.273 185.614C220.109 185.573 220.002 185.545 219.942 185.528C219.87 185.508 219.909 185.517 220.019 185.554L213.529 205.025ZM217.242 205.981C219.301 206.439 221.395 206.674 223.508 206.674V186.15C222.928 186.15 222.328 186.086 221.694 185.945L217.242 205.981ZM223.508 206.674C228.797 206.674 233.146 203.903 236.082 201.526C239.285 198.934 242.503 195.405 245.725 191.298C252.201 183.04 259.763 171.05 268.382 155.627L250.465 145.614C242.024 160.719 235.07 171.624 229.575 178.631C226.811 182.155 224.679 184.351 223.168 185.574C221.39 187.013 221.662 186.15 223.508 186.15V206.674ZM269.676 150.175L268.553 124.361L248.048 125.252L249.17 151.066L269.676 150.175ZM268.556 124.427C268.255 116.286 267.791 109.849 267.087 105.452L246.82 108.695C247.314 111.781 247.748 117.165 248.045 125.187L268.556 124.427ZM267.149 105.897C266.892 103.677 266.537 101.526 266.013 99.6035C265.562 97.9481 264.685 95.2734 262.726 92.9875L247.142 106.345C246.525 105.625 246.256 105.04 246.195 104.905C246.12 104.737 246.14 104.741 246.211 105.004C246.36 105.55 246.567 106.58 246.759 108.25L267.149 105.897ZM263.636 94.2271C260.881 89.8185 256.345 87.6081 251.567 87.6081V108.133C250.928 108.133 249.869 107.997 248.701 107.374C247.508 106.738 246.702 105.859 246.231 105.105L263.636 94.2271ZM251.567 87.6081C247.144 87.6081 243.721 89.8367 241.787 91.3411C239.596 93.0455 237.513 95.2594 235.556 97.6416L251.416 110.67C252.131 109.798 252.749 109.109 253.27 108.575C253.799 108.033 254.17 107.712 254.388 107.542C254.623 107.359 254.552 107.453 254.191 107.616C253.835 107.777 252.912 108.133 251.567 108.133V87.6081ZM235.556 97.6416C231.456 102.633 227.258 109.487 222.928 117.838L241.148 127.286C245.198 119.475 248.632 114.059 251.416 110.67L235.556 97.6416ZM232.038 112.3H227.324V132.824H232.038V112.3ZM236.48 127.197C242.529 115.246 247.394 107.471 251.053 103.202L235.47 89.845C230.15 96.0513 224.39 105.635 218.168 117.927L236.48 127.197ZM251.145 103.093C254.316 99.2881 256.6 98.7052 258.076 98.7052V78.1804C248.778 78.1804 241.185 82.9847 235.378 89.9538L251.145 103.093ZM258.076 98.7052C258.648 98.7052 258.78 98.7853 258.629 98.7317C258.549 98.7034 258.414 98.6459 258.25 98.5434C258.083 98.4399 257.922 98.3122 257.778 98.1686L272.291 83.6553C268.213 79.5771 262.977 78.1804 258.076 78.1804V98.7052ZM258.132 98.5055C257.525 97.9538 257.528 97.6628 257.816 98.3236C258.083 98.9356 258.445 100.022 258.801 101.745L278.9 97.587C277.927 92.8835 276.142 87.1405 271.938 83.3184L258.132 98.5055ZM258.895 102.155C259.674 105.273 260.322 110.688 260.615 118.888L281.127 118.155C280.821 109.595 280.122 102.439 278.807 97.1772L258.895 102.155ZM260.615 118.888L261.289 137.743L281.8 137.011L281.127 118.155L260.615 118.888ZM280.251 142.809C291.064 125.479 299.848 113.71 306.635 106.923L292.122 92.4096C283.645 100.886 273.873 114.258 262.838 131.945L280.251 142.809ZM306.564 106.993C313.114 100.569 318.607 98.4807 323.172 98.4807V77.9559C311.575 77.9559 301.206 83.4992 292.193 92.3395L306.564 106.993Z" fill="#E8E2F0" mask="url(#path-1-outside-1_985_8)"/>
</svg>
