<svg width="74" height="57" viewBox="0 0 74 57" fill="none" xmlns="http://www.w3.org/2000/svg">
<mask id="path-1-outside-1_985_7" maskUnits="userSpaceOnUse" x="0.363281" y="2" width="74" height="51" fill="black">
<rect fill="white" x="0.363281" y="2" width="74" height="51"/>
<path d="M10.6638 38.7806C13.2827 38.7806 15.7684 36.0286 17.9878 31.5454H18.9643C16.4786 37.6709 12.9276 41.6214 8.71073 41.6214C5.2041 41.6214 2.89593 39.1801 2.89593 34.7857C2.89593 27.2398 9.33216 16.8087 15.8572 16.8087C18.476 16.8087 20.1184 18.451 20.1184 20.848C20.1184 25.8194 13.8597 29.9918 7.7342 30.924C7.46787 32.2112 7.33471 33.4541 7.33471 34.5194C7.33471 37.4046 8.66634 38.7806 10.6638 38.7806ZM15.5908 18.4954C12.4393 18.4954 9.42093 24.2658 8.0893 29.5036C12.8388 28.3051 17.0556 24.6653 17.0556 20.5372C17.0556 19.25 16.7005 18.4954 15.5908 18.4954ZM38.2841 6.82143C34.9994 6.82143 33.8897 12.2811 32.3361 17.3857L32.2917 17.4745H40.2815C41.4356 17.4745 43.1223 17.1194 44.0989 16.5867L44.8091 16.9862L39.1274 34.7857C38.8167 35.8066 38.2841 37.3602 38.2841 37.9816C38.2841 38.6474 38.506 39.0026 39.0831 39.0026C40.7254 39.0026 42.7228 36.2061 44.1876 32.9658H45.253C43.655 36.9163 40.7254 41.3995 37.13 41.3995C34.7774 41.3995 33.9785 40.1566 33.9785 38.5587C33.9785 37.5378 34.2892 36.4281 34.9106 34.6082L39.8376 18.8949H31.8922L26.5657 36.4281C24.1244 44.3291 18.5759 50.7653 12.0953 50.7653C9.83152 50.7653 9.25448 49.9663 9.25448 48.9898C9.25448 47.525 10.5861 46.3265 12.0509 46.3265C13.6933 46.3265 14.4922 48.0133 15.9126 48.0133C18.1764 48.0133 19.3749 45.35 21.905 37.0939L27.4535 18.8949H23.5473L23.9912 17.4745H27.8973L27.9861 17.1194C30.2943 9.52908 34.2892 4.95714 40.8142 4.95714C45.2973 4.95714 46.4958 6.15561 46.4958 7.44285C46.4958 8.50816 45.6524 9.79541 44.0101 9.79541C41.7907 9.79541 40.681 6.82143 38.2841 6.82143ZM69.7585 16.8974C71.2233 16.8974 71.6227 17.6077 71.6227 18.3179C71.6227 19.6495 70.4243 21.2031 69.137 21.2031C68.2937 21.2031 67.4059 20.7592 66.4738 20.7592C64.9646 20.7592 63.0115 22.6679 59.86 27.7724L60.2151 34.2531C60.3926 38.1592 61.0585 38.825 61.8574 38.825C62.8784 38.825 64.21 37.1827 65.8967 33.9423H66.9176C65.1421 38.1148 62.7008 41.3995 59.6381 41.3995C57.1523 41.3995 56.1314 39.1801 55.8651 34.1199L55.7319 32.0337L54.7998 33.5429C51.8702 38.2036 48.9406 41.3995 46.0998 41.3995C44.7682 41.3995 44.2355 40.9556 44.2355 40.1566C44.2355 38.6474 45.6559 37.1383 46.8544 37.1383C47.6977 37.1383 48.4523 37.5378 49.5176 37.5378C50.8493 37.5378 52.8911 35.1852 55.6432 30.5245L55.2881 24.2658C55.1105 20.1378 54.7998 19.5163 54.0008 19.5163C53.1574 19.5163 51.8258 21.2918 50.2278 24.399H49.1625C51.4263 19.5607 53.4682 16.9418 56.309 16.9418C58.4396 16.9418 59.3273 18.1403 59.5937 23.3337L59.7712 26.3077C63.4554 20.3597 66.3406 16.8974 69.7585 16.8974Z"/>
</mask>
<path d="M10.6638 38.7806C13.2827 38.7806 15.7684 36.0286 17.9878 31.5454H18.9643C16.4786 37.6709 12.9276 41.6214 8.71073 41.6214C5.2041 41.6214 2.89593 39.1801 2.89593 34.7857C2.89593 27.2398 9.33216 16.8087 15.8572 16.8087C18.476 16.8087 20.1184 18.451 20.1184 20.848C20.1184 25.8194 13.8597 29.9918 7.7342 30.924C7.46787 32.2112 7.33471 33.4541 7.33471 34.5194C7.33471 37.4046 8.66634 38.7806 10.6638 38.7806ZM15.5908 18.4954C12.4393 18.4954 9.42093 24.2658 8.0893 29.5036C12.8388 28.3051 17.0556 24.6653 17.0556 20.5372C17.0556 19.25 16.7005 18.4954 15.5908 18.4954ZM38.2841 6.82143C34.9994 6.82143 33.8897 12.2811 32.3361 17.3857L32.2917 17.4745H40.2815C41.4356 17.4745 43.1223 17.1194 44.0989 16.5867L44.8091 16.9862L39.1274 34.7857C38.8167 35.8066 38.2841 37.3602 38.2841 37.9816C38.2841 38.6474 38.506 39.0026 39.0831 39.0026C40.7254 39.0026 42.7228 36.2061 44.1876 32.9658H45.253C43.655 36.9163 40.7254 41.3995 37.13 41.3995C34.7774 41.3995 33.9785 40.1566 33.9785 38.5587C33.9785 37.5378 34.2892 36.4281 34.9106 34.6082L39.8376 18.8949H31.8922L26.5657 36.4281C24.1244 44.3291 18.5759 50.7653 12.0953 50.7653C9.83152 50.7653 9.25448 49.9663 9.25448 48.9898C9.25448 47.525 10.5861 46.3265 12.0509 46.3265C13.6933 46.3265 14.4922 48.0133 15.9126 48.0133C18.1764 48.0133 19.3749 45.35 21.905 37.0939L27.4535 18.8949H23.5473L23.9912 17.4745H27.8973L27.9861 17.1194C30.2943 9.52908 34.2892 4.95714 40.8142 4.95714C45.2973 4.95714 46.4958 6.15561 46.4958 7.44285C46.4958 8.50816 45.6524 9.79541 44.0101 9.79541C41.7907 9.79541 40.681 6.82143 38.2841 6.82143ZM69.7585 16.8974C71.2233 16.8974 71.6227 17.6077 71.6227 18.3179C71.6227 19.6495 70.4243 21.2031 69.137 21.2031C68.2937 21.2031 67.4059 20.7592 66.4738 20.7592C64.9646 20.7592 63.0115 22.6679 59.86 27.7724L60.2151 34.2531C60.3926 38.1592 61.0585 38.825 61.8574 38.825C62.8784 38.825 64.21 37.1827 65.8967 33.9423H66.9176C65.1421 38.1148 62.7008 41.3995 59.6381 41.3995C57.1523 41.3995 56.1314 39.1801 55.8651 34.1199L55.7319 32.0337L54.7998 33.5429C51.8702 38.2036 48.9406 41.3995 46.0998 41.3995C44.7682 41.3995 44.2355 40.9556 44.2355 40.1566C44.2355 38.6474 45.6559 37.1383 46.8544 37.1383C47.6977 37.1383 48.4523 37.5378 49.5176 37.5378C50.8493 37.5378 52.8911 35.1852 55.6432 30.5245L55.2881 24.2658C55.1105 20.1378 54.7998 19.5163 54.0008 19.5163C53.1574 19.5163 51.8258 21.2918 50.2278 24.399H49.1625C51.4263 19.5607 53.4682 16.9418 56.309 16.9418C58.4396 16.9418 59.3273 18.1403 59.5937 23.3337L59.7712 26.3077C63.4554 20.3597 66.3406 16.8974 69.7585 16.8974Z" fill="#050507"/>
<path d="M17.9878 31.5454V29.5161H16.728L16.1691 30.6451L17.9878 31.5454ZM18.9643 31.5454L20.8447 32.3085L21.9779 29.5161H18.9643V31.5454ZM7.7342 30.924L7.4289 28.9177L6.03301 29.1301L5.74694 30.5128L7.7342 30.924ZM8.0893 29.5036L6.12252 29.0035L5.28327 32.3046L8.58582 31.4712L8.0893 29.5036ZM10.6638 40.81C12.7276 40.81 14.4932 39.7223 15.9234 38.2662C17.3598 36.8038 18.6486 34.7846 19.8065 32.4457L16.1691 30.6451C15.1075 32.7894 14.0438 34.3877 13.0278 35.4222C12.0055 36.4629 11.2189 36.7513 10.6638 36.7513V40.81ZM17.9878 33.5748H18.9643V29.5161H17.9878V33.5748ZM17.0839 30.7823C15.9009 33.6975 14.5168 35.9568 13.0403 37.457C11.5795 38.9413 10.1288 39.5921 8.71073 39.5921V43.6508C11.5095 43.6508 13.9427 42.3263 15.9331 40.304C17.9077 38.2975 19.542 35.5188 20.8447 32.3085L17.0839 30.7823ZM8.71073 39.5921C7.4543 39.5921 6.59071 39.172 6.01513 38.5146C5.41204 37.8258 4.92528 36.6441 4.92528 34.7857H0.866586C0.866586 37.3217 1.53391 39.5578 2.96156 41.1883C4.41672 42.8502 6.46053 43.6508 8.71073 43.6508V39.5921ZM4.92528 34.7857C4.92528 31.5107 6.35481 27.4082 8.6056 24.1118C10.9216 20.7199 13.6321 18.838 15.8572 18.838V14.7793C11.5572 14.7793 7.78707 18.113 5.25374 21.8231C2.65518 25.6288 0.866586 30.5148 0.866586 34.7857H4.92528ZM15.8572 18.838C16.7382 18.838 17.267 19.1071 17.5626 19.3917C17.8528 19.6709 18.089 20.1272 18.089 20.848H22.1477C22.1477 19.1717 21.5628 17.6085 20.3771 16.4673C19.1968 15.3314 17.595 14.7793 15.8572 14.7793V18.838ZM18.089 20.848C18.089 22.4445 17.0662 24.2023 14.9911 25.7883C12.9514 27.3472 10.1799 28.4991 7.4289 28.9177L8.0395 32.9302C11.414 32.4167 14.8346 31.0163 17.4557 29.0131C20.0412 27.037 22.1477 24.2228 22.1477 20.848H18.089ZM5.74694 30.5128C5.457 31.9142 5.30536 33.2959 5.30536 34.5194H9.36406C9.36406 33.6122 9.47875 32.5082 9.72146 31.3351L5.74694 30.5128ZM5.30536 34.5194C5.30536 36.2422 5.69985 37.8321 6.68618 39.025C7.71791 40.2729 9.16751 40.81 10.6638 40.81V36.7513C10.1626 36.7513 9.94768 36.6003 9.81423 36.4389C9.63538 36.2225 9.36406 35.6818 9.36406 34.5194H5.30536ZM15.5908 16.4661C14.1642 16.4661 12.9391 17.118 11.9768 17.9202C11.0098 18.7266 10.1632 19.8012 9.43826 20.9573C7.98621 23.2732 6.82723 26.2317 6.12252 29.0035L10.0561 30.0036C10.683 27.5377 11.699 24.9921 12.877 23.1133C13.467 22.1722 14.0491 21.4768 14.576 21.0375C15.1077 20.5942 15.4417 20.5248 15.5908 20.5248V16.4661ZM8.58582 31.4712C11.2735 30.793 13.8349 29.4227 15.756 27.5857C17.6698 25.7557 19.085 23.3172 19.085 20.5372H15.0263C15.0263 21.8853 14.333 23.3308 12.951 24.6523C11.5763 25.9668 9.6546 27.0156 7.59279 27.5359L8.58582 31.4712ZM19.085 20.5372C19.085 19.7928 18.9995 18.786 18.4402 17.9267C17.759 16.8799 16.6728 16.4661 15.5908 16.4661V20.5248C15.6424 20.5248 15.5572 20.5337 15.4099 20.463C15.3361 20.4276 15.261 20.3788 15.1917 20.317C15.1229 20.2557 15.0728 20.1933 15.0385 20.1405C14.9737 20.041 14.9772 19.9953 14.9933 20.0752C15.0092 20.1542 15.0263 20.3001 15.0263 20.5372H19.085ZM32.3361 17.3857L34.1512 18.2933L34.2277 18.1403L34.2775 17.9766L32.3361 17.3857ZM32.2917 17.4745L30.4766 16.5669L29.0081 19.5038H32.2917V17.4745ZM44.0989 16.5867L45.0938 14.818L44.114 14.2669L43.1271 14.8052L44.0989 16.5867ZM44.8091 16.9862L46.7423 17.6033L47.2451 16.0281L45.804 15.2175L44.8091 16.9862ZM39.1274 34.7857L37.1942 34.1686L37.19 34.1817L37.186 34.1948L39.1274 34.7857ZM44.1876 32.9658V30.9365H42.878L42.3385 32.1299L44.1876 32.9658ZM45.253 32.9658L47.1342 33.7268L48.2629 30.9365H45.253V32.9658ZM34.9106 34.6082L36.8311 35.2639L36.8393 35.2397L36.847 35.2153L34.9106 34.6082ZM39.8376 18.8949L41.774 19.5021L42.6007 16.8655H39.8376V18.8949ZM31.8922 18.8949V16.8655H30.3878L29.9505 18.305L31.8922 18.8949ZM26.5657 36.4281L28.5046 37.0272L28.5074 37.018L26.5657 36.4281ZM21.905 37.0939L23.8453 37.6885L23.8461 37.6857L21.905 37.0939ZM27.4535 18.8949L29.3946 19.4867L30.1937 16.8655H27.4535V18.8949ZM23.5473 18.8949L21.6104 18.2896L20.787 20.9242H23.5473V18.8949ZM23.9912 17.4745V15.4451H22.4993L22.0542 16.8692L23.9912 17.4745ZM27.8973 17.4745V19.5038H29.4818L29.8661 17.9667L27.8973 17.4745ZM27.9861 17.1194L26.0446 16.529L26.0297 16.5777L26.0174 16.6272L27.9861 17.1194ZM38.2841 4.79208C35.2756 4.79208 33.6972 7.34273 32.8037 9.37136C31.8563 11.5224 31.1239 14.3989 30.3947 16.7948L34.2775 17.9766C35.1019 15.2679 35.7011 12.8623 36.5181 11.0073C37.389 9.02997 38.0078 8.85077 38.2841 8.85077V4.79208ZM30.521 16.4781L30.4766 16.5669L34.1068 18.3821L34.1512 18.2933L30.521 16.4781ZM32.2917 19.5038H40.2815V15.4451H32.2917V19.5038ZM40.2815 19.5038C41.694 19.5038 43.732 19.0984 45.0706 18.3683L43.1271 14.8052C42.5126 15.1403 41.1773 15.4451 40.2815 15.4451V19.5038ZM43.104 18.3555L43.8142 18.755L45.804 15.2175L45.0938 14.818L43.104 18.3555ZM42.8758 16.3691L37.1942 34.1686L41.0607 35.4028L46.7423 17.6033L42.8758 16.3691ZM37.186 34.1948C37.0526 34.6333 36.8134 35.3703 36.64 35.9688C36.5486 36.2845 36.4586 36.6166 36.3902 36.9275C36.3289 37.206 36.2547 37.5967 36.2547 37.9816H40.3134C40.3134 38.0558 40.3058 38.0193 40.3541 37.7998C40.3952 37.6128 40.4579 37.3762 40.5384 37.0982C40.7091 36.5093 40.8916 35.959 41.0689 35.3766L37.186 34.1948ZM36.2547 37.9816C36.2547 38.4649 36.3205 39.2542 36.8374 39.951C37.4517 40.779 38.3491 41.0319 39.0831 41.0319V36.9732C39.1413 36.9732 39.3046 36.9816 39.5142 37.0714C39.7411 37.1687 39.9462 37.3294 40.0969 37.5326C40.3586 37.8853 40.3134 38.1642 40.3134 37.9816H36.2547ZM39.0831 41.0319C40.0678 41.0319 40.9084 40.6192 41.5414 40.1704C42.1867 39.7127 42.7693 39.1104 43.2835 38.4709C44.3137 37.1896 45.2616 35.5166 46.0368 33.8017L42.3385 32.1299C41.6489 33.6553 40.8657 35.0007 40.1204 35.9277C39.7468 36.3924 39.4305 36.6916 39.1937 36.8596C38.9444 37.0363 38.9195 36.9732 39.0831 36.9732V41.0319ZM44.1876 34.9952H45.253V30.9365H44.1876V34.9952ZM43.3717 32.2049C42.623 34.0557 41.5912 35.9509 40.3986 37.3447C39.1696 38.7811 38.0515 39.3701 37.13 39.3701V43.4288C39.8039 43.4288 41.9483 41.7763 43.4824 39.9835C45.053 38.148 46.2849 35.8264 47.1342 33.7268L43.3717 32.2049ZM37.13 39.3701C36.7154 39.3701 36.4585 39.3148 36.3133 39.2641C36.1779 39.2169 36.1367 39.1737 36.1306 39.1673C36.1294 39.1662 36.0078 39.0466 36.0078 38.5587H31.9491C31.9491 39.6687 32.227 40.9695 33.2135 41.9893C34.2129 43.0225 35.6109 43.4288 37.13 43.4288V39.3701ZM36.0078 38.5587C36.0078 37.9219 36.1986 37.1161 36.8311 35.2639L32.9901 33.9524C32.3797 35.74 31.9491 37.1536 31.9491 38.5587H36.0078ZM36.847 35.2153L41.774 19.5021L37.9013 18.2877L32.9742 34.001L36.847 35.2153ZM39.8376 16.8655H31.8922V20.9242H39.8376V16.8655ZM29.9505 18.305L24.624 35.8382L28.5074 37.018L33.834 19.4848L29.9505 18.305ZM24.6268 35.829C23.4821 39.5337 21.6277 42.8231 19.384 45.1514C17.1393 47.4807 14.6272 48.736 12.0953 48.736V52.7947C16.044 52.7947 19.5465 50.8318 22.3065 47.9677C25.0675 45.1027 27.208 41.2235 28.5046 37.0272L24.6268 35.829ZM12.0953 48.736C11.6409 48.736 11.3484 48.6951 11.1739 48.6528C11.0015 48.6111 10.9888 48.579 11.0469 48.6228C11.1201 48.6779 11.2007 48.7741 11.25 48.8909C11.2918 48.9901 11.2838 49.0397 11.2838 48.9898H7.22513C7.22513 49.9107 7.52493 51.0511 8.605 51.8647C9.55345 52.5791 10.7969 52.7947 12.0953 52.7947V48.736ZM11.2838 48.9898C11.2838 48.891 11.3283 48.7419 11.4898 48.5908C11.6558 48.4355 11.8678 48.3559 12.0509 48.3559V44.2972C9.59494 44.2972 7.22513 46.2789 7.22513 48.9898H11.2838ZM12.0509 48.3559C12.1404 48.3559 12.2609 48.3693 12.8751 48.8138C13.3067 49.1262 14.4187 50.0426 15.9126 50.0426V45.9839C15.9862 45.9839 15.9885 46.057 15.2549 45.526C14.7039 45.1272 13.6038 44.2972 12.0509 44.2972V48.3559ZM15.9126 50.0426C16.9342 50.0426 17.8844 49.7224 18.721 49.0487C19.4966 48.4241 20.093 47.5615 20.6025 46.5991C21.6078 44.7002 22.592 41.778 23.8453 37.6885L19.9647 36.4993C18.6878 40.6659 17.8078 43.2033 17.0154 44.7001C16.6261 45.4356 16.3402 45.7548 16.1753 45.8876C16.0715 45.9712 16.023 45.9839 15.9126 45.9839V50.0426ZM23.8461 37.6857L29.3946 19.4867L25.5123 18.3031L19.9639 36.5021L23.8461 37.6857ZM27.4535 16.8655H23.5473V20.9242H27.4535V16.8655ZM25.4843 19.5002L25.9282 18.0798L22.0542 16.8692L21.6104 18.2896L25.4843 19.5002ZM23.9912 19.5038H27.8973V15.4451H23.9912V19.5038ZM29.8661 17.9667L29.9549 17.6116L26.0174 16.6272L25.9286 16.9823L29.8661 17.9667ZM29.9277 17.7098C31.0289 14.0885 32.4737 11.3975 34.25 9.63065C35.9714 7.91829 38.0864 6.98649 40.8142 6.98649V2.92779C37.017 2.92779 33.872 4.28196 31.3877 6.75314C28.9582 9.1698 27.2515 12.5599 26.0446 16.529L29.9277 17.7098ZM40.8142 6.98649C42.9415 6.98649 43.9597 7.28217 44.3782 7.50628C44.557 7.60201 44.5547 7.64656 44.5151 7.58293C44.4976 7.55485 44.4833 7.52145 44.4745 7.48861C44.4662 7.4574 44.4665 7.43992 44.4665 7.44285H48.5252C48.5252 6.79429 48.37 6.09634 47.9619 5.43988C47.5575 4.7895 46.9754 4.29308 46.2942 3.92828C44.9927 3.23135 43.17 2.92779 40.8142 2.92779V6.98649ZM44.4665 7.44285C44.4665 7.44282 44.4664 7.45163 44.4632 7.46806C44.4601 7.48431 44.4547 7.50457 44.4459 7.52715C44.4279 7.57373 44.4015 7.61601 44.3714 7.649C44.3435 7.67946 44.3112 7.70366 44.2695 7.72216C44.2296 7.73981 44.1503 7.76606 44.0101 7.76606V11.8248C46.9399 11.8248 48.5252 9.4547 48.5252 7.44285H44.4665ZM44.0101 7.76606C43.8009 7.76606 43.5574 7.65774 42.5458 6.77749C41.781 6.11205 40.3527 4.79208 38.2841 4.79208V8.85077C38.6123 8.85077 38.9374 9.0178 39.8816 9.83935C40.5789 10.4461 41.9999 11.8248 44.0101 11.8248V7.76606ZM59.86 27.7724L58.1332 26.7064L57.7989 27.2479L57.8337 27.8835L59.86 27.7724ZM60.2151 34.2531L62.2423 34.1609L62.2419 34.1515L62.2414 34.142L60.2151 34.2531ZM65.8967 33.9423V31.913H64.6653L64.0967 33.0053L65.8967 33.9423ZM66.9176 33.9423L68.785 34.7369L69.9866 31.913H66.9176V33.9423ZM55.8651 34.1199L57.8916 34.0132L57.891 34.0019L57.8903 33.9906L55.8651 34.1199ZM55.7319 32.0337L57.7572 31.9044L57.3515 25.5497L54.0054 30.9673L55.7319 32.0337ZM54.7998 33.5429L56.5179 34.6228L56.5222 34.6161L56.5264 34.6093L54.7998 33.5429ZM55.6432 30.5245L57.3906 31.5563L57.7042 31.0253L57.6692 30.4095L55.6432 30.5245ZM55.2881 24.2658L53.2606 24.353L53.2612 24.3669L53.262 24.3808L55.2881 24.2658ZM50.2278 24.399V26.4283H51.4662L52.0325 25.3271L50.2278 24.399ZM49.1625 24.399L47.3244 23.539L45.9725 26.4283H49.1625V24.399ZM59.5937 23.3337L57.567 23.4376L57.5674 23.4461L57.5679 23.4546L59.5937 23.3337ZM59.7712 26.3077L57.7455 26.4286L58.1268 32.8163L61.4964 27.3763L59.7712 26.3077ZM69.7585 18.9268C70.191 18.9268 70.0754 19.0321 69.8491 18.8191C69.7404 18.7168 69.6686 18.5954 69.6296 18.4879C69.594 18.3898 69.5934 18.3259 69.5934 18.3179H73.6521C73.6521 17.5925 73.4411 16.6262 72.6307 15.8636C71.8385 15.1179 70.7908 14.8681 69.7585 14.8681V18.9268ZM69.5934 18.3179C69.5934 18.3531 69.5836 18.445 69.5298 18.5802C69.4771 18.7127 69.3971 18.848 69.3011 18.9637C69.2036 19.0811 69.1165 19.1464 69.067 19.1745C69.0197 19.2013 69.0454 19.1737 69.137 19.1737V23.2324C70.5956 23.2324 71.7371 22.3836 72.4242 21.5559C73.125 20.7116 73.6521 19.5458 73.6521 18.3179H69.5934ZM69.137 19.1737C69.0147 19.1737 68.8411 19.1399 68.3309 19.0124C67.9172 18.9089 67.2272 18.7298 66.4738 18.7298V22.7885C66.6525 22.7885 66.8725 22.8314 67.3465 22.9499C67.724 23.0443 68.416 23.2324 69.137 23.2324V19.1737ZM66.4738 18.7298C64.8556 18.7298 63.4834 19.7333 62.319 20.9461C61.0974 22.2182 59.7318 24.1172 58.1332 26.7064L61.5868 28.8385C63.1397 26.3231 64.3264 24.7155 65.2466 23.7571C66.2238 22.7394 66.5828 22.7885 66.4738 22.7885V18.7298ZM57.8337 27.8835L58.1888 34.3641L62.2414 34.142L61.8863 27.6614L57.8337 27.8835ZM58.1878 34.3452C58.2779 36.3264 58.4946 37.7973 58.9462 38.8222C59.188 39.371 59.554 39.9255 60.1302 40.3261C60.7315 40.7442 61.3587 40.8543 61.8574 40.8543V36.7957C61.9566 36.7957 62.201 36.8226 62.4472 36.9938C62.6683 37.1475 62.7069 37.2914 62.6603 37.1855C62.5349 36.9009 62.3298 36.0858 62.2423 34.1609L58.1878 34.3452ZM61.8574 40.8543C62.665 40.8543 63.3399 40.5314 63.8392 40.1849C64.342 39.8359 64.7914 39.3778 65.1942 38.8885C65.999 37.9108 66.8301 36.5443 67.6968 34.8794L64.0967 33.0053C63.2766 34.5807 62.5986 35.6555 62.0606 36.3091C61.792 36.6354 61.6117 36.7904 61.5249 36.8507C61.4347 36.9133 61.5603 36.7957 61.8574 36.7957V40.8543ZM65.8967 35.9717H66.9176V31.913H65.8967V35.9717ZM65.0503 33.1477C64.2068 35.1301 63.2586 36.7658 62.2559 37.8739C61.253 38.9821 60.3815 39.3701 59.6381 39.3701V43.4288C61.9574 43.4288 63.8379 42.1746 65.2653 40.5973C66.6927 39.0199 67.853 36.9271 68.785 34.7369L65.0503 33.1477ZM59.6381 39.3701C59.3296 39.3701 59.1957 39.3055 59.1299 39.2635C59.0564 39.2166 58.9081 39.0938 58.731 38.743C58.3354 37.9591 58.0228 36.5062 57.8916 34.0132L53.8385 34.2266C53.9737 36.7938 54.3047 38.9807 55.1076 40.5716C55.5298 41.4081 56.1193 42.1564 56.9447 42.6838C57.7778 43.216 58.7037 43.4288 59.6381 43.4288V39.3701ZM57.8903 33.9906L57.7572 31.9044L53.7067 32.1629L53.8399 34.2492L57.8903 33.9906ZM54.0054 30.9673L53.0732 32.4764L56.5264 34.6093L57.4585 33.1001L54.0054 30.9673ZM53.0817 32.4629C51.6532 34.7354 50.2934 36.5363 49.0185 37.7479C47.7114 38.9902 46.751 39.3701 46.0998 39.3701V43.4288C48.2894 43.4288 50.2142 42.2109 51.8145 40.6899C53.447 39.1385 55.0167 37.011 56.5179 34.6228L53.0817 32.4629ZM46.0998 39.3701C45.8722 39.3701 45.7478 39.3505 45.698 39.3391C45.6487 39.3279 45.7187 39.3354 45.8362 39.4181C45.9691 39.5116 46.0994 39.6574 46.1836 39.8406C46.2611 40.0095 46.2648 40.134 46.2648 40.1566H42.2062C42.2062 41.0632 42.5464 42.0659 43.5004 42.7373C44.308 43.3056 45.2798 43.4288 46.0998 43.4288V39.3701ZM46.2648 40.1566C46.2648 40.0136 46.3526 39.7208 46.6098 39.4325C46.7267 39.3015 46.8384 39.2191 46.9136 39.178C46.9947 39.1336 46.9742 39.1676 46.8544 39.1676V35.1089C45.4623 35.1089 44.3006 35.9242 43.5812 36.7305C42.8286 37.5741 42.2062 38.7905 42.2062 40.1566H46.2648ZM46.8544 39.1676C46.9935 39.1676 47.1441 39.198 47.6408 39.3141C48.0803 39.4168 48.7324 39.5671 49.5176 39.5671V35.5084C49.2376 35.5084 48.9797 35.4589 48.5647 35.3619C48.207 35.2783 47.5587 35.1089 46.8544 35.1089V39.1676ZM49.5176 39.5671C50.4351 39.5671 51.2199 39.1727 51.8085 38.7632C52.4178 38.3393 53.0075 37.766 53.5772 37.1127C54.7189 35.8035 55.9911 33.9265 57.3906 31.5563L53.8957 29.4927C52.5432 31.7832 51.4184 33.4128 50.5183 34.4451C50.0671 34.9625 49.7247 35.2686 49.4906 35.4315C49.2357 35.6088 49.266 35.5084 49.5176 35.5084V39.5671ZM57.6692 30.4095L57.3141 24.1509L53.262 24.3808L53.6171 30.6394L57.6692 30.4095ZM57.3155 24.1786C57.2287 22.16 57.106 20.7172 56.8225 19.7643C56.6754 19.2697 56.4081 18.625 55.8292 18.1324C55.1846 17.5838 54.4724 17.487 54.0008 17.487V21.5457C53.9287 21.5457 53.555 21.5265 53.1989 21.2234C52.9085 20.9764 52.8798 20.745 52.9324 20.9218C53.0484 21.3117 53.1698 22.2436 53.2606 24.353L57.3155 24.1786ZM54.0008 17.487C53.1069 17.487 52.4166 17.9339 52.0115 18.2584C51.5654 18.6158 51.1566 19.0754 50.7868 19.5578C50.0415 20.5299 49.2449 21.873 48.4232 23.4709L52.0325 25.3271C52.8087 23.8178 53.477 22.7196 54.0078 22.0272C54.276 21.6773 54.4582 21.4988 54.5489 21.4262C54.6806 21.3207 54.4731 21.5457 54.0008 21.5457V17.487ZM50.2278 22.3696H49.1625V26.4283H50.2278V22.3696ZM51.0006 25.259C52.1121 22.8835 53.0841 21.2485 54.0189 20.2234C54.9061 19.2505 55.6196 18.9712 56.309 18.9712V14.9125C54.1575 14.9125 52.4297 15.9426 51.0199 17.4887C49.6576 18.9826 48.4768 21.0762 47.3244 23.539L51.0006 25.259ZM56.309 18.9712C56.668 18.9712 56.7747 19.0247 56.7761 19.0253C56.7767 19.0257 56.775 19.0248 56.7727 19.0231C56.7704 19.0215 56.7713 19.0218 56.7759 19.0264C56.7844 19.0349 56.8198 19.0727 56.8721 19.1678C57.1444 19.6632 57.433 20.825 57.567 23.4376L61.6203 23.2297C61.488 20.649 61.1996 18.6149 60.4288 17.2127C60.0005 16.4335 59.4003 15.7997 58.5912 15.3951C57.8185 15.0088 57.0152 14.9125 56.309 14.9125V18.9712ZM57.5679 23.4546L57.7455 26.4286L61.797 26.1867L61.6194 23.2127L57.5679 23.4546ZM61.4964 27.3763C63.3284 24.4186 64.868 22.2387 66.2997 20.807C67.7193 19.3874 68.8083 18.9268 69.7585 18.9268V14.8681C67.2908 14.8681 65.2282 16.1386 63.4297 17.9371C61.6433 19.7236 59.8982 22.2487 58.046 25.2391L61.4964 27.3763Z" fill="white" mask="url(#path-1-outside-1_985_7)"/>
</svg>
