<svg width="341" height="287" viewBox="0 0 341 287" fill="none" xmlns="http://www.w3.org/2000/svg">
<mask id="path-1-outside-1_984_3" maskUnits="userSpaceOnUse" x="1" y="16" width="339" height="253" fill="black">
<rect fill="white" x="1" y="16" width="339" height="253"/>
<path d="M40.65 202.041C54.7915 202.041 68.4841 185.206 79.2586 161.862H83.7479C72.3001 191.043 55.016 211.918 35.2628 211.918C20.4479 211.918 11.4692 200.47 11.4692 181.39C11.4692 145.475 42.2213 88.0116 73.4224 88.0116C83.9724 88.0116 90.482 95.1946 90.482 105.745C90.482 129.089 59.9543 153.556 28.0798 158.719C26.0596 166.8 24.9372 174.656 24.9372 180.941C24.9372 194.634 31.2224 202.041 40.65 202.041ZM71.4022 94.9701C54.1181 94.9701 37.5075 124.824 29.6511 152.434C55.9139 146.598 79.483 127.967 79.483 105.745C79.483 99.235 77.6873 94.9701 71.4022 94.9701ZM176.041 34.5881C159.88 34.5881 153.819 57.035 145.962 82.1754L143.269 90.9297H187.04C190.632 90.9297 195.346 89.3584 198.264 87.1137L200.733 88.236L169.307 184.757C168.409 188.124 166.838 193.287 166.838 196.205C166.838 199.572 167.736 201.817 171.327 201.817C180.531 201.817 190.856 186.329 198.488 169.269H203.202C195.57 188.573 181.204 210.347 165.94 210.347C157.186 210.347 154.043 205.409 154.043 198.674C154.043 194.634 155.39 189.471 156.961 184.533L185.244 96.7659H141.473L113.415 189.92C101.742 227.855 80.6422 258.383 50.339 258.383C40.6869 258.383 38.6666 255.24 38.6666 251.425C38.6666 245.813 43.8294 241.548 50.1145 241.548C56.6241 241.548 60.2156 246.486 66.9496 246.486C80.4177 246.486 87.6007 231.222 99.9465 191.043L128.454 96.7659H107.803L109.599 90.9297H130.25L132.943 81.9509C143.942 45.1381 158.533 26.9562 188.836 26.9562C206.12 26.9562 211.732 31.67 211.732 36.8328C211.732 40.4243 209.038 45.5871 202.528 45.5871C193.55 45.5871 187.714 34.5881 176.041 34.5881ZM321.157 88.4605C327.666 88.4605 329.686 90.9297 329.686 94.2967C329.686 99.6839 324.972 104.847 319.81 104.847C315.994 104.847 311.504 102.153 307.015 102.153C299.159 102.153 287.486 116.744 269.978 145.251L271.1 173.534C271.998 197.552 275.589 200.919 279.63 200.919C284.344 200.919 289.731 193.287 299.383 176.228H303.872C294.894 195.756 284.344 210.347 272.896 210.347C261.897 210.347 259.428 198.45 258.53 173.983L257.856 159.168C255.387 163.657 252.694 168.147 250 172.412C234.961 196.43 221.493 210.347 207.8 210.347C201.29 210.347 198.821 208.776 198.821 205.409C198.821 199.572 204.433 194.41 209.147 194.41C213.636 194.41 216.33 196.654 221.493 196.654C228.676 196.654 241.695 178.921 257.407 150.863L256.285 125.049C255.387 100.582 253.816 98.1127 249.551 98.1127C245.735 98.1127 238.777 106.194 230.022 122.804H225.309C236.532 100.806 244.613 88.685 256.061 88.685C264.366 88.685 267.733 93.3988 268.855 118.764L269.529 137.619C290.18 104.622 304.097 88.4605 321.157 88.4605Z"/>
</mask>
<path d="M40.65 202.041C54.7915 202.041 68.4841 185.206 79.2586 161.862H83.7479C72.3001 191.043 55.016 211.918 35.2628 211.918C20.4479 211.918 11.4692 200.47 11.4692 181.39C11.4692 145.475 42.2213 88.0116 73.4224 88.0116C83.9724 88.0116 90.482 95.1946 90.482 105.745C90.482 129.089 59.9543 153.556 28.0798 158.719C26.0596 166.8 24.9372 174.656 24.9372 180.941C24.9372 194.634 31.2224 202.041 40.65 202.041ZM71.4022 94.9701C54.1181 94.9701 37.5075 124.824 29.6511 152.434C55.9139 146.598 79.483 127.967 79.483 105.745C79.483 99.235 77.6873 94.9701 71.4022 94.9701ZM176.041 34.5881C159.88 34.5881 153.819 57.035 145.962 82.1754L143.269 90.9297H187.04C190.632 90.9297 195.346 89.3584 198.264 87.1137L200.733 88.236L169.307 184.757C168.409 188.124 166.838 193.287 166.838 196.205C166.838 199.572 167.736 201.817 171.327 201.817C180.531 201.817 190.856 186.329 198.488 169.269H203.202C195.57 188.573 181.204 210.347 165.94 210.347C157.186 210.347 154.043 205.409 154.043 198.674C154.043 194.634 155.39 189.471 156.961 184.533L185.244 96.7659H141.473L113.415 189.92C101.742 227.855 80.6422 258.383 50.339 258.383C40.6869 258.383 38.6666 255.24 38.6666 251.425C38.6666 245.813 43.8294 241.548 50.1145 241.548C56.6241 241.548 60.2156 246.486 66.9496 246.486C80.4177 246.486 87.6007 231.222 99.9465 191.043L128.454 96.7659H107.803L109.599 90.9297H130.25L132.943 81.9509C143.942 45.1381 158.533 26.9562 188.836 26.9562C206.12 26.9562 211.732 31.67 211.732 36.8328C211.732 40.4243 209.038 45.5871 202.528 45.5871C193.55 45.5871 187.714 34.5881 176.041 34.5881ZM321.157 88.4605C327.666 88.4605 329.686 90.9297 329.686 94.2967C329.686 99.6839 324.972 104.847 319.81 104.847C315.994 104.847 311.504 102.153 307.015 102.153C299.159 102.153 287.486 116.744 269.978 145.251L271.1 173.534C271.998 197.552 275.589 200.919 279.63 200.919C284.344 200.919 289.731 193.287 299.383 176.228H303.872C294.894 195.756 284.344 210.347 272.896 210.347C261.897 210.347 259.428 198.45 258.53 173.983L257.856 159.168C255.387 163.657 252.694 168.147 250 172.412C234.961 196.43 221.493 210.347 207.8 210.347C201.29 210.347 198.821 208.776 198.821 205.409C198.821 199.572 204.433 194.41 209.147 194.41C213.636 194.41 216.33 196.654 221.493 196.654C228.676 196.654 241.695 178.921 257.407 150.863L256.285 125.049C255.387 100.582 253.816 98.1127 249.551 98.1127C245.735 98.1127 238.777 106.194 230.022 122.804H225.309C236.532 100.806 244.613 88.685 256.061 88.685C264.366 88.685 267.733 93.3988 268.855 118.764L269.529 137.619C290.18 104.622 304.097 88.4605 321.157 88.4605Z" fill="#050507"/>
<path d="M79.2586 161.862V151.862H72.8603L70.179 157.671L79.2586 161.862ZM83.7479 161.862L93.0572 165.514L98.413 151.862H83.7479V161.862ZM28.0798 158.719L26.4809 148.848L19.9765 149.901L18.3784 156.294L28.0798 158.719ZM29.6511 152.434L20.0329 149.697L15.4406 165.836L31.8204 162.196L29.6511 152.434ZM40.65 212.041C51.8094 212.041 61.2473 205.466 68.5861 197.466C76.0816 189.295 82.7132 178.24 88.3382 166.052L70.179 157.671C65.0295 168.828 59.4275 177.863 53.8478 183.946C48.1113 190.199 43.6322 192.041 40.65 192.041V212.041ZM79.2586 171.862H83.7479V151.862H79.2586V171.862ZM74.4387 158.21C68.9977 172.079 62.3864 183.377 55.287 191.034C48.1695 198.71 41.3766 201.918 35.2628 201.918V221.918C48.9022 221.918 60.6279 214.689 69.9528 204.632C79.2956 194.556 87.0503 180.825 93.0572 165.514L74.4387 158.21ZM35.2628 201.918C30.7003 201.918 27.7543 200.296 25.6925 197.655C23.3938 194.711 21.4692 189.507 21.4692 181.39H1.46915C1.46915 192.353 4.03392 202.414 9.92822 209.963C16.0596 217.816 25.0104 221.918 35.2628 221.918V201.918ZM21.4692 181.39C21.4692 165.758 28.3604 144.212 39.265 126.469C44.6593 117.692 50.7406 110.34 56.9114 105.291C63.1376 100.197 68.7353 98.0116 73.4224 98.0116V78.0116C62.509 78.0116 52.5622 83.0088 44.2471 89.8117C35.8766 96.66 28.4196 105.919 22.2257 115.997C9.954 135.964 1.46915 161.108 1.46915 181.39H21.4692ZM73.4224 98.0116C76.3344 98.0116 77.8359 98.9398 78.6438 99.7938C79.514 100.714 80.482 102.52 80.482 105.745H100.482C100.482 98.4196 98.1952 91.3589 93.1731 86.0498C88.0887 80.6748 81.0604 78.0116 73.4224 78.0116V98.0116ZM80.482 105.745C80.482 113.16 75.3896 122.57 64.832 131.368C54.5471 139.939 40.5935 146.562 26.4809 148.848L29.6787 168.59C47.4406 165.714 64.6881 157.522 77.6357 146.732C90.3105 136.17 100.482 121.673 100.482 105.745H80.482ZM18.3784 156.294C16.2242 164.911 14.9372 173.61 14.9372 180.941H34.9372C34.9372 175.702 35.895 168.689 37.7812 161.144L18.3784 156.294ZM14.9372 180.941C14.9372 189.169 16.8093 196.862 21.3413 202.735C26.1085 208.913 33.0457 212.041 40.65 212.041V192.041C38.8267 192.041 37.9075 191.466 37.1752 190.517C36.2077 189.263 34.9372 186.407 34.9372 180.941H14.9372ZM71.4022 84.9701C64.1158 84.9701 57.7156 88.115 52.5129 92.2035C47.3014 96.2989 42.681 101.801 38.6773 107.792C30.6648 119.78 24.1691 135.161 20.0329 149.697L39.2693 155.171C42.9895 142.097 48.7273 128.747 55.3052 118.905C58.5967 113.981 61.8608 110.294 64.8705 107.929C67.8889 105.557 70.0465 104.97 71.4022 104.97V84.9701ZM31.8204 162.196C46.418 158.952 60.4721 152.13 71.0635 142.704C81.6237 133.307 89.483 120.577 89.483 105.745H69.483C69.483 113.134 65.5578 120.831 57.7677 127.764C50.0088 134.668 39.147 140.08 27.4818 142.672L31.8204 162.196ZM89.483 105.745C89.483 101.989 89.0499 96.8302 86.1582 92.427C82.678 87.1276 77.1197 84.9701 71.4022 84.9701V104.97C71.8631 104.97 71.6095 105.049 71.0135 104.765C70.7143 104.623 70.3969 104.419 70.0977 104.155C69.801 103.893 69.5859 103.626 69.4408 103.406C69.1687 102.991 69.2108 102.844 69.3035 103.301C69.3957 103.756 69.483 104.534 69.483 105.745H89.483ZM145.962 82.1754L136.418 79.1927L136.411 79.2136L136.405 79.2346L145.962 82.1754ZM143.269 90.9297L133.711 87.9888L129.729 100.93H143.269V90.9297ZM198.264 87.1137L202.402 78.01L196.93 75.5231L192.167 79.1875L198.264 87.1137ZM200.733 88.236L210.241 91.3319L213.009 82.8316L204.871 79.1324L200.733 88.236ZM169.307 184.757L159.798 181.662L159.715 181.919L159.645 182.181L169.307 184.757ZM198.488 169.269V159.269H192.007L189.36 165.185L198.488 169.269ZM203.202 169.269L212.502 172.946L217.909 159.269H203.202V169.269ZM156.961 184.533L147.443 181.466L147.438 181.483L147.432 181.501L156.961 184.533ZM185.244 96.7659L194.762 99.833L198.973 86.7659H185.244V96.7659ZM141.473 96.7659V86.7659H134.041L131.898 93.8818L141.473 96.7659ZM113.415 189.92L122.972 192.861L122.981 192.833L122.99 192.804L113.415 189.92ZM99.9465 191.043L109.505 193.98L109.512 193.958L109.518 193.937L99.9465 191.043ZM128.454 96.7659L138.026 99.6602L141.925 86.7659H128.454V96.7659ZM107.803 96.7659L98.2451 93.825L94.2633 106.766H107.803V96.7659ZM109.599 90.9297V80.9297H102.213L100.041 87.9888L109.599 90.9297ZM130.25 90.9297V100.93H137.69L139.828 93.8032L130.25 90.9297ZM132.943 81.9509L142.522 84.8244L142.525 84.8137L132.943 81.9509ZM176.041 24.5881C162.139 24.5881 154.006 34.6691 149.001 44.3684C143.976 54.1063 140.192 67.1139 136.418 79.1927L155.507 85.1582C159.589 72.0964 162.764 61.3104 166.774 53.5398C170.804 45.7306 173.782 44.5881 176.041 44.5881V24.5881ZM136.405 79.2346L133.711 87.9888L152.827 93.8705L155.52 85.1163L136.405 79.2346ZM143.269 100.93H187.04V80.9297H143.269V100.93ZM187.04 100.93C192.811 100.93 199.674 98.6454 204.361 95.04L192.167 79.1875C191.017 80.0714 188.453 80.9297 187.04 80.9297V100.93ZM194.126 96.2174L196.595 97.3397L204.871 79.1324L202.402 78.01L194.126 96.2174ZM191.224 85.1402L159.798 181.662L178.816 187.853L210.241 91.3319L191.224 85.1402ZM159.645 182.181C159.277 183.558 158.554 186.086 158.019 188.286C157.515 190.358 156.838 193.423 156.838 196.205H176.838C176.838 196.274 176.839 196.025 176.956 195.338C177.064 194.705 177.231 193.926 177.453 193.013C177.928 191.061 178.439 189.324 178.97 187.334L159.645 182.181ZM156.838 196.205C156.838 198.322 157.022 202.332 159.489 205.929C162.546 210.388 167.273 211.817 171.327 211.817V191.817C171.436 191.817 172.174 191.83 173.187 192.282C174.305 192.781 175.291 193.609 175.983 194.619C176.607 195.528 176.787 196.283 176.83 196.493C176.872 196.697 176.838 196.651 176.838 196.205H156.838ZM171.327 211.817C176.461 211.817 180.857 209.675 184.232 207.239C187.644 204.777 190.698 201.531 193.381 198.093C198.752 191.209 203.625 182.274 207.616 173.353L189.36 165.185C185.719 173.324 181.613 180.663 177.613 185.788C175.61 188.355 173.88 190.046 172.529 191.021C171.141 192.023 170.795 191.817 171.327 191.817V211.817ZM198.488 179.269H203.202V159.269H198.488V179.269ZM193.902 165.593C190.35 174.579 185.322 183.863 179.706 190.7C173.726 197.979 168.891 200.347 165.94 200.347V220.347C178.253 220.347 188.233 211.828 195.16 203.394C202.451 194.518 208.422 183.264 212.502 172.946L193.902 165.593ZM165.94 200.347C164.669 200.347 164.057 200.165 163.878 200.099C163.753 200.052 163.916 200.097 164.122 200.324C164.524 200.769 164.043 200.667 164.043 198.674H144.043C144.043 203.416 145.134 209.15 149.296 213.748C153.627 218.532 159.689 220.347 165.94 220.347V200.347ZM164.043 198.674C164.043 196.343 164.919 192.504 166.491 187.565L147.432 181.501C145.861 186.438 144.043 192.925 144.043 198.674H164.043ZM166.479 187.6L194.762 99.833L175.726 93.6987L147.443 181.466L166.479 187.6ZM185.244 86.7659H141.473V106.766H185.244V86.7659ZM131.898 93.8818L103.84 187.036L122.99 192.804L151.048 99.6499L131.898 93.8818ZM103.857 186.979C98.2519 205.195 90.5796 220.922 81.2452 231.899C72.0103 242.76 61.7276 248.383 50.339 248.383V268.383C69.2536 268.383 84.6725 258.743 96.4815 244.855C108.191 231.085 116.905 212.58 122.972 192.861L103.857 186.979ZM50.339 248.383C48.4247 248.383 47.2792 248.223 46.6756 248.085C46.0762 247.947 46.288 247.895 46.8198 248.288C47.4505 248.753 48.0386 249.48 48.388 250.334C48.6888 251.069 48.6666 251.541 48.6666 251.425H28.6666C28.6666 255.235 29.8043 260.588 34.9468 264.382C39.2755 267.575 44.8579 268.383 50.339 268.383V248.383ZM48.6666 251.425C48.6666 251.585 48.6233 251.767 48.5526 251.912C48.4895 252.04 48.4476 252.054 48.5161 251.996C48.6741 251.862 49.1997 251.548 50.1145 251.548V231.548C39.8762 231.548 28.6666 238.841 28.6666 251.425H48.6666ZM50.1145 251.548C50.7678 251.548 51.3384 251.687 54.0949 253.02C56.5545 254.209 61.0284 256.486 66.9496 256.486V236.486C66.1368 236.486 65.448 236.294 62.8009 235.014C60.4507 233.878 55.9708 231.548 50.1145 231.548V251.548ZM66.9496 256.486C72.4284 256.486 77.5085 254.862 82.0299 251.489C86.3187 248.29 89.6875 243.833 92.5632 238.772C98.2126 228.831 103.378 213.922 109.505 193.98L90.3875 188.105C84.1695 208.342 79.5702 221.156 75.1746 228.891C73.028 232.669 71.3041 234.539 70.0723 235.458C69.0733 236.203 68.2049 236.486 66.9496 236.486V256.486ZM109.518 193.937L138.026 99.6602L118.882 93.8715L90.3745 188.148L109.518 193.937ZM128.454 86.7659H107.803V106.766H128.454V86.7659ZM117.361 99.7067L119.156 93.8705L100.041 87.9888L98.2451 93.825L117.361 99.7067ZM109.599 100.93H130.25V80.9297H109.599V100.93ZM139.828 93.8032L142.522 84.8244L123.365 79.0775L120.671 88.0562L139.828 93.8032ZM142.525 84.8137C147.887 66.8671 153.726 54.9858 160.853 47.586C167.51 40.6749 175.988 36.9562 188.836 36.9562V16.9562C171.38 16.9562 157.412 22.3285 146.448 33.7115C135.955 44.6059 128.999 60.222 123.362 79.0882L142.525 84.8137ZM188.836 36.9562C196.846 36.9562 200.711 38.0937 202.209 38.8603C202.85 39.188 202.667 39.2496 202.322 38.7441C201.93 38.1691 201.732 37.4491 201.732 36.8328H221.732C221.732 29.7562 217.511 24.2245 211.321 21.0567C205.692 18.1756 198.11 16.9562 188.836 16.9562V36.9562ZM201.732 36.8328C201.732 36.5238 201.781 36.3813 201.795 36.344C201.814 36.2906 201.858 36.1905 201.97 36.0589C202.099 35.908 202.291 35.7517 202.515 35.6479C202.748 35.5401 202.803 35.5871 202.528 35.5871V55.5871C208.728 55.5871 213.799 53.0008 217.172 49.0546C220.296 45.4002 221.732 40.8711 221.732 36.8328H201.732ZM202.528 35.5871C201.805 35.5871 200.952 35.2441 195.921 31.8205C191.841 29.0435 185.212 24.5881 176.041 24.5881V44.5881C178.543 44.5881 180.668 45.6323 184.669 48.3547C187.719 50.4306 194.273 55.5871 202.528 55.5871V35.5871ZM269.978 145.251L261.457 140.018L259.865 142.609L259.986 145.648L269.978 145.251ZM271.1 173.534L281.093 173.16L281.093 173.149L281.092 173.137L271.1 173.534ZM299.383 176.228V166.228H293.551L290.68 171.303L299.383 176.228ZM303.872 176.228L312.958 180.405L319.476 166.228H303.872V176.228ZM258.53 173.983L268.523 173.616L268.522 173.573L268.52 173.529L258.53 173.983ZM257.856 159.168L267.846 158.714L266.231 123.19L249.094 154.349L257.856 159.168ZM250 172.412L241.545 167.072L241.535 167.088L241.525 167.105L250 172.412ZM257.407 150.863L266.133 155.749L267.522 153.268L267.398 150.428L257.407 150.863ZM256.285 125.049L246.292 125.416L246.293 125.449L246.295 125.483L256.285 125.049ZM230.022 122.804V132.804H236.056L238.869 127.467L230.022 122.804ZM225.309 122.804L216.401 118.259L208.98 132.804H225.309V122.804ZM268.855 118.764L278.849 118.407L278.847 118.364L278.846 118.322L268.855 118.764ZM269.529 137.619L259.535 137.976L260.699 170.576L278.006 142.924L269.529 137.619ZM321.157 98.4605C322.188 98.4605 322.661 98.5622 322.745 98.5839C322.812 98.601 322.333 98.4901 321.677 97.9734C320.963 97.4116 320.379 96.6349 320.026 95.7811C319.704 95.0014 319.686 94.4309 319.686 94.2967H339.686C339.686 90.4972 338.434 85.7113 334.048 82.2586C330.168 79.2038 325.367 78.4605 321.157 78.4605V98.4605ZM319.686 94.2967C319.686 94.187 319.708 94.2051 319.652 94.3385C319.595 94.4751 319.492 94.6408 319.356 94.7874C319.218 94.9359 319.128 94.9772 319.156 94.9635C319.194 94.9452 319.419 94.8467 319.81 94.8467V114.847C325.747 114.847 330.727 111.934 334.012 108.396C337.31 104.845 339.686 99.8505 339.686 94.2967H319.686ZM319.81 94.8467C319.979 94.8467 319.852 94.8705 319.218 94.7147C318.557 94.5523 317.838 94.3262 316.641 93.9529C314.667 93.3378 311.011 92.1531 307.015 92.1531V112.153C307.508 112.153 308.342 112.315 310.689 113.047C312.316 113.554 316.04 114.847 319.81 114.847V94.8467ZM307.015 92.1531C302.005 92.1531 297.721 94.4246 294.462 96.8142C291.091 99.286 287.767 102.661 284.475 106.56C277.878 114.374 270.261 125.682 261.457 140.018L278.499 150.484C287.203 136.313 294.176 126.072 299.757 119.463C302.553 116.151 304.715 114.097 306.289 112.942C307.976 111.705 308.096 112.153 307.015 112.153V92.1531ZM259.986 145.648L261.108 173.931L281.092 173.137L279.97 144.854L259.986 145.648ZM261.107 173.908C261.559 186.002 262.693 194.344 264.883 199.9C266.035 202.823 267.799 205.823 270.709 208.01C273.824 210.353 277.114 210.919 279.63 210.919V190.919C280.126 190.919 281.451 191.065 282.729 192.025C283.8 192.831 283.853 193.488 283.49 192.566C282.65 190.434 281.539 185.084 281.093 173.16L261.107 173.908ZM279.63 210.919C283.652 210.919 286.928 209.262 289.32 207.481C291.666 205.734 293.72 203.46 295.548 201.11C299.194 196.422 303.275 189.656 308.087 181.152L290.68 171.303C285.839 179.859 282.4 185.438 279.761 188.831C278.446 190.522 277.667 191.222 277.375 191.44C277.13 191.622 277.965 190.919 279.63 190.919V210.919ZM299.383 186.228H303.872V166.228H299.383V186.228ZM294.787 172.05C290.46 181.46 286.029 189.045 281.7 194.123C277.169 199.437 274.207 200.347 272.896 200.347V220.347C283.033 220.347 291.069 213.961 296.92 207.098C302.972 199.999 308.306 190.524 312.958 180.405L294.787 172.05ZM272.896 200.347C272.093 200.347 272.26 200.19 272.549 200.432C272.636 200.504 272.078 200.083 271.367 198.046C269.831 193.643 268.978 186.022 268.523 173.616L248.537 174.35C248.979 186.411 249.81 196.972 252.483 204.634C253.877 208.629 256.054 212.712 259.725 215.779C263.599 219.016 268.199 220.347 272.896 220.347V200.347ZM268.52 173.529L267.846 158.714L247.867 159.622L248.54 174.437L268.52 173.529ZM249.094 154.349C246.744 158.622 244.158 162.934 241.545 167.072L258.455 177.752C261.229 173.359 264.03 168.693 266.619 163.987L249.094 154.349ZM241.525 167.105C234.177 178.838 227.595 187.466 221.579 193.069C215.532 198.701 211.074 200.347 207.8 200.347V220.347C218.219 220.347 227.341 215.034 235.211 207.703C243.112 200.343 250.783 190.003 258.476 177.719L241.525 167.105ZM207.8 200.347C206.535 200.347 205.771 200.267 205.368 200.197C204.94 200.123 205.217 200.109 205.813 200.447C206.519 200.849 207.452 201.628 208.12 202.871C208.751 204.047 208.821 205.038 208.821 205.409H188.821C188.821 207.463 189.2 209.913 190.498 212.33C191.832 214.815 193.789 216.618 195.927 217.833C199.726 219.994 204.188 220.347 207.8 220.347V200.347ZM208.821 205.409C208.821 205.563 208.784 205.565 208.858 205.404C208.936 205.234 209.092 204.99 209.337 204.742C209.585 204.49 209.806 204.355 209.9 204.309C209.938 204.291 209.906 204.311 209.797 204.339C209.687 204.366 209.467 204.41 209.147 204.41V184.41C203.379 184.41 198.38 187.369 195.096 190.699C191.702 194.141 188.821 199.293 188.821 205.409H208.821ZM209.147 204.41C209.708 204.41 210.14 204.497 212.207 205.114C214.207 205.711 217.358 206.654 221.493 206.654V186.654C220.464 186.654 219.687 186.475 217.928 185.95C216.235 185.444 213.075 184.41 209.147 184.41V204.41ZM221.493 206.654C227.021 206.654 231.532 203.499 234.395 201.07C237.633 198.322 240.916 194.612 244.173 190.383C250.728 181.874 258.188 169.936 266.133 155.749L248.682 145.977C240.915 159.848 234.008 170.806 228.329 178.178C225.47 181.889 223.169 184.366 221.455 185.82C219.365 187.593 219.556 186.654 221.493 186.654V206.654ZM267.398 150.428L266.276 124.614L246.295 125.483L247.417 151.297L267.398 150.428ZM266.278 124.682C265.84 112.732 265.229 104.733 263.804 99.6875C263.068 97.0814 261.697 93.6312 258.554 91.0966C255.151 88.3528 251.468 88.1127 249.551 88.1127V108.113C249.767 108.113 247.879 108.181 245.999 106.665C244.378 105.358 244.255 104.054 244.557 105.124C245.209 107.43 245.833 112.899 246.292 125.416L266.278 124.682ZM249.551 88.1127C245.304 88.1127 241.977 90.2105 240.034 91.7008C237.85 93.3766 235.788 95.5601 233.861 97.9436C229.981 102.745 225.706 109.545 221.176 118.142L238.869 127.467C243.093 119.452 246.675 113.907 249.416 110.515C250.801 108.802 251.741 107.927 252.208 107.569C252.917 107.025 251.89 108.113 249.551 108.113V88.1127ZM230.022 112.804H225.309V132.804H230.022V112.804ZM234.216 127.349C239.845 116.316 244.221 108.733 248.258 103.926C252.156 99.2851 254.497 98.685 256.061 98.685V78.685C246.176 78.685 238.753 84.1456 232.943 91.0643C227.271 97.8176 221.995 107.294 216.401 118.259L234.216 127.349ZM256.061 98.685C257.294 98.685 257.126 98.8813 256.53 98.5488C255.769 98.1239 255.731 97.6685 256.082 98.4254C257.154 100.733 258.295 106.327 258.865 119.206L278.846 118.322C278.293 105.836 277.19 96.3904 274.221 89.9997C272.552 86.4074 270.045 83.1883 266.281 81.0869C262.684 79.0779 258.98 78.685 256.061 78.685V98.685ZM258.862 119.121L259.535 137.976L279.522 137.262L278.849 118.407L258.862 119.121ZM278.006 142.924C288.306 126.466 296.435 115.038 303.748 107.749C310.906 100.616 316.259 98.4605 321.157 98.4605V78.4605C308.994 78.4605 298.859 84.3856 289.631 93.5828C280.558 102.624 271.403 115.775 261.052 132.314L278.006 142.924Z" fill="white" mask="url(#path-1-outside-1_984_3)"/>
</svg>
