<svg width="50" height="58" viewBox="0 0 50 58" fill="none" xmlns="http://www.w3.org/2000/svg">
<g id="A_Logo">
<path id="Union" fill-rule="evenodd" clip-rule="evenodd" d="M40.0745 0.191406V10.2195L50.0003 10.2198V20.1673H39.9702V10.2198H10.0578V0.191802L40.0745 0.191406ZM12.8796 20.2266H39.9702V30.1254H10.0508C10.2293 34.8418 12.152 40.1484 15.0497 43.2121C17.9809 46.2391 22.0605 48.1873 26.5969 48.1873C30.5052 48.1873 33.9307 47.2504 36.2337 45.3765C36.4064 45.215 36.5678 45.0668 36.7202 44.9267C38.013 43.7392 38.6643 43.1409 40.0571 40.0976H49.5514C49.5 41.4999 49.171 43.2304 48.5 44.9999C46.9812 49.0046 45.4903 50.8442 41.527 53.8356C37.6885 56.4302 32.0755 57.809 26.2829 57.809C19.0246 57.809 12.8482 55.1784 7.75343 49.9171C2.73579 44.6644 0.28472 36.9838 0.211695 28.8348L0.205345 28.8337C0.0864654 26.3525 0 20.2266 0 20.2266H2.57592H12.8796Z" fill="#0638BD"/>
<rect id="Rectangle 237" x="0.0332031" y="10.2012" width="10.1031" height="10.0529" fill="#0638BD"/>
</g>
</svg>
