<svg width="110" height="148" viewBox="0 0 110 148" fill="none" xmlns="http://www.w3.org/2000/svg">
<mask id="path-1-outside-1_1742_1437" maskUnits="userSpaceOnUse" x="3" y="38.0918" width="79" height="74" fill="black">
<rect fill="white" x="3" y="38.0918" width="79" height="74"/>
<path d="M62.4619 50.128V60.1208H69.9565V70.1135H59.9638V60.1208H32.4837V50.128H62.4619ZM29.9855 70.1135H57.4656V80.1063H24.9891V90.099H52.4692V100.092H22.4909V90.099H14.9964V80.1063H17.4946V70.1135H19.9928V60.1208H29.9855V70.1135Z"/>
</mask>
<path d="M62.4619 50.128V60.1208H69.9565V70.1135H59.9638V60.1208H32.4837V50.128H62.4619ZM29.9855 70.1135H57.4656V80.1063H24.9891V90.099H52.4692V100.092H22.4909V90.099H14.9964V80.1063H17.4946V70.1135H19.9928V60.1208H29.9855V70.1135Z" fill="#0638BD"/>
<path d="M62.4619 50.128H74.001V38.589H62.4619V50.128ZM62.4619 60.1208H50.9229V71.6598H62.4619V60.1208ZM69.9565 60.1208H81.4955V48.5818H69.9565V60.1208ZM69.9565 70.1135V81.6526H81.4955V70.1135H69.9565ZM59.9638 70.1135H48.4247V81.6526H59.9638V70.1135ZM59.9638 60.1208H71.5028V48.5818H59.9638V60.1208ZM32.4837 60.1208H20.9447V71.6598H32.4837V60.1208ZM32.4837 50.128V38.589H20.9447V50.128H32.4837ZM29.9855 70.1135H18.4465V81.6526H29.9855V70.1135ZM57.4656 70.1135H69.0046V58.5745H57.4656V70.1135ZM57.4656 80.1063V91.6453H69.0046V80.1063H57.4656ZM24.9891 80.1063V68.5673H13.4501V80.1063H24.9891ZM24.9891 90.099H13.4501V101.638H24.9891V90.099ZM52.4692 90.099H64.0082V78.56H52.4692V90.099ZM52.4692 100.092V111.631H64.0082V100.092H52.4692ZM22.4909 100.092H10.9519V111.631H22.4909V100.092ZM22.4909 90.099H34.03V78.56H22.4909V90.099ZM14.9964 90.099H3.45736V101.638H14.9964V90.099ZM14.9964 80.1063V68.5673H3.45736V80.1063H14.9964ZM17.4946 80.1063V91.6453H29.0336V80.1063H17.4946ZM17.4946 70.1135V58.5745H5.95555V70.1135H17.4946ZM19.9928 70.1135V81.6526H31.5318V70.1135H19.9928ZM19.9928 60.1208V48.5818H8.45373V60.1208H19.9928ZM29.9855 60.1208H41.5245V48.5818H29.9855V60.1208ZM50.9229 50.128V60.1208H74.001V50.128H50.9229ZM62.4619 71.6598H69.9565V48.5818H62.4619V71.6598ZM58.4175 60.1208V70.1135H81.4955V60.1208H58.4175ZM69.9565 58.5745H59.9638V81.6526H69.9565V58.5745ZM71.5028 70.1135V60.1208H48.4247V70.1135H71.5028ZM59.9638 48.5818H32.4837V71.6598H59.9638V48.5818ZM44.0227 60.1208V50.128H20.9447V60.1208H44.0227ZM32.4837 61.6671H62.4619V38.589H32.4837V61.6671ZM29.9855 81.6526H57.4656V58.5745H29.9855V81.6526ZM45.9266 70.1135V80.1063H69.0046V70.1135H45.9266ZM57.4656 68.5673H24.9891V91.6453H57.4656V68.5673ZM13.4501 80.1063V90.099H36.5281V80.1063H13.4501ZM24.9891 101.638H52.4692V78.56H24.9891V101.638ZM40.9302 90.099V100.092H64.0082V90.099H40.9302ZM52.4692 88.5528H22.4909V111.631H52.4692V88.5528ZM34.03 100.092V90.099H10.9519V100.092H34.03ZM22.4909 78.56H14.9964V101.638H22.4909V78.56ZM26.5354 90.099V80.1063H3.45736V90.099H26.5354ZM14.9964 91.6453H17.4946V68.5673H14.9964V91.6453ZM29.0336 80.1063V70.1135H5.95555V80.1063H29.0336ZM17.4946 81.6526H19.9928V58.5745H17.4946V81.6526ZM31.5318 70.1135V60.1208H8.45373V70.1135H31.5318ZM19.9928 71.6598H29.9855V48.5818H19.9928V71.6598ZM18.4465 60.1208V70.1135H41.5245V60.1208H18.4465Z" fill="white" mask="url(#path-1-outside-1_1742_1437)"/>
</svg>
