<svg width="84" height="84" viewBox="0 0 84 84" fill="none" xmlns="http://www.w3.org/2000/svg">
<path fill-rule="evenodd" clip-rule="evenodd" d="M56 23.625C54.8397 23.625 53.7269 24.0859 52.9064 24.9064C52.0859 25.7269 51.625 26.8397 51.625 28C51.625 29.1603 52.0859 30.2731 52.9064 31.0936C53.7269 31.9141 54.8397 32.375 56 32.375C57.1603 32.375 58.2731 31.9141 59.0936 31.0936C59.9141 30.2731 60.375 29.1603 60.375 28C60.375 26.8397 59.9141 25.7269 59.0936 24.9064C58.2731 24.0859 57.1603 23.625 56 23.625ZM46.375 28C46.375 25.4473 47.3891 22.9991 49.1941 21.1941C50.9991 19.3891 53.4473 18.375 56 18.375C58.5527 18.375 61.0009 19.3891 62.8059 21.1941C64.6109 22.9991 65.625 25.4473 65.625 28C65.625 30.5527 64.6109 33.0009 62.8059 34.8059C61.0009 36.6109 58.5527 37.625 56 37.625C53.4473 37.625 50.9991 36.6109 49.1941 34.8059C47.3891 33.0009 46.375 30.5527 46.375 28Z" fill="#C7C7CA"/>
<path fill-rule="evenodd" clip-rule="evenodd" d="M41.8005 4.375H42.1995C50.281 4.375 56.6125 4.375 61.5545 5.04C66.6085 5.719 70.5985 7.14 73.731 10.269C76.8635 13.4015 78.281 17.3915 78.96 22.449C79.625 27.3875 79.625 33.719 79.625 41.8005V42.1995C79.625 50.281 79.625 56.6125 78.96 61.5545C78.281 66.6085 76.86 70.5985 73.731 73.731C70.5985 76.8635 66.6085 78.281 61.551 78.96C56.6125 79.625 50.281 79.625 42.1995 79.625H41.8005C33.719 79.625 27.3875 79.625 22.4455 78.96C17.3915 78.281 13.4015 76.86 10.269 73.731C7.1365 70.5985 5.719 66.6085 5.04 61.551C4.375 56.6125 4.375 50.281 4.375 42.1995V41.8005C4.375 33.719 4.375 27.3875 5.04 22.4455C5.719 17.3915 7.14 13.4015 10.269 10.269C13.4015 7.1365 17.3915 5.719 22.449 5.04C27.3875 4.375 33.719 4.375 41.8005 4.375ZM13.9825 70.0175C11.9875 68.0225 10.843 65.3275 10.241 60.851C9.7055 56.8575 9.6355 51.7615 9.625 44.94L14.8575 40.362C15.8931 39.4552 17.2348 38.9759 18.6106 39.0214C19.9864 39.0669 21.2935 39.6337 22.267 40.607L37.282 55.622C38.8839 57.2246 40.9999 58.2107 43.2573 58.4066C45.5148 58.6025 47.769 57.9957 49.623 56.693L50.666 55.958C52.1244 54.9327 53.8875 54.4325 55.667 54.5393C57.4466 54.6461 59.1372 55.3536 60.4625 56.546L71.743 66.703C71.8667 66.8127 71.9962 66.9095 72.1315 66.9935C71.6108 68.1184 70.8951 69.1422 70.0175 70.0175C68.0225 72.0125 65.3275 73.157 60.851 73.759C56.301 74.368 50.323 74.375 42 74.375C33.677 74.375 27.699 74.368 23.149 73.759C18.6725 73.157 15.9775 72.009 13.9825 70.0175ZM23.149 10.241C18.6725 10.843 15.974 11.991 13.979 13.9825C11.9875 15.9775 10.843 18.6725 10.241 23.149C9.7335 26.929 9.646 31.689 9.6285 37.9645L11.403 36.4105C13.4413 34.6274 16.0811 33.6856 18.7878 33.7759C21.4945 33.8662 24.0656 34.9819 25.9805 36.897L40.9955 51.912C41.724 52.6392 42.6855 53.0863 43.711 53.1747C44.7366 53.263 45.7604 52.987 46.6025 52.395L47.6455 51.66C50.0765 49.9516 53.0153 49.1186 55.9812 49.2973C58.9471 49.4759 61.7646 50.6556 63.973 52.6435L73.682 61.383L73.759 60.851C74.368 56.301 74.375 50.323 74.375 42C74.375 33.677 74.368 27.699 73.759 23.149C73.157 18.6725 72.009 15.974 70.0175 13.979C68.0225 11.9875 65.3275 10.843 60.851 10.241C56.301 9.632 50.323 9.625 42 9.625C33.677 9.625 27.699 9.632 23.149 10.241Z" fill="#C7C7CA"/>
</svg>
