<svg width="76" height="76" viewBox="0 0 76 76" fill="none" xmlns="http://www.w3.org/2000/svg">
<g id="Group">
<path id="Vector" fill-rule="evenodd" clip-rule="evenodd" d="M52 19.625C50.8397 19.625 49.7269 20.0859 48.9064 20.9064C48.0859 21.7269 47.625 22.8397 47.625 24C47.625 25.1603 48.0859 26.2731 48.9064 27.0936C49.7269 27.9141 50.8397 28.375 52 28.375C53.1603 28.375 54.2731 27.9141 55.0936 27.0936C55.9141 26.2731 56.375 25.1603 56.375 24C56.375 22.8397 55.9141 21.7269 55.0936 20.9064C54.2731 20.0859 53.1603 19.625 52 19.625ZM42.375 24C42.375 21.4473 43.3891 18.9991 45.1941 17.1941C46.9991 15.3891 49.4473 14.375 52 14.375C54.5527 14.375 57.0009 15.3891 58.8059 17.1941C60.6109 18.9991 61.625 21.4473 61.625 24C61.625 26.5527 60.6109 29.0009 58.8059 30.8059C57.0009 32.6109 54.5527 33.625 52 33.625C49.4473 33.625 46.9991 32.6109 45.1941 30.8059C43.3891 29.0009 42.375 26.5527 42.375 24Z" fill="#C7C7CA"/>
<path id="Vector_2" fill-rule="evenodd" clip-rule="evenodd" d="M37.8005 0.375H38.1995C46.281 0.375 52.6125 0.375 57.5545 1.04C62.6085 1.719 66.5985 3.14 69.731 6.269C72.8635 9.4015 74.281 13.3915 74.96 18.449C75.625 23.3875 75.625 29.719 75.625 37.8005V38.1995C75.625 46.281 75.625 52.6125 74.96 57.5545C74.281 62.6085 72.86 66.5985 69.731 69.731C66.5985 72.8635 62.6085 74.281 57.551 74.96C52.6125 75.625 46.281 75.625 38.1995 75.625H37.8005C29.719 75.625 23.3875 75.625 18.4455 74.96C13.3915 74.281 9.4015 72.86 6.269 69.731C3.1365 66.5985 1.719 62.6085 1.04 57.551C0.375 52.6125 0.375 46.281 0.375 38.1995V37.8005C0.375 29.719 0.375 23.3875 1.04 18.4455C1.719 13.3915 3.14 9.4015 6.269 6.269C9.4015 3.1365 13.3915 1.719 18.449 1.04C23.3875 0.375 29.719 0.375 37.8005 0.375ZM9.9825 66.0175C7.9875 64.0225 6.843 61.3275 6.241 56.851C5.7055 52.8575 5.6355 47.7615 5.625 40.94L10.8575 36.362C11.8931 35.4552 13.2348 34.9759 14.6106 35.0214C15.9864 35.0669 17.2935 35.6337 18.267 36.607L33.282 51.622C34.8839 53.2246 36.9999 54.2107 39.2573 54.4066C41.5148 54.6025 43.769 53.9957 45.623 52.693L46.666 51.958C48.1244 50.9327 49.8875 50.4325 51.667 50.5393C53.4466 50.6461 55.1372 51.3536 56.4625 52.546L67.743 62.703C67.8667 62.8127 67.9962 62.9095 68.1315 62.9935C67.6108 64.1184 66.8951 65.1422 66.0175 66.0175C64.0225 68.0125 61.3275 69.157 56.851 69.759C52.301 70.368 46.323 70.375 38 70.375C29.677 70.375 23.699 70.368 19.149 69.759C14.6725 69.157 11.9775 68.009 9.9825 66.0175ZM19.149 6.241C14.6725 6.843 11.974 7.991 9.979 9.9825C7.9875 11.9775 6.843 14.6725 6.241 19.149C5.7335 22.929 5.646 27.689 5.6285 33.9645L7.403 32.4105C9.44129 30.6274 12.0811 29.6856 14.7878 29.7759C17.4945 29.8662 20.0656 30.9819 21.9805 32.897L36.9955 47.912C37.724 48.6392 38.6855 49.0863 39.711 49.1747C40.7366 49.263 41.7604 48.9869 42.6025 48.395L43.6455 47.66C46.0765 45.9516 49.0153 45.1186 51.9812 45.2973C54.9471 45.4759 57.7646 46.6556 59.973 48.6435L69.682 57.383L69.759 56.851C70.368 52.301 70.375 46.323 70.375 38C70.375 29.677 70.368 23.699 69.759 19.149C69.157 14.6725 68.009 11.974 66.0175 9.979C64.0225 7.9875 61.3275 6.843 56.851 6.241C52.301 5.632 46.323 5.625 38 5.625C29.677 5.625 23.699 5.632 19.149 6.241Z" fill="#C7C7CA"/>
</g>
</svg>
