<svg width="54" height="54" viewBox="0 0 54 54" fill="none" xmlns="http://www.w3.org/2000/svg">
<g clip-path="url(#clip0_810_39769)">
<mask id="path-1-inside-1_810_39769" fill="white">
<path d="M0 27C0 12.0883 12.0883 0 27 0C41.9117 0 54 12.0883 54 27C54 41.9117 41.9117 54 27 54C12.0883 54 0 41.9117 0 27Z"/>
</mask>
<path d="M45.0352 0H8.96484C4.0137 0 0 4.11003 0 9.18V44.7336C0 49.8036 4.0137 53.9136 8.96484 53.9136H45.0352C49.9863 53.9136 54 49.8036 54 44.7336V9.18C54 4.11003 49.9863 0 45.0352 0Z" fill="white"/>
<path fill-rule="evenodd" clip-rule="evenodd" d="M12.0063 36.2011L12.0072 23.6906L13.6762 20.3525L17.0144 18.6834H21.187L22.8561 19.5179L26.1942 18.6834H30.3669L32.036 19.5179L35.3741 18.6834H39.5468L42.0503 21.187V36.2011C42.0503 39.8905 39.0552 42.8865 35.3649 42.8865H18.6918C15.0023 42.8865 12.0063 39.8914 12.0063 36.2011Z" fill="#0638BD"/>
<path fill-rule="evenodd" clip-rule="evenodd" d="M27.0297 27.0295C26.468 27.0295 25.9172 26.2184 25.3765 26.2618L25.3606 26.195L27.0297 25.3605H31.9075L31.7514 26.765C30.3077 26.3986 28.7096 27.0295 27.0297 27.0295Z" fill="#0638BD"/>
<path fill-rule="evenodd" clip-rule="evenodd" d="M30.6917 26.5305L31.366 25.3597H40.3822V25.7411L37.0399 29.4272C34.4312 29.5616 32.6061 27.9893 30.6917 26.5305Z" fill="#0638BD"/>
<path fill-rule="evenodd" clip-rule="evenodd" d="M37.342 32.8713C37.342 31.0161 37.3862 29.337 35.2456 28.1278L40.0383 25.3605H40.3822V33.1283L38.6305 33.6682C38.6839 33.4062 37.342 33.14 37.342 32.8713Z" fill="#0638BD"/>
<path fill-rule="evenodd" clip-rule="evenodd" d="M38.5362 40.0917L32.979 38.617C35.2781 36.5441 37.6082 34.4277 38.7131 32.8713H40.3821V36.2094C40.3821 37.775 39.6619 39.1737 38.5362 40.0917Z" fill="#0638BD"/>
<path fill-rule="evenodd" clip-rule="evenodd" d="M30.739 41.2166L28.6468 39.53L28.636 39.4858C30.4962 38.0829 33.0423 37.8326 35.2455 37.6172L38.9241 39.7403C38.017 40.6524 36.761 41.2166 35.3748 41.2166H30.739Z" fill="#0638BD"/>
<path fill-rule="evenodd" clip-rule="evenodd" d="M26.3619 41.2166L25.6768 39.5042C26.1207 39.5334 26.5714 38.8866 27.0295 38.8866C28.308 38.8866 29.539 39.4307 30.6915 39.2129L31.8473 41.2166H26.3619Z" fill="#0638BD"/>
<path fill-rule="evenodd" clip-rule="evenodd" d="M22.3028 26.7642L22.1484 25.3597H27.0279L27.0271 26.1942C25.434 26.8159 23.8692 27.2566 22.3028 26.7642Z" fill="#0638BD"/>
<path fill-rule="evenodd" clip-rule="evenodd" d="M17.017 29.4297L13.6755 25.7435V25.3605H22.6893L23.3636 26.5313C21.5627 27.567 20.0313 29.0441 17.017 29.4297Z" fill="#0638BD"/>
<path fill-rule="evenodd" clip-rule="evenodd" d="M15.4281 33.6691L13.6755 33.1291V25.3605H14.0185L18.8112 28.1278C16.6715 29.3387 16.931 31.0178 16.931 32.8713C16.9302 33.1417 15.3738 33.407 15.4281 33.6691Z" fill="#0638BD"/>
<path fill-rule="evenodd" clip-rule="evenodd" d="M13.6771 36.2094L13.6763 32.8713H15.3462C16.0597 34.7398 19.498 35.9582 21.0777 38.617L15.5223 40.0917C14.3956 39.1737 13.6771 37.775 13.6771 36.2094Z" fill="#0638BD"/>
<path fill-rule="evenodd" clip-rule="evenodd" d="M15.1326 39.7386L18.8104 37.6156C20.9568 37.9269 23.7516 37.75 25.4198 39.485L25.4098 39.5292L23.3168 41.2158H18.6843C17.2957 41.2166 16.0389 40.6508 15.1326 39.7386Z" fill="#0638BD"/>
<path fill-rule="evenodd" clip-rule="evenodd" d="M22.2095 41.2166L23.3653 39.2129C24.6747 38.7764 25.9515 38.6997 27.0264 39.5476L27.0272 41.2166H22.2095Z" fill="#0638BD"/>
<path fill-rule="evenodd" clip-rule="evenodd" d="M27.0297 29.781C26.6784 29.781 26.3329 28.7128 25.9949 28.7387L27.0297 26.195C28.3082 26.195 29.54 26.3127 30.6925 26.5313L31.5846 28.2805L30.6541 29.2177C29.58 28.8864 28.3432 29.781 27.0297 29.781Z" fill="#0638BD"/>
<path fill-rule="evenodd" clip-rule="evenodd" d="M29.3245 28.8973L30.6906 26.5305C32.4231 26.8577 33.9761 27.4093 35.2438 28.1261L36.3245 30.2158L33.7083 30.9636C31.9641 31.047 30.4744 30.1891 29.3245 28.8973Z" fill="#0638BD"/>
<path fill-rule="evenodd" clip-rule="evenodd" d="M35.0895 34.7557L33.952 34.4911C34.33 33.9929 33.1634 33.4454 33.1634 32.8713C33.1634 31.6921 33.6549 30.6247 32.2354 29.8661L35.2455 28.1278C37.3861 29.337 38.713 31.0161 38.713 32.8713L35.0895 34.7557Z" fill="#0638BD"/>
<path fill-rule="evenodd" clip-rule="evenodd" d="M35.2481 37.6156L32.52 38.4944L30.6106 36.5391C30.7984 34.5496 33.3136 33.7217 34.5404 32.8705H38.7131C38.7131 34.7256 37.3862 36.4047 35.2481 37.6156Z" fill="#0638BD"/>
<path fill-rule="evenodd" clip-rule="evenodd" d="M30.6981 39.2112L28.0334 37.0072C29.1859 36.1159 30.6981 35.798 32.2353 35.8789L35.2463 37.6172C33.9795 38.3324 32.4273 38.8841 30.6981 39.2112Z" fill="#0638BD"/>
<path fill-rule="evenodd" clip-rule="evenodd" d="M27.0297 39.5475L25.3606 38.713L25.8513 36.9939C26.2352 37.0272 26.7359 36.1501 27.1373 36.1501C27.9376 36.1501 28.5268 36.4973 29.3238 36.8453L30.6916 39.212C29.5383 39.4307 28.3082 39.5475 27.0297 39.5475Z" fill="#0638BD"/>
<path fill-rule="evenodd" clip-rule="evenodd" d="M23.401 29.2177L22.4722 28.2797L23.3601 26.5314C24.5143 26.3136 25.746 26.195 27.0262 26.1942V28.6986C25.9964 29.398 24.9048 29.9388 23.401 29.2177Z" fill="#0638BD"/>
<path fill-rule="evenodd" clip-rule="evenodd" d="M20.3475 30.9636L18.8145 28.1253C20.0804 27.4101 21.6343 26.8568 23.3643 26.5305L24.7305 28.8981C23.4578 29.7276 22.1042 30.6498 20.3475 30.9636Z" fill="#0638BD"/>
<path fill-rule="evenodd" clip-rule="evenodd" d="M18.9663 34.7557L15.4278 33.6683C15.3736 33.4071 15.3452 33.1409 15.3452 32.8705C15.3452 31.017 16.6705 29.3379 18.8102 28.127L21.8204 29.8653C20.4008 30.6256 20.8615 31.6913 20.8615 32.8705C20.8615 33.4447 19.7265 33.9921 20.1046 34.4895L18.9663 34.7557Z" fill="#0638BD"/>
<path fill-rule="evenodd" clip-rule="evenodd" d="M15.3462 32.8713H19.5189C21.6077 34.0263 22.554 35.5359 23.447 36.5399L18.8145 37.6181C16.6731 36.4072 15.3462 34.7281 15.3462 32.8713Z" fill="#0638BD"/>
<path fill-rule="evenodd" clip-rule="evenodd" d="M18.8096 37.6156L21.8206 35.8773C23.3002 36.0049 25.1286 35.9215 26.0208 37.0064L23.3644 39.212C21.6328 38.8866 20.0781 38.3325 18.8096 37.6156Z" fill="#0638BD"/>
<path fill-rule="evenodd" clip-rule="evenodd" d="M23.3652 39.2121L24.7314 36.8453C25.5717 36.4055 26.357 36.4047 27.0255 37.0431V39.5467C25.7478 39.5475 24.5169 39.4307 23.3652 39.2121Z" fill="#0638BD"/>
<path fill-rule="evenodd" clip-rule="evenodd" d="M27.0297 31.8264C26.8887 31.8264 26.7501 31.2064 26.6133 31.2156L27.0297 28.6986C27.8309 28.6986 28.602 28.7687 29.3263 28.8981L28.5127 31.3775C28.0654 31.2656 27.5613 31.8264 27.0297 31.8264Z" fill="#0638BD"/>
<path fill-rule="evenodd" clip-rule="evenodd" d="M27.9551 31.2673L29.3245 28.8973C30.4303 29.0951 31.4251 29.4314 32.2421 29.8687L29.9279 32.0443C28.9624 32.1979 28.2922 31.8799 27.9551 31.2673Z" fill="#0638BD"/>
<path fill-rule="evenodd" clip-rule="evenodd" d="M34.5404 32.8713L30.0532 33.5799C30.2543 33.3637 29.9305 33.125 29.9305 32.8713C29.9305 32.3681 29.9205 31.9166 29.2136 31.6104L32.2355 29.8654C33.6558 30.6248 34.5404 31.6913 34.5404 32.8713Z" fill="#0638BD"/>
<path fill-rule="evenodd" clip-rule="evenodd" d="M32.2303 35.8806L28.4941 34.3718C28.5567 32.9105 30.0422 33.1592 30.3677 32.8705H34.5403C34.5403 34.053 33.6532 35.1212 32.2303 35.8806Z" fill="#0638BD"/>
<path fill-rule="evenodd" clip-rule="evenodd" d="M27.8757 36.3212L27.4309 34.5287C27.8173 33.9303 28.4824 33.8852 29.2126 34.1339L32.2345 35.8789C31.42 36.3137 30.4294 36.6492 29.3278 36.8445C28.9105 36.9188 28.3214 36.2879 27.8757 36.3212Z" fill="#0638BD"/>
<path fill-rule="evenodd" clip-rule="evenodd" d="M27.0297 37.044L26.5557 34.5245C26.7101 34.5345 26.9095 34.1974 27.0706 34.1974C27.391 34.1974 27.6614 34.5178 27.9552 34.4753L29.3238 36.8454C28.6003 36.9747 27.8292 37.044 27.0297 37.044Z" fill="#0638BD"/>
<path fill-rule="evenodd" clip-rule="evenodd" d="M25.5424 31.3766L24.6711 30.1215L24.7321 28.8972C25.4556 28.7696 26.225 28.6995 27.0254 28.6995V31.2031C26.6899 31.5294 26.2918 31.7664 25.5424 31.3766Z" fill="#0638BD"/>
<path fill-rule="evenodd" clip-rule="evenodd" d="M24.1296 32.0443L21.8196 29.867C22.6341 29.4305 23.6263 29.0959 24.7304 28.8989L26.0991 31.2682C25.6626 31.7706 25.0667 32.1553 24.1296 32.0443Z" fill="#0638BD"/>
<path fill-rule="evenodd" clip-rule="evenodd" d="M19.5188 32.8713C19.5188 31.6921 20.4009 30.6256 21.8213 29.8661L24.8423 31.6112C24.1379 31.9174 24.3391 32.3689 24.3391 32.8721C24.3391 33.1258 23.8041 33.3653 24.0044 33.5798L20.1055 34.4911C19.7266 33.9929 19.5188 33.4455 19.5188 32.8713Z" fill="#0638BD"/>
<path fill-rule="evenodd" clip-rule="evenodd" d="M19.5188 32.8713H23.6915C25.0776 33.4363 25.1936 34.0496 25.5633 34.3709L21.8188 35.8764C20.4009 35.1162 19.5188 34.0513 19.5188 32.8713Z" fill="#0638BD"/>
<path fill-rule="evenodd" clip-rule="evenodd" d="M21.8206 35.8773L24.8424 34.1323C25.7946 33.9428 26.2311 34.4485 26.5916 34.7632L24.7489 36.847C23.639 36.6517 22.6409 36.3162 21.8206 35.8773Z" fill="#0638BD"/>
<path fill-rule="evenodd" clip-rule="evenodd" d="M24.7314 36.8453L26.1001 34.4753C26.4731 34.2257 26.7877 34.2291 27.0256 34.5395V37.0431C26.2261 37.0439 25.455 36.9747 24.7314 36.8453Z" fill="#0638BD"/>
<path fill-rule="evenodd" clip-rule="evenodd" d="M27.0295 32.8713L26.856 31.7263L27.0295 31.2022C27.3508 31.2022 27.6638 31.2256 27.9584 31.269L27.8207 31.96L27.0295 32.8713Z" fill="#0638BD"/>
<path fill-rule="evenodd" clip-rule="evenodd" d="M27.0295 32.8713L27.955 31.2681C28.4249 31.3357 28.8522 31.4542 29.211 31.6095L28.5275 32.3939L27.0295 32.8713Z" fill="#0638BD"/>
<path fill-rule="evenodd" clip-rule="evenodd" d="M30.0523 33.5798L27.0288 32.8713L29.2128 31.6103C29.9196 31.9166 30.3669 32.368 30.3669 32.8713C30.3678 33.125 30.2543 33.3636 30.0523 33.5798Z" fill="#0638BD"/>
<path fill-rule="evenodd" clip-rule="evenodd" d="M28.4934 34.3718L27.0288 32.8705H30.3669C30.3678 33.5298 29.6017 34.1006 28.4934 34.3718Z" fill="#0638BD"/>
<path fill-rule="evenodd" clip-rule="evenodd" d="M27.9559 34.4753L27.4076 33.9479L27.0295 32.8705L29.2127 34.1331C28.853 34.29 28.4257 34.4077 27.9559 34.4753Z" fill="#0638BD"/>
<path fill-rule="evenodd" clip-rule="evenodd" d="M27.0296 34.5403L26.8235 33.947L27.0296 32.8713L27.9551 34.4761C27.6614 34.5178 27.3501 34.5403 27.0296 34.5403Z" fill="#0638BD"/>
<path fill-rule="evenodd" clip-rule="evenodd" d="M27.0271 32.8713L26.1584 31.9199L26.105 31.2681C26.3979 31.2256 26.7067 31.2039 27.0263 31.2039L27.0271 32.8713Z" fill="#0638BD"/>
<path fill-rule="evenodd" clip-rule="evenodd" d="M27.0271 32.8713L25.3188 32.3831L24.8423 31.6111C25.202 31.4551 25.6293 31.3366 26.0983 31.2681L27.0271 32.8713Z" fill="#0638BD"/>
<path fill-rule="evenodd" clip-rule="evenodd" d="M23.6914 32.8713C23.6914 32.368 24.1379 31.9166 24.8422 31.6103L27.0279 32.8713L24.808 33.2618L23.6914 32.8713Z" fill="#0638BD"/>
<path fill-rule="evenodd" clip-rule="evenodd" d="M23.6914 32.8713H27.027L25.7911 33.9119L24.8406 34.1323C24.1362 33.826 23.6914 33.3737 23.6914 32.8713Z" fill="#0638BD"/>
<path fill-rule="evenodd" clip-rule="evenodd" d="M24.8433 34.1331L27.0272 32.8713L26.6901 34.1706C26.5123 34.1598 26.2703 34.5003 26.1026 34.4752C25.6319 34.4077 25.2038 34.29 24.8433 34.1331Z" fill="#0638BD"/>
<path fill-rule="evenodd" clip-rule="evenodd" d="M26.0999 34.4753L27.027 32.8705L27.0262 34.5395C26.7041 34.5404 26.3936 34.5179 26.0999 34.4753Z" fill="#0638BD"/>
<path fill-rule="evenodd" clip-rule="evenodd" d="M16.1807 23.6914L21.1879 18.6842H26.1951L21.1879 23.6914H16.1807Z" fill="#E1E1E1"/>
<path fill-rule="evenodd" clip-rule="evenodd" d="M25.3606 23.6914L30.3678 18.6842H35.375L30.3678 23.6914H25.3606Z" fill="#E1E1E1"/>
<path fill-rule="evenodd" clip-rule="evenodd" d="M34.5403 23.6914L39.5475 18.6842H42.0511V21.1878L39.5475 23.6914H34.5403Z" fill="#E1E1E1"/>
<path fill-rule="evenodd" clip-rule="evenodd" d="M12.0063 23.6914V18.685L12.0072 18.6842H17.0144L12.0063 23.6914Z" fill="#E1E1E1"/>
<path fill-rule="evenodd" clip-rule="evenodd" d="M15.9578 13.6011L19.0497 13.788L20.6253 12.7899L24.798 12.3335L28.2304 12.7816L29.8051 11.786L33.9778 11.3287L39.2654 13.2239L39.5466 15.6682L35.374 16.1247L31.9399 15.6766L30.3668 16.6739L26.1941 17.1312L22.7625 16.683L21.1869 17.6786L17.0143 18.136L14.4164 17.596L13.5076 15.402C14.1643 14.6351 14.9972 14.0125 15.9578 13.6011Z" fill="#0638BD"/>
<path fill-rule="evenodd" clip-rule="evenodd" d="M21.188 17.6778L15.9563 13.6019C16.5638 13.3407 17.224 13.1621 17.9191 13.087L20.6263 12.7899L26.1952 17.1303L21.188 17.6778Z" fill="#E1E1E1"/>
<path fill-rule="evenodd" clip-rule="evenodd" d="M30.3677 16.673L24.7988 12.3335L29.806 11.786L35.3749 16.1247L30.3677 16.673Z" fill="#E1E1E1"/>
<path fill-rule="evenodd" clip-rule="evenodd" d="M39.5476 15.6683L33.9788 11.3287L35.0178 11.2144C38.1281 10.8739 40.9838 12.6656 42.0512 15.3937L39.5476 15.6683Z" fill="#E1E1E1"/>
<path fill-rule="evenodd" clip-rule="evenodd" d="M13.5069 15.4028L17.0153 18.1359L12.0081 18.6842C12.1858 17.4575 12.7174 16.3258 13.5069 15.4028Z" fill="#E1E1E1"/>
</g>
<path d="M27 52C13.1929 52 2 40.8071 2 27H-2C-2 43.0163 10.9837 56 27 56V52ZM52 27C52 40.8071 40.8071 52 27 52V56C43.0163 56 56 43.0163 56 27H52ZM27 2C40.8071 2 52 13.1929 52 27H56C56 10.9837 43.0163 -2 27 -2V2ZM27 -2C10.9837 -2 -2 10.9837 -2 27H2C2 13.1929 13.1929 2 27 2V-2Z" fill="#E1E1E1" mask="url(#path-1-inside-1_810_39769)"/>
<defs>
<clipPath id="clip0_810_39769">
<path d="M0 27C0 12.0883 12.0883 0 27 0C41.9117 0 54 12.0883 54 27C54 41.9117 41.9117 54 27 54C12.0883 54 0 41.9117 0 27Z" fill="white"/>
</clipPath>
</defs>
</svg>
