<svg width="54" height="54" viewBox="0 0 54 54" fill="none" xmlns="http://www.w3.org/2000/svg">
<g clip-path="url(#clip0_810_39672)">
<mask id="path-1-inside-1_810_39672" fill="white">
<path d="M0 27C0 12.0883 12.0883 0 27 0C41.9117 0 54 12.0883 54 27C54 41.9117 41.9117 54 27 54C12.0883 54 0 41.9117 0 27Z"/>
</mask>
<path d="M45.0352 0H8.96484C4.0137 0 0 4.11003 0 9.18V44.7336C0 49.8036 4.0137 53.9136 8.96484 53.9136H45.0352C49.9863 53.9136 54 49.8036 54 44.7336V9.18C54 4.11003 49.9863 0 45.0352 0Z" fill="white"/>
<g clip-path="url(#clip1_810_39672)">
<path d="M22.6689 45.0001C25.7969 45.0001 28.3355 42.4614 28.3355 39.3334V33.6667H22.6689C19.5409 33.6667 17.0022 36.2054 17.0022 39.3334C17.0022 42.4614 19.5409 45.0001 22.6689 45.0001Z" fill="#0638BD"/>
<path d="M17.0022 27.9999C17.0022 24.8719 19.5409 22.3333 22.6689 22.3333H28.3355V33.6666H22.6689C19.5409 33.6666 17.0022 31.1279 17.0022 27.9999Z" fill="#0638BD"/>
<path d="M17.0022 16.6667C17.0022 13.5387 19.5409 11 22.6689 11H28.3355V22.3333H22.6689C19.5409 22.3333 17.0022 19.7947 17.0022 16.6667Z" fill="#0638BD"/>
<path d="M28.3357 11H34.0024C37.1304 11 39.669 13.5387 39.669 16.6667C39.669 19.7947 37.1304 22.3333 34.0024 22.3333H28.3357V11Z" fill="#0638BD"/>
<path d="M39.669 27.9999C39.669 31.1279 37.1304 33.6666 34.0024 33.6666C30.8744 33.6666 28.3357 31.1279 28.3357 27.9999C28.3357 24.8719 30.8744 22.3333 34.0024 22.3333C37.1304 22.3333 39.669 24.8719 39.669 27.9999Z" fill="#0638BD"/>
</g>
</g>
<path d="M27 52C13.1929 52 2 40.8071 2 27H-2C-2 43.0163 10.9837 56 27 56V52ZM52 27C52 40.8071 40.8071 52 27 52V56C43.0163 56 56 43.0163 56 27H52ZM27 2C40.8071 2 52 13.1929 52 27H56C56 10.9837 43.0163 -2 27 -2V2ZM27 -2C10.9837 -2 -2 10.9837 -2 27H2C2 13.1929 13.1929 2 27 2V-2Z" fill="#E1E1E1" mask="url(#path-1-inside-1_810_39672)"/>
<defs>
<clipPath id="clip0_810_39672">
<path d="M0 27C0 12.0883 12.0883 0 27 0C41.9117 0 54 12.0883 54 27C54 41.9117 41.9117 54 27 54C12.0883 54 0 41.9117 0 27Z" fill="white"/>
</clipPath>
<clipPath id="clip1_810_39672">
<rect width="22.6712" height="34" fill="white" transform="translate(17 11)"/>
</clipPath>
</defs>
</svg>
