<svg width="54" height="54" viewBox="0 0 54 54" fill="none" xmlns="http://www.w3.org/2000/svg">
<g clip-path="url(#clip0_811_40284)">
<mask id="path-1-inside-1_811_40284" fill="white">
<path d="M0 27C0 12.0883 12.0883 0 27 0C41.9117 0 54 12.0883 54 27C54 41.9117 41.9117 54 27 54C12.0883 54 0 41.9117 0 27Z"/>
</mask>
<path d="M45.0352 0H8.96484C4.0137 0 0 4.11003 0 9.18V44.7336C0 49.8036 4.0137 53.9136 8.96484 53.9136H45.0352C49.9863 53.9136 54 49.8036 54 44.7336V9.18C54 4.11003 49.9863 0 45.0352 0Z" fill="white"/>
<path d="M41.0939 32.5969C41.0939 32.5969 41.0471 32.3102 41.0198 32.3127L35.8174 32.8147C35.4035 32.8546 35.082 33.1848 35.053 33.5996L34.91 35.6481L30.8853 35.9352L30.6115 34.0787C30.5506 33.6657 30.19 33.3544 29.7726 33.3544H24.2817C23.8645 33.3544 23.5039 33.6657 23.4429 34.0787L23.169 35.9352L19.1443 35.6481L19.0014 33.5996C18.9723 33.1846 18.6508 32.8545 18.2369 32.8145L13.0319 32.3127C13.005 32.3101 12.9853 32.5971 12.9585 32.5971L12.9514 33.7229L17.3595 34.4338L17.5039 36.5006C17.5331 36.919 17.8707 37.2573 18.2894 37.2874L23.8323 37.6828C23.8533 37.6842 23.874 37.6851 23.8947 37.6851C24.3113 37.6851 24.6713 37.3736 24.7323 36.9607L25.0139 35.0504H29.0406L29.3222 36.9607C29.383 37.3735 29.7435 37.6849 30.1606 37.6849C30.181 37.6849 30.2015 37.6842 30.2215 37.6828L35.7652 37.2874C36.1837 37.2573 36.5215 36.919 36.5506 36.5006L36.6949 34.4338L41.1011 33.7198L41.0939 32.5969Z" fill="#E1E1E1"/>
<path d="M23.7671 12C22.3028 12.3256 20.8543 12.7787 19.4962 13.4622C19.5273 14.6613 19.6048 15.8103 19.762 16.9774C19.2346 17.3153 18.6803 17.6053 18.1877 18.0008C17.6872 18.3858 17.1759 18.7543 16.7227 19.2047C15.8173 18.6058 14.8592 18.043 13.872 17.5462C12.8079 18.6914 11.8128 19.9276 11 21.3107C11.6115 22.3 12.2499 23.2272 12.9393 24.1071H12.9584L12.9584 32.5963C12.974 32.5964 12.9896 32.5971 13.005 32.5985L18.2094 33.1002C18.482 33.1265 18.6956 33.346 18.7146 33.6191L18.8751 35.9165L23.4148 36.2405L23.7275 34.1201C23.768 33.8452 24.0039 33.6415 24.282 33.6415H29.7728C30.0507 33.6415 30.2866 33.8452 30.3271 34.1201L30.6398 36.2405L35.1797 35.9165L35.34 33.6191C35.3591 33.346 35.5726 33.1266 35.8452 33.1002L41.0475 32.5985C41.0629 32.5971 41.0783 32.5964 41.0939 32.5963V31.9188L41.0961 31.9181V24.107H41.1153C41.8047 23.2271 42.4427 22.2998 43.0545 21.3107C42.242 19.9274 41.2465 18.6913 40.1823 17.5462C39.1955 18.0429 38.2368 18.6057 37.3314 19.2046C36.8784 18.7543 36.3681 18.3858 35.8669 18.0008C35.3744 17.6052 34.8193 17.3152 34.293 16.9773C34.4497 15.8103 34.5273 14.6613 34.5585 13.4622C33.2003 12.7786 31.7519 12.3255 30.2869 12C29.702 12.9831 29.1671 14.0475 28.7012 15.0882C28.1488 14.9959 27.5938 14.9617 27.0382 14.9551V14.9543C27.0343 14.9543 27.0307 14.9551 27.0274 14.9551C27.0239 14.9551 27.0202 14.9543 27.0168 14.9543V14.9551C26.46 14.9617 25.9055 14.9959 25.3529 15.0882C24.8874 14.0476 24.3529 12.9831 23.7671 12ZM12.9496 33.719C12.9517 34.222 12.9581 34.7729 12.9581 34.8827C12.9581 39.825 19.2278 42.2006 27.0173 42.2279H27.0365C34.826 42.2006 41.0938 39.825 41.0938 34.8827C41.0938 34.7709 41.1006 34.2222 41.1029 33.719L36.425 34.1702L36.2637 36.4799C36.2443 36.7582 36.0229 36.9798 35.7446 36.9998L30.2009 37.3953C30.1874 37.3963 30.1739 37.3968 30.1605 37.3968C29.885 37.3968 29.6474 37.1945 29.6067 36.9179L29.2888 34.7621H24.7655L24.4476 36.9179C24.4049 37.208 24.1456 37.4167 23.8534 37.3953L18.3097 36.9998C18.0314 36.9798 17.81 36.7582 17.7905 36.4799L17.6295 34.1702L12.9496 33.719Z" fill="#0638BD"/>
<path d="M19.6501 24.4185C17.9186 24.4185 16.5142 25.8215 16.5142 27.5532C16.5142 29.2861 17.9186 30.6898 19.6501 30.6898C21.3823 30.6898 22.7864 29.2861 22.7864 27.5532C22.7864 25.8215 21.3823 24.4185 19.6501 24.4185ZM34.4052 24.4185C32.6727 24.4185 31.2687 25.8215 31.2687 27.5532C31.2687 29.2861 32.6727 30.6898 34.4052 30.6898C36.1366 30.6898 37.5408 29.2861 37.5408 27.5532C37.5408 25.8215 36.1366 24.4185 34.4052 24.4185ZM27.027 26.2528C26.4694 26.2528 26.0175 26.6642 26.0175 27.1703V30.0576C26.0175 30.5641 26.4694 30.9751 27.027 30.9751C27.5846 30.9751 28.0376 30.5641 28.0376 30.0576V27.1703C28.0376 26.6642 27.5846 26.2528 27.027 26.2528Z" fill="#E1E1E1"/>
<path d="M19.9499 25.658C18.8001 25.658 17.8682 26.5904 17.8682 27.7399C17.8682 28.8893 18.8002 29.8208 19.9499 29.8208C21.1002 29.8208 22.0318 28.8892 22.0318 27.7399C22.0318 26.5905 21.1001 25.658 19.9499 25.658ZM34.1044 25.658C32.9549 25.658 32.0236 26.5904 32.0236 27.7399C32.0236 28.8893 32.955 29.8208 34.1044 29.8208C35.255 29.8208 36.1861 28.8892 36.1861 27.7399C36.1861 26.5905 35.2549 25.658 34.1044 25.658Z" fill="#0638BD"/>
</g>
<path d="M27 52C13.1929 52 2 40.8071 2 27H-2C-2 43.0163 10.9837 56 27 56V52ZM52 27C52 40.8071 40.8071 52 27 52V56C43.0163 56 56 43.0163 56 27H52ZM27 2C40.8071 2 52 13.1929 52 27H56C56 10.9837 43.0163 -2 27 -2V2ZM27 -2C10.9837 -2 -2 10.9837 -2 27H2C2 13.1929 13.1929 2 27 2V-2Z" fill="#E1E1E1" mask="url(#path-1-inside-1_811_40284)"/>
<defs>
<clipPath id="clip0_811_40284">
<path d="M0 27C0 12.0883 12.0883 0 27 0C41.9117 0 54 12.0883 54 27C54 41.9117 41.9117 54 27 54C12.0883 54 0 41.9117 0 27Z" fill="white"/>
</clipPath>
</defs>
</svg>
