<svg width="36" height="36" viewBox="0 0 36 36" fill="none" xmlns="http://www.w3.org/2000/svg">
<path d="M8.29187 14.0705C8.11445 13.2713 8.14169 12.4403 8.37108 11.6544C8.60046 10.8685 9.02455 10.1533 9.60404 9.57502C10.1835 8.99675 10.8996 8.57415 11.686 8.34642C12.4723 8.11868 13.3034 8.09318 14.1023 8.27228C14.542 7.58463 15.1477 7.01874 15.8636 6.62675C16.5795 6.23476 17.3825 6.0293 18.1987 6.0293C19.0149 6.0293 19.818 6.23476 20.5339 6.62675C21.2498 7.01874 21.8555 7.58463 22.2952 8.27228C23.0952 8.0924 23.9278 8.11779 24.7154 8.34608C25.503 8.57437 26.22 8.99814 26.7999 9.57798C27.3797 10.1578 27.8035 10.8749 28.0318 11.6625C28.2601 12.4501 28.2855 13.2826 28.1056 14.0827C28.7932 14.5224 29.3591 15.1281 29.7511 15.844C30.1431 16.5599 30.3486 17.3629 30.3486 18.1791C30.3486 18.9953 30.1431 19.7984 29.7511 20.5143C29.3591 21.2302 28.7932 21.8359 28.1056 22.2756C28.2847 23.0744 28.2592 23.9055 28.0314 24.6919C27.8037 25.4782 27.3811 26.1943 26.8028 26.7738C26.2246 27.3533 25.5093 27.7774 24.7235 28.0068C23.9376 28.2362 23.1065 28.2634 22.3073 28.086C21.8682 28.7763 21.262 29.3446 20.5449 29.7383C19.8278 30.1321 19.0229 30.3385 18.2048 30.3385C17.3867 30.3385 16.5818 30.1321 15.8647 29.7383C15.1476 29.3446 14.5414 28.7763 14.1023 28.086C13.3034 28.2651 12.4723 28.2396 11.686 28.0118C10.8996 27.7841 10.1835 27.3615 9.60404 26.7832C9.02455 26.205 8.60046 25.4897 8.37108 24.7039C8.14169 23.918 8.11445 23.0869 8.29187 22.2877C7.59895 21.8492 7.02819 21.2426 6.63269 20.5242C6.23718 19.8059 6.02979 18.9992 6.02979 18.1791C6.02979 17.3591 6.23718 16.5524 6.63269 15.834C7.02819 15.1157 7.59895 14.509 8.29187 14.0705Z" stroke="#26B239" stroke-width="2.43113" stroke-linecap="round" stroke-linejoin="round"/>
<path d="M14.5508 18.1782L16.9819 20.6093L21.8442 15.7471" stroke="#26B239" stroke-width="2.43113" stroke-linecap="round" stroke-linejoin="round"/>
</svg>
