<svg width="32" height="32" viewBox="0 0 32 32" fill="none" xmlns="http://www.w3.org/2000/svg">
<path d="M12 19.9991L20 11.9991M14.6667 7.99911L15.284 7.28444C16.5344 6.03421 18.2303 5.33191 19.9985 5.33203C21.7667 5.33216 23.4625 6.0347 24.7127 7.28511C25.9629 8.53551 26.6652 10.2314 26.6651 11.9996C26.665 13.7678 25.9624 15.4635 24.712 16.7138L24 17.3324M17.3333 23.9991L16.804 24.7111C15.5387 25.9614 13.8315 26.6625 12.0527 26.6625C10.2738 26.6625 8.56669 25.9614 7.30135 24.7111C6.6775 24.0948 6.1822 23.3607 5.84415 22.5515C5.5061 21.7423 5.33203 20.8741 5.33203 19.9971C5.33203 19.1201 5.5061 18.2519 5.84415 17.4427C6.1822 16.6335 6.6775 15.8995 7.30135 15.2831L8.00001 14.6658" stroke="#C7C7CA" stroke-width="2" stroke-linecap="round" stroke-linejoin="round"/>
</svg>
