<svg width="32" height="32" viewBox="0 0 32 32" fill="none" xmlns="http://www.w3.org/2000/svg">
<path d="M19.7509 9.8419L11.6795 17.9133C11.4454 18.1394 11.2587 18.4098 11.1302 18.7089C11.0018 19.0079 10.9342 19.3295 10.9313 19.655C10.9285 19.9804 10.9905 20.3032 11.1138 20.6044C11.237 20.9057 11.419 21.1793 11.6491 21.4095C11.8793 21.6396 12.1529 21.8216 12.4542 21.9448C12.7554 22.0681 13.0782 22.1301 13.4036 22.1273C13.7291 22.1244 14.0507 22.0568 14.3497 21.9284C14.6488 21.7999 14.9192 21.6132 15.1453 21.3791L23.0059 13.3077C23.8989 12.3832 24.393 11.1449 24.3818 9.85954C24.3706 8.57422 23.8551 7.3447 22.9462 6.4358C22.0373 5.52691 20.8078 5.01135 19.5225 5.00019C18.2371 4.98902 16.9988 5.48312 16.0743 6.37609L8.21248 14.4462C6.83337 15.8253 6.05859 17.6958 6.05859 19.6462C6.05859 21.5965 6.83337 23.467 8.21248 24.8461C9.59159 26.2252 11.4621 27 13.4124 27C15.3628 27 17.2333 26.2252 18.6124 24.8461L26.2805 17.1951" stroke="#0638BD" stroke-width="2" stroke-linecap="round" stroke-linejoin="round"/>
</svg>
