<svg width="93" height="93" viewBox="0 0 93 93" fill="none" xmlns="http://www.w3.org/2000/svg">
<rect width="93" height="93" fill="#F9F8F8"/>
<g clip-path="url(#clip0_1910_5394)">
<path d="M36.396 44.3688C36.3006 44.466 36.1868 44.5432 36.0613 44.5959C35.9357 44.6486 35.8009 44.6758 35.6647 44.6758C35.5286 44.6758 35.3938 44.6486 35.2682 44.5959C35.1427 44.5432 35.0289 44.466 34.9335 44.3688C34.7394 44.1713 34.6306 43.9055 34.6306 43.6286C34.6306 43.3516 34.7394 43.0858 34.9335 42.8883L43.98 33.7503C46.02 32.1663 48.072 31.4058 50.115 31.5093C52.689 31.6413 54.693 32.6223 56.394 34.2318C58.128 35.8728 59.25 38.2143 59.25 41.0523C59.25 43.2303 58.617 45.1473 57.2805 46.8483L44.526 59.9883C43.236 61.0458 41.802 61.5573 40.266 61.4958C38.316 61.4148 36.8655 60.7848 35.787 59.7183C34.524 58.4718 33.75 56.9403 33.75 54.8808C33.75 53.2428 34.3155 51.7308 35.4825 50.3118L46.7085 38.8503C47.6085 37.8903 48.489 37.3203 49.389 37.1823C49.9897 37.0882 50.6043 37.1422 51.1794 37.3396C51.7545 37.5369 52.2727 37.8717 52.689 38.3148C53.487 39.1593 53.829 40.2123 53.709 41.4108C53.6265 42.2283 53.292 42.9813 52.677 43.7028L42.357 54.2748C42.2623 54.3724 42.149 54.4501 42.0239 54.5034C41.8988 54.5568 41.7644 54.5847 41.6284 54.5855C41.4924 54.5863 41.3576 54.5601 41.2319 54.5083C41.1061 54.4565 40.9919 54.3802 40.896 54.2838C40.7007 54.0875 40.5903 53.8223 40.5886 53.5454C40.5869 53.2685 40.6941 53.002 40.887 52.8033L51.1575 42.2853C51.4575 41.9328 51.615 41.5773 51.6525 41.1993C51.7125 40.5993 51.5685 40.1568 51.195 39.7623C51.0062 39.5605 50.7705 39.4083 50.5089 39.3194C50.2472 39.2304 49.9677 39.2074 49.695 39.2523C49.3305 39.3078 48.8205 39.6393 48.192 40.3083L37.0125 51.7188C36.207 52.7013 35.817 53.7438 35.817 54.8823C35.817 56.3133 36.3345 57.3378 37.23 58.2213C37.9425 58.9263 38.91 59.3463 40.35 59.4063C41.37 59.4468 42.315 59.1093 43.137 58.4433L55.7325 45.4683C56.7 44.2278 57.183 42.7683 57.183 41.0538C57.183 38.8308 56.3175 37.0278 54.981 35.7618C53.616 34.4688 52.056 33.7068 50.0115 33.6018C48.4995 33.5238 46.914 34.1118 45.336 35.3208L36.396 44.3688Z" fill="#A3A3A7"/>
</g>
<defs>
<clipPath id="clip0_1910_5394">
<rect width="30" height="30" fill="white" transform="translate(31.5 31.5)"/>
</clipPath>
</defs>
</svg>
