<svg width="54" height="54" viewBox="0 0 54 54" fill="none" xmlns="http://www.w3.org/2000/svg">
<g clip-path="url(#clip0_812_40938)">
<mask id="path-1-inside-1_812_40938" fill="white">
<path d="M0 27C0 12.0883 12.0883 0 27 0C41.9117 0 54 12.0883 54 27C54 41.9117 41.9117 54 27 54C12.0883 54 0 41.9117 0 27Z"/>
</mask>
<path d="M45.0352 0H8.96484C4.0137 0 0 4.11003 0 9.18V44.7336C0 49.8036 4.0137 53.9136 8.96484 53.9136H45.0352C49.9863 53.9136 54 49.8036 54 44.7336V9.18C54 4.11003 49.9863 0 45.0352 0Z" fill="white"/>
<g clip-path="url(#clip1_812_40938)">
<path d="M10.951 12.1085C10.81 12.1078 10.6707 12.1399 10.5442 12.2021C10.4177 12.2644 10.3073 12.3552 10.2218 12.4673C9.70847 13.1206 10.1708 13.7769 10.7497 14.3077C11.0501 14.5833 13.331 16.9239 15.7489 19.4512C16.5102 18.3832 17.3991 17.4121 18.3958 16.5594C15.3478 14.6679 12.4706 12.8464 12.1308 12.6044C11.7516 12.3331 11.3374 12.1114 10.951 12.1085ZM18.3958 16.5594C21.0908 18.2335 23.917 19.9602 25.2397 20.701C27.382 21.8983 30.7201 24.6152 31.2072 27.1673C31.9874 27.8469 34.3893 29.9614 34.9931 30.6862C36.011 30.3785 37.2068 30.8802 37.9972 32.3196C39.2601 34.6281 38.3283 37.7839 35.1272 39.5937C34.9882 39.7288 34.8442 39.8587 34.6956 39.9831L35.1272 39.5937C36.7897 37.4529 34.086 36.0354 33.4137 33.9587C33.2875 33.5934 33.2331 33.2072 33.2533 32.8212C32.476 32.41 30.1762 30.7037 29.1772 29.9556C26.5508 30.1889 23.042 27.37 21.3751 25.4639C20.3543 24.2944 17.9918 21.7933 15.7489 19.4512C13.8118 22.1745 12.7691 25.4325 12.7651 28.7744C12.7651 31.9621 13.7104 35.0783 15.4814 37.7288C17.2524 40.3793 19.7696 42.4451 22.7147 43.665C25.6598 44.8849 28.9005 45.2041 32.027 44.5822C35.1535 43.9603 38.0254 42.4252 40.2794 40.1712C42.5335 37.9171 44.0685 35.0452 44.6904 31.9187C45.3123 28.7922 44.9932 25.5516 43.7733 22.6065C42.5534 19.6614 40.4875 17.1442 37.837 15.3732C35.1865 13.6021 32.0704 12.6569 28.8826 12.6569C25.0326 12.6627 21.3124 14.0481 18.3958 16.5594ZM31.0978 27.5727C30.3468 27.7564 29.6862 28.7846 29.4674 29.4773C29.412 29.645 29.4091 29.9192 29.5637 29.976C30.7333 30.8394 31.8328 31.6794 33.0637 32.4552C33.2999 31.8821 34.1516 31.0508 34.662 30.7052L31.0978 27.5727ZM14.2833 29.9629C15.4674 32.7308 22.7387 40.4192 31.8708 33.8931C31.8645 34.2478 31.9208 34.6007 32.037 34.9358C32.7078 37.0067 35.4787 38.4752 33.8424 40.6087C30.7289 42.5979 26.5508 42.3602 23.6501 41.3787C18.4614 39.6229 15.027 35.0612 14.2833 29.9629ZM34.382 30.9837C34.3492 31.0059 34.3175 31.0297 34.2872 31.0552C34.2814 31.0596 34.2756 31.0669 34.2712 31.0669C34.2756 31.0625 34.2828 31.0552 34.2872 31.0552C34.3222 31.0333 34.3499 31.0056 34.382 30.9852V30.9837Z" fill="#0638BD"/>
</g>
</g>
<path d="M27 52C13.1929 52 2 40.8071 2 27H-2C-2 43.0163 10.9837 56 27 56V52ZM52 27C52 40.8071 40.8071 52 27 52V56C43.0163 56 56 43.0163 56 27H52ZM27 2C40.8071 2 52 13.1929 52 27H56C56 10.9837 43.0163 -2 27 -2V2ZM27 -2C10.9837 -2 -2 10.9837 -2 27H2C2 13.1929 13.1929 2 27 2V-2Z" fill="#E1E1E1" mask="url(#path-1-inside-1_812_40938)"/>
<defs>
<clipPath id="clip0_812_40938">
<path d="M0 27C0 12.0883 12.0883 0 27 0C41.9117 0 54 12.0883 54 27C54 41.9117 41.9117 54 27 54C12.0883 54 0 41.9117 0 27Z" fill="white"/>
</clipPath>
<clipPath id="clip1_812_40938">
<rect width="35" height="35" fill="white" transform="translate(10 11)"/>
</clipPath>
</defs>
</svg>
