<svg width="36" height="36" viewBox="0 0 36 36" fill="none" xmlns="http://www.w3.org/2000/svg">
<g clip-path="url(#clip0_582_17544)">
<mask id="path-1-inside-1_582_17544" fill="white">
<path d="M0 18C0 8.05887 8.05887 0 18 0V0C27.9411 0 36 8.05887 36 18V18C36 27.9411 27.9411 36 18 36V36C8.05887 36 0 27.9411 0 18V18Z"/>
</mask>
<path d="M-2 12.7304C-2 7.61057 -2 5.05061 -1.0036 3.09506C-0.127135 1.37491 1.2714 -0.0236195 2.99154 -0.900084C4.94709 -1.89648 7.50705 -1.89648 12.6269 -1.89648H23.7897C28.9097 -1.89648 31.4696 -1.89648 33.4251 -0.900084C35.1452 -0.0236195 36.5438 1.37491 37.4202 3.09506C38.4167 5.05061 38.4167 7.61057 38.4167 12.7304V23.8932C38.4167 29.0132 38.4167 31.5731 37.4202 33.5286C36.5438 35.2487 35.1452 36.6473 33.4251 37.5238C31.4696 38.5202 28.9097 38.5202 23.7897 38.5202H12.6269C7.50705 38.5202 4.94709 38.5202 2.99154 37.5238C1.2714 36.6473 -0.127135 35.2487 -1.0036 33.5286C-2 31.5731 -2 29.0132 -2 23.8932V12.7304Z" fill="white"/>
<path d="M19.4599 24.7816H11.1341C10.9932 24.7816 10.9227 24.7021 10.9228 24.5432V10.7808C10.9072 10.6688 11.0038 10.5697 11.113 10.5857H13.6911C13.7759 10.5734 13.8507 10.6517 13.8389 10.7374V22.0508H19.9037C20.0303 22.0508 20.0797 22.1158 20.0515 22.2459L19.6711 24.5865C19.6679 24.7044 19.5711 24.7804 19.4599 24.7816Z" fill="#0638BD"/>
<path d="M21.5748 13.9953H23.8781C24.0051 13.9964 24.1192 14.0864 24.1528 14.2121C24.3216 14.5965 24.3424 15.06 24.3431 15.475C24.7381 15.0033 25.2144 14.6102 25.7482 14.3156C26.3208 13.9832 26.9699 13.8148 27.6277 13.8279C27.7369 13.8119 27.8335 13.911 27.8179 14.0229V16.6454C27.8179 16.7467 27.7472 16.7971 27.6066 16.7971C26.6317 16.7281 25.1138 16.9644 24.4054 17.7507V24.5695C24.4054 24.6995 24.349 24.7646 24.2363 24.7646H21.765C21.6436 24.7823 21.5365 24.6703 21.5536 24.5478V17.1439C21.5536 16.1518 21.5747 15.1298 21.4268 14.147C21.4041 14.0566 21.4886 13.9725 21.5748 13.9953Z" fill="#0638BD"/>
</g>
<path d="M18 34C9.16344 34 2 26.8366 2 18H-2C-2 29.0457 6.95431 38 18 38V34ZM34 18C34 26.8366 26.8366 34 18 34V38C29.0457 38 38 29.0457 38 18H34ZM18 2C26.8366 2 34 9.16344 34 18H38C38 6.95431 29.0457 -2 18 -2V2ZM18 -2C6.95431 -2 -2 6.95431 -2 18H2C2 9.16344 9.16344 2 18 2V-2Z" fill="#E1E1E1" mask="url(#path-1-inside-1_582_17544)"/>
<defs>
<clipPath id="clip0_582_17544">
<path d="M0 18C0 8.05887 8.05887 0 18 0V0C27.9411 0 36 8.05887 36 18V18C36 27.9411 27.9411 36 18 36V36C8.05887 36 0 27.9411 0 18V18Z" fill="white"/>
</clipPath>
</defs>
</svg>
