<svg width="24" height="29" viewBox="0 0 24 29" fill="none" xmlns="http://www.w3.org/2000/svg">
<path d="M17.4991 0.210938C17.5656 0.210938 17.6321 0.210938 17.7024 0.210938C17.8655 2.22638 17.0962 3.73231 16.1613 4.82286C15.2439 5.90588 13.9877 6.95627 11.956 6.79689C11.8204 4.81031 12.591 3.41607 13.5246 2.32803C14.3906 1.31403 15.9781 0.411729 17.4991 0.210938Z" fill="#0638BD"/>
<path d="M23.6497 21.1887C23.6497 21.2088 23.6497 21.2263 23.6497 21.2451C23.0787 22.9745 22.2642 24.4566 21.2703 25.832C20.363 27.0806 19.2511 28.761 17.2658 28.761C15.5502 28.761 14.4107 27.6579 12.6526 27.6278C10.7927 27.5977 9.76996 28.5502 8.06951 28.7899C7.87499 28.7899 7.68048 28.7899 7.48973 28.7899C6.24106 28.6092 5.23333 27.6203 4.49919 26.7293C2.33441 24.0964 0.661568 20.6955 0.350342 16.3433C0.350342 15.9167 0.350342 15.4912 0.350342 15.0645C0.482111 11.9498 1.99558 9.41729 4.00725 8.18995C5.06894 7.53738 6.52844 6.98144 8.15359 7.22992C8.85009 7.33784 9.56164 7.57628 10.1853 7.81221C10.7764 8.03936 11.5156 8.4422 12.2159 8.42086C12.6902 8.40706 13.1621 8.15983 13.6402 7.9854C15.0407 7.47965 16.4136 6.89987 18.2233 7.17219C20.3981 7.50099 21.9417 8.4673 22.8954 9.95817C21.0557 11.129 19.6012 12.8935 19.8497 15.9066C20.0706 18.6436 21.6618 20.245 23.6497 21.1887Z" fill="#0638BD"/>
</svg>
