<svg width="764" height="169" viewBox="0 0 764 169" fill="none" xmlns="http://www.w3.org/2000/svg">
<path d="M83.1122 87.6367H17.1261C17.35 95.0245 19.8126 101.125 24.5139 105.938C29.2152 110.639 35.2037 112.99 42.4796 112.99C48.7479 112.99 53.7291 111.535 57.423 108.625C61.2288 105.602 64.5309 101.293 67.3292 95.6961L80.5936 103.588C76.5639 111.759 71.4149 117.859 65.1465 121.889C58.9901 125.919 51.2665 127.934 41.9758 127.934C30.3345 127.934 20.4282 123.848 12.2569 115.677C4.08565 107.393 0 96.8154 0 83.9428C0 71.0702 4.08565 60.5483 12.2569 52.377C20.5402 44.0938 30.7263 39.9521 42.8154 39.9521C54.7925 39.9521 64.4749 43.8699 71.8626 51.7054C79.3623 59.4289 83.1122 69.3912 83.1122 81.5922V87.6367ZM42.4796 53.7202C36.3231 53.7202 30.9502 55.6791 26.3608 59.5968C21.7715 63.5146 18.6932 68.4957 17.1261 74.5402H66.8255C66.1539 68.048 63.4115 62.9549 58.5983 59.261C53.897 55.5672 48.5241 53.7202 42.4796 53.7202Z" fill="#0638BD"/>
<path d="M136.211 27.1917V10.4014H169.792V27.1917H140.408V43.982H136.211V60.7724H165.594V77.5627H127.816V94.3531H123.618V111.143H119.421V127.934H102.63V111.143H106.828V94.3531H111.025V77.5627H98.4326V60.7724H119.421V43.982H123.618V27.1917H136.211ZM165.566 39.3968V27.1917H182.356V39.3968H165.566Z" fill="#0638BD"/>
<path d="M197.676 114.886C197.676 113.53 197.789 111.836 198.015 109.803C198.354 107.769 198.862 105.058 199.54 101.669C200.33 98.2801 201.404 93.8744 202.759 88.4521C204.115 82.9167 205.809 76.0258 207.843 67.7794C209.876 59.4199 212.361 49.3095 215.298 37.4481C217.332 29.2016 218.574 23.1015 219.026 19.1477C219.591 15.1939 219.309 12.5392 218.179 11.1836C217.049 9.828 214.96 9.03724 211.909 8.81131L209.537 8.64187L210.554 3.21952C217.897 3.21952 223.827 3.05007 228.346 2.71117C232.978 2.37227 237.553 1.46855 242.071 0L243.596 1.52504C242.693 5.47883 241.732 9.65855 240.716 14.0642C239.699 18.3569 238.682 22.4802 237.666 26.4339C236.762 30.3877 235.971 33.9462 235.293 37.1092C232.356 49.3095 229.871 59.6458 227.838 68.1183C225.804 76.4777 224.11 83.3121 222.754 88.6215C221.512 93.9309 220.495 98.1106 219.704 101.161C219.026 104.211 218.518 106.527 218.179 108.108C217.953 109.577 217.84 110.706 217.84 111.497C217.84 113.869 218.687 115.055 220.382 115.055C222.189 115.055 224.223 113.587 226.482 110.65C228.741 107.6 230.888 103.476 232.921 98.2801L238.343 100.313C236.084 106.188 233.542 111.215 230.718 115.394C228.007 119.461 224.957 122.568 221.568 124.714C218.292 126.86 214.564 127.934 210.384 127.934C206.544 127.934 203.437 126.804 201.065 124.545C198.805 122.172 197.676 118.953 197.676 114.886Z" fill="#0638BD"/>
<path d="M342.029 87.6367H276.043C276.267 95.0245 278.73 101.125 283.431 105.938C288.132 110.639 294.121 112.99 301.397 112.99C307.665 112.99 312.646 111.535 316.34 108.625C320.146 105.602 323.448 101.293 326.246 95.6961L339.511 103.588C335.481 111.759 330.332 117.859 324.064 121.889C317.907 125.919 310.183 127.934 300.893 127.934C289.252 127.934 279.345 123.848 271.174 115.677C263.003 107.393 258.917 96.8154 258.917 83.9428C258.917 71.0702 263.003 60.5483 271.174 52.377C279.457 44.0938 289.643 39.9521 301.732 39.9521C313.709 39.9521 323.392 43.8699 330.78 51.7054C338.279 59.4289 342.029 69.3912 342.029 81.5922V87.6367ZM301.397 53.7202C295.24 53.7202 289.867 55.6791 285.278 59.5968C280.688 63.5146 277.61 68.4957 276.043 74.5402H325.743C325.071 68.048 322.328 62.9549 317.515 59.261C312.814 55.5672 307.441 53.7202 301.397 53.7202Z" fill="#0638BD"/>
<path fill-rule="evenodd" clip-rule="evenodd" d="M432.913 60.5723V43.9814H386.732V60.7718H428.701V72.7309H445.484V60.5723H432.913ZM374.139 111.143H420.312V127.933H369.941V111.143H357.349V94.3525H361.546V77.5621H365.744V60.7718H382.534V77.5621H378.337V94.3525H374.139V111.143ZM416.081 111.143H432.865V98.9841H416.081V111.143Z" fill="#0638BD"/>
<path d="M484.189 103.364C483.398 107.318 483.341 110.311 484.019 112.345C484.81 114.265 486.391 115.225 488.764 115.225C491.701 115.225 494.412 113.7 496.897 110.65C499.382 107.6 501.585 103.477 503.506 98.2804L508.928 100.314C506.443 106.753 503.675 112.006 500.625 116.073C497.688 120.139 494.412 123.133 490.797 125.053C487.295 126.974 483.454 127.934 479.275 127.934C474.982 127.934 471.48 126.861 468.769 124.714C466.171 122.568 464.476 119.631 463.685 115.903C463.008 112.062 463.177 107.6 464.194 102.517L475.208 50.6654H460.805L462.16 44.5653C467.131 44.2264 471.31 43.6051 474.699 42.7014C478.088 41.7976 481.026 40.3856 483.511 38.4651C485.996 36.5447 488.255 34.003 490.289 30.84C492.435 27.564 494.581 23.3842 496.728 18.3008L501.981 18.9786L497.067 43.0403H517.231L515.537 50.6654H495.203L484.189 103.364Z" fill="#0638BD"/>
<path d="M533.726 127.933V44.6533H550.852V127.933H533.726ZM532.551 31.389V12.0801H552.028V31.389H532.551Z" fill="#0638BD"/>
<path fill-rule="evenodd" clip-rule="evenodd" d="M642.912 60.5723V43.9814H596.731V60.7718H638.7V72.7309H655.483V60.5723H642.912ZM584.138 111.143H630.311V127.933H579.94V111.143H567.348V94.3525H571.545V77.5621H575.743V60.7718H592.533V77.5621H588.336V94.3525H584.138V111.143ZM626.077 111.143H642.86V98.984H626.077V111.143Z" fill="#0638BD"/>
<path d="M719.266 48.4626C715.538 48.4626 711.98 49.9877 708.591 53.0377C705.315 56.0878 702.434 60.1546 699.949 65.238C697.577 70.2085 695.656 75.5744 694.188 81.3356C692.832 87.0969 692.154 92.6322 692.154 97.9416C692.154 103.477 693.001 107.6 694.696 110.311C696.39 113.022 698.706 114.378 701.643 114.378C704.58 114.378 707.405 113.305 710.116 111.159C712.827 108.899 715.369 105.906 717.741 102.178C720.226 98.4499 722.373 94.4396 724.18 90.1469C725.987 85.7413 727.399 81.3921 728.416 77.0994C729.546 72.6938 730.111 68.6835 730.111 65.0686C730.111 60.437 729.263 56.5397 727.569 53.3766C725.987 50.1006 723.22 48.4626 719.266 48.4626ZM746.547 115.225C748.242 115.225 750.106 113.757 752.139 110.82C754.285 107.77 756.375 103.59 758.409 98.2805L764 100.314C761.741 106.188 759.256 111.215 756.545 115.395C753.833 119.462 750.84 122.568 747.564 124.714C744.401 126.861 740.899 127.934 737.058 127.934C733.217 127.934 730.337 126.917 728.416 124.884C726.496 122.738 725.536 120.026 725.536 116.75C725.536 113.813 726.27 109.859 727.738 104.889C729.207 99.9185 731.127 94.1572 733.5 87.6052L730.788 86.758C726.948 97.4897 722.881 105.849 718.588 111.836C714.295 117.824 710.003 122.003 705.71 124.376C701.53 126.748 697.351 127.934 693.171 127.934C688.313 127.934 684.19 126.691 680.801 124.206C677.525 121.721 675.04 118.388 673.345 114.209C671.651 110.029 670.804 105.341 670.804 100.144C670.804 92.6887 672.103 85.4589 674.701 78.455C677.412 71.3382 680.914 64.9556 685.207 59.3073C689.612 53.5461 694.526 48.971 699.949 45.582C705.484 42.0801 711.076 40.3291 716.724 40.3291C721.243 40.3291 724.858 41.5152 727.569 43.8875C730.393 46.1468 732.483 49.1969 733.839 53.0377C735.194 56.8786 735.815 61.1148 735.702 65.7464L733.839 67.9492L739.43 43.2097C741.012 43.4357 742.706 43.5486 744.514 43.5486C746.321 43.4357 748.072 43.1532 749.767 42.7014C751.461 42.2495 752.93 41.5717 754.172 40.668H759.086L744.853 106.753C744.175 109.69 743.949 111.836 744.175 113.192C744.514 114.548 745.305 115.225 746.547 115.225Z" fill="#0638BD"/>
</svg>
