<svg width="36" height="36" viewBox="0 0 36 36" fill="none" xmlns="http://www.w3.org/2000/svg">
<g clip-path="url(#clip0_576_17326)">
<mask id="path-1-inside-1_576_17326" fill="white">
<path d="M0 18C0 8.05887 8.05887 0 18 0V0C27.9411 0 36 8.05887 36 18V18C36 27.9411 27.9411 36 18 36V36C8.05887 36 0 27.9411 0 18V18Z"/>
</mask>
<path d="M30.0234 0H5.97656C2.6758 0 0 2.74002 0 6.12V29.8224C0 33.2024 2.6758 35.9424 5.97656 35.9424H30.0234C33.3242 35.9424 36 33.2024 36 29.8224V6.12C36 2.74002 33.3242 0 30.0234 0Z" fill="white"/>
<path d="M10.0038 10C11.6839 10.0044 13.3639 10 15.045 10.0022C16.1172 14.2395 17.1598 18.4844 18.2451 22.7184C19.371 18.4822 20.4913 14.2438 21.5997 10.0022C23.2293 10.0088 24.86 9.98795 26.4897 10.0131C26.4732 15.3303 26.4886 20.6474 26.482 25.9645C25.2138 25.9645 23.9456 25.9656 22.6773 25.9634C22.6729 22.5914 22.6839 19.2182 22.6729 15.845C21.7639 19.2149 20.8998 22.5968 19.9996 25.9678C18.75 25.9601 17.4993 25.9667 16.2497 25.9645C15.3067 22.4435 14.4207 18.905 13.4504 15.3916C13.4504 18.9159 13.4515 22.4402 13.4504 25.9645C12.3004 25.9645 11.1505 25.9645 10.0006 25.9645C10.0027 20.643 9.99617 15.3215 10.0038 10Z" fill="#0638BD"/>
</g>
<path d="M18 34C9.16344 34 2 26.8366 2 18H-2C-2 29.0457 6.95431 38 18 38V34ZM34 18C34 26.8366 26.8366 34 18 34V38C29.0457 38 38 29.0457 38 18H34ZM18 2C26.8366 2 34 9.16344 34 18H38C38 6.95431 29.0457 -2 18 -2V2ZM18 -2C6.95431 -2 -2 6.95431 -2 18H2C2 9.16344 9.16344 2 18 2V-2Z" fill="#E1E1E1" mask="url(#path-1-inside-1_576_17326)"/>
<defs>
<clipPath id="clip0_576_17326">
<path d="M0 18C0 8.05887 8.05887 0 18 0V0C27.9411 0 36 8.05887 36 18V18C36 27.9411 27.9411 36 18 36V36C8.05887 36 0 27.9411 0 18V18Z" fill="white"/>
</clipPath>
</defs>
</svg>
