<svg width="36" height="33" viewBox="0 0 36 33" fill="none" xmlns="http://www.w3.org/2000/svg">
<path d="M9.53984 25.6183L9.68577 24.5658H9.68577L9.53984 25.6183ZM23.9705 25.6183L23.8246 24.5658L23.9705 25.6183ZM9.19304 11.4552C9.19304 7.27957 12.5781 3.89453 16.7537 3.89453V1.76953C11.4045 1.76953 7.06804 6.10596 7.06804 11.4552H9.19304ZM9.19304 14.4228V11.4552H7.06804V14.4228H9.19304ZM6.73071 21.0874C6.73071 20.4054 6.9172 19.7703 7.24134 19.2266L5.41609 18.1385C4.90122 19.0021 4.60571 20.0118 4.60571 21.0874H6.73071ZM9.68577 24.5658C7.98629 24.3302 6.73071 22.8527 6.73071 21.0874H4.60571C4.60571 23.8635 6.59487 26.2826 9.3939 26.6707L9.68577 24.5658ZM16.7552 25.177C14.6415 25.177 11.9108 24.8744 9.68577 24.5658L9.3939 26.6707C11.6362 26.9816 14.4875 27.302 16.7552 27.302V25.177ZM23.8246 24.5658C21.5996 24.8744 18.8688 25.177 16.7552 25.177V27.302C19.0229 27.302 21.8742 26.9816 24.1164 26.6707L23.8246 24.5658ZM26.7796 21.0874C26.7796 22.8527 25.5241 24.3302 23.8246 24.5658L24.1164 26.6707C26.9155 26.2826 28.9046 23.8635 28.9046 21.0874H26.7796ZM26.2685 19.2258C26.5929 19.7697 26.7796 20.4051 26.7796 21.0874H28.9046C28.9046 20.0113 28.6088 19.001 28.0935 18.1371L26.2685 19.2258ZM24.3144 11.4552V14.4192H26.4394V11.4552H24.3144ZM16.7537 3.89453C20.9294 3.89453 24.3144 7.27957 24.3144 11.4552H26.4394C26.4394 6.10596 22.103 1.76953 16.7537 1.76953V3.89453ZM28.0935 18.1371C27.6556 17.4031 27.2579 16.815 26.9299 16.1583C26.6159 15.5294 26.4394 14.9684 26.4394 14.4192H24.3144C24.3144 15.4295 24.6405 16.33 25.0288 17.1076C25.4031 17.8573 25.9075 18.6206 26.2685 19.2258L28.0935 18.1371ZM7.06804 14.4228C7.06804 14.9716 6.89175 15.5322 6.57815 16.1607C6.25063 16.8171 5.85343 17.4049 5.41609 18.1385L7.24134 19.2266C7.60196 18.6217 8.10567 17.8588 8.47957 17.1095C8.86739 16.3323 9.19304 15.4323 9.19304 14.4228H7.06804Z" fill="#0638BD"/>
<path d="M19.834 29.5156C19.1719 30.5114 18.0397 31.1677 16.7543 31.1677C15.4688 31.1677 14.3367 30.5114 13.6746 29.5156" stroke="#0638BD" stroke-width="2.125" stroke-linecap="round"/>
</svg>
