<svg width="54" height="54" viewBox="0 0 54 54" fill="none" xmlns="http://www.w3.org/2000/svg">
<g clip-path="url(#clip0_810_39749)">
<mask id="path-1-inside-1_810_39749" fill="white">
<path d="M0 27C0 12.0883 12.0883 0 27 0C41.9117 0 54 12.0883 54 27C54 41.9117 41.9117 54 27 54C12.0883 54 0 41.9117 0 27Z"/>
</mask>
<path d="M45.0352 0H8.96484C4.0137 0 0 4.11003 0 9.18V44.7336C0 49.8036 4.0137 53.9136 8.96484 53.9136H45.0352C49.9863 53.9136 54 49.8036 54 44.7336V9.18C54 4.11003 49.9863 0 45.0352 0Z" fill="white"/>
<path d="M25.0146 22.6339L31.4513 29.5747C31.7182 29.8417 31.8814 30.1976 31.8814 30.5684L31.3029 44.3315C31.2881 45.4142 32 46.2744 33.0233 45.9184C39.104 43.7976 42.8266 40.4458 44.6656 36.0707C44.9326 35.4478 44.8584 34.7359 44.3987 34.2465L38.7926 28.2696C38.3625 27.8247 38.1252 27.2314 38.1252 26.6085L38.0807 23.2864C38.0807 22.4262 38.7777 21.744 39.6379 21.744L44.1317 21.8033C46.2525 21.8033 46.4305 21.0173 46.1191 20.1571C44.0279 14.3434 40.246 10.2352 34.4916 8.06987C33.839 7.81775 33.1271 8.2775 33.0975 8.97456L32.7267 14.8328C32.6971 15.4705 32.178 15.9599 31.5551 15.9599L28.4109 15.9451C27.5804 15.9451 26.8685 15.5447 26.5274 15.2036L20.1649 8.84108C19.7793 8.47031 19.2157 8.35166 18.7263 8.57412C13.6245 10.9026 10.1244 14.6696 8.07769 19.9939C7.76624 20.8245 8.43363 21.6995 9.32349 21.6995L23.0124 21.7885C23.754 21.8182 24.4807 22.1148 25.0146 22.6339ZM29.5084 18.9706C30.3834 18.1253 32.4746 18.5405 33.8835 19.9939C35.2776 21.4474 36.123 23.5089 34.803 24.6064C33.8687 25.3776 32.3263 25.0958 30.7987 23.7758C29.0931 22.3224 28.5147 19.9346 29.5084 18.9706Z" fill="#0638BD"/>
</g>
<path d="M27 52C13.1929 52 2 40.8071 2 27H-2C-2 43.0163 10.9837 56 27 56V52ZM52 27C52 40.8071 40.8071 52 27 52V56C43.0163 56 56 43.0163 56 27H52ZM27 2C40.8071 2 52 13.1929 52 27H56C56 10.9837 43.0163 -2 27 -2V2ZM27 -2C10.9837 -2 -2 10.9837 -2 27H2C2 13.1929 13.1929 2 27 2V-2Z" fill="#E1E1E1" mask="url(#path-1-inside-1_810_39749)"/>
<defs>
<clipPath id="clip0_810_39749">
<path d="M0 27C0 12.0883 12.0883 0 27 0C41.9117 0 54 12.0883 54 27C54 41.9117 41.9117 54 27 54C12.0883 54 0 41.9117 0 27Z" fill="white"/>
</clipPath>
</defs>
</svg>
