<svg width="36" height="36" viewBox="0 0 36 36" fill="none" xmlns="http://www.w3.org/2000/svg">
<g clip-path="url(#clip0_582_17553)">
<mask id="path-1-inside-1_582_17553" fill="white">
<path d="M0 18C0 8.05887 8.05887 0 18 0V0C27.9411 0 36 8.05887 36 18V18C36 27.9411 27.9411 36 18 36V36C8.05887 36 0 27.9411 0 18V18Z"/>
</mask>
<path d="M30.0234 0H5.97656C2.6758 0 0 2.74002 0 6.12V29.8224C0 33.2024 2.6758 35.9424 5.97656 35.9424H30.0234C33.3242 35.9424 36 33.2024 36 29.8224V6.12C36 2.74002 33.3242 0 30.0234 0Z" fill="white"/>
<path d="M9.81812 24.4116V11.5354C9.81812 11.4416 9.85753 11.3944 9.93625 11.3944L10.0608 11.3941L10.2737 11.3917L10.5696 11.3857L11.5607 11.3643L12.6235 11.3441C12.9973 11.3375 13.3679 11.334 13.7352 11.334C14.7321 11.334 15.5717 11.4616 16.254 11.7169C16.8695 11.93 17.4309 12.2811 17.8972 12.7445C18.2925 13.1461 18.598 13.6309 18.7926 14.1652C18.9766 14.6851 19.0699 15.2342 19.0681 15.7872C19.0681 16.8621 18.8253 17.7487 18.34 18.4471C17.8652 19.1284 17.203 19.6495 16.4378 19.9438L16.3722 19.9685C15.5732 20.2737 14.6883 20.384 13.7179 20.3909L13.5671 20.3913L13.3433 20.3902L13.2305 20.3885L13.1047 20.3855L13.0288 20.3824L12.9827 20.38L12.8694 20.3757L12.7309 20.3728L12.5223 20.3713L12.4759 20.3712V24.3914C12.4794 24.4161 12.4772 24.4412 12.4695 24.4648C12.4618 24.4884 12.4489 24.5099 12.4317 24.5275C12.4145 24.5451 12.3935 24.5584 12.3704 24.5662C12.3474 24.5741 12.3228 24.5764 12.2988 24.5728H9.95596C9.86395 24.5728 9.81812 24.5193 9.81812 24.4116ZM12.476 13.8125V18.0121C12.6331 18.0251 12.7906 18.0318 12.9481 18.0323H13.5976C14.0454 18.0308 14.4905 17.9625 14.9191 17.8297L15.0046 17.8023C15.3945 17.6837 15.7429 17.4529 16.0083 17.1373C16.2548 16.8395 16.3826 16.4292 16.3914 15.9062L16.392 15.8476C16.4023 15.4579 16.3033 15.0732 16.1066 14.7394C15.8998 14.4166 15.6009 14.1668 15.2506 14.024C14.7932 13.842 14.3046 13.7563 13.8141 13.7722L13.5645 13.7729L13.407 13.7743L13.2568 13.7763L13.0448 13.7805L12.8902 13.785L12.8098 13.7881L12.7025 13.7932L12.611 13.799L12.5589 13.8032L12.5139 13.8077L12.494 13.81L12.476 13.8125ZM26.6766 17.2485C26.3333 17.0679 25.9692 16.9322 25.5929 16.8446L25.5058 16.8254C25.0917 16.7281 24.669 16.6745 24.2443 16.6655L24.1382 16.6642C23.8892 16.6573 23.6406 16.6878 23.4003 16.7549C23.2473 16.7897 23.1113 16.8789 23.0164 17.0067C22.9523 17.1089 22.9182 17.2278 22.9181 17.3493C22.9217 17.4671 22.9632 17.5804 23.0361 17.6716C23.1406 17.7967 23.2661 17.9015 23.4068 17.981L23.4494 18.0042C23.73 18.1588 24.0191 18.2968 24.3152 18.4172C24.9757 18.6436 25.6067 18.9515 26.1944 19.334C26.5949 19.5928 26.9263 19.9495 27.1588 20.3719C27.3543 20.7718 27.4522 21.2142 27.4441 21.6614C27.4559 22.2519 27.2911 22.832 26.9718 23.3239C26.63 23.8232 26.1552 24.2113 25.6041 24.4421C25.0269 24.7019 24.3181 24.836 23.4777 24.8448L23.3904 24.8453C22.8695 24.8507 22.3492 24.804 21.8371 24.7059L21.7276 24.6841C21.2964 24.6031 20.8767 24.4677 20.478 24.281C20.4379 24.2598 20.4041 24.2281 20.3799 24.1892C20.3557 24.1502 20.342 24.1054 20.3403 24.0593V21.863C20.3379 21.8416 20.3412 21.8201 20.3499 21.8005C20.3586 21.781 20.3723 21.7643 20.3895 21.7521C20.4064 21.7423 20.4258 21.738 20.4452 21.7398C20.4645 21.7416 20.4828 21.7494 20.4977 21.7622C20.9685 22.0464 21.4797 22.2538 22.0129 22.3768C22.4829 22.4974 22.9649 22.5617 23.4494 22.5683C23.9085 22.5683 24.2463 22.5077 24.4628 22.3869C24.5606 22.341 24.6433 22.2671 24.701 22.1742C24.7586 22.0812 24.7887 21.9731 24.7876 21.863C24.7876 21.6886 24.6891 21.5206 24.4924 21.3592C24.4099 21.2917 24.2915 21.2181 24.1375 21.1387L24.0638 21.1016L23.9852 21.0637L23.944 21.0444L23.8576 21.0052C23.8426 20.9985 23.8276 20.9919 23.8126 20.9853L23.7186 20.9449L23.6697 20.9244L23.5681 20.8827L23.5154 20.8616L23.4062 20.8186L23.292 20.7748C22.6741 20.5546 22.0882 20.2495 21.5504 19.868C21.1658 19.5941 20.8491 19.2318 20.6256 18.8101C20.4321 18.4131 20.3342 17.9743 20.3403 17.5306C20.3392 16.9974 20.4822 16.4744 20.7535 16.0193C21.0628 15.5183 21.507 15.1193 22.0326 14.8708C22.6097 14.5755 23.3312 14.4277 24.1971 14.4274C24.7043 14.4232 25.2109 14.4603 25.7124 14.5383C26.0755 14.5855 26.4305 14.6838 26.7673 14.8305C26.8215 14.8464 26.8651 14.8874 26.8853 14.9413C26.8987 14.9905 26.9052 15.0413 26.905 15.0925V17.1277C26.9078 17.1758 26.8853 17.2219 26.846 17.2485C26.8197 17.2619 26.7907 17.2689 26.7613 17.2689C26.7319 17.2689 26.7029 17.2619 26.6766 17.2485Z" fill="#0638BD"/>
</g>
<path d="M18 34C9.16344 34 2 26.8366 2 18H-2C-2 29.0457 6.95431 38 18 38V34ZM34 18C34 26.8366 26.8366 34 18 34V38C29.0457 38 38 29.0457 38 18H34ZM18 2C26.8366 2 34 9.16344 34 18H38C38 6.95431 29.0457 -2 18 -2V2ZM18 -2C6.95431 -2 -2 6.95431 -2 18H2C2 9.16344 9.16344 2 18 2V-2Z" fill="#E1E1E1" mask="url(#path-1-inside-1_582_17553)"/>
<defs>
<clipPath id="clip0_582_17553">
<path d="M0 18C0 8.05887 8.05887 0 18 0V0C27.9411 0 36 8.05887 36 18V18C36 27.9411 27.9411 36 18 36V36C8.05887 36 0 27.9411 0 18V18Z" fill="white"/>
</clipPath>
</defs>
</svg>
