<svg xmlns="http://www.w3.org/2000/svg" width="48" height="48" viewBox="0 0 48 48" fill="none">
  <path d="M24 4C12.96 4 4 12.96 4 24C4 35.04 12.96 44 24 44C35.04 44 44 35.04 44 24C44 12.96 35.04 4 24 4ZM24 40C15.18 40 8 32.82 8 24C8 15.18 15.18 8 24 8C32.82 8 40 15.18 40 24C40 32.82 32.82 40 24 40Z" fill="#CCCCCC"/>
  <path d="M24 14C21.8 14 20 15.8 20 18C20 20.2 21.8 22 24 22C26.2 22 28 20.2 28 18C28 15.8 26.2 14 24 14ZM24 34C28.4 34 32.2 31.6 34 28H32C30.4 30.6 27.4 32.4 24 32.4C20.6 32.4 17.6 30.6 16 28H14C15.8 31.6 19.6 34 24 34Z" fill="#CCCCCC"/>
</svg> 