<svg width="54" height="54" viewBox="0 0 54 54" fill="none" xmlns="http://www.w3.org/2000/svg">
<g clip-path="url(#clip0_1243_38707)">
<mask id="path-1-inside-1_1243_38707" fill="white">
<path d="M0 27C0 12.0883 12.0883 0 27 0C41.9117 0 54 12.0883 54 27C54 41.9117 41.9117 54 27 54C12.0883 54 0 41.9117 0 27Z"/>
</mask>
<path d="M45.0352 0H8.96484C4.0137 0 0 4.11003 0 9.18V44.7336C0 49.8036 4.0137 53.9136 8.96484 53.9136H45.0352C49.9863 53.9136 54 49.8036 54 44.7336V9.18C54 4.11003 49.9863 0 45.0352 0Z" fill="white"/>
<path d="M15 37.4551V17.3321C15 17.1954 15.0586 17.1172 15.1954 17.1172C15.5275 17.1172 15.8401 17.1172 16.2894 17.0977C16.7583 17.0781 17.2467 17.0781 17.7742 17.0586C18.3017 17.0391 18.8683 17.0391 19.474 17.0195C20.0796 17 20.6657 17 21.2518 17C22.8538 17 24.1823 17.1954 25.2764 17.6056C26.2533 17.9378 27.152 18.4848 27.8944 19.2077C28.5195 19.8329 29.008 20.5948 29.3205 21.4349C29.6136 22.2554 29.7699 23.0955 29.7699 23.9747C29.7699 25.6548 29.3792 27.042 28.5977 28.136C27.8162 29.2301 26.7221 30.0507 25.4522 30.5195C24.1237 31.008 22.6585 31.1838 21.0564 31.1838C20.5876 31.1838 20.275 31.1838 20.0796 31.1643C19.8842 31.1447 19.6107 31.1447 19.2395 31.1447V37.4161C19.259 37.5528 19.1614 37.67 19.0246 37.6896H18.9465H15.2344C15.0781 37.6896 15 37.6114 15 37.4356V37.4551ZM19.259 20.9074V27.4718C19.5326 27.4913 19.7865 27.5109 20.021 27.5109H21.0564C21.8184 27.5109 22.5803 27.3936 23.3032 27.1592C23.9284 26.9834 24.4754 26.6122 24.9052 26.1237C25.3155 25.6353 25.5109 24.9711 25.5109 24.1114C25.5304 23.5058 25.3741 22.9001 25.0615 22.3726C24.7294 21.8647 24.2605 21.474 23.6939 21.259C22.9711 20.966 22.1896 20.8488 21.3886 20.8683C20.8806 20.8683 20.4313 20.8683 20.0601 20.8878C19.6693 20.8683 19.3958 20.8878 19.259 20.9074Z" fill="#0638BD"/>
<path d="M32.5831 22.0601H36.0021C36.1975 22.0601 36.3538 22.1968 36.4124 22.3727C36.471 22.529 36.5101 22.6853 36.5296 22.8611C36.5687 23.0565 36.6077 23.2714 36.6273 23.4667C36.6468 23.6816 36.6664 23.9161 36.6664 24.1701C37.2525 23.4863 37.9558 22.9197 38.7568 22.4899C39.6555 21.9819 40.691 21.728 41.7264 21.728C41.8632 21.7084 41.9804 21.8061 41.9999 21.9429V22.021V25.8307C41.9999 25.987 41.9023 26.0456 41.6873 26.0456C40.984 26.0261 40.2611 26.0847 39.5774 26.241C39.0108 26.3582 38.4638 26.534 37.9363 26.7685C37.5651 26.9443 37.2134 27.1787 36.9399 27.4913V37.4552C36.9399 37.6505 36.8617 37.7287 36.6859 37.7287H32.8371C32.6808 37.7482 32.5441 37.6505 32.5245 37.4942V37.4161V26.5926C32.5245 26.1238 32.5245 25.6353 32.505 25.1274C32.4855 24.6194 32.4855 24.1115 32.4659 23.6035C32.4659 23.1541 32.4269 22.7243 32.3878 22.275C32.3682 22.1773 32.4268 22.0796 32.5245 22.0601C32.5245 22.0405 32.5636 22.0405 32.5831 22.0601Z" fill="#0638BD"/>
</g>
<path d="M27 54V52C13.1929 52 2 40.8071 2 27H0H-2C-2 43.0163 10.9837 56 27 56V54ZM54 27H52C52 40.8071 40.8071 52 27 52V54V56C43.0163 56 56 43.0163 56 27H54ZM27 0V2C40.8071 2 52 13.1929 52 27H54H56C56 10.9837 43.0163 -2 27 -2V0ZM27 0V-2C10.9837 -2 -2 10.9837 -2 27H0H2C2 13.1929 13.1929 2 27 2V0Z" fill="#E1E1E1" mask="url(#path-1-inside-1_1243_38707)"/>
<defs>
<clipPath id="clip0_1243_38707">
<path d="M0 27C0 12.0883 12.0883 0 27 0C41.9117 0 54 12.0883 54 27C54 41.9117 41.9117 54 27 54C12.0883 54 0 41.9117 0 27Z" fill="white"/>
</clipPath>
</defs>
</svg>
