<svg width="54" height="54" viewBox="0 0 54 54" fill="none" xmlns="http://www.w3.org/2000/svg">
<g clip-path="url(#clip0_811_40218)">
<mask id="path-1-inside-1_811_40218" fill="white">
<path d="M0 27C0 12.0883 12.0883 0 27 0C41.9117 0 54 12.0883 54 27C54 41.9117 41.9117 54 27 54C12.0883 54 0 41.9117 0 27Z"/>
</mask>
<path d="M45.0352 0H8.96484C4.0137 0 0 4.11003 0 9.18V44.7336C0 49.8036 4.0137 53.9136 8.96484 53.9136H45.0352C49.9863 53.9136 54 49.8036 54 44.7336V9.18C54 4.11003 49.9863 0 45.0352 0Z" fill="white"/>
<path d="M24.6485 24.2656C19.8336 25.6892 11.3552 28.9759 10.9365 42.2692C12.4647 35.1096 16.2539 34.0839 23.2041 32.451C30.1543 30.8181 33.9434 28.9759 38.1512 23.9516C42.3381 18.9483 40.9145 11.7678 40.9145 11.7678C40.9145 15.6616 38.1512 18.2156 35.4925 20.0578C32.8339 21.9001 29.4634 22.8421 24.6485 24.2656Z" fill="#0638BD"/>
<path d="M10.9365 42.269C10.9575 41.9341 10.9575 41.5991 10.9784 41.2642C10.9575 41.62 10.9365 41.955 10.9365 42.269Z" fill="#0638BD"/>
<path d="M28.8354 30.7972C25.2138 31.488 21.5503 31.4043 19.1219 32.0323C14.8303 33.1628 11.2505 38.2707 10.9365 42.2692C10.9575 41.9342 10.9575 41.5993 10.9784 41.2644C11.4599 36.9309 15.4583 29.7923 24.2298 25.8985C27.0141 24.6634 29.5472 23.3445 31.7244 21.9838C33.127 21.4395 34.383 20.8324 35.4925 20.0578C38.1512 18.2156 40.9145 15.6616 40.9145 11.7678C40.9145 11.7678 41.1448 17.6085 39.2398 22.6118C38.9886 23.0933 38.6955 23.5539 38.3396 23.9726C35.8066 27.3011 32.8129 29.3318 28.8354 30.7972Z" fill="#0638BD"/>
<path d="M10.9994 41.0972C10.9784 41.474 10.9575 41.8718 10.9366 42.2695C10.9156 41.9136 10.9366 41.5159 10.9994 41.0972C11.8577 28.7668 19.9802 25.6476 24.6486 24.2659C29.4635 22.8424 32.8339 21.9213 35.4926 20.0791C38.1512 18.2368 40.9146 15.6829 40.9146 11.7891C40.9146 11.7891 42.3381 18.9486 38.1512 23.9729C33.9644 28.9762 30.4683 26.9456 23.5181 28.5784C17.175 30.0648 11.6693 36.7428 10.9994 41.0972Z" fill="#0638BD"/>
<path d="M21.7805 29.2899C28.333 28.0548 32.4152 28.1594 36.9161 23.3655C41.417 18.5506 40.9145 11.8097 40.9145 11.8097C40.9145 15.7035 38.1512 18.2575 35.4925 20.0997C34.383 20.8743 33.1479 21.4814 31.7244 22.0257C29.5472 23.3655 26.5117 24.7471 23.7274 25.9823C14.9559 29.8761 11.4599 36.9519 10.9784 41.2853C10.9575 41.6202 10.9365 41.9552 10.9365 42.2901C11.2505 38.2708 15.2281 30.5041 21.7805 29.2899Z" fill="#0638BD"/>
<path d="M10.9365 42.269C10.9575 41.9341 10.9575 41.5991 10.9784 41.2642C10.9575 41.62 10.9365 41.955 10.9365 42.269Z" fill="#0638BD"/>
<path d="M26.3856 25.2914C14.4112 27.5523 10.8314 38.1242 10.9361 42.2692C11.2501 38.2707 14.7252 33.6652 19.2261 31.2159C25.8832 27.8454 32.8334 29.6876 37.6483 24.7681C42.4632 19.8485 40.9141 11.7678 40.9141 11.7678C40.9141 15.6616 39.4905 19.3461 36.9156 21.4814C34.3616 23.6585 29.2536 24.7471 26.3856 25.2914Z" fill="#0638BD"/>
</g>
<path d="M27 52C13.1929 52 2 40.8071 2 27H-2C-2 43.0163 10.9837 56 27 56V52ZM52 27C52 40.8071 40.8071 52 27 52V56C43.0163 56 56 43.0163 56 27H52ZM27 2C40.8071 2 52 13.1929 52 27H56C56 10.9837 43.0163 -2 27 -2V2ZM27 -2C10.9837 -2 -2 10.9837 -2 27H2C2 13.1929 13.1929 2 27 2V-2Z" fill="#E1E1E1" mask="url(#path-1-inside-1_811_40218)"/>
<defs>
<clipPath id="clip0_811_40218">
<path d="M0 27C0 12.0883 12.0883 0 27 0C41.9117 0 54 12.0883 54 27C54 41.9117 41.9117 54 27 54C12.0883 54 0 41.9117 0 27Z" fill="white"/>
</clipPath>
</defs>
</svg>
