<svg width="54" height="54" viewBox="0 0 54 54" fill="none" xmlns="http://www.w3.org/2000/svg">
<g clip-path="url(#clip0_812_40825)">
<mask id="path-1-inside-1_812_40825" fill="white">
<path d="M0 27C0 12.0883 12.0883 0 27 0C41.9117 0 54 12.0883 54 27C54 41.9117 41.9117 54 27 54C12.0883 54 0 41.9117 0 27Z"/>
</mask>
<path d="M45.0352 0H8.96484C4.0137 0 0 4.11003 0 9.18V44.7336C0 49.8036 4.0137 53.9136 8.96484 53.9136H45.0352C49.9863 53.9136 54 49.8036 54 44.7336V9.18C54 4.11003 49.9863 0 45.0352 0Z" fill="white"/>
<mask id="mask0_812_40825" style="mask-type:luminance" maskUnits="userSpaceOnUse" x="11" y="14" width="32" height="31">
<path d="M12.9372 14.1239C12.6069 14.1239 12.3042 14.2632 12.0989 14.4916C11.9139 14.6849 11.7989 14.9479 11.7905 15.2339V15.3099C11.7942 15.4456 11.8209 15.5729 11.8685 15.6899C11.8705 15.7002 11.8749 15.7086 11.8785 15.7189C11.9159 15.8072 11.9629 15.8892 12.0225 15.9656C12.0429 15.9946 12.0659 16.0212 12.0905 16.0456C12.0945 16.0519 12.1005 16.0579 12.1069 16.0642L15.7619 20.4036L17.0815 21.9699L21.0329 26.6592L22.3525 28.2232L25.8902 32.4232L27.2075 33.9872V44.9582C27.2799 44.9582 27.3499 44.9562 27.4195 44.9502C28.1122 44.9012 28.7372 44.6049 29.2079 44.1506C29.2102 44.1506 29.2102 44.1506 29.2102 44.1482L29.5985 43.6859L39.0875 32.4232L42.3355 28.5666C42.3519 28.5502 42.3662 28.5316 42.3809 28.5132C42.4505 28.4269 42.5059 28.3299 42.5469 28.2232C42.5985 28.0959 42.6252 27.9562 42.6252 27.8079V15.2709C42.6252 14.9686 42.5079 14.6909 42.3149 14.4896C42.1072 14.2632 41.8089 14.1239 41.4759 14.1239H12.9372Z" fill="white"/>
</mask>
<g mask="url(#mask0_812_40825)">
<path fill-rule="evenodd" clip-rule="evenodd" d="M12.9372 14.1239C12.6069 14.1239 12.3042 14.2632 12.0989 14.4916C11.9139 14.6849 11.7989 14.9479 11.7905 15.2339V15.3099C11.7942 15.4456 11.8209 15.5729 11.8685 15.6899C11.8705 15.7002 11.8749 15.7086 11.8785 15.7189C11.9159 15.8072 11.9629 15.8892 12.0225 15.9656C12.0429 15.9946 12.0659 16.0212 12.0905 16.0456C12.0945 16.0519 12.1005 16.0579 12.1069 16.0642L15.7619 20.4036L17.0815 21.9699L21.0329 26.6592L22.3525 28.2232L25.8902 32.4232L27.2075 33.9872V44.9582C27.2799 44.9582 27.3499 44.9562 27.4195 44.9502C28.1122 44.9012 28.7372 44.6049 29.2079 44.1506C29.2102 44.1506 29.2102 44.1506 29.2102 44.1482L29.5985 43.6859L39.0875 32.4232L42.3355 28.5666C42.3519 28.5502 42.3662 28.5316 42.3809 28.5132C42.4505 28.4269 42.5059 28.3299 42.5469 28.2232C42.5985 28.0959 42.6252 27.9562 42.6252 27.8079V15.2709C42.6252 14.9686 42.5079 14.6909 42.3149 14.4896C42.1072 14.2632 41.8089 14.1239 41.4759 14.1239H12.9372Z" fill="#0638BD"/>
</g>
<path fill-rule="evenodd" clip-rule="evenodd" d="M27.2079 40.2674V44.9581C26.4309 44.9581 25.7259 44.6497 25.2075 44.1501C25.2055 44.1501 25.2055 44.1501 25.2055 44.1484L24.8172 43.6857L15.3282 32.4231L12.0989 28.5891C12.0905 28.5851 12.0845 28.5767 12.0802 28.5684L12.0289 28.5091C12.0249 28.5047 12.0225 28.5007 12.0189 28.4964C11.9569 28.4124 11.9035 28.3217 11.8685 28.2231C11.8212 28.1061 11.7945 27.9787 11.7905 27.8471V27.7691C11.7905 27.7444 11.7925 27.7194 11.7969 27.6947C11.8192 27.4361 11.9302 27.2054 12.0989 27.0247C12.3065 26.8007 12.6065 26.6591 12.9372 26.6591H15.7395L17.0572 28.2231L20.5949 32.4231L26.3955 39.3074L27.2059 40.2694L27.2079 40.2674Z" fill="#E1E1E1"/>
<path fill-rule="evenodd" clip-rule="evenodd" d="M27.2079 33.9881V40.2668L27.2059 40.2688L26.3965 39.3071L20.5959 32.4234L17.0575 28.2241L15.7395 26.6591L12.0775 22.3151C12.0622 22.2981 12.0469 22.2788 12.0315 22.2591C11.9642 22.1728 11.9082 22.0764 11.8675 21.9701C11.8215 21.8528 11.7945 21.7254 11.7905 21.5908V21.5134C11.7982 21.2264 11.9139 20.9681 12.0989 20.7718C12.3052 20.5441 12.6055 20.4034 12.9372 20.4034H15.7625L17.0825 21.9701L21.0335 26.6591L22.3515 28.2241L25.8899 32.4234L27.2079 33.9881Z" fill="#E1E1E1"/>
</g>
<path d="M27 52C13.1929 52 2 40.8071 2 27H-2C-2 43.0163 10.9837 56 27 56V52ZM52 27C52 40.8071 40.8071 52 27 52V56C43.0163 56 56 43.0163 56 27H52ZM27 2C40.8071 2 52 13.1929 52 27H56C56 10.9837 43.0163 -2 27 -2V2ZM27 -2C10.9837 -2 -2 10.9837 -2 27H2C2 13.1929 13.1929 2 27 2V-2Z" fill="#E1E1E1" mask="url(#path-1-inside-1_812_40825)"/>
<defs>
<clipPath id="clip0_812_40825">
<path d="M0 27C0 12.0883 12.0883 0 27 0C41.9117 0 54 12.0883 54 27C54 41.9117 41.9117 54 27 54C12.0883 54 0 41.9117 0 27Z" fill="white"/>
</clipPath>
</defs>
</svg>
