<svg width="12" height="12" viewBox="0 0 12 12" fill="none" xmlns="http://www.w3.org/2000/svg">
<path fill-rule="evenodd" clip-rule="evenodd" d="M9.36886 9.75593L10.7783 8.3089C11.0053 8.07581 11.3799 8.07581 11.6069 8.3089V8.3089C11.8257 8.53348 11.8257 8.89143 11.6069 9.11601L9.20213 11.585V11.585C8.98123 11.8117 8.61565 11.8129 8.39475 11.5861V11.5861L5.98988 9.11712C5.77114 8.89253 5.77101 8.5346 5.9896 8.30986V8.30986C6.21676 8.07632 6.59185 8.07624 6.8191 8.3097L8.22688 9.75593V0.825414C8.22688 0.510062 8.48252 0.254421 8.79787 0.254421V0.254421C9.11322 0.254421 9.36886 0.510064 9.36886 0.825415V9.75593ZM2.63114 2.24406V11.1746C2.63114 11.4899 2.88678 11.7456 3.20213 11.7456V11.7456C3.51748 11.7456 3.77313 11.4899 3.77313 11.1746V2.24406L5.18256 3.69109C5.4096 3.92419 5.78416 3.92419 6.0112 3.69109V3.69109C6.22993 3.46652 6.22993 3.10856 6.0112 2.88399L3.6064 0.415046V0.415046C3.38445 0.187827 3.01835 0.187514 2.79673 0.415046V0.415046L0.392945 2.88395C0.174262 3.10856 0.174298 3.46649 0.393027 3.69105V3.69105C0.620085 3.92417 0.994684 3.92417 1.22174 3.69105L2.63114 2.24406Z" fill="#0E1111"/>
</svg>
