<svg width="10" height="8" viewBox="0 0 10 8" fill="none" xmlns="http://www.w3.org/2000/svg">
<path d="M9.77988 2.2198C9.6389 2.07886 9.44771 1.99969 9.24837 1.99969C9.04902 1.99969 8.85783 2.07886 8.71685 2.2198L4.99546 5.94119L1.27408 2.2198C1.13229 2.08286 0.94238 2.00708 0.745262 2.00879C0.548144 2.01051 0.359584 2.08957 0.220195 2.22896C0.0808063 2.36835 0.00174166 2.55691 2.87607e-05 2.75403C-0.00168414 2.95114 0.0740925 3.14105 0.211038 3.28284L4.46394 7.53574C4.60492 7.67668 4.79611 7.75586 4.99546 7.75586C5.19481 7.75586 5.386 7.67668 5.52698 7.53574L9.77988 3.28284C9.92082 3.14186 10 2.95067 10 2.75132C10 2.55197 9.92082 2.36078 9.77988 2.2198Z" fill="#0E1111"/>
</svg>
