<svg width="25" height="15" viewBox="0 0 25 15" fill="none" xmlns="http://www.w3.org/2000/svg">
<path d="M0.535343 1.03573C0.878227 0.692951 1.34321 0.500387 1.82805 0.500387C2.31289 0.500387 2.77788 0.692951 3.12076 1.03573L12.1716 10.0865L21.2224 1.03573C21.5672 0.702665 22.0291 0.518369 22.5085 0.522534C22.9879 0.5267 23.4465 0.718995 23.7855 1.058C24.1245 1.39701 24.3168 1.85561 24.321 2.33502C24.3251 2.81443 24.1408 3.2763 23.8078 3.62115L13.4643 13.9647C13.1214 14.3074 12.6564 14.5 12.1716 14.5C11.6867 14.5 11.2217 14.3074 10.8788 13.9647L0.535343 3.62115C0.192563 3.27827 0 2.81328 0 2.32844C0 1.8436 0.192563 1.37862 0.535343 1.03573Z" fill="#7D7D7D"/>
</svg>
