<svg width="15" height="12" viewBox="0 0 15 12" fill="none" xmlns="http://www.w3.org/2000/svg">
<path d="M0.309265 3.26571C0.507347 3.06769 0.775968 2.95644 1.05606 2.95644C1.33614 2.95644 1.60477 3.06769 1.80285 3.26571L7.03145 8.49431L12.26 3.26571C12.4593 3.0733 12.7261 2.96683 13.003 2.96924C13.28 2.97164 13.5449 3.08273 13.7408 3.27857C13.9366 3.47442 14.0477 3.73935 14.0501 4.0163C14.0525 4.29325 13.946 4.56007 13.7536 4.75929L7.77824 10.7347C7.58015 10.9327 7.31153 11.0439 7.03145 11.0439C6.75136 11.0439 6.48274 10.9327 6.28465 10.7347L0.309265 4.75929C0.111243 4.56121 0 4.29259 0 4.0125C0 3.73241 0.111243 3.46379 0.309265 3.26571Z" fill="#0E1111"/>
</svg>
