<svg width="20" height="18" viewBox="0 0 20 18" fill="none" xmlns="http://www.w3.org/2000/svg">
<g id="Q_Icon">
<path id="Vector" d="M10 17.5C9.76667 17.5 9.52933 17.4599 9.288 17.3798C9.04667 17.2996 8.834 17.1714 8.65 16.995L6.925 15.4802C5.15833 13.9253 3.56233 12.3825 2.137 10.852C0.711667 9.3214 -0.000666199 7.63407 4.67508e-07 5.78996C4.67508e-07 4.28312 0.525001 3.02475 1.575 2.01485C2.625 1.00495 3.93333 0.5 5.5 0.5C6.38333 0.5 7.21667 0.680179 8 1.04054C8.78333 1.4009 9.45 1.89398 10 2.5198C10.55 1.89463 11.2167 1.40186 12 1.0415C12.7833 0.681141 13.6167 0.500641 14.5 0.5C16.0667 0.5 17.375 1.00495 18.425 2.01485C19.475 3.02475 20 4.28312 20 5.78996C20 7.63343 19.2917 9.32461 17.875 10.8635C16.4583 12.4024 14.85 13.9493 13.05 15.5042L11.35 16.995C11.1667 17.1714 10.9543 17.2996 10.713 17.3798C10.4717 17.4599 10.234 17.5 10 17.5ZM9.05 4.44342C8.56667 3.78619 8.05 3.28508 7.5 2.94011C6.95 2.59514 6.28333 2.42298 5.5 2.42362C4.5 2.42362 3.66667 2.74422 3 3.38543C2.33333 4.02664 2 4.82815 2 5.78996C2 6.62353 2.30833 7.50935 2.925 8.44744C3.54167 9.38553 4.27933 10.2951 5.138 11.1761C5.99667 12.0571 6.88 12.8827 7.788 13.6528C8.696 14.4228 9.43333 15.056 10 15.5523C10.5667 15.0554 11.3043 14.4222 12.213 13.6528C13.1217 12.8833 14.005 12.0578 14.863 11.1761C15.721 10.2944 16.4583 9.38488 17.075 8.44744C17.6917 7.51 18 6.62417 18 5.78996C18 4.82815 17.6667 4.02664 17 3.38543C16.3333 2.74422 15.5 2.42362 14.5 2.42362C13.7167 2.42362 13.05 2.59611 12.5 2.94107C11.95 3.28604 11.4333 3.78683 10.95 4.44342C10.8333 4.60372 10.6917 4.72395 10.525 4.8041C10.3583 4.88425 10.1833 4.92433 10 4.92433C9.81667 4.92433 9.64167 4.88425 9.475 4.8041C9.30833 4.72395 9.16667 4.60372 9.05 4.44342Z" fill="white"/>
</g>
</svg>
