<svg width="19" height="19" viewBox="0 0 19 19" fill="none" xmlns="http://www.w3.org/2000/svg">
<path d="M18.4103 9.79091C18.7895 9.28985 18.9994 8.67595 18.9994 8.03721C18.9994 7.02382 18.4329 6.06459 17.5211 5.52968C17.2863 5.39199 17.0191 5.31953 16.7469 5.31978H11.3346L11.47 2.54592C11.5016 1.87559 11.2646 1.23911 10.8042 0.753857C10.5783 0.514677 10.3056 0.324378 10.0032 0.194718C9.70083 0.0650579 9.37504 -0.00120753 9.04601 1.66571e-05C7.87237 1.66571e-05 6.83414 0.789969 6.52268 1.92073L4.58391 8.94002H1.6656C1.26611 8.94002 0.943359 9.26277 0.943359 9.66226V17.8778C0.943359 18.2772 1.26611 18.6 1.6656 18.6H15.237C15.4446 18.6 15.6477 18.5594 15.8351 18.4781C16.9094 18.0199 17.6023 16.9704 17.6023 15.8058C17.6023 15.5214 17.5617 15.2416 17.4804 14.9707C17.8596 14.4697 18.0695 13.8558 18.0695 13.217C18.0695 12.9327 18.0289 12.6528 17.9476 12.3819C18.3268 11.8809 18.5367 11.267 18.5367 10.6283C18.5322 10.3439 18.4916 10.0617 18.4103 9.79091ZM2.5684 16.975V10.5651H4.39658V16.975H2.5684ZM16.932 9.00773L16.4377 9.43656L16.7514 10.0098C16.8548 10.1987 16.9084 10.4107 16.9072 10.626C16.9072 10.9984 16.7447 11.3528 16.4648 11.5965L15.9705 12.0253L16.2842 12.5986C16.3876 12.7875 16.4412 12.9995 16.44 13.2148C16.44 13.5872 16.2775 13.9415 15.9976 14.1853L15.5033 14.6141L15.817 15.1874C15.9204 15.3763 15.974 15.5883 15.9728 15.8036C15.9728 16.3091 15.6748 16.7651 15.2144 16.9727H5.84106V10.4928L8.08678 2.35633C8.14469 2.14778 8.269 1.9638 8.44087 1.83225C8.61274 1.7007 8.8228 1.62875 9.03924 1.62732C9.21077 1.62732 9.38004 1.67697 9.51546 1.77854C9.73891 1.94556 9.85853 2.19834 9.84499 2.46692L9.62831 6.94482H16.7243C17.1261 7.19084 17.3744 7.60613 17.3744 8.03721C17.3744 8.40962 17.2119 8.76171 16.932 9.00773Z" fill="#A3A3A7"/>
</svg>
