<svg width="18" height="10" viewBox="0 0 18 10" fill="none" xmlns="http://www.w3.org/2000/svg">
<path d="M10.3428 9.77988C10.2019 9.6389 10.1227 9.44771 10.1227 9.24837C10.1227 9.04902 10.2019 8.85783 10.3428 8.71685L14.0642 4.99546L10.3428 1.27408C10.2059 1.13229 10.1301 0.94238 10.1318 0.745262C10.1336 0.548144 10.2126 0.359584 10.352 0.220195C10.4914 0.0808063 10.68 0.00174166 10.8771 2.87607e-05C11.0742 -0.00168414 11.2641 0.0740925 11.4059 0.211038L15.6588 4.46394C15.7997 4.60492 15.8789 4.79611 15.8789 4.99546C15.8789 5.19481 15.7997 5.386 15.6588 5.52698L11.4059 9.77988C11.2649 9.92082 11.0737 10 10.8744 10C10.675 10 10.4838 9.92082 10.3428 9.77988Z" fill="#0E1111"/>
<path d="M2.34285 9.77988C2.20191 9.6389 2.12273 9.44771 2.12273 9.24837C2.12273 9.04902 2.20191 8.85783 2.34285 8.71685L6.06423 4.99546L2.34285 1.27408C2.2059 1.13229 2.13013 0.94238 2.13184 0.745262C2.13355 0.548144 2.21262 0.359584 2.35201 0.220195C2.4914 0.0808063 2.67996 0.00174166 2.87707 2.87607e-05C3.07419 -0.00168414 3.2641 0.0740925 3.40589 0.211038L7.65879 4.46394C7.79973 4.60492 7.87891 4.79611 7.87891 4.99546C7.87891 5.19481 7.79973 5.386 7.65879 5.52698L3.40589 9.77988C3.2649 9.92082 3.07372 10 2.87437 10C2.67502 10 2.48383 9.92082 2.34285 9.77988Z" fill="#0E1111"/>
</svg>
