<svg width="18" height="18" viewBox="0 0 18 18" fill="none" xmlns="http://www.w3.org/2000/svg">
<path d="M6.34285 13.7799C6.20191 13.6389 6.12273 13.4477 6.12273 13.2484C6.12273 13.049 6.20191 12.8578 6.34285 12.7168L10.0642 8.99546L6.34285 5.27408C6.2059 5.13229 6.13013 4.94238 6.13184 4.74526C6.13355 4.54814 6.21262 4.35958 6.35201 4.2202C6.4914 4.08081 6.67996 4.00174 6.87707 4.00003C7.07419 3.99832 7.2641 4.07409 7.40589 4.21104L11.6588 8.46394C11.7997 8.60492 11.8789 8.79611 11.8789 8.99546C11.8789 9.19481 11.7997 9.386 11.6588 9.52698L7.40589 13.7799C7.2649 13.9208 7.07372 14 6.87437 14C6.67502 14 6.48383 13.9208 6.34285 13.7799Z" fill="#0E1111"/>
</svg>
