<svg width="144" height="144" viewBox="0 0 144 144" fill="none" xmlns="http://www.w3.org/2000/svg">
<g clip-path="url(#clip0_529_18680)">
<path d="M144 0H0V144H144V0Z" fill="#F5F5F5"/>
<path d="M17.4547 113.454V126.545H30.5456V113.454H17.4547Z" fill="#0E1111"/>
<path d="M8.72745 135.272H39.2729V104.727H8.72745L8.72745 135.272ZM13.0911 130.909L13.0911 109.091H34.9093V130.909H13.0911Z" fill="#0E1111"/>
<path d="M126.546 30.545V17.4541H113.455V30.545H126.546Z" fill="#0E1111"/>
<path d="M135.273 8.72656L104.727 8.72656V39.272H135.273V8.72656ZM130.909 13.0902V34.9084H109.091V13.0902L130.909 13.0902Z" fill="#0E1111"/>
<path d="M30.5456 17.4541H17.4547V30.545H30.5456V17.4541Z" fill="#0E1111"/>
<path d="M8.72745 8.72656V39.272H39.2729V8.72656H8.72745ZM13.0911 13.0902H34.9093V34.9084H13.0911V13.0902Z" fill="#0E1111"/>
<path d="M50.1821 13.0902C51.3871 13.0902 52.3639 12.1134 52.3639 10.9084C52.3639 9.7034 51.3871 8.72656 50.1821 8.72656C48.9771 8.72656 48.0003 9.7034 48.0003 10.9084C48.0003 12.1134 48.9771 13.0902 50.1821 13.0902Z" fill="#0E1111"/>
<path d="M69.8184 13.0898H74.182V10.908C74.182 10.3294 73.9522 9.77442 73.543 9.36525C73.1338 8.95607 72.5789 8.72621 72.0002 8.72621C71.4216 8.72621 70.8666 8.95607 70.4574 9.36525C70.0483 9.77442 69.8184 10.3294 69.8184 10.908" fill="#0E1111"/>
<path d="M80.7274 13.0902C81.9324 13.0902 82.9093 12.1134 82.9093 10.9084C82.9093 9.7034 81.9324 8.72656 80.7274 8.72656C79.5225 8.72656 78.5456 9.7034 78.5456 10.9084C78.5456 12.1134 79.5225 13.0902 80.7274 13.0902Z" fill="#0E1111"/>
<path d="M91.6365 13.0898H96.0001V8.72621H93.8183C93.2396 8.72621 92.6847 8.95608 92.2755 9.36525C91.8663 9.77442 91.6365 10.3294 91.6365 10.908" fill="#0E1111"/>
<path d="M96.0001 8.72656V13.0902H98.1819C98.7606 13.0902 99.3155 12.8603 99.7247 12.4512C100.134 12.042 100.364 11.487 100.364 10.9084C100.364 10.3297 100.134 9.77477 99.7247 9.3656C99.3155 8.95643 98.7606 8.72656 98.1819 8.72656" fill="#0E1111"/>
<path d="M61.0912 17.4541H65.4548V13.0905H63.273C62.6943 13.0905 62.1394 13.3203 61.7302 13.7295C61.321 14.1387 61.0912 14.6936 61.0912 15.2723" fill="#0E1111"/>
<path d="M69.8184 13.0898H65.4548V17.4535H69.8184V13.0898Z" fill="#0E1111"/>
<path d="M74.182 13.0898H69.8184V17.4535H72.0002C72.5788 17.4535 73.1338 17.2236 73.543 16.8144C73.9521 16.4053 74.182 15.8503 74.182 15.2717" fill="#0E1111"/>
<path d="M82.9092 17.4541H87.2729V15.2723C87.2729 14.6936 87.043 14.1387 86.6338 13.7295C86.2247 13.3203 85.6697 13.0905 85.0911 13.0905C84.5124 13.0905 83.9575 13.3203 83.5483 13.7295C83.1391 14.1387 82.9092 14.6936 82.9092 15.2723" fill="#0E1111"/>
<path d="M96.0001 13.0898H91.6365V15.2717C91.6365 15.8503 91.8663 16.4053 92.2755 16.8144C92.6847 17.2236 93.2396 17.4535 93.8183 17.4535C94.3969 17.4535 94.9519 17.2236 95.3611 16.8144C95.7702 16.4053 96.0001 15.8503 96.0001 15.2717" fill="#0E1111"/>
<path d="M48.0003 21.8174V17.4537H45.8185C45.2398 17.4537 44.6849 17.6836 44.2757 18.0928C43.8665 18.502 43.6367 19.0569 43.6367 19.6356C43.6367 20.2142 43.8665 20.7692 44.2757 21.1783C44.6849 21.5875 45.2398 21.8174 45.8185 21.8174" fill="#0E1111"/>
<path d="M48.0003 17.4541V21.8177H52.3639V19.6359C52.3639 19.0573 52.1341 18.5023 51.7249 18.0931C51.3157 17.684 50.7608 17.4541 50.1821 17.4541" fill="#0E1111"/>
<path d="M56.7275 21.8174H61.0912V17.4537H58.9094C58.3307 17.4537 57.7757 17.6836 57.3666 18.0928C56.9574 18.502 56.7275 19.0569 56.7275 19.6356" fill="#0E1111"/>
<path d="M65.4548 17.4541H61.0911V21.8177H63.273C63.8516 21.8177 64.4066 21.5879 64.8157 21.1787C65.2249 20.7695 65.4548 20.2146 65.4548 19.6359" fill="#0E1111"/>
<path d="M76.3638 21.8177C77.5688 21.8177 78.5456 20.8409 78.5456 19.6359C78.5456 18.4309 77.5688 17.4541 76.3638 17.4541C75.1588 17.4541 74.182 18.4309 74.182 19.6359C74.182 20.8409 75.1588 21.8177 76.3638 21.8177Z" fill="#0E1111"/>
<path d="M87.2729 21.8174V17.4537H82.9092V19.6356C82.9092 20.2142 83.1391 20.7692 83.5483 21.1783C83.9574 21.5875 84.5124 21.8174 85.091 21.8174" fill="#0E1111"/>
<path d="M87.2729 17.4541V21.8177H89.4547C90.0333 21.8177 90.5883 21.5879 90.9975 21.1787C91.4066 20.7695 91.6365 20.2146 91.6365 19.6359C91.6365 19.0573 91.4066 18.5023 90.9975 18.0931C90.5883 17.684 90.0333 17.4541 89.4547 17.4541" fill="#0E1111"/>
<path d="M52.3639 21.8174H48.0003V26.181H52.3639V21.8174Z" fill="#0E1111"/>
<path d="M56.7276 21.8174H52.3639V26.181H56.7276V21.8174Z" fill="#0E1111"/>
<path d="M61.0912 21.8174H56.7275V26.181H61.0912V21.8174Z" fill="#0E1111"/>
<path d="M69.8184 26.1807V21.817H67.6366C67.0579 21.817 66.503 22.0469 66.0938 22.4561C65.6846 22.8652 65.4548 23.4202 65.4548 23.9988C65.4548 24.5775 65.6846 25.1325 66.0938 25.5416C66.503 25.9508 67.0579 26.1807 67.6366 26.1807" fill="#0E1111"/>
<path d="M69.8184 21.8174V26.181H72.0002C72.5789 26.181 73.1338 25.9511 73.543 25.542C73.9522 25.1328 74.182 24.5779 74.182 23.9992C74.182 23.4205 73.9522 22.8656 73.543 22.4564C73.1338 22.0473 72.5789 21.8174 72.0002 21.8174" fill="#0E1111"/>
<path d="M98.1819 26.181C99.3869 26.181 100.364 25.2042 100.364 23.9992C100.364 22.7942 99.3869 21.8174 98.1819 21.8174C96.9769 21.8174 96.0001 22.7942 96.0001 23.9992C96.0001 25.2042 96.9769 26.181 98.1819 26.181Z" fill="#0E1111"/>
<path d="M43.6367 30.5449H48.0003V26.1813H45.8185C45.2399 26.1813 44.6849 26.4112 44.2757 26.8203C43.8666 27.2295 43.6367 27.7844 43.6367 28.3631" fill="#0E1111"/>
<path d="M52.3639 26.1807H48.0003V30.5443H52.3639V26.1807Z" fill="#0E1111"/>
<path d="M61.0912 26.1807H56.7275V30.5443H61.0912V26.1807Z" fill="#0E1111"/>
<path d="M61.0912 26.1807V30.5443H65.4548V28.3625C65.4548 27.7838 65.2249 27.2289 64.8158 26.8197C64.4066 26.4105 63.8516 26.1807 63.273 26.1807" fill="#0E1111"/>
<path d="M82.9092 30.5449H87.2729V26.1813H85.0911C84.5124 26.1813 83.9575 26.4112 83.5483 26.8203C83.1391 27.2295 82.9092 27.7844 82.9092 28.3631" fill="#0E1111"/>
<path d="M87.2729 26.1807V30.5443H89.4547C90.0333 30.5443 90.5883 30.3144 90.9975 29.9053C91.4066 29.4961 91.6365 28.9411 91.6365 28.3625C91.6365 27.7838 91.4066 27.2289 90.9975 26.8197C90.5883 26.4105 90.0333 26.1807 89.4547 26.1807" fill="#0E1111"/>
<path d="M48.0003 30.5449H43.6367V34.9086H48.0003V30.5449Z" fill="#0E1111"/>
<path d="M52.3639 30.5449H48.0003V34.9086H50.1821C50.7608 34.9086 51.3157 34.6787 51.7249 34.2695C52.1341 33.8604 52.3639 33.3054 52.3639 32.7267" fill="#0E1111"/>
<path d="M61.0912 34.9082V30.5446H56.7275V32.7264C56.7275 33.305 56.9574 33.86 57.3666 34.2692C57.7757 34.6783 58.3307 34.9082 58.9093 34.9082" fill="#0E1111"/>
<path d="M65.4548 30.5449H61.0912V34.9086H65.4548V30.5449Z" fill="#0E1111"/>
<path d="M65.4548 30.5449V34.9086H67.6366C68.2152 34.9086 68.7702 34.6787 69.1794 34.2695C69.5885 33.8603 69.8184 33.3054 69.8184 32.7267C69.8184 32.1481 69.5885 31.5931 69.1794 31.184C68.7702 30.7748 68.2152 30.5449 67.6366 30.5449" fill="#0E1111"/>
<path d="M87.2729 30.5449H82.9092V32.7267C82.9092 33.3054 83.1391 33.8603 83.5483 34.2695C83.9574 34.6787 84.5124 34.9086 85.091 34.9086C85.6697 34.9086 86.2246 34.6787 86.6338 34.2695C87.043 33.8603 87.2729 33.3054 87.2729 32.7267" fill="#0E1111"/>
<path d="M93.8183 34.9086C95.0233 34.9086 96.0001 33.9317 96.0001 32.7267C96.0001 31.5218 95.0233 30.5449 93.8183 30.5449C92.6133 30.5449 91.6365 31.5218 91.6365 32.7267C91.6365 33.9317 92.6133 34.9086 93.8183 34.9086Z" fill="#0E1111"/>
<path d="M48.0003 34.9082H43.6367V37.09C43.6367 37.6687 43.8665 38.2236 44.2757 38.6328C44.6849 39.042 45.2398 39.2718 45.8185 39.2718C46.3971 39.2718 46.9521 39.042 47.3613 38.6328C47.7704 38.2236 48.0003 37.6687 48.0003 37.09" fill="#0E1111"/>
<path d="M52.3639 39.2715H56.7276V37.0897C56.7276 36.511 56.4977 35.9561 56.0885 35.5469C55.6793 35.1377 55.1244 34.9078 54.5457 34.9078C53.9671 34.9078 53.4121 35.1377 53.003 35.5469C52.5938 35.9561 52.3639 36.511 52.3639 37.0897" fill="#0E1111"/>
<path d="M65.4548 34.9082H61.0912V39.2718H65.4548V34.9082Z" fill="#0E1111"/>
<path d="M72.0002 39.2718C73.2052 39.2718 74.182 38.295 74.182 37.09C74.182 35.885 73.2052 34.9082 72.0002 34.9082C70.7952 34.9082 69.8184 35.885 69.8184 37.09C69.8184 38.295 70.7952 39.2718 72.0002 39.2718Z" fill="#0E1111"/>
<path d="M78.5456 39.2715H82.9093V37.0897C82.9093 36.511 82.6794 35.9561 82.2702 35.5469C81.861 35.1377 81.3061 34.9078 80.7274 34.9078C80.1488 34.9078 79.5938 35.1377 79.1847 35.5469C78.7755 35.9561 78.5456 36.511 78.5456 37.0897" fill="#0E1111"/>
<path d="M89.4547 39.2718C90.6597 39.2718 91.6365 38.295 91.6365 37.09C91.6365 35.885 90.6597 34.9082 89.4547 34.9082C88.2497 34.9082 87.2729 35.885 87.2729 37.09C87.2729 38.295 88.2497 39.2718 89.4547 39.2718Z" fill="#0E1111"/>
<path d="M96.0001 39.2715H100.364V37.0897C100.364 36.511 100.134 35.9561 99.7247 35.5469C99.3155 35.1377 98.7606 34.9078 98.1819 34.9078C97.6033 34.9078 97.0483 35.1377 96.6391 35.5469C96.23 35.9561 96.0001 36.511 96.0001 37.0897" fill="#0E1111"/>
<path d="M52.3639 43.6357V39.2721H50.1821C49.6034 39.2721 49.0485 39.502 48.6393 39.9111C48.2302 40.3203 48.0003 40.8753 48.0003 41.4539C48.0003 42.0326 48.2302 42.5875 48.6393 42.9967C49.0485 43.4059 49.6034 43.6357 50.1821 43.6357" fill="#0E1111"/>
<path d="M56.7276 39.2715H52.3639V43.6351H56.7276V39.2715Z" fill="#0E1111"/>
<path d="M61.0912 39.2715H56.7275V43.6351H61.0912V39.2715Z" fill="#0E1111"/>
<path d="M65.4548 39.2715H61.0912V43.6351H65.4548V39.2715Z" fill="#0E1111"/>
<path d="M65.4548 39.2715V43.6351H67.6366C68.2152 43.6351 68.7702 43.4053 69.1794 42.9961C69.5885 42.5869 69.8184 42.032 69.8184 41.4533C69.8184 40.8746 69.5885 40.3197 69.1794 39.9105C68.7702 39.5014 68.2152 39.2715 67.6366 39.2715" fill="#0E1111"/>
<path d="M82.9093 39.2715H78.5456V43.6351H82.9093V39.2715Z" fill="#0E1111"/>
<path d="M91.6365 43.6357H96.0001V39.2721H93.8183C93.2396 39.2721 92.6847 39.502 92.2755 39.9111C91.8663 40.3203 91.6365 40.8753 91.6365 41.4539" fill="#0E1111"/>
<path d="M100.364 39.2715H96.0001V43.6351H100.364V39.2715Z" fill="#0E1111"/>
<path d="M15.2729 47.9994C16.4779 47.9994 17.4547 47.0225 17.4547 45.8176C17.4547 44.6126 16.4779 43.6357 15.2729 43.6357C14.0679 43.6357 13.0911 44.6126 13.0911 45.8176C13.0911 47.0225 14.0679 47.9994 15.2729 47.9994Z" fill="#0E1111"/>
<path d="M26.1819 47.999H30.5456V45.8172C30.5456 45.2386 30.3157 44.6836 29.9065 44.2744C29.4973 43.8653 28.9424 43.6354 28.3637 43.6354C27.7851 43.6354 27.2301 43.8653 26.821 44.2744C26.4118 44.6836 26.1819 45.2386 26.1819 45.8172" fill="#0E1111"/>
<path d="M37.0913 47.9994C38.2963 47.9994 39.2731 47.0225 39.2731 45.8176C39.2731 44.6126 38.2963 43.6357 37.0913 43.6357C35.8863 43.6357 34.9095 44.6126 34.9095 45.8176C34.9095 47.0225 35.8863 47.9994 37.0913 47.9994Z" fill="#0E1111"/>
<path d="M43.6367 47.999H48.0003V45.8172C48.0003 45.2386 47.7705 44.6836 47.3613 44.2744C46.9521 43.8653 46.3972 43.6354 45.8185 43.6354C45.2399 43.6354 44.6849 43.8653 44.2757 44.2744C43.8666 44.6836 43.6367 45.2386 43.6367 45.8172" fill="#0E1111"/>
<path d="M56.7276 43.6357H52.3639V47.9994H56.7276V43.6357Z" fill="#0E1111"/>
<path d="M65.4548 43.6357H61.0911V45.8176C61.0911 46.3962 61.321 46.9512 61.7302 47.3603C62.1393 47.7695 62.6943 47.9994 63.273 47.9994C63.8516 47.9994 64.4066 47.7695 64.8157 47.3603C65.2249 46.9512 65.4548 46.3962 65.4548 45.8176" fill="#0E1111"/>
<path d="M74.182 47.999V43.6354H72.0002C71.4215 43.6354 70.8666 43.8653 70.4574 44.2744C70.0482 44.6836 69.8184 45.2386 69.8184 45.8172C69.8184 46.3959 70.0482 46.9508 70.4574 47.36C70.8666 47.7692 71.4215 47.999 72.0002 47.999" fill="#0E1111"/>
<path d="M78.5456 43.6357H74.182V47.9994H78.5456V43.6357Z" fill="#0E1111"/>
<path d="M82.9092 43.6357H78.5456V47.9994H80.7274C81.3061 47.9994 81.861 47.7695 82.2702 47.3603C82.6794 46.9512 82.9092 46.3962 82.9092 45.8176" fill="#0E1111"/>
<path d="M96.0001 43.6357H91.6365V47.9994H96.0001V43.6357Z" fill="#0E1111"/>
<path d="M100.364 43.6357H96.0001V47.9994H100.364V43.6357Z" fill="#0E1111"/>
<path d="M100.364 43.6357V47.9994H102.546C103.124 47.9994 103.679 47.7695 104.088 47.3603C104.497 46.9512 104.727 46.3962 104.727 45.8176C104.727 45.2389 104.497 44.684 104.088 44.2748C103.679 43.8656 103.124 43.6357 102.546 43.6357" fill="#0E1111"/>
<path d="M109.091 47.999H113.455V43.6354H111.273C110.694 43.6354 110.139 43.8653 109.73 44.2744C109.321 44.6836 109.091 45.2386 109.091 45.8172" fill="#0E1111"/>
<path d="M113.455 43.6357V47.9994H115.637C116.215 47.9994 116.77 47.7695 117.179 47.3603C117.589 46.9512 117.819 46.3962 117.819 45.8176C117.819 45.2389 117.589 44.684 117.179 44.2748C116.77 43.8656 116.215 43.6357 115.637 43.6357" fill="#0E1111"/>
<path d="M124.364 47.9994C125.569 47.9994 126.546 47.0225 126.546 45.8176C126.546 44.6126 125.569 43.6357 124.364 43.6357C123.159 43.6357 122.182 44.6126 122.182 45.8176C122.182 47.0225 123.159 47.9994 124.364 47.9994Z" fill="#0E1111"/>
<path d="M10.9093 52.3627C12.1143 52.3627 13.0911 51.3858 13.0911 50.1808C13.0911 48.9759 12.1143 47.999 10.9093 47.999C9.70428 47.999 8.72745 48.9759 8.72745 50.1808C8.72745 51.3858 9.70428 52.3627 10.9093 52.3627Z" fill="#0E1111"/>
<path d="M21.8183 52.3623H26.1819V47.9987H24.0001C23.4215 47.9987 22.8665 48.2285 22.4573 48.6377C22.0482 49.0469 21.8183 49.6018 21.8183 50.1805" fill="#0E1111"/>
<path d="M30.5455 47.999H26.1819V52.3627H28.3637C28.9424 52.3627 29.4973 52.1328 29.9065 51.7236C30.3157 51.3144 30.5455 50.7595 30.5455 50.1808" fill="#0E1111"/>
<path d="M48.0003 47.999H43.6367V52.3627H48.0003V47.999Z" fill="#0E1111"/>
<path d="M56.7276 47.999H52.3639V52.3627H56.7276V47.999Z" fill="#0E1111"/>
<path d="M87.2729 52.3623V47.9987H85.091C84.5124 47.9987 83.9574 48.2285 83.5483 48.6377C83.1391 49.0469 82.9092 49.6018 82.9092 50.1805C82.9092 50.7591 83.1391 51.3141 83.5483 51.7233C83.9574 52.1324 84.5124 52.3623 85.091 52.3623" fill="#0E1111"/>
<path d="M91.6365 47.999H87.2729V52.3627H91.6365V47.999Z" fill="#0E1111"/>
<path d="M96.0001 47.999H91.6365V52.3627H96.0001V47.999Z" fill="#0E1111"/>
<path d="M113.455 47.999H109.091V52.3627H113.455V47.999Z" fill="#0E1111"/>
<path d="M130.909 52.3623V47.9987H128.728C128.149 47.9987 127.594 48.2285 127.185 48.6377C126.776 49.0469 126.546 49.6018 126.546 50.1805C126.546 50.7591 126.776 51.3141 127.185 51.7233C127.594 52.1324 128.149 52.3623 128.728 52.3623" fill="#0E1111"/>
<path d="M130.909 47.999V52.3627H135.273V50.1808C135.273 49.6022 135.043 49.0472 134.634 48.6381C134.225 48.2289 133.67 47.999 133.091 47.999" fill="#0E1111"/>
<path d="M13.0911 56.7266H17.4547V54.5447C17.4547 53.9661 17.2248 53.4111 16.8157 53.002C16.4065 52.5928 15.8515 52.3629 15.2729 52.3629C14.6942 52.3629 14.1393 52.5928 13.7301 53.002C13.3209 53.4111 13.0911 53.9661 13.0911 54.5447" fill="#0E1111"/>
<path d="M26.1819 52.3623H21.8183V54.5441C21.8183 55.1228 22.0481 55.6777 22.4573 56.0869C22.8665 56.4961 23.4214 56.7259 24.0001 56.7259C24.5788 56.7259 25.1337 56.4961 25.5429 56.0869C25.952 55.6777 26.1819 55.1228 26.1819 54.5441" fill="#0E1111"/>
<path d="M37.0913 56.7259C38.2963 56.7259 39.2731 55.7491 39.2731 54.5441C39.2731 53.3391 38.2963 52.3623 37.0913 52.3623C35.8863 52.3623 34.9095 53.3391 34.9095 54.5441C34.9095 55.7491 35.8863 56.7259 37.0913 56.7259Z" fill="#0E1111"/>
<path d="M48.0003 52.3623H43.6367V56.7259H48.0003V52.3623Z" fill="#0E1111"/>
<path d="M56.7275 52.3623H52.3639V54.5441C52.3639 55.1228 52.5938 55.6777 53.0029 56.0869C53.4121 56.4961 53.9671 56.7259 54.5457 56.7259C55.1244 56.7259 55.6793 56.4961 56.0885 56.0869C56.4977 55.6777 56.7275 55.1228 56.7275 54.5441" fill="#0E1111"/>
<path d="M63.273 56.7259C64.478 56.7259 65.4548 55.7491 65.4548 54.5441C65.4548 53.3391 64.478 52.3623 63.273 52.3623C62.068 52.3623 61.0912 53.3391 61.0912 54.5441C61.0912 55.7491 62.068 56.7259 63.273 56.7259Z" fill="#0E1111"/>
<path d="M69.8184 56.7266H74.182V54.5447C74.182 53.9661 73.9522 53.4111 73.543 53.002C73.1338 52.5928 72.5789 52.3629 72.0002 52.3629C71.4216 52.3629 70.8666 52.5928 70.4574 53.002C70.0483 53.4111 69.8184 53.9661 69.8184 54.5447" fill="#0E1111"/>
<path d="M91.6365 56.7266V52.3629H87.2728V54.5447C87.2728 55.1234 87.5027 55.6784 87.9119 56.0875C88.3211 56.4967 88.876 56.7266 89.4547 56.7266" fill="#0E1111"/>
<path d="M96.0001 52.3623H91.6365V56.7259H96.0001V52.3623Z" fill="#0E1111"/>
<path d="M100.364 56.7266H104.727V54.5447C104.727 53.9661 104.497 53.4111 104.088 53.002C103.679 52.5928 103.124 52.3629 102.546 52.3629C101.967 52.3629 101.412 52.5928 101.003 53.002C100.594 53.4111 100.364 53.9661 100.364 54.5447" fill="#0E1111"/>
<path d="M113.455 56.7266V52.3629H109.091V54.5447C109.091 55.1234 109.321 55.6784 109.73 56.0875C110.139 56.4967 110.694 56.7266 111.273 56.7266" fill="#0E1111"/>
<path d="M113.455 52.3623V56.7259H117.819V54.5441C117.819 53.9655 117.589 53.4105 117.179 53.0013C116.77 52.5922 116.215 52.3623 115.637 52.3623" fill="#0E1111"/>
<path d="M124.364 56.7259C125.569 56.7259 126.546 55.7491 126.546 54.5441C126.546 53.3391 125.569 52.3623 124.364 52.3623C123.159 52.3623 122.182 53.3391 122.182 54.5441C122.182 55.7491 123.159 56.7259 124.364 56.7259Z" fill="#0E1111"/>
<path d="M135.273 52.3623H130.909V56.7259H135.273V52.3623Z" fill="#0E1111"/>
<path d="M8.72745 61.0908H13.0911V56.7272H10.9093C10.3306 56.7272 9.77566 56.9571 9.36649 57.3662C8.95732 57.7754 8.72745 58.3303 8.72745 58.909" fill="#0E1111"/>
<path d="M17.4547 56.7266H13.0911V61.0902H17.4547V56.7266Z" fill="#0E1111"/>
<path d="M17.4547 56.7266V61.0902H19.6365C20.2152 61.0902 20.7701 60.8603 21.1793 60.4512C21.5884 60.042 21.8183 59.487 21.8183 58.9084C21.8183 58.3297 21.5884 57.7748 21.1793 57.3656C20.7701 56.9564 20.2152 56.7266 19.6365 56.7266" fill="#0E1111"/>
<path d="M32.7274 61.0902C33.9323 61.0902 34.9092 60.1134 34.9092 58.9084C34.9092 57.7034 33.9323 56.7266 32.7274 56.7266C31.5224 56.7266 30.5455 57.7034 30.5455 58.9084C30.5455 60.1134 31.5224 61.0902 32.7274 61.0902Z" fill="#0E1111"/>
<path d="M43.6367 61.0908V56.7272H41.4549C40.8762 56.7272 40.3213 56.9571 39.9121 57.3662C39.5029 57.7754 39.2731 58.3303 39.2731 58.909C39.2731 59.4877 39.5029 60.0426 39.9121 60.4518C40.3213 60.861 40.8762 61.0908 41.4549 61.0908" fill="#0E1111"/>
<path d="M48.0003 56.7266H43.6367V61.0902H48.0003V56.7266Z" fill="#0E1111"/>
<path d="M48.0003 56.7266V61.0902H50.1821C50.7608 61.0902 51.3157 60.8603 51.7249 60.4512C52.1341 60.042 52.3639 59.487 52.3639 58.9084C52.3639 58.3297 52.1341 57.7748 51.7249 57.3656C51.3157 56.9564 50.7608 56.7266 50.1821 56.7266" fill="#0E1111"/>
<path d="M56.7275 61.0908H61.0912V58.909C61.0912 58.3303 60.8613 57.7754 60.4521 57.3662C60.043 56.9571 59.488 56.7272 58.9094 56.7272C58.3307 56.7272 57.7757 56.9571 57.3666 57.3662C56.9574 57.7754 56.7275 58.3303 56.7275 58.909" fill="#0E1111"/>
<path d="M65.4548 61.0908H69.8184V56.7272H67.6366C67.0579 56.7272 66.503 56.9571 66.0938 57.3662C65.6846 57.7754 65.4548 58.3303 65.4548 58.909" fill="#0E1111"/>
<path d="M74.182 56.7266H69.8184V61.0902H74.182V56.7266Z" fill="#0E1111"/>
<path d="M78.5456 56.7266H74.182V61.0902H78.5456V56.7266Z" fill="#0E1111"/>
<path d="M82.9093 56.7266H78.5456V61.0902H82.9093V56.7266Z" fill="#0E1111"/>
<path d="M82.9092 56.7266V61.0902H87.2729V58.9084C87.2729 58.3297 87.043 57.7748 86.6338 57.3656C86.2247 56.9564 85.6697 56.7266 85.0911 56.7266" fill="#0E1111"/>
<path d="M96.0001 61.0908V56.7272H91.6365V58.909C91.6365 59.4877 91.8663 60.0426 92.2755 60.4518C92.6847 60.861 93.2396 61.0908 93.8183 61.0908" fill="#0E1111"/>
<path d="M100.364 56.7266H96.0001V61.0902H100.364V56.7266Z" fill="#0E1111"/>
<path d="M104.727 56.7266H100.364V61.0902H102.546C103.124 61.0902 103.679 60.8603 104.088 60.4512C104.497 60.042 104.727 59.487 104.727 58.9084" fill="#0E1111"/>
<path d="M117.818 61.0908V56.7272H113.455V58.909C113.455 59.4877 113.685 60.0426 114.094 60.4518C114.503 60.861 115.058 61.0908 115.637 61.0908" fill="#0E1111"/>
<path d="M117.818 56.7266V61.0902H122.182V58.9084C122.182 58.3297 121.952 57.7748 121.543 57.3656C121.134 56.9564 120.579 56.7266 120 56.7266" fill="#0E1111"/>
<path d="M130.909 61.0908V56.7272H128.728C128.149 56.7272 127.594 56.9571 127.185 57.3662C126.776 57.7754 126.546 58.3303 126.546 58.909C126.546 59.4877 126.776 60.0426 127.185 60.4518C127.594 60.861 128.149 61.0908 128.728 61.0908" fill="#0E1111"/>
<path d="M135.273 56.7266H130.909V61.0902H135.273V56.7266Z" fill="#0E1111"/>
<path d="M13.0911 61.0908H8.72743V63.2726C8.72743 63.8513 8.9573 64.4062 9.36647 64.8154C9.77564 65.2246 10.3306 65.4545 10.9092 65.4545C11.4879 65.4545 12.0429 65.2246 12.452 64.8154C12.8612 64.4062 13.0911 63.8513 13.0911 63.2726" fill="#0E1111"/>
<path d="M37.0913 65.4545C38.2963 65.4545 39.2731 64.4776 39.2731 63.2726C39.2731 62.0677 38.2963 61.0908 37.0913 61.0908C35.8863 61.0908 34.9095 62.0677 34.9095 63.2726C34.9095 64.4776 35.8863 65.4545 37.0913 65.4545Z" fill="#0E1111"/>
<path d="M61.0912 65.4541V61.0905H56.7275V63.2723C56.7275 63.8509 56.9574 64.4059 57.3666 64.8151C57.7757 65.2242 58.3307 65.4541 58.9093 65.4541" fill="#0E1111"/>
<path d="M65.4548 61.0908H61.0912V65.4545H65.4548V61.0908Z" fill="#0E1111"/>
<path d="M69.8184 61.0908H65.4548V65.4545H69.8184V61.0908Z" fill="#0E1111"/>
<path d="M74.182 61.0908H69.8184V65.4545H74.182V61.0908Z" fill="#0E1111"/>
<path d="M78.5456 61.0908H74.182V65.4545H78.5456V61.0908Z" fill="#0E1111"/>
<path d="M87.2729 61.0908H82.9092V63.2726C82.9092 63.8513 83.1391 64.4062 83.5483 64.8154C83.9574 65.2246 84.5124 65.4545 85.091 65.4545C85.6697 65.4545 86.2246 65.2246 86.6338 64.8154C87.043 64.4062 87.2729 63.8513 87.2729 63.2726" fill="#0E1111"/>
<path d="M111.273 65.4545C112.478 65.4545 113.455 64.4776 113.455 63.2726C113.455 62.0677 112.478 61.0908 111.273 61.0908C110.068 61.0908 109.091 62.0677 109.091 63.2726C109.091 64.4776 110.068 65.4545 111.273 65.4545Z" fill="#0E1111"/>
<path d="M122.182 61.0908H117.818V63.2726C117.818 63.8513 118.048 64.4062 118.457 64.8154C118.867 65.2246 119.422 65.4545 120 65.4545C120.579 65.4545 121.134 65.2246 121.543 64.8154C121.952 64.4062 122.182 63.8513 122.182 63.2726" fill="#0E1111"/>
<path d="M135.273 61.0908H130.909V65.4545H135.273V61.0908Z" fill="#0E1111"/>
<path d="M21.8183 69.8174V65.4537H19.6365C19.0578 65.4537 18.5029 65.6836 18.0937 66.0928C17.6845 66.502 17.4547 67.0569 17.4547 67.6356C17.4547 68.2142 17.6845 68.7692 18.0937 69.1783C18.5029 69.5875 19.0578 69.8174 19.6365 69.8174" fill="#0E1111"/>
<path d="M21.8183 65.4541V69.8177H24.0001C24.5788 69.8177 25.1337 69.5879 25.5429 69.1787C25.9521 68.7695 26.1819 68.2146 26.1819 67.6359C26.1819 67.0573 25.9521 66.5023 25.5429 66.0931C25.1337 65.684 24.5788 65.4541 24.0001 65.4541" fill="#0E1111"/>
<path d="M30.5455 69.8174H34.9092V67.6356C34.9092 67.0569 34.6793 66.502 34.2701 66.0928C33.861 65.6836 33.306 65.4537 32.7274 65.4537C32.1487 65.4537 31.5937 65.6836 31.1846 66.0928C30.7754 66.502 30.5455 67.0569 30.5455 67.6356" fill="#0E1111"/>
<path d="M39.2728 69.8174H43.6364V67.6356C43.6364 67.0569 43.4065 66.502 42.9974 66.0928C42.5882 65.6836 42.0332 65.4537 41.4546 65.4537C40.8759 65.4537 40.321 65.6836 39.9118 66.0928C39.5026 66.502 39.2728 67.0569 39.2728 67.6356" fill="#0E1111"/>
<path d="M52.3639 69.8174V65.4537H50.1821C49.6034 65.4537 49.0485 65.6836 48.6393 66.0928C48.2302 66.502 48.0003 67.0569 48.0003 67.6356C48.0003 68.2142 48.2302 68.7692 48.6393 69.1783C49.0485 69.5875 49.6034 69.8174 50.1821 69.8174" fill="#0E1111"/>
<path d="M52.3639 65.4541V69.8177H54.5457C55.1244 69.8177 55.6794 69.5879 56.0885 69.1787C56.4977 68.7695 56.7276 68.2146 56.7276 67.6359C56.7276 67.0573 56.4977 66.5023 56.0885 66.0931C55.6794 65.684 55.1244 65.4541 54.5457 65.4541" fill="#0E1111"/>
<path d="M74.182 69.8174V65.4537H69.8184V67.6356C69.8184 68.2142 70.0482 68.7692 70.4574 69.1783C70.8666 69.5875 71.4215 69.8174 72.0002 69.8174" fill="#0E1111"/>
<path d="M78.5456 65.4541H74.182V69.8177H76.3638C76.9425 69.8177 77.4974 69.5879 77.9066 69.1787C78.3158 68.7695 78.5456 68.2146 78.5456 67.6359" fill="#0E1111"/>
<path d="M89.4547 69.8177C90.6597 69.8177 91.6365 68.8409 91.6365 67.6359C91.6365 66.4309 90.6597 65.4541 89.4547 65.4541C88.2497 65.4541 87.2729 66.4309 87.2729 67.6359C87.2729 68.8409 88.2497 69.8177 89.4547 69.8177Z" fill="#0E1111"/>
<path d="M104.727 69.8174H109.091V67.6356C109.091 67.0569 108.861 66.502 108.452 66.0928C108.043 65.6836 107.488 65.4537 106.909 65.4537C106.33 65.4537 105.776 65.6836 105.366 66.0928C104.957 66.502 104.727 67.0569 104.727 67.6356" fill="#0E1111"/>
<path d="M113.455 69.8174H117.819V67.6356C117.819 67.0569 117.589 66.502 117.179 66.0928C116.77 65.6836 116.215 65.4537 115.637 65.4537C115.058 65.4537 114.503 65.6836 114.094 66.0928C113.685 66.502 113.455 67.0569 113.455 67.6356" fill="#0E1111"/>
<path d="M124.364 69.8177C125.569 69.8177 126.546 68.8409 126.546 67.6359C126.546 66.4309 125.569 65.4541 124.364 65.4541C123.159 65.4541 122.182 66.4309 122.182 67.6359C122.182 68.8409 123.159 69.8177 124.364 69.8177Z" fill="#0E1111"/>
<path d="M135.273 65.4541H130.909V69.8177H135.273V65.4541Z" fill="#0E1111"/>
<path d="M10.9093 74.181C12.1143 74.181 13.0911 73.2042 13.0911 71.9992C13.0911 70.7942 12.1143 69.8174 10.9093 69.8174C9.70428 69.8174 8.72745 70.7942 8.72745 71.9992C8.72745 73.2042 9.70428 74.181 10.9093 74.181Z" fill="#0E1111"/>
<path d="M30.5455 74.1816V69.818H28.3637C27.7851 69.818 27.2301 70.0479 26.8209 70.457C26.4118 70.8662 26.1819 71.4212 26.1819 71.9998C26.1819 72.5785 26.4118 73.1334 26.8209 73.5426C27.2301 73.9518 27.7851 74.1816 28.3637 74.1816" fill="#0E1111"/>
<path d="M34.9092 69.8174H30.5455V74.181H34.9092V69.8174Z" fill="#0E1111"/>
<path d="M39.2731 69.8174H34.9095V74.181H39.2731V69.8174Z" fill="#0E1111"/>
<path d="M43.6367 69.8174H39.2731V74.181H41.4549C42.0335 74.181 42.5885 73.9512 42.9977 73.542C43.4068 73.1328 43.6367 72.5779 43.6367 71.9992" fill="#0E1111"/>
<path d="M61.0912 74.1816V69.818H58.9093C58.3307 69.818 57.7757 70.0479 57.3666 70.457C56.9574 70.8662 56.7275 71.4212 56.7275 71.9998C56.7275 72.5785 56.9574 73.1334 57.3666 73.5426C57.7757 73.9518 58.3307 74.1816 58.9093 74.1816" fill="#0E1111"/>
<path d="M61.0912 69.8174V74.181H63.273C63.8516 74.181 64.4066 73.9512 64.8158 73.542C65.2249 73.1328 65.4548 72.5779 65.4548 71.9992C65.4548 71.4205 65.2249 70.8656 64.8158 70.4564C64.4066 70.0473 63.8516 69.8174 63.273 69.8174" fill="#0E1111"/>
<path d="M82.9092 74.1816H87.2729V71.9998C87.2729 71.4212 87.043 70.8662 86.6338 70.457C86.2247 70.0479 85.6697 69.818 85.0911 69.818C84.5124 69.818 83.9574 70.0479 83.5483 70.457C83.1391 70.8662 82.9092 71.4212 82.9092 71.9998" fill="#0E1111"/>
<path d="M96.0001 74.1816H100.364V69.818H98.1819C97.6033 69.818 97.0483 70.0479 96.6391 70.457C96.23 70.8662 96.0001 71.4212 96.0001 71.9998" fill="#0E1111"/>
<path d="M104.727 69.8174H100.364V74.181H104.727V69.8174Z" fill="#0E1111"/>
<path d="M109.091 69.8174H104.727V74.181H109.091V69.8174Z" fill="#0E1111"/>
<path d="M117.818 69.8174H113.455V71.9992C113.455 72.5779 113.685 73.1328 114.094 73.542C114.503 73.9511 115.058 74.181 115.637 74.181C116.215 74.181 116.77 73.9511 117.179 73.542C117.589 73.1328 117.818 72.5779 117.818 71.9992" fill="#0E1111"/>
<path d="M130.909 74.1816V69.818H128.728C128.149 69.818 127.594 70.0479 127.185 70.457C126.776 70.8662 126.546 71.4212 126.546 71.9998C126.546 72.5785 126.776 73.1334 127.185 73.5426C127.594 73.9518 128.149 74.1816 128.728 74.1816" fill="#0E1111"/>
<path d="M135.273 69.8174H130.909V74.181H135.273V69.8174Z" fill="#0E1111"/>
<path d="M15.2729 78.5453C16.4779 78.5453 17.4547 77.5684 17.4547 76.3635C17.4547 75.1585 16.4779 74.1816 15.2729 74.1816C14.0679 74.1816 13.0911 75.1585 13.0911 76.3635C13.0911 77.5684 14.0679 78.5453 15.2729 78.5453Z" fill="#0E1111"/>
<path d="M34.9095 74.1816H30.5458V76.3635C30.5458 76.9421 30.7757 77.4971 31.1849 77.9062C31.594 78.3154 32.149 78.5453 32.7276 78.5453C33.3063 78.5453 33.8612 78.3154 34.2704 77.9062C34.6796 77.4971 34.9095 76.9421 34.9095 76.3635" fill="#0E1111"/>
<path d="M52.3639 78.5449V74.1813H50.1821C49.6034 74.1813 49.0485 74.4112 48.6393 74.8203C48.2302 75.2295 48.0003 75.7844 48.0003 76.3631C48.0003 76.9418 48.2302 77.4967 48.6393 77.9059C49.0485 78.3151 49.6034 78.5449 50.1821 78.5449" fill="#0E1111"/>
<path d="M52.3639 74.1816V78.5453H54.5457C55.1244 78.5453 55.6794 78.3154 56.0885 77.9062C56.4977 77.4971 56.7276 76.9421 56.7276 76.3635C56.7276 75.7848 56.4977 75.2298 56.0885 74.8207C55.6794 74.4115 55.1244 74.1816 54.5457 74.1816" fill="#0E1111"/>
<path d="M65.4548 78.5449H69.8184V74.1813H67.6366C67.0579 74.1813 66.503 74.4112 66.0938 74.8203C65.6846 75.2295 65.4548 75.7844 65.4548 76.3631" fill="#0E1111"/>
<path d="M74.182 74.1816H69.8184V78.5453H74.182V74.1816Z" fill="#0E1111"/>
<path d="M74.182 74.1816V78.5453H76.3638C76.9425 78.5453 77.4974 78.3154 77.9066 77.9062C78.3158 77.4971 78.5456 76.9421 78.5456 76.3635C78.5456 75.7848 78.3158 75.2298 77.9066 74.8207C77.4974 74.4115 76.9425 74.1816 76.3638 74.1816" fill="#0E1111"/>
<path d="M87.2729 78.5449V74.1813H82.9092V76.3631C82.9092 76.9418 83.1391 77.4967 83.5483 77.9059C83.9574 78.3151 84.5124 78.5449 85.091 78.5449" fill="#0E1111"/>
<path d="M91.6365 74.1816H87.2729V78.5453H91.6365V74.1816Z" fill="#0E1111"/>
<path d="M96.0001 74.1816H91.6365V78.5453H96.0001V74.1816Z" fill="#0E1111"/>
<path d="M100.364 74.1816H96.0001V78.5453H98.1819C98.7605 78.5453 99.3155 78.3154 99.7247 77.9062C100.134 77.4971 100.364 76.9421 100.364 76.3635" fill="#0E1111"/>
<path d="M109.091 78.5449V74.1813H104.727V76.3631C104.727 76.9418 104.957 77.4967 105.366 77.9059C105.776 78.3151 106.33 78.5449 106.909 78.5449" fill="#0E1111"/>
<path d="M109.091 74.1816V78.5453H111.273C111.851 78.5453 112.406 78.3154 112.816 77.9062C113.225 77.4971 113.455 76.9421 113.455 76.3635C113.455 75.7848 113.225 75.2298 112.816 74.8207C112.406 74.4115 111.851 74.1816 111.273 74.1816" fill="#0E1111"/>
<path d="M120 78.5453C121.205 78.5453 122.182 77.5684 122.182 76.3635C122.182 75.1585 121.205 74.1816 120 74.1816C118.795 74.1816 117.818 75.1585 117.818 76.3635C117.818 77.5684 118.795 78.5453 120 78.5453Z" fill="#0E1111"/>
<path d="M135.273 74.1816H130.909V76.3635C130.909 76.9421 131.139 77.4971 131.548 77.9062C131.958 78.3154 132.512 78.5453 133.091 78.5453C133.67 78.5453 134.225 78.3154 134.634 77.9062C135.043 77.4971 135.273 76.9421 135.273 76.3635" fill="#0E1111"/>
<path d="M17.4547 82.9082H21.8183V78.5446H19.6365C19.0578 78.5446 18.5029 78.7744 18.0937 79.1836C17.6845 79.5928 17.4547 80.1477 17.4547 80.7264" fill="#0E1111"/>
<path d="M26.1819 78.5449H21.8183V82.9086H26.1819V78.5449Z" fill="#0E1111"/>
<path d="M26.1819 78.5449V82.9086H30.5456V80.7267C30.5456 80.1481 30.3157 79.5931 29.9065 79.184C29.4973 78.7748 28.9424 78.5449 28.3637 78.5449" fill="#0E1111"/>
<path d="M37.0913 82.9086C38.2963 82.9086 39.2731 81.9317 39.2731 80.7267C39.2731 79.5218 38.2963 78.5449 37.0913 78.5449C35.8863 78.5449 34.9095 79.5218 34.9095 80.7267C34.9095 81.9317 35.8863 82.9086 37.0913 82.9086Z" fill="#0E1111"/>
<path d="M65.4548 82.9082V78.5446H63.273C62.6943 78.5446 62.1393 78.7744 61.7302 79.1836C61.321 79.5928 61.0911 80.1477 61.0911 80.7264C61.0911 81.305 61.321 81.86 61.7302 82.2692C62.1393 82.6783 62.6943 82.9082 63.273 82.9082" fill="#0E1111"/>
<path d="M69.8184 78.5449H65.4548V82.9086H69.8184V78.5449Z" fill="#0E1111"/>
<path d="M74.182 78.5449H69.8184V82.9086H72.0002C72.5788 82.9086 73.1338 82.6787 73.543 82.2695C73.9521 81.8604 74.182 81.3054 74.182 80.7267" fill="#0E1111"/>
<path d="M91.6365 82.9082V78.5446H87.2728V80.7264C87.2728 81.305 87.5027 81.86 87.9119 82.2692C88.3211 82.6783 88.876 82.9082 89.4547 82.9082" fill="#0E1111"/>
<path d="M96.0001 78.5449H91.6365V82.9086H96.0001V78.5449Z" fill="#0E1111"/>
<path d="M113.455 82.9082H117.819V80.7264C117.819 80.1477 117.589 79.5928 117.179 79.1836C116.77 78.7744 116.215 78.5446 115.637 78.5446C115.058 78.5446 114.503 78.7744 114.094 79.1836C113.685 79.5928 113.455 80.1477 113.455 80.7264" fill="#0E1111"/>
<path d="M10.9093 87.2718C12.1143 87.2718 13.0911 86.295 13.0911 85.09C13.0911 83.885 12.1143 82.9082 10.9093 82.9082C9.70428 82.9082 8.72745 83.885 8.72745 85.09C8.72745 86.295 9.70428 87.2718 10.9093 87.2718Z" fill="#0E1111"/>
<path d="M21.8183 82.9082H17.4547V87.2718H21.8183V82.9082Z" fill="#0E1111"/>
<path d="M30.5455 82.9082H26.1819V85.09C26.1819 85.6687 26.4118 86.2236 26.8209 86.6328C27.2301 87.042 27.7851 87.2718 28.3637 87.2718C28.9424 87.2718 29.4973 87.042 29.9065 86.6328C30.3157 86.2236 30.5455 85.6687 30.5455 85.09" fill="#0E1111"/>
<path d="M39.2728 87.2725H43.6364V82.9088H41.4546C40.8759 82.9088 40.321 83.1387 39.9118 83.5479C39.5026 83.957 39.2728 84.512 39.2728 85.0906" fill="#0E1111"/>
<path d="M43.6367 82.9082V87.2718H45.8185C46.3972 87.2718 46.9521 87.042 47.3613 86.6328C47.7705 86.2236 48.0003 85.6687 48.0003 85.09C48.0003 84.5114 47.7705 83.9564 47.3613 83.5472C46.9521 83.1381 46.3972 82.9082 45.8185 82.9082" fill="#0E1111"/>
<path d="M58.9094 87.2718C60.1143 87.2718 61.0912 86.295 61.0912 85.09C61.0912 83.885 60.1143 82.9082 58.9094 82.9082C57.7044 82.9082 56.7275 83.885 56.7275 85.09C56.7275 86.295 57.7044 87.2718 58.9094 87.2718Z" fill="#0E1111"/>
<path d="M78.5456 87.2725H82.9093V85.0906C82.9093 84.512 82.6794 83.957 82.2702 83.5479C81.861 83.1387 81.3061 82.9088 80.7274 82.9088C80.1488 82.9088 79.5938 83.1387 79.1847 83.5479C78.7755 83.957 78.5456 84.512 78.5456 85.0906" fill="#0E1111"/>
<path d="M96.0001 87.2725V82.9088H91.6365V85.0906C91.6365 85.6693 91.8663 86.2242 92.2755 86.6334C92.6847 87.0426 93.2396 87.2725 93.8183 87.2725" fill="#0E1111"/>
<path d="M100.364 82.9082H96.0001V87.2718H100.364V82.9082Z" fill="#0E1111"/>
<path d="M100.364 82.9082V87.2718H102.546C103.124 87.2718 103.679 87.042 104.088 86.6328C104.497 86.2236 104.727 85.6687 104.727 85.09C104.727 84.5114 104.497 83.9564 104.088 83.5472C103.679 83.1381 103.124 82.9082 102.546 82.9082" fill="#0E1111"/>
<path d="M117.818 87.2725V82.9088H113.455V85.0906C113.455 85.6693 113.685 86.2242 114.094 86.6334C114.503 87.0426 115.058 87.2725 115.637 87.2725" fill="#0E1111"/>
<path d="M122.182 82.9082H117.818V87.2718H122.182V82.9082Z" fill="#0E1111"/>
<path d="M122.182 82.9082V87.2718H126.546V85.09C126.546 84.5114 126.316 83.9564 125.907 83.5472C125.498 83.1381 124.943 82.9082 124.364 82.9082" fill="#0E1111"/>
<path d="M130.909 87.2725H135.273V85.0906C135.273 84.512 135.043 83.957 134.634 83.5479C134.225 83.1387 133.67 82.9088 133.091 82.9088C132.513 82.9088 131.958 83.1387 131.548 83.5479C131.139 83.957 130.909 84.512 130.909 85.0906" fill="#0E1111"/>
<path d="M21.8183 87.2725H17.4547V91.6361H21.8183V87.2725Z" fill="#0E1111"/>
<path d="M21.8183 87.2725V91.6361H24.0001C24.5788 91.6361 25.1337 91.4062 25.5429 90.9971C25.9521 90.5879 26.1819 90.0329 26.1819 89.4543C26.1819 88.8756 25.9521 88.3207 25.5429 87.9115C25.1337 87.5023 24.5788 87.2725 24.0001 87.2725" fill="#0E1111"/>
<path d="M30.5455 91.6357H34.9092V87.2721H32.7274C32.1487 87.2721 31.5937 87.502 31.1846 87.9111C30.7754 88.3203 30.5455 88.8753 30.5455 89.4539" fill="#0E1111"/>
<path d="M39.2731 87.2725H34.9095V91.6361H39.2731V87.2725Z" fill="#0E1111"/>
<path d="M43.6364 87.2725H39.2728V91.6361H43.6364V87.2725Z" fill="#0E1111"/>
<path d="M52.3639 91.6357H56.7276V89.4539C56.7276 88.8753 56.4977 88.3203 56.0885 87.9111C55.6793 87.502 55.1244 87.2721 54.5457 87.2721C53.9671 87.2721 53.4121 87.502 53.003 87.9111C52.5938 88.3203 52.3639 88.8753 52.3639 89.4539" fill="#0E1111"/>
<path d="M61.0912 91.6357H65.4548V89.4539C65.4548 88.8753 65.2249 88.3203 64.8157 87.9111C64.4066 87.502 63.8516 87.2721 63.273 87.2721C62.6943 87.2721 62.1394 87.502 61.7302 87.9111C61.321 88.3203 61.0912 88.8753 61.0912 89.4539" fill="#0E1111"/>
<path d="M82.9092 87.2725H78.5456V89.4543C78.5456 90.0329 78.7755 90.5879 79.1846 90.9971C79.5938 91.4062 80.1488 91.6361 80.7274 91.6361C81.3061 91.6361 81.861 91.4062 82.2702 90.9971C82.6794 90.5879 82.9092 90.0329 82.9092 89.4543" fill="#0E1111"/>
<path d="M89.4547 91.6361C90.6597 91.6361 91.6365 90.6593 91.6365 89.4543C91.6365 88.2493 90.6597 87.2725 89.4547 87.2725C88.2497 87.2725 87.2729 88.2493 87.2729 89.4543C87.2729 90.6593 88.2497 91.6361 89.4547 91.6361Z" fill="#0E1111"/>
<path d="M100.364 87.2725H96.0001V89.4543C96.0001 90.0329 96.2299 90.5879 96.6391 90.9971C97.0483 91.4062 97.6032 91.6361 98.1819 91.6361C98.7605 91.6361 99.3155 91.4062 99.7247 90.9971C100.134 90.5879 100.364 90.0329 100.364 89.4543" fill="#0E1111"/>
<path d="M122.182 87.2725H117.818V91.6361H122.182V87.2725Z" fill="#0E1111"/>
<path d="M126.546 87.2725H122.182V91.6361H124.364C124.943 91.6361 125.498 91.4062 125.907 90.9971C126.316 90.5879 126.546 90.0329 126.546 89.4543" fill="#0E1111"/>
<path d="M135.273 87.2725H130.909V91.6361H135.273V87.2725Z" fill="#0E1111"/>
<path d="M21.8183 91.6357H17.4547V95.9994H21.8183V91.6357Z" fill="#0E1111"/>
<path d="M34.9095 91.6357H30.5458V93.8176C30.5458 94.3962 30.7757 94.9512 31.1849 95.3603C31.594 95.7695 32.149 95.9994 32.7276 95.9994C33.3063 95.9994 33.8612 95.7695 34.2704 95.3603C34.6796 94.9512 34.9095 94.3962 34.9095 93.8176" fill="#0E1111"/>
<path d="M43.6367 91.6357H39.2731V93.8176C39.2731 94.3962 39.5029 94.9512 39.9121 95.3603C40.3213 95.7695 40.8762 95.9994 41.4549 95.9994C42.0335 95.9994 42.5885 95.7695 42.9976 95.3603C43.4068 94.9512 43.6367 94.3962 43.6367 93.8176" fill="#0E1111"/>
<path d="M48.0003 96H52.3639V91.6364H50.1821C49.6035 91.6364 49.0485 91.8662 48.6393 92.2754C48.2302 92.6846 48.0003 93.2395 48.0003 93.8182" fill="#0E1111"/>
<path d="M56.7276 91.6357H52.3639V95.9994H56.7276V91.6357Z" fill="#0E1111"/>
<path d="M61.0912 91.6357H56.7275V95.9994H61.0912V91.6357Z" fill="#0E1111"/>
<path d="M65.4548 91.6357H61.0912V95.9994H65.4548V91.6357Z" fill="#0E1111"/>
<path d="M65.4548 91.6357V95.9994H67.6366C68.2152 95.9994 68.7702 95.7695 69.1794 95.3603C69.5885 94.9512 69.8184 94.3962 69.8184 93.8176C69.8184 93.2389 69.5885 92.684 69.1794 92.2748C68.7702 91.8656 68.2152 91.6357 67.6366 91.6357" fill="#0E1111"/>
<path d="M82.9092 96H87.2729V93.8182C87.2729 93.2395 87.043 92.6846 86.6338 92.2754C86.2247 91.8662 85.6697 91.6364 85.0911 91.6364C84.5124 91.6364 83.9575 91.8662 83.5483 92.2754C83.1391 92.6846 82.9092 93.2395 82.9092 93.8182" fill="#0E1111"/>
<path d="M113.455 96H117.819V91.6364H115.637C115.058 91.6364 114.503 91.8662 114.094 92.2754C113.685 92.6846 113.455 93.2395 113.455 93.8182" fill="#0E1111"/>
<path d="M122.182 91.6357H117.818V95.9994H122.182V91.6357Z" fill="#0E1111"/>
<path d="M135.273 91.6357H130.909V93.8176C130.909 94.3962 131.139 94.9512 131.548 95.3603C131.958 95.7695 132.512 95.9994 133.091 95.9994C133.67 95.9994 134.225 95.7695 134.634 95.3603C135.043 94.9512 135.273 94.3962 135.273 93.8176" fill="#0E1111"/>
<path d="M13.0911 100.363V95.9996H10.9092C10.3306 95.9996 9.77564 96.2295 9.36647 96.6387C8.9573 97.0479 8.72743 97.6028 8.72743 98.1815C8.72743 98.7601 8.9573 99.3151 9.36647 99.7242C9.77564 100.133 10.3306 100.363 10.9092 100.363" fill="#0E1111"/>
<path d="M17.4547 96H13.0911V100.364H17.4547V96Z" fill="#0E1111"/>
<path d="M21.8183 96H17.4547V100.364H19.6365C20.2151 100.364 20.7701 100.134 21.1793 99.7246C21.5884 99.3154 21.8183 98.7605 21.8183 98.1818" fill="#0E1111"/>
<path d="M28.3637 100.364C29.5687 100.364 30.5456 99.3868 30.5456 98.1818C30.5456 96.9768 29.5687 96 28.3637 96C27.1587 96 26.1819 96.9768 26.1819 98.1818C26.1819 99.3868 27.1587 100.364 28.3637 100.364Z" fill="#0E1111"/>
<path d="M37.0913 100.364C38.2963 100.364 39.2731 99.3868 39.2731 98.1818C39.2731 96.9768 38.2963 96 37.0913 96C35.8863 96 34.9095 96.9768 34.9095 98.1818C34.9095 99.3868 35.8863 100.364 37.0913 100.364Z" fill="#0E1111"/>
<path d="M52.3639 100.363V95.9996H48.0003V98.1815C48.0003 98.7601 48.2302 99.3151 48.6393 99.7242C49.0485 100.133 49.6034 100.363 50.1821 100.363" fill="#0E1111"/>
<path d="M56.7276 96H52.3639V100.364H56.7276V96Z" fill="#0E1111"/>
<path d="M61.0912 96H56.7275V100.364H61.0912V96Z" fill="#0E1111"/>
<path d="M65.4548 96H61.0912V100.364H65.4548V96Z" fill="#0E1111"/>
<path d="M69.8184 100.363H74.182V95.9996H72.0002C71.4216 95.9996 70.8666 96.2295 70.4574 96.6387C70.0483 97.0479 69.8184 97.6028 69.8184 98.1815" fill="#0E1111"/>
<path d="M74.182 96V100.364H78.5456V98.1818C78.5456 97.6032 78.3158 97.0482 77.9066 96.639C77.4974 96.2299 76.9425 96 76.3638 96" fill="#0E1111"/>
<path d="M87.2729 96H82.9092V100.364H87.2729V96Z" fill="#0E1111"/>
<path d="M96.0001 100.363V95.9996H93.8183C93.2396 95.9996 92.6847 96.2295 92.2755 96.6387C91.8663 97.0479 91.6365 97.6028 91.6365 98.1815C91.6365 98.7601 91.8663 99.3151 92.2755 99.7242C92.6847 100.133 93.2396 100.363 93.8183 100.363" fill="#0E1111"/>
<path d="M100.364 96H96.0001V100.364H100.364V96Z" fill="#0E1111"/>
<path d="M104.727 96H100.364V100.364H104.727V96Z" fill="#0E1111"/>
<path d="M109.091 96H104.727V100.364H109.091V96Z" fill="#0E1111"/>
<path d="M113.455 96H109.091V100.364H113.455V96Z" fill="#0E1111"/>
<path d="M117.819 96H113.455V100.364H117.819V96Z" fill="#0E1111"/>
<path d="M122.182 96H117.818V100.364H120C120.579 100.364 121.134 100.134 121.543 99.7246C121.952 99.3154 122.182 98.7605 122.182 98.1818" fill="#0E1111"/>
<path d="M128.728 100.364C129.933 100.364 130.909 99.3868 130.909 98.1818C130.909 96.9768 129.933 96 128.728 96C127.523 96 126.546 96.9768 126.546 98.1818C126.546 99.3868 127.523 100.364 128.728 100.364Z" fill="#0E1111"/>
<path d="M45.8185 104.727C47.0235 104.727 48.0003 103.75 48.0003 102.545C48.0003 101.34 47.0235 100.363 45.8185 100.363C44.6135 100.363 43.6367 101.34 43.6367 102.545C43.6367 103.75 44.6135 104.727 45.8185 104.727Z" fill="#0E1111"/>
<path d="M61.0912 104.727V100.363H56.7275V102.545C56.7275 103.123 56.9574 103.678 57.3666 104.088C57.7757 104.497 58.3307 104.727 58.9093 104.727" fill="#0E1111"/>
<path d="M65.4548 100.363H61.0911V104.727H63.273C63.8516 104.727 64.4066 104.497 64.8157 104.088C65.2249 103.679 65.4548 103.124 65.4548 102.545" fill="#0E1111"/>
<path d="M74.182 104.727V100.363H69.8184V102.545C69.8184 103.123 70.0482 103.678 70.4574 104.088C70.8666 104.497 71.4215 104.727 72.0002 104.727" fill="#0E1111"/>
<path d="M78.5456 100.363H74.182V104.727H78.5456V100.363Z" fill="#0E1111"/>
<path d="M82.9093 100.363H78.5456V104.727H82.9093V100.363Z" fill="#0E1111"/>
<path d="M87.2729 100.363H82.9092V104.727H87.2729V100.363Z" fill="#0E1111"/>
<path d="M87.2729 100.363V104.727H91.6365V102.545C91.6365 101.966 91.4066 101.411 90.9975 101.002C90.5883 100.593 90.0333 100.363 89.4547 100.363" fill="#0E1111"/>
<path d="M100.364 100.363H96.0001V104.727H100.364V100.363Z" fill="#0E1111"/>
<path d="M117.819 100.363H113.455V104.727H117.819V100.363Z" fill="#0E1111"/>
<path d="M124.364 104.727C125.569 104.727 126.546 103.75 126.546 102.545C126.546 101.34 125.569 100.363 124.364 100.363C123.159 100.363 122.182 101.34 122.182 102.545C122.182 103.75 123.159 104.727 124.364 104.727Z" fill="#0E1111"/>
<path d="M130.909 104.727H135.273V102.545C135.273 101.966 135.043 101.411 134.634 101.002C134.225 100.593 133.67 100.363 133.091 100.363C132.513 100.363 131.958 100.593 131.548 101.002C131.139 101.411 130.909 101.966 130.909 102.545" fill="#0E1111"/>
<path d="M52.3639 109.091V104.727H50.1821C49.6034 104.727 49.0485 104.957 48.6393 105.366C48.2302 105.775 48.0003 106.33 48.0003 106.909C48.0003 107.488 48.2302 108.043 48.6393 108.452C49.0485 108.861 49.6034 109.091 50.1821 109.091" fill="#0E1111"/>
<path d="M52.3639 104.727V109.09H56.7276V106.908C56.7276 106.33 56.4977 105.775 56.0885 105.366C55.6794 104.956 55.1244 104.727 54.5457 104.727" fill="#0E1111"/>
<path d="M65.4548 109.091H69.8184V106.909C69.8184 106.33 69.5885 105.775 69.1794 105.366C68.7702 104.957 68.2152 104.727 67.6366 104.727C67.0579 104.727 66.503 104.957 66.0938 105.366C65.6846 105.775 65.4548 106.33 65.4548 106.909" fill="#0E1111"/>
<path d="M78.5456 104.727H74.182V106.908C74.182 107.487 74.4119 108.042 74.821 108.451C75.2302 108.86 75.7852 109.09 76.3638 109.09C76.9425 109.09 77.4974 108.86 77.9066 108.451C78.3158 108.042 78.5456 107.487 78.5456 106.908" fill="#0E1111"/>
<path d="M91.6365 109.091V104.727H87.2728V106.909C87.2728 107.488 87.5027 108.043 87.9119 108.452C88.3211 108.861 88.876 109.091 89.4547 109.091" fill="#0E1111"/>
<path d="M96.0001 104.727H91.6365V109.09H96.0001V104.727Z" fill="#0E1111"/>
<path d="M100.364 104.727H96.0001V109.09H100.364V104.727Z" fill="#0E1111"/>
<path d="M106.909 109.09C108.114 109.09 109.091 108.113 109.091 106.908C109.091 105.703 108.114 104.727 106.909 104.727C105.704 104.727 104.727 105.703 104.727 106.908C104.727 108.113 105.704 109.09 106.909 109.09Z" fill="#0E1111"/>
<path d="M117.819 104.727H113.455V109.09H117.819V104.727Z" fill="#0E1111"/>
<path d="M135.273 104.727H130.909V109.09H135.273V104.727Z" fill="#0E1111"/>
<path d="M56.7275 113.454V109.09H52.3639V111.272C52.3639 111.851 52.5938 112.406 53.0029 112.815C53.4121 113.224 53.9671 113.454 54.5457 113.454" fill="#0E1111"/>
<path d="M56.7275 109.091V113.454H61.0912V111.273C61.0912 110.694 60.8613 110.139 60.4521 109.73C60.043 109.321 59.488 109.091 58.9094 109.091" fill="#0E1111"/>
<path d="M69.8184 109.091H65.4548V113.454H69.8184V109.091Z" fill="#0E1111"/>
<path d="M96.0001 109.091H91.6365V113.454H96.0001V109.091Z" fill="#0E1111"/>
<path d="M100.364 109.091H96.0001V113.454H100.364V109.091Z" fill="#0E1111"/>
<path d="M117.819 109.091H113.455V113.454H117.819V109.091Z" fill="#0E1111"/>
<path d="M117.818 109.091V113.454H120C120.579 113.454 121.134 113.225 121.543 112.815C121.952 112.406 122.182 111.851 122.182 111.273C122.182 110.694 121.952 110.139 121.543 109.73C121.134 109.321 120.579 109.091 120 109.091" fill="#0E1111"/>
<path d="M135.273 109.091H130.909V113.454H135.273V109.091Z" fill="#0E1111"/>
<path d="M48.0003 117.817V113.454H45.8185C45.2398 113.454 44.6849 113.684 44.2757 114.093C43.8665 114.502 43.6367 115.057 43.6367 115.636C43.6367 116.214 43.8665 116.769 44.2757 117.178C44.6849 117.588 45.2398 117.817 45.8185 117.817" fill="#0E1111"/>
<path d="M48.0003 113.454V117.818H50.1821C50.7608 117.818 51.3157 117.588 51.7249 117.179C52.1341 116.77 52.3639 116.215 52.3639 115.636C52.3639 115.057 52.1341 114.502 51.7249 114.093C51.3157 113.684 50.7608 113.454 50.1821 113.454" fill="#0E1111"/>
<path d="M61.0912 117.817V113.454H56.7275V115.636C56.7275 116.214 56.9574 116.769 57.3666 117.178C57.7757 117.588 58.3307 117.817 58.9093 117.817" fill="#0E1111"/>
<path d="M65.4548 113.454H61.0912V117.818H65.4548V113.454Z" fill="#0E1111"/>
<path d="M69.8184 113.454H65.4548V117.818H69.8184V113.454Z" fill="#0E1111"/>
<path d="M69.8184 113.454V117.818H72.0002C72.5789 117.818 73.1338 117.588 73.543 117.179C73.9522 116.77 74.182 116.215 74.182 115.636C74.182 115.057 73.9522 114.502 73.543 114.093C73.1338 113.684 72.5789 113.454 72.0002 113.454" fill="#0E1111"/>
<path d="M80.7274 117.818C81.9324 117.818 82.9093 116.841 82.9093 115.636C82.9093 114.431 81.9324 113.454 80.7274 113.454C79.5225 113.454 78.5456 114.431 78.5456 115.636C78.5456 116.841 79.5225 117.818 80.7274 117.818Z" fill="#0E1111"/>
<path d="M96.0001 117.817V113.454H91.6365V115.636C91.6365 116.214 91.8663 116.769 92.2755 117.178C92.6847 117.588 93.2396 117.817 93.8183 117.817" fill="#0E1111"/>
<path d="M100.364 113.454H96.0001V117.818H100.364V113.454Z" fill="#0E1111"/>
<path d="M104.727 113.454H100.364V117.818H104.727V113.454Z" fill="#0E1111"/>
<path d="M109.091 113.454H104.727V117.818H109.091V113.454Z" fill="#0E1111"/>
<path d="M113.455 113.454H109.091V117.818H113.455V113.454Z" fill="#0E1111"/>
<path d="M117.818 113.454H113.455V117.818H115.637C116.215 117.818 116.77 117.588 117.179 117.179C117.589 116.77 117.818 116.215 117.818 115.636" fill="#0E1111"/>
<path d="M126.546 117.817H130.909V113.454H128.728C128.149 113.454 127.594 113.684 127.185 114.093C126.776 114.502 126.546 115.057 126.546 115.636" fill="#0E1111"/>
<path d="M135.273 113.454H130.909V117.818H133.091C133.67 117.818 134.225 117.588 134.634 117.179C135.043 116.77 135.273 116.215 135.273 115.636" fill="#0E1111"/>
<path d="M82.9092 122.182H87.2729V117.818H85.0911C84.5124 117.818 83.9575 118.048 83.5483 118.457C83.1391 118.866 82.9092 119.421 82.9092 120" fill="#0E1111"/>
<path d="M87.2729 117.817V122.181H89.4547C90.0333 122.181 90.5883 121.951 90.9975 121.542C91.4066 121.133 91.6365 120.578 91.6365 119.999C91.6365 119.421 91.4066 118.866 90.9975 118.456C90.5883 118.047 90.0333 117.817 89.4547 117.817" fill="#0E1111"/>
<path d="M113.455 117.817H109.091V119.999C109.091 120.578 109.321 121.133 109.73 121.542C110.139 121.951 110.694 122.181 111.273 122.181C111.852 122.181 112.407 121.951 112.816 121.542C113.225 121.133 113.455 120.578 113.455 119.999" fill="#0E1111"/>
<path d="M130.909 117.817H126.546V122.181H130.909V117.817Z" fill="#0E1111"/>
<path d="M58.9094 126.545C60.1143 126.545 61.0912 125.568 61.0912 124.363C61.0912 123.158 60.1143 122.182 58.9094 122.182C57.7044 122.182 56.7275 123.158 56.7275 124.363C56.7275 125.568 57.7044 126.545 58.9094 126.545Z" fill="#0E1111"/>
<path d="M69.8184 126.545V122.181H67.6366C67.0579 122.181 66.503 122.411 66.0938 122.82C65.6846 123.229 65.4548 123.784 65.4548 124.363C65.4548 124.942 65.6846 125.497 66.0938 125.906C66.503 126.315 67.0579 126.545 67.6366 126.545" fill="#0E1111"/>
<path d="M74.182 122.182H69.8184V126.545H74.182V122.182Z" fill="#0E1111"/>
<path d="M74.182 122.182V126.545H78.5456V124.363C78.5456 123.785 78.3158 123.23 77.9066 122.821C77.4974 122.412 76.9425 122.182 76.3638 122.182" fill="#0E1111"/>
<path d="M87.2729 122.182H82.9092V126.545H87.2729V122.182Z" fill="#0E1111"/>
<path d="M96.0001 126.545V122.181H93.8183C93.2396 122.181 92.6847 122.411 92.2755 122.82C91.8663 123.229 91.6365 123.784 91.6365 124.363C91.6365 124.942 91.8663 125.497 92.2755 125.906C92.6847 126.315 93.2396 126.545 93.8183 126.545" fill="#0E1111"/>
<path d="M100.364 122.182H96.0001V126.545H100.364V122.182Z" fill="#0E1111"/>
<path d="M100.364 122.182V126.545H102.546C103.124 126.545 103.679 126.315 104.088 125.906C104.497 125.497 104.727 124.942 104.727 124.363C104.727 123.785 104.497 123.23 104.088 122.821C103.679 122.412 103.124 122.182 102.546 122.182" fill="#0E1111"/>
<path d="M117.818 126.545H122.182V122.181H120C119.422 122.181 118.867 122.411 118.458 122.82C118.048 123.229 117.818 123.784 117.818 124.363" fill="#0E1111"/>
<path d="M126.546 122.182H122.182V126.545H126.546V122.182Z" fill="#0E1111"/>
<path d="M130.909 122.182H126.546V126.545H130.909V122.182Z" fill="#0E1111"/>
<path d="M130.909 122.182V126.545H135.273V124.363C135.273 123.785 135.043 123.23 134.634 122.821C134.225 122.412 133.67 122.182 133.091 122.182" fill="#0E1111"/>
<path d="M45.8185 130.909C47.0235 130.909 48.0003 129.932 48.0003 128.727C48.0003 127.522 47.0235 126.545 45.8185 126.545C44.6135 126.545 43.6367 127.522 43.6367 128.727C43.6367 129.932 44.6135 130.909 45.8185 130.909Z" fill="#0E1111"/>
<path d="M52.3639 130.908H56.7276V128.726C56.7276 128.148 56.4977 127.593 56.0885 127.184C55.6793 126.774 55.1244 126.545 54.5457 126.545C53.9671 126.545 53.4121 126.774 53.003 127.184C52.5938 127.593 52.3639 128.148 52.3639 128.726" fill="#0E1111"/>
<path d="M78.5456 130.908V126.545H74.182V128.726C74.182 129.305 74.4119 129.86 74.821 130.269C75.2302 130.678 75.7852 130.908 76.3638 130.908" fill="#0E1111"/>
<path d="M82.9093 126.545H78.5456V130.909H82.9093V126.545Z" fill="#0E1111"/>
<path d="M87.2729 126.545H82.9092V130.909H87.2729V126.545Z" fill="#0E1111"/>
<path d="M87.2729 126.545V130.909H89.4547C90.0333 130.909 90.5883 130.679 90.9975 130.27C91.4066 129.86 91.6365 129.305 91.6365 128.727C91.6365 128.148 91.4066 127.593 90.9975 127.184C90.5883 126.775 90.0333 126.545 89.4547 126.545" fill="#0E1111"/>
<path d="M111.273 130.909C112.478 130.909 113.455 129.932 113.455 128.727C113.455 127.522 112.478 126.545 111.273 126.545C110.068 126.545 109.091 127.522 109.091 128.727C109.091 129.932 110.068 130.909 111.273 130.909Z" fill="#0E1111"/>
<path d="M122.182 126.545H117.818V130.909H122.182V126.545Z" fill="#0E1111"/>
<path d="M130.909 126.545H126.546V130.909H130.909V126.545Z" fill="#0E1111"/>
<path d="M135.273 126.545H130.909V130.909H133.091C133.67 130.909 134.225 130.679 134.634 130.27C135.043 129.86 135.273 129.305 135.273 128.727" fill="#0E1111"/>
<path d="M52.3639 135.272V130.909H50.1821C49.6034 130.909 49.0485 131.139 48.6393 131.548C48.2302 131.957 48.0003 132.512 48.0003 133.091C48.0003 133.669 48.2302 134.224 48.6393 134.633C49.0485 135.043 49.6034 135.272 50.1821 135.272" fill="#0E1111"/>
<path d="M56.7276 130.908H52.3639V135.272H56.7276V130.908Z" fill="#0E1111"/>
<path d="M61.0912 130.908H56.7275V135.272H61.0912V130.908Z" fill="#0E1111"/>
<path d="M65.4548 130.908H61.0912V135.272H65.4548V130.908Z" fill="#0E1111"/>
<path d="M65.4548 130.908V135.272H67.6366C68.2152 135.272 68.7702 135.042 69.1794 134.633C69.5885 134.224 69.8184 133.669 69.8184 133.09C69.8184 132.511 69.5885 131.956 69.1794 131.547C68.7702 131.138 68.2152 130.908 67.6366 130.908" fill="#0E1111"/>
<path d="M87.2729 130.908H82.9092V133.09C82.9092 133.669 83.1391 134.224 83.5483 134.633C83.9574 135.042 84.5124 135.272 85.091 135.272C85.6697 135.272 86.2246 135.042 86.6338 134.633C87.043 134.224 87.2729 133.669 87.2729 133.09" fill="#0E1111"/>
<path d="M106.909 135.272C108.114 135.272 109.091 134.295 109.091 133.09C109.091 131.885 108.114 130.908 106.909 130.908C105.704 130.908 104.727 131.885 104.727 133.09C104.727 134.295 105.704 135.272 106.909 135.272Z" fill="#0E1111"/>
<path d="M117.818 135.272V130.909H115.637C115.058 130.909 114.503 131.139 114.094 131.548C113.685 131.957 113.455 132.512 113.455 133.091C113.455 133.669 113.685 134.224 114.094 134.633C114.503 135.043 115.058 135.272 115.637 135.272" fill="#0E1111"/>
<path d="M122.182 130.908H117.818V135.272H120C120.579 135.272 121.134 135.042 121.543 134.633C121.952 134.224 122.182 133.669 122.182 133.09" fill="#0E1111"/>
<path d="M130.909 130.908H126.546V133.09C126.546 133.669 126.776 134.224 127.185 134.633C127.594 135.042 128.149 135.272 128.728 135.272C129.306 135.272 129.861 135.042 130.27 134.633C130.679 134.224 130.909 133.669 130.909 133.09" fill="#0E1111"/>
</g>
<defs>
<clipPath id="clip0_529_18680">
<rect width="144" height="144" fill="white"/>
</clipPath>
</defs>
</svg>
