<svg width="54" height="54" viewBox="0 0 54 54" fill="none" xmlns="http://www.w3.org/2000/svg">
<g clip-path="url(#clip0_812_40664)">
<mask id="path-1-inside-1_812_40664" fill="white">
<path d="M0 27C0 12.0883 12.0883 0 27 0C41.9117 0 54 12.0883 54 27C54 41.9117 41.9117 54 27 54C12.0883 54 0 41.9117 0 27Z"/>
</mask>
<path d="M45.0352 0H8.96484C4.0137 0 0 4.11003 0 9.18V44.7336C0 49.8036 4.0137 53.9136 8.96484 53.9136H45.0352C49.9863 53.9136 54 49.8036 54 44.7336V9.18C54 4.11003 49.9863 0 45.0352 0Z" fill="white"/>
<g clip-path="url(#clip1_812_40664)">
<path fill-rule="evenodd" clip-rule="evenodd" d="M12.8584 13.8593C12.8597 14.1075 12.9099 14.353 13.0061 14.5818C13.1023 14.8106 13.2427 15.0182 13.4191 15.1927C13.5955 15.3673 13.8046 15.5054 14.0344 15.5991C14.2642 15.6928 14.5102 15.7404 14.7584 15.7391H30.5056C35.704 15.3869 38.8909 22.0167 34.9389 25.5304C33.7787 26.5235 32.3009 27.0192 30.5056 27.0175H23.6656C23.4128 27.0082 23.1607 27.05 22.9244 27.1403C22.688 27.2307 22.4724 27.3677 22.2902 27.5433C22.1081 27.7189 21.9632 27.9294 21.8642 28.1622C21.7653 28.3951 21.7143 28.6455 21.7143 28.8985C21.7143 29.1515 21.7653 29.4019 21.8642 29.6347C21.9632 29.8675 22.1081 30.078 22.2902 30.2536C22.4724 30.4292 22.688 30.5663 22.9244 30.6566C23.1607 30.747 23.4128 30.7888 23.6656 30.7795C23.9037 30.7795 31.2833 30.7795 31.2225 30.7795L38.0296 41.5867C38.2116 41.8928 38.4718 42.1449 38.7834 42.3172C39.0951 42.4895 39.4469 42.5757 39.8029 42.5671C41.5383 42.6253 42.3363 40.8241 41.3863 39.4333L35.3316 29.8067C44.7809 25.3708 40.7884 11.5819 30.5005 11.9872H14.7584C14.2587 11.9852 13.7784 12.1809 13.4225 12.5316C13.0665 12.8823 12.8637 13.3596 12.8584 13.8593Z" fill="#0638BD"/>
</g>
</g>
<path d="M27 52C13.1929 52 2 40.8071 2 27H-2C-2 43.0163 10.9837 56 27 56V52ZM52 27C52 40.8071 40.8071 52 27 52V56C43.0163 56 56 43.0163 56 27H52ZM27 2C40.8071 2 52 13.1929 52 27H56C56 10.9837 43.0163 -2 27 -2V2ZM27 -2C10.9837 -2 -2 10.9837 -2 27H2C2 13.1929 13.1929 2 27 2V-2Z" fill="#E1E1E1" mask="url(#path-1-inside-1_812_40664)"/>
<defs>
<clipPath id="clip0_812_40664">
<path d="M0 27C0 12.0883 12.0883 0 27 0C41.9117 0 54 12.0883 54 27C54 41.9117 41.9117 54 27 54C12.0883 54 0 41.9117 0 27Z" fill="white"/>
</clipPath>
<clipPath id="clip1_812_40664">
<rect width="38" height="38" fill="white" transform="translate(8 8)"/>
</clipPath>
</defs>
</svg>
