<svg width="32" height="32" viewBox="0 0 32 32" fill="none" xmlns="http://www.w3.org/2000/svg">
<path d="M5.33342 7.20131C5.33342 6.16398 6.16276 5.33464 7.20009 5.33464H16.8001C17.8374 5.33464 18.6668 6.16398 18.6668 7.20131V8.00131C18.6668 8.1764 18.7012 8.34979 18.7682 8.51155C18.8353 8.67332 18.9335 8.82031 19.0573 8.94412C19.1811 9.06793 19.3281 9.16614 19.4898 9.23315C19.6516 9.30016 19.825 9.33464 20.0001 9.33464C20.1752 9.33464 20.3486 9.30016 20.5103 9.23315C20.6721 9.16614 20.8191 9.06793 20.9429 8.94412C21.0667 8.82031 21.1649 8.67332 21.2319 8.51155C21.2989 8.34979 21.3334 8.1764 21.3334 8.00131V7.20131C21.3334 4.69198 19.3094 2.66798 16.8001 2.66798H7.20009C6.60447 2.66692 6.0145 2.78346 5.46401 3.01091C4.91353 3.23836 4.41336 3.57224 3.99219 3.99341C3.57102 4.41458 3.23714 4.91475 3.00969 5.46523C2.78224 6.01572 2.6657 6.60569 2.66676 7.20131V16.8013C2.66676 19.3106 4.69076 21.3346 7.20009 21.3346H8.00009C8.35371 21.3346 8.69285 21.1942 8.9429 20.9441C9.19295 20.6941 9.33342 20.3549 9.33342 20.0013C9.33342 19.6477 9.19295 19.3085 8.9429 19.0585C8.69285 18.8085 8.35371 18.668 8.00009 18.668H7.20009C6.16276 18.668 5.33342 17.8386 5.33342 16.8013V7.20131Z" fill="#0638BD"/>
<path d="M12 15.2C12 14.3513 12.3371 13.5374 12.9373 12.9373C13.5374 12.3371 14.3513 12 15.2 12H24.8C25.6487 12 26.4626 12.3371 27.0627 12.9373C27.6629 13.5374 28 14.3513 28 15.2V24.8C28 25.6487 27.6629 26.4626 27.0627 27.0627C26.4626 27.6629 25.6487 28 24.8 28H15.2C14.3513 28 13.5374 27.6629 12.9373 27.0627C12.3371 26.4626 12 25.6487 12 24.8V15.2Z" fill="#0638BD"/>
</svg>
