<svg width="16" height="16" viewBox="0 0 16 16" fill="none" xmlns="http://www.w3.org/2000/svg">
<g id="Q_Icon">
<path id="Vector" fill-rule="evenodd" clip-rule="evenodd" d="M12.4918 13.0079L14.3711 11.0785C14.6738 10.7677 15.1732 10.7678 15.4759 11.0785C15.7676 11.378 15.7676 11.8552 15.4759 12.1547L12.2695 15.4466C11.975 15.749 11.4875 15.7506 11.193 15.4482L7.98651 12.1562C7.69485 11.8567 7.69468 11.3795 7.98613 11.0798C8.28901 10.7684 8.78913 10.7683 9.09213 11.0796L10.9692 13.0079V1.10055C10.9692 0.680085 11.31 0.339228 11.7305 0.339228C12.151 0.339228 12.4918 0.680085 12.4918 1.10055V13.0079ZM3.50818 2.99208V14.8994C3.50818 15.3199 3.84904 15.6608 4.26951 15.6608C4.68998 15.6608 5.03083 15.3199 5.03083 14.8994V2.99208L6.91008 4.92146C7.2128 5.23225 7.71221 5.23225 8.01493 4.92146C8.30658 4.62203 8.30658 4.14475 8.01493 3.84532L4.80853 0.553395C4.51261 0.250436 4.02446 0.250019 3.72897 0.553395L0.523926 3.84527C0.232349 4.14475 0.232397 4.62199 0.524036 4.9214C0.82678 5.23222 1.32625 5.23222 1.62899 4.9214L3.50818 2.99208Z" fill="#0E1111"/>
</g>
</svg>
