<svg width="54" height="54" viewBox="0 0 54 54" fill="none" xmlns="http://www.w3.org/2000/svg">
<g clip-path="url(#clip0_812_40740)">
<mask id="path-1-inside-1_812_40740" fill="white">
<path d="M0 27C0 12.0883 12.0883 0 27 0C41.9117 0 54 12.0883 54 27C54 41.9117 41.9117 54 27 54C12.0883 54 0 41.9117 0 27Z"/>
</mask>
<path d="M45.0352 0H8.96484C4.0137 0 0 4.11003 0 9.18V44.7336C0 49.8036 4.0137 53.9136 8.96484 53.9136H45.0352C49.9863 53.9136 54 49.8036 54 44.7336V9.18C54 4.11003 49.9863 0 45.0352 0Z" fill="white"/>
<path d="M13.0232 39.742L26.6812 46L40.225 39.742V27.4543L13.0232 39.742Z" fill="#0638BD"/>
<path d="M26.6125 33.6209V21.4017L40.2249 27.477L26.6125 33.6209Z" fill="#E1E1E1"/>
<path d="M40.225 15.258L26.567 9L13.0232 15.258V27.5457L40.225 15.258Z" fill="#0638BD"/>
<path d="M26.6123 21.4017V33.6209L13 27.5456L26.6123 21.4017Z" fill="#E1E1E1"/>
</g>
<path d="M27 52C13.1929 52 2 40.8071 2 27H-2C-2 43.0163 10.9837 56 27 56V52ZM52 27C52 40.8071 40.8071 52 27 52V56C43.0163 56 56 43.0163 56 27H52ZM27 2C40.8071 2 52 13.1929 52 27H56C56 10.9837 43.0163 -2 27 -2V2ZM27 -2C10.9837 -2 -2 10.9837 -2 27H2C2 13.1929 13.1929 2 27 2V-2Z" fill="#E1E1E1" mask="url(#path-1-inside-1_812_40740)"/>
<defs>
<clipPath id="clip0_812_40740">
<path d="M0 27C0 12.0883 12.0883 0 27 0C41.9117 0 54 12.0883 54 27C54 41.9117 41.9117 54 27 54C12.0883 54 0 41.9117 0 27Z" fill="white"/>
</clipPath>
</defs>
</svg>
