<svg width="54" height="54" viewBox="0 0 54 54" fill="none" xmlns="http://www.w3.org/2000/svg">
<g clip-path="url(#clip0_812_40982)">
<mask id="path-1-inside-1_812_40982" fill="white">
<path d="M0 27C0 12.0883 12.0883 0 27 0C41.9117 0 54 12.0883 54 27C54 41.9117 41.9117 54 27 54C12.0883 54 0 41.9117 0 27Z"/>
</mask>
<path d="M45.0352 0H8.96484C4.0137 0 0 4.11003 0 9.18V44.7336C0 49.8036 4.0137 53.9136 8.96484 53.9136H45.0352C49.9863 53.9136 54 49.8036 54 44.7336V9.18C54 4.11003 49.9863 0 45.0352 0Z" fill="white"/>
<path d="M19.0057 12.31C19.1046 15.3163 21.1863 16.9862 25.3374 17.6348C28.8543 18.1866 32.0273 17.9066 33.063 14.8921C35.0809 9.01551 30.2915 10.4774 26.1425 9.82472C21.9914 9.172 18.8472 7.47944 19.0057 12.31Z" fill="#0638BD"/>
<path d="M20.2535 24.6562C20.6385 26.9006 22.7305 28.1875 25.9324 28.1011C29.1342 28.0125 31.5227 26.7627 31.8543 24.3412C32.4679 19.8586 28.9366 21.5923 25.7347 21.6788C22.5308 21.7674 19.4937 20.2519 20.2535 24.6562Z" fill="#0638BD"/>
<path d="M24.4186 34.9331C25.0548 36.6091 26.7989 37.3175 29.1565 36.813C31.5121 36.3106 33.1408 35.5302 33.009 33.6194C32.7702 30.0839 30.4414 31.1958 28.0858 31.7003C25.7281 32.2007 23.177 31.6427 24.4186 34.9331Z" fill="#0638BD"/>
<path d="M26.4412 42.7658C26.6265 44.1804 27.8496 45.0143 29.7645 44.9999C31.6836 44.9834 33.1352 44.2277 33.3823 42.7123C33.8436 39.9058 31.698 40.9497 29.781 40.9662C27.862 40.9806 26.0767 39.9902 26.4412 42.7658Z" fill="#0638BD"/>
</g>
<path d="M27 52C13.1929 52 2 40.8071 2 27H-2C-2 43.0163 10.9837 56 27 56V52ZM52 27C52 40.8071 40.8071 52 27 52V56C43.0163 56 56 43.0163 56 27H52ZM27 2C40.8071 2 52 13.1929 52 27H56C56 10.9837 43.0163 -2 27 -2V2ZM27 -2C10.9837 -2 -2 10.9837 -2 27H2C2 13.1929 13.1929 2 27 2V-2Z" fill="#E1E1E1" mask="url(#path-1-inside-1_812_40982)"/>
<defs>
<clipPath id="clip0_812_40982">
<path d="M0 27C0 12.0883 12.0883 0 27 0C41.9117 0 54 12.0883 54 27C54 41.9117 41.9117 54 27 54C12.0883 54 0 41.9117 0 27Z" fill="white"/>
</clipPath>
</defs>
</svg>
