<svg width="54" height="54" viewBox="0 0 54 54" fill="none" xmlns="http://www.w3.org/2000/svg">
<g clip-path="url(#clip0_812_40787)">
<mask id="path-1-inside-1_812_40787" fill="white">
<path d="M0 27C0 12.0883 12.0883 0 27 0C41.9117 0 54 12.0883 54 27C54 41.9117 41.9117 54 27 54C12.0883 54 0 41.9117 0 27Z"/>
</mask>
<path d="M45.0352 0H8.96484C4.0137 0 0 4.11003 0 9.18V44.7336C0 49.8036 4.0137 53.9136 8.96484 53.9136H45.0352C49.9863 53.9136 54 49.8036 54 44.7336V9.18C54 4.11003 49.9863 0 45.0352 0Z" fill="white"/>
<rect x="5" y="5" width="44" height="44" rx="22" fill="#0638BD"/>
<path d="M27 5C14.8431 5 5 14.8431 5 27C5 39.1569 14.8431 49 27 49C39.1569 49 49 39.1569 49 27C49 14.8431 39.1569 5 27 5ZM12.098 18.451L26.9608 9.86274L41.7843 18.451V26.2157L34.9608 24.0196V22.4118L26.9608 17.7843L21.0784 21.1961L41.7843 27.8235V35.5882L26.9216 44.1765L12.0588 35.6275V27.8235L18.9216 29.9804V31.5882L26.9216 36.2157L32.8823 32.7647L12.098 26.1765V18.451Z" fill="white"/>
</g>
<path d="M27 52C13.1929 52 2 40.8071 2 27H-2C-2 43.0163 10.9837 56 27 56V52ZM52 27C52 40.8071 40.8071 52 27 52V56C43.0163 56 56 43.0163 56 27H52ZM27 2C40.8071 2 52 13.1929 52 27H56C56 10.9837 43.0163 -2 27 -2V2ZM27 -2C10.9837 -2 -2 10.9837 -2 27H2C2 13.1929 13.1929 2 27 2V-2Z" fill="#E1E1E1" mask="url(#path-1-inside-1_812_40787)"/>
<defs>
<clipPath id="clip0_812_40787">
<path d="M0 27C0 12.0883 12.0883 0 27 0C41.9117 0 54 12.0883 54 27C54 41.9117 41.9117 54 27 54C12.0883 54 0 41.9117 0 27Z" fill="white"/>
</clipPath>
</defs>
</svg>
