<svg width="34" height="34" viewBox="0 0 34 34" fill="none" xmlns="http://www.w3.org/2000/svg">
<path d="M12.8573 21.143L21.143 12.8573M15.6192 8.71448L16.2586 7.97429C17.5536 6.6794 19.3101 5.95202 21.1414 5.95215C22.9728 5.95228 24.7291 6.67991 26.024 7.97498C27.3189 9.27004 28.0463 11.0265 28.0461 12.8578C28.046 14.6892 27.3184 16.4455 26.0233 17.7404L25.2859 18.3811M18.3811 25.2859L17.8329 26.0233C16.5223 27.3183 14.7542 28.0444 12.9118 28.0444C11.0695 28.0444 9.30135 27.3183 7.99082 26.0233C7.34469 25.385 6.8317 24.6247 6.48158 23.7866C6.13146 22.9485 5.95117 22.0493 5.95117 21.141C5.95117 20.2327 6.13146 19.3334 6.48158 18.4953C6.8317 17.6572 7.34469 16.897 7.99082 16.2586L8.71444 15.6192" stroke="#C7C7CA" stroke-width="2.7619" stroke-linecap="round" stroke-linejoin="round"/>
</svg>
