<svg width="23" height="19" viewBox="0 0 23 19" fill="none" xmlns="http://www.w3.org/2000/svg">
<path fill-rule="evenodd" clip-rule="evenodd" d="M2.05382 8.54863C7.8085 6.04141 11.6459 4.38849 13.5659 3.58989C19.048 1.3097 20.1871 0.913609 20.9296 0.90053C21.0929 0.897653 21.458 0.938124 21.6945 1.13004C21.8942 1.29208 21.9491 1.51099 21.9754 1.66463C22.0017 1.81827 22.0345 2.16826 22.0084 2.44173C21.7114 5.56313 20.4259 13.1379 19.772 16.634C19.4953 18.1133 18.9504 18.6093 18.4229 18.6578C17.2766 18.7633 16.4061 17.9002 15.2958 17.1724C13.5584 16.0335 12.5769 15.3245 10.8904 14.2132C8.94143 12.9289 10.2049 12.223 11.3156 11.0693C11.6063 10.7674 16.6571 6.17326 16.7549 5.7565C16.7671 5.70438 16.7785 5.51009 16.663 5.4075C16.5476 5.30491 16.3773 5.33999 16.2543 5.36789C16.0801 5.40744 13.3045 7.24195 7.92777 10.8714C7.13995 11.4124 6.42637 11.676 5.78702 11.6622C5.08219 11.6469 3.72639 11.2637 2.71848 10.936C1.48225 10.5342 0.499715 10.3217 0.585272 9.63925C0.629835 9.28378 1.11935 8.92024 2.05382 8.54863Z" fill="#0638BD"/>
</svg>
