<svg width="54" height="54" viewBox="0 0 54 54" fill="none" xmlns="http://www.w3.org/2000/svg">
<g clip-path="url(#clip0_812_41042)">
<mask id="path-1-inside-1_812_41042" fill="white">
<path d="M0 27C0 12.0883 12.0883 0 27 0C41.9117 0 54 12.0883 54 27C54 41.9117 41.9117 54 27 54C12.0883 54 0 41.9117 0 27Z"/>
</mask>
<path d="M45.0352 0H8.96484C4.0137 0 0 4.11003 0 9.18V44.7336C0 49.8036 4.0137 53.9136 8.96484 53.9136H45.0352C49.9863 53.9136 54 49.8036 54 44.7336V9.18C54 4.11003 49.9863 0 45.0352 0Z" fill="white"/>
<g clip-path="url(#clip1_812_41042)">
<mask id="mask0_812_41042" style="mask-type:luminance" maskUnits="userSpaceOnUse" x="-1" y="6" width="57" height="40">
<path d="M55.5359 6.91174H-0.143555V45.1441H55.5359V6.91174Z" fill="white"/>
</mask>
<g mask="url(#mask0_812_41042)">
<path d="M15.1432 17.9061H17.3482V19.8712H15.1432V22.837C15.1432 23.8785 15.8287 24.2812 16.7522 24.2812C17.002 24.2762 17.2509 24.251 17.4967 24.206V26.2015C17.0715 26.2965 16.6366 26.3416 16.2009 26.3358C14.0122 26.3358 12.8344 25.04 12.8344 22.9855V19.8712H11.6729V17.9061H12.8506V16.0001H15.1432V17.9061Z" fill="#0638BD"/>
<path d="M42.1467 20.6468V26.1574H39.7647V21.3323C39.7647 20.3152 39.3172 19.8575 38.4527 19.8575C38.2634 19.8492 38.0746 19.8803 37.898 19.9489C37.7215 20.0175 37.5611 20.122 37.4272 20.256C37.2933 20.3899 37.1887 20.5502 37.1201 20.7268C37.0515 20.9033 37.0204 21.0922 37.0287 21.2815V26.1635H34.6406V17.9068H36.4877L36.7257 19.0683H36.7806C37.0429 18.6456 37.4095 18.2975 37.8452 18.0574C38.2808 17.8173 38.7709 17.6933 39.2684 17.6972C41.0544 17.6972 42.1569 18.7998 42.1569 20.6468" fill="#0638BD"/>
<path d="M11.3836 28.4782C11.6651 28.0395 12.0528 27.679 12.5108 27.4301C12.9689 27.1812 13.4823 27.0519 14.0036 27.0543C15.9259 27.0543 17.6244 28.7529 17.6244 31.3891C17.6244 34.0254 15.8282 35.7301 13.9141 35.7301C13.3782 35.7364 12.8497 35.6041 12.38 35.3461C11.9103 35.088 11.5152 34.713 11.233 34.2573L10.995 35.5226H8.99951V23.5616H11.3836V28.4782ZM13.2753 33.5861C14.3921 33.5861 15.2098 32.6768 15.2098 31.4115C15.2098 30.1463 14.3962 29.2065 13.2591 29.2065C12.122 29.2065 11.3531 30.1158 11.3531 31.3973C11.3531 32.6788 12.1667 33.5861 13.2753 33.5861Z" fill="#0638BD"/>
<path d="M46.3921 30.0565V35.5223H44.008V30.5488C44.008 29.6537 43.711 29.2225 42.9075 29.2225C42.104 29.2225 41.7012 29.788 41.7012 30.4593V35.5223H39.3172V30.5488C39.3172 29.6537 39.0202 29.2225 38.2147 29.2225C37.4091 29.2225 37.0226 29.849 37.0226 30.563V35.5223H34.6406V27.2717H36.4877L36.7257 28.417H36.7806C37.0019 28.0028 37.3328 27.6574 37.7371 27.4185C38.1414 27.1796 38.6035 27.0563 39.0731 27.0622C40.2366 27.0622 40.9649 27.6135 41.3819 28.4638C41.9189 27.5992 42.7082 27.0622 43.7517 27.0622C45.554 27.0622 46.3961 28.2542 46.3961 30.0565" fill="#0638BD"/>
<path d="M18.4404 22.0641C18.4396 21.1594 18.7072 20.2748 19.2093 19.5222C19.7113 18.7697 20.4253 18.1829 21.261 17.8362C22.0966 17.4896 23.0163 17.3986 23.9036 17.5747C24.791 17.7509 25.6062 18.1863 26.246 18.8258C26.8859 19.4654 27.3216 20.2804 27.4982 21.1676C27.6747 22.0549 27.5841 22.9746 27.2378 23.8104C26.8915 24.6462 26.3051 25.3605 25.5527 25.8629C24.8004 26.3653 23.9159 26.6332 23.0112 26.6328C21.7993 26.6328 20.637 26.1515 19.7799 25.2948C18.9228 24.438 18.441 23.276 18.4404 22.0641Z" fill="#0638BD"/>
<path d="M28.3896 22.0644C28.3892 21.5505 28.5413 21.0481 28.8264 20.6207C29.1116 20.1932 29.5172 19.86 29.9918 19.663C30.4664 19.4661 30.9888 19.4144 31.4928 19.5144C31.9968 19.6144 32.4599 19.8616 32.8234 20.2248C33.1869 20.588 33.4345 21.0509 33.5349 21.5548C33.6353 22.0588 33.5839 22.5812 33.3874 23.056C33.1908 23.5307 32.8579 23.9366 32.4307 24.2221C32.0034 24.5076 31.5011 24.66 30.9873 24.66C30.2987 24.66 29.6383 24.3866 29.1512 23.8999C28.6641 23.4132 28.3902 22.753 28.3896 22.0644Z" fill="#0638BD"/>
<path d="M33.5846 31.4295C33.5846 32.3339 33.3164 33.218 32.814 33.97C32.3115 34.722 31.5973 35.3081 30.7617 35.6543C29.9262 36.0004 29.0067 36.0909 28.1197 35.9145C27.2326 35.738 26.4178 35.3025 25.7783 34.663C25.1388 34.0235 24.7033 33.2087 24.5268 32.3216C24.3504 31.4346 24.4409 30.5151 24.7871 29.6796C25.1332 28.844 25.7193 28.1298 26.4713 27.6273C27.2233 27.1249 28.1074 26.8567 29.0118 26.8567C29.6124 26.8564 30.2071 26.9745 30.7621 27.2042C31.317 27.4339 31.8212 27.7708 32.2459 28.1954C32.6705 28.6201 33.0074 29.1243 33.2371 29.6793C33.4668 30.2342 33.5849 30.8289 33.5846 31.4295Z" fill="#0638BD"/>
<path d="M23.6357 31.4296C23.6357 31.9433 23.4834 32.4455 23.1979 32.8727C22.9125 33.2999 22.5068 33.6328 22.0321 33.8295C21.5575 34.0261 21.0352 34.0775 20.5313 33.9773C20.0274 33.877 19.5645 33.6296 19.2013 33.2664C18.838 32.9031 18.5906 32.4402 18.4903 31.9363C18.3901 31.4324 18.4416 30.9101 18.6382 30.4355C18.8348 29.9608 19.1677 29.5551 19.5949 29.2697C20.0221 28.9843 20.5243 28.8319 21.0381 28.8319C21.3793 28.8316 21.7172 28.8987 22.0325 29.0291C22.3477 29.1595 22.6342 29.3509 22.8755 29.5921C23.1167 29.8334 23.3081 30.1199 23.4385 30.4352C23.569 30.7504 23.636 31.0883 23.6357 31.4296Z" fill="#0638BD"/>
</g>
</g>
</g>
<path d="M27 52C13.1929 52 2 40.8071 2 27H-2C-2 43.0163 10.9837 56 27 56V52ZM52 27C52 40.8071 40.8071 52 27 52V56C43.0163 56 56 43.0163 56 27H52ZM27 2C40.8071 2 52 13.1929 52 27H56C56 10.9837 43.0163 -2 27 -2V2ZM27 -2C10.9837 -2 -2 10.9837 -2 27H2C2 13.1929 13.1929 2 27 2V-2Z" fill="#E1E1E1" mask="url(#path-1-inside-1_812_41042)"/>
<defs>
<clipPath id="clip0_812_41042">
<path d="M0 27C0 12.0883 12.0883 0 27 0C41.9117 0 54 12.0883 54 27C54 41.9117 41.9117 54 27 54C12.0883 54 0 41.9117 0 27Z" fill="white"/>
</clipPath>
<clipPath id="clip1_812_41042">
<rect width="37.3922" height="20" fill="white" transform="translate(9 16)"/>
</clipPath>
</defs>
</svg>
