<svg width="54" height="54" viewBox="0 0 54 54" fill="none" xmlns="http://www.w3.org/2000/svg">
<g clip-path="url(#clip0_812_40698)">
<mask id="path-1-inside-1_812_40698" fill="white">
<path d="M0 27C0 12.0883 12.0883 0 27 0C41.9117 0 54 12.0883 54 27C54 41.9117 41.9117 54 27 54C12.0883 54 0 41.9117 0 27Z"/>
</mask>
<path d="M45.0352 0H8.96484C4.0137 0 0 4.11003 0 9.18V44.7336C0 49.8036 4.0137 53.9136 8.96484 53.9136H45.0352C49.9863 53.9136 54 49.8036 54 44.7336V9.18C54 4.11003 49.9863 0 45.0352 0Z" fill="white"/>
<g clip-path="url(#clip1_812_40698)">
<path d="M29.2583 26.7188L35.1069 16.6197L37.933 26.7188L35.1069 36.8156L29.2583 26.7188ZM26.4077 28.3589L32.2572 38.4565L22.0699 35.8466L14.7103 28.3589H26.4077ZM32.2558 14.9783L26.4077 25.0774H14.7103L22.0699 17.5893L32.2558 14.9783ZM40.6051 23.282L37.0371 10.0077L23.7193 13.5652L21.7479 17.0312L17.7476 17.0025L7.99976 26.7198L17.7476 36.4347H17.748L21.7466 36.4051L23.7208 39.8711L37.0371 43.4281L40.6051 30.1562L38.5789 26.7188L40.6051 23.282Z" fill="#0638BD"/>
</g>
</g>
<path d="M27 52C13.1929 52 2 40.8071 2 27H-2C-2 43.0163 10.9837 56 27 56V52ZM52 27C52 40.8071 40.8071 52 27 52V56C43.0163 56 56 43.0163 56 27H52ZM27 2C40.8071 2 52 13.1929 52 27H56C56 10.9837 43.0163 -2 27 -2V2ZM27 -2C10.9837 -2 -2 10.9837 -2 27H2C2 13.1929 13.1929 2 27 2V-2Z" fill="#E1E1E1" mask="url(#path-1-inside-1_812_40698)"/>
<defs>
<clipPath id="clip0_812_40698">
<path d="M0 27C0 12.0883 12.0883 0 27 0C41.9117 0 54 12.0883 54 27C54 41.9117 41.9117 54 27 54C12.0883 54 0 41.9117 0 27Z" fill="white"/>
</clipPath>
<clipPath id="clip1_812_40698">
<rect width="32.6129" height="33.5047" fill="white" transform="translate(8 10)"/>
</clipPath>
</defs>
</svg>
