<svg width="54" height="54" viewBox="0 0 54 54" fill="none" xmlns="http://www.w3.org/2000/svg">
<g clip-path="url(#clip0_399_40898)">
<mask id="path-1-inside-1_399_40898" fill="white">
<path d="M0 27C0 12.0883 12.0883 0 27 0C41.9117 0 54 12.0883 54 27C54 41.9117 41.9117 54 27 54C12.0883 54 0 41.9117 0 27Z"/>
</mask>
<path d="M45.0352 0H8.96484C4.0137 0 0 4.11003 0 9.18V44.7336C0 49.8036 4.0137 53.9136 8.96484 53.9136H45.0352C49.9863 53.9136 54 49.8036 54 44.7336V9.18C54 4.11003 49.9863 0 45.0352 0Z" fill="white"/>
<path fill-rule="evenodd" clip-rule="evenodd" d="M39.7558 30.6152C39.3735 32.4598 37.6717 37.1911 32.2481 39.7539L30.0715 37.3053L26.3986 41C24.3073 40.9719 22.2508 40.4606 20.3899 39.506C18.5289 38.5515 16.9139 37.1795 15.671 35.4974C16.0617 35.619 16.4653 35.6948 16.8735 35.7232C17.4748 35.7341 18.1264 35.5138 18.1264 34.4989V24.5345C18.1354 24.278 18.0841 24.0231 17.9767 23.7901C17.8693 23.5571 17.7087 23.3525 17.5079 23.1929C17.307 23.0332 17.0716 22.9228 16.8203 22.8707C16.5691 22.8185 16.3092 22.826 16.0614 22.8925C14.361 23.2816 13.0006 27.5272 13.0006 27.5272C12.9817 25.5666 13.3901 23.6255 14.1972 21.8386C15.0044 20.0518 16.1911 18.4623 17.6748 17.1805C20.2077 15.0339 22.6822 14.2911 24.5621 14C22.7053 15.0583 21.6605 16.786 21.6605 18.2361C21.6605 20.5609 23.0644 20.2861 23.4807 19.9433V33.3998C23.551 33.5689 23.6424 33.7284 23.7527 33.8745C23.9387 34.1317 24.1836 34.3405 24.4669 34.4835C24.7503 34.6265 25.0637 34.6994 25.3811 34.6962C26.7877 34.6962 28.6119 33.091 28.6119 33.091V22.1947C28.6119 21.086 27.7766 19.7461 26.94 19.289C26.94 19.289 28.4881 19.0169 29.6852 19.9297C29.9097 19.6548 30.1485 19.3919 30.4007 19.1421C33.184 16.4078 35.8108 15.6324 37.9982 15.2433C37.9982 15.2433 34.0165 18.3721 34.0165 22.562C34.0165 25.6812 34.0968 33.2869 34.0968 33.2869C35.5782 34.7098 37.7724 32.6557 39.7558 30.6152Z" fill="#0638BD"/>
</g>
<path d="M27 52C13.1929 52 2 40.8071 2 27H-2C-2 43.0163 10.9837 56 27 56V52ZM52 27C52 40.8071 40.8071 52 27 52V56C43.0163 56 56 43.0163 56 27H52ZM27 2C40.8071 2 52 13.1929 52 27H56C56 10.9837 43.0163 -2 27 -2V2ZM27 -2C10.9837 -2 -2 10.9837 -2 27H2C2 13.1929 13.1929 2 27 2V-2Z" fill="#E1E1E1" mask="url(#path-1-inside-1_399_40898)"/>
<defs>
<clipPath id="clip0_399_40898">
<path d="M0 27C0 12.0883 12.0883 0 27 0C41.9117 0 54 12.0883 54 27C54 41.9117 41.9117 54 27 54C12.0883 54 0 41.9117 0 27Z" fill="white"/>
</clipPath>
</defs>
</svg>
