<svg width="36" height="36" viewBox="0 0 36 36" fill="none" xmlns="http://www.w3.org/2000/svg">
<g clip-path="url(#clip0_576_17345)">
<mask id="path-1-inside-1_576_17345" fill="white">
<path d="M0 18C0 8.05887 8.05887 0 18 0V0C27.9411 0 36 8.05887 36 18V18C36 27.9411 27.9411 36 18 36V36C8.05887 36 0 27.9411 0 18V18Z"/>
</mask>
<path d="M30.0234 0H5.97656C2.6758 0 0 2.74002 0 6.12V29.8224C0 33.2024 2.6758 35.9424 5.97656 35.9424H30.0234C33.3242 35.9424 36 33.2024 36 29.8224V6.12C36 2.74002 33.3242 0 30.0234 0Z" fill="white"/>
<path fill-rule="evenodd" clip-rule="evenodd" d="M19.8944 8.00214C20.8851 7.94581 21.5971 9.01523 21.8956 9.73327C22.0658 10.1416 22.2081 10.8074 21.7979 11.0093C21.4773 11.1674 21.0937 11.1919 20.6399 11.2514C19.5564 11.3922 18.8676 11.1336 18.4756 10.478C18.3632 10.2903 18.2456 9.95921 18.3154 9.63047C18.452 8.98188 18.8529 8.46514 19.3543 8.17295C19.4477 8.11811 19.6821 8.01426 19.8944 8.00214Z" fill="#0638BD"/>
<path d="M16.8587 11.9082C17.4391 11.9091 18.0457 12.0032 18.611 12.1534C19.2296 12.3183 19.8111 12.5363 20.2985 12.7306C21.2323 13.1032 21.9167 13.3752 21.9167 13.3752C21.9167 13.3752 22.3883 13.0494 22.568 12.9283C23.0033 12.6603 23.4083 12.3904 23.9448 12.2735C24.1183 12.2359 24.4415 12.2344 24.6033 12.2631C25.2385 12.3761 25.624 12.6527 25.6778 13.1916C25.7506 13.9158 24.8258 14.6824 24.6083 14.8867C24.4138 15.069 23.4812 15.9499 22.3344 16.0419C21.7763 16.087 21.2487 15.9033 20.8691 15.7438C20.7424 15.6904 20.4124 15.526 20.4124 15.526C20.4124 15.526 19.9027 16.0112 19.4349 16.5012C18.9649 16.9932 17.8005 18.4179 17.8005 18.4207C19.0856 18.3283 20.5615 18.7384 21.4974 19.0998C23.6985 19.95 25.8223 21.446 27.2574 23.4692C27.7501 24.1647 28.22 24.9321 28.5757 25.7556C28.6732 25.9818 28.8655 26.461 28.6943 26.6655C28.5167 26.877 28.1076 26.626 27.8771 26.5137C27.458 26.3104 26.565 25.6279 25.9196 25.1103C25.6245 24.8732 25.1687 24.4637 25.0893 24.1021C25.0389 23.8705 25.1793 23.5679 25.2277 23.3307C25.3056 22.9512 25.0843 22.6581 24.9312 22.4673C24.5718 22.0191 23.9555 21.7392 23.3759 21.512C22.2251 21.0597 21.4185 20.9152 19.4677 20.6683C17.5172 20.4215 16.2116 20.5769 16.067 20.5826C15.9167 20.7611 15.7235 20.9909 15.5731 21.1694C15.1581 21.5996 13.614 23.1242 13.1675 23.4626C12.3688 24.0677 11.4765 24.6546 10.5316 25.1103C8.71273 25.9871 7.55264 25.8486 7.42062 25.7033C7.289 25.5582 7.28393 25.1452 7.5609 24.5777C7.84041 24.0056 8.50504 23.2636 8.81151 22.9487C9.11742 22.6332 9.68609 22.1114 10.4589 21.5251C11.5267 20.7145 13.1507 19.8985 13.9583 19.5021C15.085 18.9483 16.2127 18.6824 16.4957 18.6057C18.0447 16.4769 19.6852 15.1259 19.6852 15.1259C19.6852 15.1259 19.0272 14.7051 18.7494 14.5196C18.1448 14.1159 17.549 13.6836 16.8515 13.3793C16.4123 13.1881 15.6868 12.9177 15.0588 13.0767C14.286 13.2719 13.2685 13.8521 12.8601 14.353C12.7242 14.5194 12.6091 14.8238 12.5636 15.0828C12.5273 15.2872 12.5835 15.5852 12.5283 15.732C12.4314 15.9893 12.0118 16.217 11.685 16.3603C11.2409 16.5547 10.7847 16.7554 10.2787 16.8836C10.1081 16.9265 9.8074 17.0076 9.71442 16.8815C9.591 16.7139 9.78315 16.4627 9.84847 16.3472C10.114 15.876 10.4328 15.4807 10.7687 15.0798C11.7926 13.8584 12.9073 12.9481 14.4724 12.325C14.8653 12.1687 15.6195 11.9064 16.8587 11.9082ZM24.5064 12.9681C24.2397 12.9932 23.9471 13.043 23.7062 13.137C23.3506 13.2752 23.0342 13.4428 22.7081 13.6398C23.4274 13.8583 24.2548 13.9824 24.9048 13.5889C25.063 13.4928 25.2055 13.3634 25.2123 13.2096C25.2204 13.0362 24.7727 12.9432 24.5064 12.9681ZM14.7733 20.7409C14.7733 20.7409 14.4131 20.8068 14.2195 20.8461C14.0263 20.8858 13.5801 21.0134 13.281 21.0912C12.4626 21.3035 10.3168 22.1363 9.35173 23.1001C9.03683 23.4145 8.78962 23.7896 8.60624 24.2363C8.55592 24.3589 8.45384 24.6432 8.55641 24.814C8.64378 24.9593 8.90311 24.9913 9.12547 24.9426C9.58219 24.8425 9.99387 24.6545 10.3603 24.4526C11.7374 23.693 13.0599 22.59 13.8815 21.703C14.1476 21.4156 14.4882 21.0612 14.5845 20.9541C14.6809 20.8461 14.7733 20.7409 14.7733 20.7409Z" fill="#0638BD"/>
</g>
<path d="M18 34C9.16344 34 2 26.8366 2 18H-2C-2 29.0457 6.95431 38 18 38V34ZM34 18C34 26.8366 26.8366 34 18 34V38C29.0457 38 38 29.0457 38 18H34ZM18 2C26.8366 2 34 9.16344 34 18H38C38 6.95431 29.0457 -2 18 -2V2ZM18 -2C6.95431 -2 -2 6.95431 -2 18H2C2 9.16344 9.16344 2 18 2V-2Z" fill="#E1E1E1" mask="url(#path-1-inside-1_576_17345)"/>
<defs>
<clipPath id="clip0_576_17345">
<path d="M0 18C0 8.05887 8.05887 0 18 0V0C27.9411 0 36 8.05887 36 18V18C36 27.9411 27.9411 36 18 36V36C8.05887 36 0 27.9411 0 18V18Z" fill="white"/>
</clipPath>
</defs>
</svg>
